G75*
G70*
%OFA0B0*%
%FSLAX24Y24*%
%IPPOS*%
%LPD*%
%AMOC8*
5,1,8,0,0,1.08239X$1,22.5*
%
%ADD10C,0.0000*%
D10*
X000141Y000474D02*
X000141Y031474D01*
X026141Y031474D01*
X026141Y000474D01*
X000141Y000474D01*
X005511Y001724D02*
X005513Y001774D01*
X005519Y001824D01*
X005529Y001873D01*
X005543Y001921D01*
X005560Y001968D01*
X005581Y002013D01*
X005606Y002057D01*
X005634Y002098D01*
X005666Y002137D01*
X005700Y002174D01*
X005737Y002208D01*
X005777Y002238D01*
X005819Y002265D01*
X005863Y002289D01*
X005909Y002310D01*
X005956Y002326D01*
X006004Y002339D01*
X006054Y002348D01*
X006103Y002353D01*
X006154Y002354D01*
X006204Y002351D01*
X006253Y002344D01*
X006302Y002333D01*
X006350Y002318D01*
X006396Y002300D01*
X006441Y002278D01*
X006484Y002252D01*
X006525Y002223D01*
X006564Y002191D01*
X006600Y002156D01*
X006632Y002118D01*
X006662Y002078D01*
X006689Y002035D01*
X006712Y001991D01*
X006731Y001945D01*
X006747Y001897D01*
X006759Y001848D01*
X006767Y001799D01*
X006771Y001749D01*
X006771Y001699D01*
X006767Y001649D01*
X006759Y001600D01*
X006747Y001551D01*
X006731Y001503D01*
X006712Y001457D01*
X006689Y001413D01*
X006662Y001370D01*
X006632Y001330D01*
X006600Y001292D01*
X006564Y001257D01*
X006525Y001225D01*
X006484Y001196D01*
X006441Y001170D01*
X006396Y001148D01*
X006350Y001130D01*
X006302Y001115D01*
X006253Y001104D01*
X006204Y001097D01*
X006154Y001094D01*
X006103Y001095D01*
X006054Y001100D01*
X006004Y001109D01*
X005956Y001122D01*
X005909Y001138D01*
X005863Y001159D01*
X005819Y001183D01*
X005777Y001210D01*
X005737Y001240D01*
X005700Y001274D01*
X005666Y001311D01*
X005634Y001350D01*
X005606Y001391D01*
X005581Y001435D01*
X005560Y001480D01*
X005543Y001527D01*
X005529Y001575D01*
X005519Y001624D01*
X005513Y001674D01*
X005511Y001724D01*
X014598Y002474D02*
X014600Y002500D01*
X014606Y002526D01*
X014616Y002551D01*
X014629Y002574D01*
X014645Y002594D01*
X014665Y002612D01*
X014687Y002627D01*
X014710Y002639D01*
X014736Y002647D01*
X014762Y002651D01*
X014788Y002651D01*
X014814Y002647D01*
X014840Y002639D01*
X014864Y002627D01*
X014885Y002612D01*
X014905Y002594D01*
X014921Y002574D01*
X014934Y002551D01*
X014944Y002526D01*
X014950Y002500D01*
X014952Y002474D01*
X014950Y002448D01*
X014944Y002422D01*
X014934Y002397D01*
X014921Y002374D01*
X014905Y002354D01*
X014885Y002336D01*
X014863Y002321D01*
X014840Y002309D01*
X014814Y002301D01*
X014788Y002297D01*
X014762Y002297D01*
X014736Y002301D01*
X014710Y002309D01*
X014686Y002321D01*
X014665Y002336D01*
X014645Y002354D01*
X014629Y002374D01*
X014616Y002397D01*
X014606Y002422D01*
X014600Y002448D01*
X014598Y002474D01*
X016330Y002474D02*
X016332Y002500D01*
X016338Y002526D01*
X016348Y002551D01*
X016361Y002574D01*
X016377Y002594D01*
X016397Y002612D01*
X016419Y002627D01*
X016442Y002639D01*
X016468Y002647D01*
X016494Y002651D01*
X016520Y002651D01*
X016546Y002647D01*
X016572Y002639D01*
X016596Y002627D01*
X016617Y002612D01*
X016637Y002594D01*
X016653Y002574D01*
X016666Y002551D01*
X016676Y002526D01*
X016682Y002500D01*
X016684Y002474D01*
X016682Y002448D01*
X016676Y002422D01*
X016666Y002397D01*
X016653Y002374D01*
X016637Y002354D01*
X016617Y002336D01*
X016595Y002321D01*
X016572Y002309D01*
X016546Y002301D01*
X016520Y002297D01*
X016494Y002297D01*
X016468Y002301D01*
X016442Y002309D01*
X016418Y002321D01*
X016397Y002336D01*
X016377Y002354D01*
X016361Y002374D01*
X016348Y002397D01*
X016338Y002422D01*
X016332Y002448D01*
X016330Y002474D01*
X019511Y001724D02*
X019513Y001774D01*
X019519Y001824D01*
X019529Y001873D01*
X019543Y001921D01*
X019560Y001968D01*
X019581Y002013D01*
X019606Y002057D01*
X019634Y002098D01*
X019666Y002137D01*
X019700Y002174D01*
X019737Y002208D01*
X019777Y002238D01*
X019819Y002265D01*
X019863Y002289D01*
X019909Y002310D01*
X019956Y002326D01*
X020004Y002339D01*
X020054Y002348D01*
X020103Y002353D01*
X020154Y002354D01*
X020204Y002351D01*
X020253Y002344D01*
X020302Y002333D01*
X020350Y002318D01*
X020396Y002300D01*
X020441Y002278D01*
X020484Y002252D01*
X020525Y002223D01*
X020564Y002191D01*
X020600Y002156D01*
X020632Y002118D01*
X020662Y002078D01*
X020689Y002035D01*
X020712Y001991D01*
X020731Y001945D01*
X020747Y001897D01*
X020759Y001848D01*
X020767Y001799D01*
X020771Y001749D01*
X020771Y001699D01*
X020767Y001649D01*
X020759Y001600D01*
X020747Y001551D01*
X020731Y001503D01*
X020712Y001457D01*
X020689Y001413D01*
X020662Y001370D01*
X020632Y001330D01*
X020600Y001292D01*
X020564Y001257D01*
X020525Y001225D01*
X020484Y001196D01*
X020441Y001170D01*
X020396Y001148D01*
X020350Y001130D01*
X020302Y001115D01*
X020253Y001104D01*
X020204Y001097D01*
X020154Y001094D01*
X020103Y001095D01*
X020054Y001100D01*
X020004Y001109D01*
X019956Y001122D01*
X019909Y001138D01*
X019863Y001159D01*
X019819Y001183D01*
X019777Y001210D01*
X019737Y001240D01*
X019700Y001274D01*
X019666Y001311D01*
X019634Y001350D01*
X019606Y001391D01*
X019581Y001435D01*
X019560Y001480D01*
X019543Y001527D01*
X019529Y001575D01*
X019519Y001624D01*
X019513Y001674D01*
X019511Y001724D01*
X019511Y025224D02*
X019513Y025274D01*
X019519Y025324D01*
X019529Y025373D01*
X019543Y025421D01*
X019560Y025468D01*
X019581Y025513D01*
X019606Y025557D01*
X019634Y025598D01*
X019666Y025637D01*
X019700Y025674D01*
X019737Y025708D01*
X019777Y025738D01*
X019819Y025765D01*
X019863Y025789D01*
X019909Y025810D01*
X019956Y025826D01*
X020004Y025839D01*
X020054Y025848D01*
X020103Y025853D01*
X020154Y025854D01*
X020204Y025851D01*
X020253Y025844D01*
X020302Y025833D01*
X020350Y025818D01*
X020396Y025800D01*
X020441Y025778D01*
X020484Y025752D01*
X020525Y025723D01*
X020564Y025691D01*
X020600Y025656D01*
X020632Y025618D01*
X020662Y025578D01*
X020689Y025535D01*
X020712Y025491D01*
X020731Y025445D01*
X020747Y025397D01*
X020759Y025348D01*
X020767Y025299D01*
X020771Y025249D01*
X020771Y025199D01*
X020767Y025149D01*
X020759Y025100D01*
X020747Y025051D01*
X020731Y025003D01*
X020712Y024957D01*
X020689Y024913D01*
X020662Y024870D01*
X020632Y024830D01*
X020600Y024792D01*
X020564Y024757D01*
X020525Y024725D01*
X020484Y024696D01*
X020441Y024670D01*
X020396Y024648D01*
X020350Y024630D01*
X020302Y024615D01*
X020253Y024604D01*
X020204Y024597D01*
X020154Y024594D01*
X020103Y024595D01*
X020054Y024600D01*
X020004Y024609D01*
X019956Y024622D01*
X019909Y024638D01*
X019863Y024659D01*
X019819Y024683D01*
X019777Y024710D01*
X019737Y024740D01*
X019700Y024774D01*
X019666Y024811D01*
X019634Y024850D01*
X019606Y024891D01*
X019581Y024935D01*
X019560Y024980D01*
X019543Y025027D01*
X019529Y025075D01*
X019519Y025124D01*
X019513Y025174D01*
X019511Y025224D01*
X005511Y025224D02*
X005513Y025274D01*
X005519Y025324D01*
X005529Y025373D01*
X005543Y025421D01*
X005560Y025468D01*
X005581Y025513D01*
X005606Y025557D01*
X005634Y025598D01*
X005666Y025637D01*
X005700Y025674D01*
X005737Y025708D01*
X005777Y025738D01*
X005819Y025765D01*
X005863Y025789D01*
X005909Y025810D01*
X005956Y025826D01*
X006004Y025839D01*
X006054Y025848D01*
X006103Y025853D01*
X006154Y025854D01*
X006204Y025851D01*
X006253Y025844D01*
X006302Y025833D01*
X006350Y025818D01*
X006396Y025800D01*
X006441Y025778D01*
X006484Y025752D01*
X006525Y025723D01*
X006564Y025691D01*
X006600Y025656D01*
X006632Y025618D01*
X006662Y025578D01*
X006689Y025535D01*
X006712Y025491D01*
X006731Y025445D01*
X006747Y025397D01*
X006759Y025348D01*
X006767Y025299D01*
X006771Y025249D01*
X006771Y025199D01*
X006767Y025149D01*
X006759Y025100D01*
X006747Y025051D01*
X006731Y025003D01*
X006712Y024957D01*
X006689Y024913D01*
X006662Y024870D01*
X006632Y024830D01*
X006600Y024792D01*
X006564Y024757D01*
X006525Y024725D01*
X006484Y024696D01*
X006441Y024670D01*
X006396Y024648D01*
X006350Y024630D01*
X006302Y024615D01*
X006253Y024604D01*
X006204Y024597D01*
X006154Y024594D01*
X006103Y024595D01*
X006054Y024600D01*
X006004Y024609D01*
X005956Y024622D01*
X005909Y024638D01*
X005863Y024659D01*
X005819Y024683D01*
X005777Y024710D01*
X005737Y024740D01*
X005700Y024774D01*
X005666Y024811D01*
X005634Y024850D01*
X005606Y024891D01*
X005581Y024935D01*
X005560Y024980D01*
X005543Y025027D01*
X005529Y025075D01*
X005519Y025124D01*
X005513Y025174D01*
X005511Y025224D01*
M02*
