G75*
G70*
%OFA0B0*%
%FSLAX24Y24*%
%IPPOS*%
%LPD*%
%AMOC8*
5,1,8,0,0,1.08239X$1,22.5*
%
%ADD10OC8,0.0560*%
%ADD11C,0.0520*%
%ADD12R,0.0600X0.0600*%
%ADD13C,0.0600*%
%ADD14C,0.0705*%
%ADD15R,0.0560X0.0560*%
%ADD16C,0.0560*%
%ADD17R,0.0433X0.0394*%
%ADD18R,0.0394X0.0433*%
%ADD19C,0.0476*%
%ADD20OC8,0.0705*%
%ADD21R,0.0354X0.0472*%
%ADD22OC8,0.0630*%
%ADD23C,0.0630*%
%ADD24R,0.0880X0.0480*%
%ADD25R,0.0866X0.1417*%
%ADD26R,0.0600X0.0300*%
%ADD27R,0.0472X0.0472*%
%ADD28C,0.0079*%
%ADD29C,0.0240*%
%ADD30C,0.0551*%
%ADD31C,0.0394*%
%ADD32C,0.0200*%
%ADD33C,0.0700*%
%ADD34C,0.0320*%
%ADD35C,0.0120*%
%ADD36C,0.0300*%
%ADD37C,0.0160*%
%ADD38C,0.0100*%
%ADD39C,0.0080*%
%ADD40C,0.0433*%
%ADD41C,0.0472*%
D10*
X007641Y004974D03*
X007641Y005974D03*
X008641Y005974D03*
X008641Y004974D03*
X010141Y005474D03*
X010141Y004474D03*
X011141Y004474D03*
X011141Y005474D03*
X012141Y005474D03*
X012141Y004474D03*
X013141Y004474D03*
X013141Y005474D03*
X014141Y005474D03*
X014141Y004474D03*
X015141Y004474D03*
X015141Y005474D03*
X016141Y005474D03*
X016141Y004474D03*
X015641Y022474D03*
X015641Y023474D03*
X014641Y023474D03*
X014641Y022474D03*
X013641Y022474D03*
X013641Y023474D03*
X012641Y023474D03*
X012641Y022474D03*
X011641Y022474D03*
X011641Y023474D03*
X010641Y023474D03*
X010641Y022474D03*
D11*
X008641Y016224D03*
X008641Y014324D03*
D12*
X003141Y013974D03*
X002141Y013974D03*
X001141Y013974D03*
X001141Y022974D03*
X002141Y022974D03*
X003141Y022974D03*
X004141Y022974D03*
X001141Y024974D03*
X002641Y027974D03*
X022141Y022974D03*
X023141Y022974D03*
X024141Y022974D03*
X025141Y022974D03*
X025141Y024974D03*
X023641Y024974D03*
X023141Y013974D03*
X024141Y013974D03*
X025141Y013974D03*
D13*
X025141Y012974D03*
X024141Y012974D03*
X023141Y012974D03*
X023141Y011974D03*
X023141Y010974D03*
X023141Y009974D03*
X023141Y008974D03*
X023141Y007974D03*
X023141Y006974D03*
X024141Y006974D03*
X024141Y007974D03*
X024141Y008974D03*
X024141Y009974D03*
X024141Y010974D03*
X024141Y011974D03*
X025141Y011974D03*
X025141Y010974D03*
X025141Y009974D03*
X025141Y008974D03*
X025141Y007974D03*
X025141Y006974D03*
X025141Y005974D03*
X024141Y005974D03*
X024141Y004974D03*
X025141Y004974D03*
X023141Y004974D03*
X023141Y005974D03*
X023141Y015974D03*
X023141Y016974D03*
X023141Y017974D03*
X023141Y018974D03*
X023141Y019974D03*
X023141Y020974D03*
X023141Y021974D03*
X022141Y021974D03*
X022141Y020974D03*
X022141Y019974D03*
X022141Y018974D03*
X022141Y017974D03*
X022141Y016974D03*
X022141Y015974D03*
X024141Y015974D03*
X024141Y016974D03*
X024141Y017974D03*
X025141Y017974D03*
X025141Y016974D03*
X025141Y015974D03*
X025141Y018974D03*
X025141Y019974D03*
X025141Y020974D03*
X025141Y021974D03*
X024141Y021974D03*
X024141Y020974D03*
X024141Y019974D03*
X024141Y018974D03*
X023641Y025974D03*
X023641Y026974D03*
X023641Y027974D03*
X025141Y027974D03*
X025141Y026974D03*
X025141Y025974D03*
X004141Y021974D03*
X004141Y020974D03*
X004141Y019974D03*
X004141Y018974D03*
X003141Y018974D03*
X003141Y019974D03*
X003141Y020974D03*
X003141Y021974D03*
X002141Y021974D03*
X002141Y020974D03*
X002141Y019974D03*
X002141Y018974D03*
X001141Y018974D03*
X001141Y019974D03*
X001141Y020974D03*
X001141Y021974D03*
X002641Y024974D03*
X002641Y025974D03*
X002641Y026974D03*
X001141Y026974D03*
X001141Y027974D03*
X001141Y025974D03*
X001141Y017974D03*
X001141Y016974D03*
X001141Y015974D03*
X002141Y015974D03*
X002141Y016974D03*
X002141Y017974D03*
X003141Y017974D03*
X003141Y016974D03*
X003141Y015974D03*
X004141Y015974D03*
X004141Y016974D03*
X004141Y017974D03*
X003141Y012974D03*
X002141Y012974D03*
X001141Y012974D03*
X001141Y011974D03*
X001141Y010974D03*
X001141Y009974D03*
X001141Y008974D03*
X001141Y007974D03*
X001141Y006974D03*
X002141Y006974D03*
X002141Y007974D03*
X002141Y008974D03*
X002141Y009974D03*
X002141Y010974D03*
X002141Y011974D03*
X003141Y011974D03*
X003141Y010974D03*
X003141Y009974D03*
X003141Y008974D03*
X003141Y007974D03*
X003141Y006974D03*
X003141Y005974D03*
X002141Y005974D03*
X002141Y004974D03*
X003141Y004974D03*
X001141Y004974D03*
X001141Y005974D03*
D14*
X001141Y002576D02*
X001141Y001871D01*
X003141Y001871D02*
X003141Y002576D01*
X023141Y002576D02*
X023141Y001871D01*
X025141Y001871D02*
X025141Y002576D01*
D15*
X017141Y007474D03*
X022141Y014974D03*
X009141Y007474D03*
X004141Y014974D03*
D16*
X003141Y014974D03*
X002141Y014974D03*
X008141Y007474D03*
X018141Y007474D03*
X023141Y014974D03*
X024141Y014974D03*
D17*
X016441Y015139D03*
X016441Y015808D03*
X014876Y017874D03*
X014206Y017874D03*
X011476Y017474D03*
X010806Y017474D03*
X007041Y020039D03*
X007041Y020708D03*
D18*
X011441Y015908D03*
X011441Y015239D03*
X011441Y014308D03*
X011441Y013639D03*
X014741Y013439D03*
X014741Y014108D03*
X016441Y017539D03*
X016441Y018208D03*
D19*
X017241Y013574D03*
X017241Y013074D03*
X017241Y012574D03*
X017241Y012074D03*
X011441Y019974D03*
X010941Y019974D03*
X010441Y019974D03*
X009941Y019974D03*
D20*
X012361Y029974D03*
X013921Y029974D03*
X022561Y029974D03*
X024121Y029974D03*
X003721Y029974D03*
X002161Y029974D03*
D21*
X001245Y029723D03*
X000537Y029723D03*
X000537Y030825D03*
X001245Y030825D03*
X025037Y030825D03*
X025745Y030825D03*
X025745Y029723D03*
X025037Y029723D03*
D22*
X016191Y030174D03*
X010091Y030174D03*
X008141Y012074D03*
X018141Y010674D03*
D23*
X018141Y009274D03*
X008141Y010674D03*
X010091Y028774D03*
X016191Y028774D03*
D24*
X014421Y011384D03*
X014421Y010474D03*
X014421Y009564D03*
X011861Y009564D03*
X011861Y010474D03*
X011861Y011384D03*
D25*
X009421Y010474D03*
X016861Y010474D03*
D26*
X017141Y014724D03*
X017141Y016224D03*
X017141Y017124D03*
X017141Y018624D03*
X019141Y018624D03*
X019141Y017124D03*
X019141Y016224D03*
X019141Y014724D03*
D27*
X019141Y021460D03*
X019141Y022287D03*
X007041Y022187D03*
X007041Y021360D03*
D28*
X006666Y021340D02*
X006660Y021340D01*
X006660Y021263D02*
X006666Y021263D01*
X006660Y021186D02*
X006666Y021186D01*
X006660Y021108D02*
X006666Y021108D01*
X006666Y021066D02*
X006727Y021005D01*
X006685Y020963D01*
X006685Y020454D01*
X006767Y020372D01*
X006795Y020372D01*
X006771Y020366D01*
X006739Y020347D01*
X006713Y020321D01*
X006695Y020290D01*
X006685Y020254D01*
X006685Y020078D01*
X007002Y020078D01*
X007002Y020000D01*
X007080Y020000D01*
X007080Y019703D01*
X007276Y019703D01*
X007311Y019712D01*
X007343Y019731D01*
X007369Y019757D01*
X007387Y019788D01*
X007397Y019824D01*
X007397Y020000D01*
X007081Y020000D01*
X007081Y020078D01*
X007397Y020078D01*
X007397Y020254D01*
X007387Y020290D01*
X007369Y020321D01*
X007343Y020347D01*
X007311Y020366D01*
X007287Y020372D01*
X007315Y020372D01*
X007397Y020454D01*
X007397Y020963D01*
X007355Y021005D01*
X007417Y021066D01*
X007417Y021654D01*
X007335Y021736D01*
X006747Y021736D01*
X006666Y021654D01*
X006666Y021066D01*
X006660Y021031D02*
X006701Y021031D01*
X006685Y020954D02*
X006660Y020954D01*
X006660Y020877D02*
X006685Y020877D01*
X006685Y020799D02*
X006660Y020799D01*
X006660Y020722D02*
X006685Y020722D01*
X006685Y020645D02*
X006660Y020645D01*
X006660Y020567D02*
X006685Y020567D01*
X006685Y020490D02*
X006660Y020490D01*
X006660Y020413D02*
X006726Y020413D01*
X006727Y020336D02*
X006660Y020336D01*
X006660Y020258D02*
X006686Y020258D01*
X006685Y020181D02*
X006660Y020181D01*
X006660Y020104D02*
X006685Y020104D01*
X006660Y020026D02*
X007002Y020026D01*
X007002Y020000D02*
X006685Y020000D01*
X006685Y019824D01*
X006695Y019788D01*
X006713Y019757D01*
X006739Y019731D01*
X006771Y019712D01*
X006806Y019703D01*
X007002Y019703D01*
X007002Y020000D01*
X007002Y019949D02*
X007080Y019949D01*
X007080Y019872D02*
X007002Y019872D01*
X007002Y019795D02*
X007080Y019795D01*
X007080Y019717D02*
X007002Y019717D01*
X006762Y019717D02*
X006660Y019717D01*
X006660Y019640D02*
X009762Y019640D01*
X009762Y019639D02*
X009831Y019611D01*
X009904Y019597D01*
X009911Y019597D01*
X009911Y019944D01*
X009564Y019944D01*
X009564Y019937D01*
X009578Y019864D01*
X009607Y019795D01*
X009648Y019733D01*
X009701Y019681D01*
X009762Y019639D01*
X009664Y019717D02*
X007320Y019717D01*
X007389Y019795D02*
X009607Y019795D01*
X009577Y019872D02*
X007397Y019872D01*
X007397Y019949D02*
X009911Y019949D01*
X009911Y019944D02*
X009911Y020003D01*
X009564Y020003D01*
X009564Y020011D01*
X009578Y020084D01*
X009607Y020152D01*
X009648Y020214D01*
X009701Y020267D01*
X009762Y020308D01*
X009831Y020336D01*
X009904Y020351D01*
X009911Y020351D01*
X009911Y020003D01*
X009971Y020003D01*
X010318Y020003D01*
X010411Y020003D01*
X010411Y019944D01*
X010318Y019944D01*
X009971Y019944D01*
X009971Y020003D01*
X009971Y020351D01*
X009978Y020351D01*
X010051Y020336D01*
X010120Y020308D01*
X010181Y020267D01*
X010191Y020257D01*
X010201Y020267D01*
X010262Y020308D01*
X010331Y020336D01*
X010404Y020351D01*
X010411Y020351D01*
X010411Y020003D01*
X010471Y020003D01*
X010471Y020351D01*
X010478Y020351D01*
X010551Y020336D01*
X010620Y020308D01*
X010681Y020267D01*
X010691Y020257D01*
X010727Y020293D01*
X010866Y020351D01*
X011016Y020351D01*
X011155Y020293D01*
X011191Y020257D01*
X011227Y020293D01*
X011366Y020351D01*
X011516Y020351D01*
X011655Y020293D01*
X011761Y020187D01*
X011818Y020049D01*
X011818Y019899D01*
X011761Y019760D01*
X011655Y019654D01*
X011516Y019597D01*
X011366Y019597D01*
X011227Y019654D01*
X011191Y019690D01*
X011155Y019654D01*
X011016Y019597D01*
X010866Y019597D01*
X010727Y019654D01*
X010691Y019690D01*
X010681Y019681D01*
X010620Y019639D01*
X010551Y019611D01*
X010478Y019597D01*
X010471Y019597D01*
X010471Y019944D01*
X010411Y019944D01*
X010411Y019597D01*
X010404Y019597D01*
X010331Y019611D01*
X010262Y019639D01*
X010201Y019681D01*
X010191Y019690D01*
X010181Y019681D01*
X010120Y019639D01*
X010051Y019611D01*
X009978Y019597D01*
X009971Y019597D01*
X009971Y019944D01*
X009911Y019944D01*
X009971Y019949D02*
X010411Y019949D01*
X010411Y019872D02*
X010471Y019872D01*
X010471Y019795D02*
X010411Y019795D01*
X010411Y019717D02*
X010471Y019717D01*
X010471Y019640D02*
X010411Y019640D01*
X010262Y019640D02*
X010121Y019640D01*
X009971Y019640D02*
X009911Y019640D01*
X009911Y019717D02*
X009971Y019717D01*
X009971Y019795D02*
X009911Y019795D01*
X009911Y019872D02*
X009971Y019872D01*
X009971Y020026D02*
X009911Y020026D01*
X009911Y020104D02*
X009971Y020104D01*
X009971Y020181D02*
X009911Y020181D01*
X009911Y020258D02*
X009971Y020258D01*
X009971Y020336D02*
X009911Y020336D01*
X009829Y020336D02*
X007355Y020336D01*
X007356Y020413D02*
X011793Y020413D01*
X011712Y020490D02*
X007397Y020490D01*
X007397Y020567D02*
X011630Y020567D01*
X011549Y020645D02*
X007397Y020645D01*
X007397Y020722D02*
X011468Y020722D01*
X011386Y020799D02*
X007397Y020799D01*
X007397Y020877D02*
X011305Y020877D01*
X011224Y020954D02*
X007397Y020954D01*
X007381Y021031D02*
X011142Y021031D01*
X011061Y021108D02*
X007417Y021108D01*
X007417Y021186D02*
X010979Y021186D01*
X010970Y021195D02*
X012862Y019397D01*
X012862Y017448D01*
X012662Y017248D01*
X012662Y017100D01*
X012662Y016900D01*
X012767Y016795D01*
X012910Y016652D01*
X012905Y016641D01*
X012905Y016507D01*
X012956Y016383D01*
X013051Y016289D01*
X013174Y016237D01*
X013308Y016237D01*
X013432Y016289D01*
X013526Y016383D01*
X013577Y016507D01*
X013577Y016641D01*
X013526Y016764D01*
X013467Y016824D01*
X013526Y016883D01*
X013577Y017007D01*
X013577Y017141D01*
X013526Y017264D01*
X013432Y017359D01*
X013420Y017364D01*
X013420Y019502D01*
X013422Y019504D01*
X013420Y019576D01*
X013420Y019648D01*
X013418Y019649D01*
X013418Y019652D01*
X013366Y019702D01*
X013315Y019752D01*
X013313Y019752D01*
X011378Y021595D01*
X011415Y021595D01*
X012067Y021595D01*
X014167Y019495D01*
X014315Y019495D01*
X014451Y019495D01*
X014456Y019483D01*
X014551Y019389D01*
X014674Y019337D01*
X014808Y019337D01*
X014932Y019389D01*
X015026Y019483D01*
X015077Y019607D01*
X015077Y019741D01*
X015026Y019864D01*
X014932Y019959D01*
X014808Y020010D01*
X014674Y020010D01*
X014551Y019959D01*
X014456Y019864D01*
X014451Y019852D01*
X014315Y019852D01*
X013149Y021019D01*
X013224Y020987D01*
X013358Y020987D01*
X013482Y021039D01*
X013576Y021133D01*
X013621Y021241D01*
X014162Y020699D01*
X014162Y020663D01*
X014151Y020659D01*
X014056Y020564D01*
X014005Y020441D01*
X014005Y020307D01*
X014056Y020183D01*
X014151Y020089D01*
X014274Y020037D01*
X014408Y020037D01*
X014532Y020089D01*
X014591Y020148D01*
X014651Y020089D01*
X014774Y020037D01*
X014908Y020037D01*
X015032Y020089D01*
X015126Y020183D01*
X015177Y020307D01*
X015177Y020441D01*
X015126Y020564D01*
X015032Y020659D01*
X014993Y020675D01*
X014199Y021469D01*
X014274Y021437D01*
X014408Y021437D01*
X014532Y021489D01*
X014626Y021583D01*
X014631Y021595D01*
X016667Y021595D01*
X016910Y021352D01*
X016905Y021341D01*
X016905Y021207D01*
X016956Y021083D01*
X017051Y020989D01*
X017174Y020937D01*
X017308Y020937D01*
X017432Y020989D01*
X017526Y021083D01*
X017577Y021207D01*
X017577Y021341D01*
X017526Y021464D01*
X017432Y021559D01*
X017308Y021610D01*
X017174Y021610D01*
X017162Y021605D01*
X016815Y021952D01*
X016667Y021952D01*
X014631Y021952D01*
X014626Y021964D01*
X014536Y022054D01*
X014815Y022054D01*
X015060Y022300D01*
X015060Y022647D01*
X014815Y022893D01*
X014467Y022893D01*
X014222Y022647D01*
X014222Y022300D01*
X014415Y022107D01*
X014408Y022110D01*
X014274Y022110D01*
X014151Y022059D01*
X014056Y021964D01*
X014005Y021841D01*
X014005Y021707D01*
X014036Y021631D01*
X013613Y022054D01*
X013815Y022054D01*
X014060Y022300D01*
X014060Y022647D01*
X013815Y022893D01*
X013467Y022893D01*
X013320Y022745D01*
X013320Y023202D01*
X013467Y023054D01*
X013815Y023054D01*
X014060Y023300D01*
X014060Y023647D01*
X013815Y023893D01*
X013467Y023893D01*
X013320Y023745D01*
X013320Y023848D01*
X013120Y024048D01*
X013015Y024152D01*
X011215Y024152D01*
X011067Y024152D01*
X010808Y023893D01*
X010467Y023893D01*
X010222Y023647D01*
X010222Y023300D01*
X010467Y023054D01*
X010815Y023054D01*
X011060Y023300D01*
X011060Y023640D01*
X011215Y023795D01*
X011369Y023795D01*
X011222Y023647D01*
X011222Y023300D01*
X011467Y023054D01*
X011815Y023054D01*
X012060Y023300D01*
X012060Y023647D01*
X011913Y023795D01*
X012369Y023795D01*
X012222Y023647D01*
X012222Y023308D01*
X011962Y023048D01*
X011962Y022899D01*
X011962Y022746D01*
X011815Y022893D01*
X011467Y022893D01*
X011222Y022647D01*
X011222Y022300D01*
X011467Y022054D01*
X011815Y022054D01*
X011962Y022201D01*
X011962Y022199D01*
X012067Y022094D01*
X012209Y021952D01*
X011415Y021952D01*
X011060Y022307D01*
X011060Y022647D01*
X010815Y022893D01*
X010467Y022893D01*
X010222Y022647D01*
X010222Y022300D01*
X010467Y022054D01*
X010808Y022054D01*
X011110Y021752D01*
X010115Y021752D01*
X009672Y022195D01*
X009677Y022207D01*
X009677Y022341D01*
X009626Y022464D01*
X009532Y022559D01*
X009408Y022610D01*
X009274Y022610D01*
X009151Y022559D01*
X009056Y022464D01*
X009005Y022341D01*
X009005Y022207D01*
X009056Y022083D01*
X009151Y021989D01*
X009274Y021937D01*
X009408Y021937D01*
X009420Y021942D01*
X009810Y021552D01*
X008815Y021552D01*
X008330Y022037D01*
X008408Y022037D01*
X008532Y022089D01*
X008626Y022183D01*
X008677Y022307D01*
X008677Y022441D01*
X008626Y022564D01*
X008532Y022659D01*
X008408Y022710D01*
X008315Y022710D01*
X008132Y022893D01*
X007950Y022893D01*
X006950Y022893D01*
X006650Y022893D01*
X006522Y022765D01*
X006222Y022465D01*
X006222Y022283D01*
X006222Y015630D01*
X006156Y015564D01*
X006105Y015441D01*
X006105Y015307D01*
X006156Y015183D01*
X006251Y015089D01*
X006374Y015037D01*
X006508Y015037D01*
X006632Y015089D01*
X006726Y015183D01*
X006777Y015307D01*
X006777Y015441D01*
X006726Y015564D01*
X006660Y015630D01*
X006660Y022283D01*
X006666Y022288D01*
X006666Y021893D01*
X006747Y021811D01*
X007335Y021811D01*
X007417Y021893D01*
X007417Y022454D01*
X007552Y022454D01*
X007505Y022341D01*
X007505Y022207D01*
X007556Y022083D01*
X007651Y021989D01*
X007774Y021937D01*
X007908Y021937D01*
X007920Y021942D01*
X008667Y021195D01*
X008815Y021195D01*
X010970Y021195D01*
X011041Y021374D02*
X008741Y021374D01*
X007841Y022274D01*
X007505Y022268D02*
X007417Y022268D01*
X007417Y022345D02*
X007507Y022345D01*
X007539Y022422D02*
X007417Y022422D01*
X007417Y022190D02*
X007512Y022190D01*
X007544Y022113D02*
X007417Y022113D01*
X007417Y022036D02*
X007604Y022036D01*
X007723Y021959D02*
X007417Y021959D01*
X007405Y021881D02*
X007981Y021881D01*
X008058Y021804D02*
X006660Y021804D01*
X006660Y021881D02*
X006677Y021881D01*
X006666Y021959D02*
X006660Y021959D01*
X006660Y022036D02*
X006666Y022036D01*
X006660Y022113D02*
X006666Y022113D01*
X006660Y022190D02*
X006666Y022190D01*
X006660Y022268D02*
X006666Y022268D01*
X006411Y022654D02*
X004641Y022654D01*
X004641Y022577D02*
X006334Y022577D01*
X006257Y022499D02*
X004641Y022499D01*
X004641Y022422D02*
X006222Y022422D01*
X006222Y022345D02*
X004641Y022345D01*
X004641Y022268D02*
X006222Y022268D01*
X006222Y022190D02*
X004641Y022190D01*
X004641Y022113D02*
X006222Y022113D01*
X006222Y022036D02*
X004641Y022036D01*
X004641Y021959D02*
X006222Y021959D01*
X006222Y021881D02*
X004641Y021881D01*
X004641Y021804D02*
X006222Y021804D01*
X006222Y021727D02*
X004641Y021727D01*
X004641Y021649D02*
X006222Y021649D01*
X006222Y021572D02*
X004641Y021572D01*
X004641Y021495D02*
X006222Y021495D01*
X006222Y021418D02*
X004641Y021418D01*
X004641Y021340D02*
X006222Y021340D01*
X006222Y021263D02*
X004641Y021263D01*
X004641Y021186D02*
X006222Y021186D01*
X006222Y021108D02*
X004641Y021108D01*
X004641Y021031D02*
X006222Y021031D01*
X006222Y020954D02*
X004641Y020954D01*
X004641Y020877D02*
X006222Y020877D01*
X006222Y020799D02*
X004641Y020799D01*
X004641Y020722D02*
X006222Y020722D01*
X006222Y020645D02*
X004641Y020645D01*
X004641Y020567D02*
X006222Y020567D01*
X006222Y020490D02*
X004641Y020490D01*
X004641Y020413D02*
X006222Y020413D01*
X006222Y020336D02*
X004641Y020336D01*
X004641Y020258D02*
X006222Y020258D01*
X006222Y020181D02*
X004641Y020181D01*
X004641Y020104D02*
X006222Y020104D01*
X006222Y020026D02*
X004641Y020026D01*
X004641Y019949D02*
X006222Y019949D01*
X006222Y019872D02*
X004641Y019872D01*
X004641Y019795D02*
X006222Y019795D01*
X006222Y019717D02*
X004641Y019717D01*
X004641Y019640D02*
X006222Y019640D01*
X006222Y019563D02*
X004641Y019563D01*
X004641Y019485D02*
X006222Y019485D01*
X006222Y019408D02*
X004641Y019408D01*
X004641Y019331D02*
X006222Y019331D01*
X006222Y019254D02*
X004641Y019254D01*
X004641Y019176D02*
X006222Y019176D01*
X006222Y019099D02*
X004641Y019099D01*
X004641Y019022D02*
X006222Y019022D01*
X006222Y018944D02*
X004641Y018944D01*
X004641Y018867D02*
X006222Y018867D01*
X006222Y018790D02*
X004641Y018790D01*
X004641Y018713D02*
X006222Y018713D01*
X006222Y018635D02*
X004641Y018635D01*
X004641Y018558D02*
X006222Y018558D01*
X006222Y018481D02*
X004641Y018481D01*
X004641Y018403D02*
X006222Y018403D01*
X006222Y018326D02*
X004641Y018326D01*
X004641Y018249D02*
X006222Y018249D01*
X006222Y018172D02*
X004641Y018172D01*
X004641Y018094D02*
X006222Y018094D01*
X006222Y018017D02*
X004641Y018017D01*
X004641Y017940D02*
X006222Y017940D01*
X006222Y017862D02*
X004641Y017862D01*
X004641Y017785D02*
X006222Y017785D01*
X006222Y017708D02*
X004641Y017708D01*
X004641Y017631D02*
X006222Y017631D01*
X006222Y017553D02*
X004641Y017553D01*
X004641Y017476D02*
X006222Y017476D01*
X006222Y017399D02*
X004641Y017399D01*
X004641Y017321D02*
X006222Y017321D01*
X006222Y017244D02*
X004641Y017244D01*
X004641Y017167D02*
X006222Y017167D01*
X006222Y017090D02*
X004641Y017090D01*
X004641Y017012D02*
X006222Y017012D01*
X006222Y016935D02*
X004641Y016935D01*
X004641Y016858D02*
X006222Y016858D01*
X006222Y016781D02*
X004641Y016781D01*
X004641Y016733D02*
X004641Y023474D01*
X001380Y023474D01*
X001380Y023826D01*
X001380Y023921D01*
X001344Y024009D01*
X000819Y024534D01*
X001499Y024534D01*
X001580Y024616D01*
X001580Y025331D01*
X001499Y025413D01*
X000783Y025413D01*
X000702Y025331D01*
X000702Y024651D01*
X000680Y024673D01*
X000680Y026575D01*
X000800Y026694D01*
X000892Y026601D01*
X001054Y026534D01*
X001229Y026534D01*
X001390Y026601D01*
X001514Y026725D01*
X001580Y026886D01*
X001580Y027061D01*
X001514Y027223D01*
X001390Y027346D01*
X001229Y027413D01*
X001054Y027413D01*
X000892Y027346D01*
X000769Y027223D01*
X000765Y027213D01*
X000693Y027213D01*
X000606Y027177D01*
X000538Y027109D01*
X000380Y026951D01*
X000380Y028974D01*
X003641Y028974D01*
X004141Y028474D01*
X004710Y028474D01*
X004728Y028455D01*
X004866Y028398D01*
X005016Y028398D01*
X005154Y028455D01*
X005172Y028474D01*
X005587Y028474D01*
X005674Y028437D01*
X005724Y028437D01*
X008309Y025852D01*
X008305Y025841D01*
X008305Y025707D01*
X008356Y025583D01*
X008451Y025489D01*
X008574Y025437D01*
X008708Y025437D01*
X008832Y025489D01*
X008926Y025583D01*
X008931Y025595D01*
X009067Y025595D01*
X010367Y024295D01*
X010515Y024295D01*
X014567Y024295D01*
X014767Y024095D01*
X014915Y024095D01*
X015151Y024095D01*
X015156Y024083D01*
X015251Y023989D01*
X015374Y023937D01*
X015508Y023937D01*
X015632Y023989D01*
X015726Y024083D01*
X015777Y024207D01*
X015777Y024341D01*
X015726Y024464D01*
X015632Y024559D01*
X015508Y024610D01*
X015377Y024610D01*
X015377Y024741D01*
X018490Y024741D01*
X018466Y024818D02*
X015345Y024818D01*
X015326Y024864D02*
X015232Y024959D01*
X015108Y025010D01*
X014974Y025010D01*
X014851Y024959D01*
X014756Y024864D01*
X014751Y024853D01*
X010615Y024853D01*
X008873Y026596D01*
X008877Y026607D01*
X008877Y026741D01*
X008826Y026864D01*
X008732Y026959D01*
X008608Y027010D01*
X008520Y027010D01*
X008520Y028384D01*
X008532Y028389D01*
X008617Y028474D01*
X009022Y028474D01*
X009022Y027983D01*
X009150Y027854D01*
X009850Y027154D01*
X010032Y027154D01*
X011732Y027154D01*
X011776Y027198D01*
X011916Y027198D01*
X012054Y027255D01*
X012159Y027361D01*
X012217Y027499D01*
X012217Y027648D01*
X012159Y027786D01*
X012054Y027892D01*
X011916Y027949D01*
X011766Y027949D01*
X011628Y027892D01*
X011523Y027786D01*
X011466Y027648D01*
X011466Y027593D01*
X010873Y027593D01*
X010917Y027699D01*
X010917Y027848D01*
X010859Y027986D01*
X010754Y028092D01*
X010616Y028149D01*
X010466Y028149D01*
X010328Y028092D01*
X010229Y027993D01*
X010032Y027993D01*
X009760Y028265D01*
X009760Y028462D01*
X009834Y028389D01*
X010001Y028319D01*
X010181Y028319D01*
X010348Y028389D01*
X010434Y028474D01*
X015849Y028474D01*
X015934Y028389D01*
X016101Y028319D01*
X016281Y028319D01*
X016448Y028389D01*
X016534Y028474D01*
X016822Y028474D01*
X016822Y028465D01*
X016550Y028193D01*
X015953Y028193D01*
X015854Y028292D01*
X015716Y028349D01*
X015566Y028349D01*
X015428Y028292D01*
X015323Y028186D01*
X015266Y028048D01*
X015266Y027899D01*
X015309Y027793D01*
X014753Y027793D01*
X014654Y027892D01*
X014516Y027949D01*
X014366Y027949D01*
X014228Y027892D01*
X014123Y027786D01*
X014066Y027648D01*
X014066Y027499D01*
X014123Y027361D01*
X014228Y027255D01*
X014366Y027198D01*
X014516Y027198D01*
X014654Y027255D01*
X014753Y027354D01*
X016924Y027354D01*
X017106Y027354D01*
X017482Y027731D01*
X017610Y027859D01*
X017610Y028337D01*
X017654Y028355D01*
X017759Y028461D01*
X017765Y028474D01*
X018066Y028474D01*
X018151Y028389D01*
X018162Y028384D01*
X018162Y026448D01*
X017919Y026205D01*
X017908Y026210D01*
X017774Y026210D01*
X017651Y026159D01*
X017556Y026064D01*
X017505Y025941D01*
X017505Y025807D01*
X017556Y025683D01*
X017651Y025589D01*
X017774Y025537D01*
X017908Y025537D01*
X018032Y025589D01*
X018126Y025683D01*
X018177Y025807D01*
X018177Y025941D01*
X018173Y025952D01*
X018520Y026299D01*
X018520Y026448D01*
X018520Y028384D01*
X018532Y028389D01*
X018617Y028474D01*
X019517Y028474D01*
X019523Y028461D01*
X019628Y028355D01*
X019766Y028298D01*
X019916Y028298D01*
X020054Y028355D01*
X020159Y028461D01*
X020165Y028474D01*
X022141Y028474D01*
X022641Y028974D01*
X025902Y028974D01*
X025902Y027051D01*
X025844Y027109D01*
X025777Y027177D01*
X025689Y027213D01*
X025517Y027213D01*
X025514Y027223D01*
X025390Y027346D01*
X025229Y027413D01*
X025054Y027413D01*
X024892Y027346D01*
X024769Y027223D01*
X024765Y027213D01*
X024740Y027213D01*
X024076Y027877D01*
X024080Y027886D01*
X024080Y028061D01*
X024014Y028223D01*
X023890Y028346D01*
X023729Y028413D01*
X023554Y028413D01*
X023392Y028346D01*
X023269Y028223D01*
X023202Y028061D01*
X023202Y027886D01*
X023269Y027725D01*
X023392Y027601D01*
X023554Y027534D01*
X023729Y027534D01*
X023738Y027538D01*
X024506Y026771D01*
X024593Y026734D01*
X024689Y026734D01*
X024765Y026734D01*
X024769Y026725D01*
X024892Y026601D01*
X025054Y026534D01*
X025229Y026534D01*
X025390Y026601D01*
X025514Y026725D01*
X025517Y026734D01*
X025542Y026734D01*
X025602Y026675D01*
X025602Y024473D01*
X024938Y023809D01*
X024902Y023721D01*
X024902Y023626D01*
X024902Y023474D01*
X021845Y023474D01*
X022165Y023794D01*
X024067Y023794D01*
X024215Y023794D01*
X024955Y024534D01*
X025499Y024534D01*
X025580Y024616D01*
X025580Y025331D01*
X025499Y025413D01*
X024834Y025413D01*
X024984Y025563D01*
X025054Y025534D01*
X025229Y025534D01*
X025390Y025601D01*
X025514Y025725D01*
X025580Y025886D01*
X025580Y026061D01*
X025514Y026223D01*
X025390Y026346D01*
X025229Y026413D01*
X025054Y026413D01*
X024892Y026346D01*
X024769Y026223D01*
X024702Y026061D01*
X024702Y025886D01*
X024731Y025817D01*
X024362Y025448D01*
X024362Y025299D01*
X024362Y024748D01*
X023967Y024353D01*
X021917Y024353D01*
X021812Y024248D01*
X020162Y022598D01*
X020162Y022449D01*
X020162Y015848D01*
X019834Y015520D01*
X019812Y015530D01*
X019670Y015530D01*
X019539Y015475D01*
X019439Y015375D01*
X019385Y015244D01*
X019385Y015103D01*
X019422Y015013D01*
X018783Y015013D01*
X018702Y014931D01*
X018702Y014516D01*
X018783Y014434D01*
X019499Y014434D01*
X019580Y014516D01*
X019580Y014855D01*
X019670Y014818D01*
X019812Y014818D01*
X019943Y014872D01*
X020041Y014970D01*
X020139Y014872D01*
X020270Y014818D01*
X020412Y014818D01*
X020543Y014872D01*
X020643Y014972D01*
X020697Y015103D01*
X020697Y015244D01*
X020688Y015267D01*
X020720Y015299D01*
X020720Y022349D01*
X021641Y023270D01*
X021641Y016733D01*
X021589Y016733D01*
X021494Y016694D01*
X021421Y016621D01*
X021382Y016525D01*
X021382Y014604D01*
X021352Y014531D01*
X021352Y007763D01*
X018445Y007763D01*
X018379Y007829D01*
X018225Y007893D01*
X021352Y007893D01*
X021352Y007970D02*
X017430Y007970D01*
X017430Y007893D02*
X017430Y008154D01*
X018096Y008819D01*
X018231Y008819D01*
X018398Y008889D01*
X018526Y009016D01*
X018595Y009183D01*
X018595Y009364D01*
X018526Y009531D01*
X018398Y009659D01*
X018231Y009728D01*
X018096Y009728D01*
X017434Y010390D01*
X017434Y011240D01*
X017352Y011322D01*
X016370Y011322D01*
X016289Y011240D01*
X016289Y010763D01*
X015000Y010763D01*
X015000Y010771D01*
X014919Y010853D01*
X013923Y010853D01*
X013842Y010771D01*
X013842Y010176D01*
X013923Y010094D01*
X014919Y010094D01*
X015000Y010176D01*
X015000Y010184D01*
X016289Y010184D01*
X016289Y009707D01*
X016370Y009626D01*
X017352Y009626D01*
X017366Y009640D01*
X017687Y009319D01*
X017687Y009229D01*
X016977Y008519D01*
X016896Y008438D01*
X016852Y008331D01*
X016852Y007893D01*
X016803Y007893D01*
X016772Y007893D01*
X016777Y007907D02*
X016749Y007839D01*
X016803Y007893D01*
X016777Y007907D02*
X016777Y008041D01*
X016726Y008164D01*
X016632Y008259D01*
X016620Y008264D01*
X016620Y008884D01*
X016632Y008889D01*
X016726Y008983D01*
X016777Y009107D01*
X016777Y009241D01*
X016726Y009364D01*
X016632Y009459D01*
X016508Y009510D01*
X016374Y009510D01*
X016251Y009459D01*
X016191Y009399D01*
X016132Y009459D01*
X016008Y009510D01*
X015874Y009510D01*
X015751Y009459D01*
X015656Y009364D01*
X015605Y009241D01*
X015605Y009107D01*
X015656Y008983D01*
X015751Y008889D01*
X015762Y008884D01*
X015762Y008264D01*
X015751Y008259D01*
X015656Y008164D01*
X015605Y008041D01*
X015605Y007919D01*
X014930Y008594D01*
X014930Y009196D01*
X015000Y009266D01*
X015000Y009861D01*
X014919Y009943D01*
X013923Y009943D01*
X013842Y009861D01*
X013842Y009853D01*
X013739Y009853D01*
X013007Y011488D01*
X012986Y011538D01*
X012983Y011541D01*
X012982Y011544D01*
X012943Y011581D01*
X012905Y011619D01*
X012901Y011621D01*
X012898Y011624D01*
X012848Y011643D01*
X012799Y011663D01*
X012794Y011663D01*
X012791Y011665D01*
X012737Y011663D01*
X012440Y011663D01*
X012440Y011681D01*
X012359Y011763D01*
X011363Y011763D01*
X011282Y011681D01*
X011282Y011086D01*
X011363Y011004D01*
X012359Y011004D01*
X012439Y011084D01*
X012554Y011084D01*
X013285Y009449D01*
X013306Y009400D01*
X013309Y009397D01*
X013310Y009393D01*
X013349Y009356D01*
X013387Y009318D01*
X013391Y009317D01*
X013394Y009314D01*
X013444Y009295D01*
X013494Y009274D01*
X013498Y009274D01*
X013502Y009273D01*
X013555Y009274D01*
X013842Y009274D01*
X013842Y009266D01*
X013923Y009184D01*
X014352Y009184D01*
X014352Y008572D01*
X013886Y009038D01*
X013805Y009119D01*
X013699Y009163D01*
X011695Y009163D01*
X011691Y009164D01*
X011637Y009163D01*
X011584Y009163D01*
X011580Y009162D01*
X011576Y009161D01*
X011527Y009140D01*
X011477Y009119D01*
X011474Y009116D01*
X011471Y009115D01*
X011434Y009076D01*
X011396Y009038D01*
X011394Y009034D01*
X009617Y007163D01*
X009560Y007163D01*
X009560Y007811D01*
X009479Y007893D01*
X010310Y007893D01*
X010237Y007816D02*
X009556Y007816D01*
X009560Y007738D02*
X010163Y007738D01*
X010090Y007661D02*
X009560Y007661D01*
X009560Y007584D02*
X010017Y007584D01*
X009943Y007506D02*
X009560Y007506D01*
X009560Y007429D02*
X009870Y007429D01*
X009796Y007352D02*
X009560Y007352D01*
X009560Y007275D02*
X009723Y007275D01*
X009649Y007197D02*
X009560Y007197D01*
X010007Y006734D02*
X013248Y006734D01*
X013277Y006762D02*
X012871Y006356D01*
X012826Y006464D01*
X012732Y006559D01*
X012608Y006610D01*
X012474Y006610D01*
X012351Y006559D01*
X012256Y006464D01*
X012251Y006452D01*
X012015Y006452D01*
X011867Y006452D01*
X011308Y005893D01*
X010967Y005893D01*
X010722Y005647D01*
X010722Y005300D01*
X010967Y005054D01*
X011315Y005054D01*
X011560Y005300D01*
X011560Y005640D01*
X012015Y006095D01*
X012251Y006095D01*
X012256Y006083D01*
X012351Y005989D01*
X012459Y005944D01*
X012361Y005847D01*
X012315Y005893D01*
X011967Y005893D01*
X011722Y005647D01*
X011722Y005300D01*
X011967Y005054D01*
X012315Y005054D01*
X012560Y005300D01*
X012560Y005540D01*
X012962Y005942D01*
X012962Y005888D01*
X012722Y005647D01*
X012722Y005300D01*
X012967Y005054D01*
X013315Y005054D01*
X013462Y005202D01*
X013462Y005048D01*
X013308Y004893D01*
X012967Y004893D01*
X012722Y004647D01*
X012560Y004647D01*
X012315Y004893D01*
X011967Y004893D01*
X011722Y004647D01*
X011560Y004647D01*
X011315Y004893D01*
X010967Y004893D01*
X010722Y004647D01*
X010560Y004647D01*
X010315Y004893D01*
X009967Y004893D01*
X009722Y004647D01*
X008907Y004647D01*
X008830Y004570D02*
X009722Y004570D01*
X009722Y004647D02*
X009722Y004300D01*
X009852Y004170D01*
X009852Y004163D01*
X005361Y004163D01*
X004930Y004594D01*
X004930Y014531D01*
X004900Y014604D01*
X004900Y016525D01*
X004861Y016621D01*
X004788Y016694D01*
X004693Y016733D01*
X004641Y016733D01*
X004765Y016703D02*
X006222Y016703D01*
X006222Y016626D02*
X004856Y016626D01*
X004891Y016549D02*
X006222Y016549D01*
X006222Y016471D02*
X004900Y016471D01*
X004900Y016394D02*
X006222Y016394D01*
X006222Y016317D02*
X004900Y016317D01*
X004900Y016240D02*
X006222Y016240D01*
X006222Y016162D02*
X004900Y016162D01*
X004900Y016085D02*
X006222Y016085D01*
X006222Y016008D02*
X004900Y016008D01*
X004900Y015930D02*
X006222Y015930D01*
X006222Y015853D02*
X004900Y015853D01*
X004900Y015776D02*
X006222Y015776D01*
X006222Y015699D02*
X004900Y015699D01*
X004900Y015621D02*
X006213Y015621D01*
X006148Y015544D02*
X004900Y015544D01*
X004900Y015467D02*
X006116Y015467D01*
X006105Y015389D02*
X004900Y015389D01*
X004900Y015312D02*
X006105Y015312D01*
X006135Y015235D02*
X004900Y015235D01*
X004900Y015158D02*
X006182Y015158D01*
X006271Y015080D02*
X004900Y015080D01*
X004900Y015003D02*
X007762Y015003D01*
X007762Y015080D02*
X006611Y015080D01*
X006700Y015158D02*
X007762Y015158D01*
X007762Y015235D02*
X006747Y015235D01*
X006777Y015312D02*
X007762Y015312D01*
X007762Y015389D02*
X006777Y015389D01*
X006766Y015467D02*
X007762Y015467D01*
X007762Y015544D02*
X006734Y015544D01*
X006669Y015621D02*
X007762Y015621D01*
X007762Y015699D02*
X006660Y015699D01*
X006660Y015776D02*
X007762Y015776D01*
X007762Y015853D02*
X006660Y015853D01*
X006660Y015930D02*
X007762Y015930D01*
X007762Y016008D02*
X006660Y016008D01*
X006660Y016085D02*
X007762Y016085D01*
X007762Y016162D02*
X006660Y016162D01*
X006660Y016240D02*
X007762Y016240D01*
X007762Y016317D02*
X006660Y016317D01*
X006660Y016394D02*
X007762Y016394D01*
X007762Y016400D02*
X007762Y014148D01*
X007762Y014000D01*
X007867Y013895D01*
X008915Y013895D01*
X009020Y014000D01*
X009520Y014500D01*
X009520Y014648D01*
X009520Y016548D01*
X009415Y016652D01*
X009267Y016652D01*
X007867Y016652D01*
X007762Y016548D01*
X007762Y016400D01*
X007762Y016471D02*
X006660Y016471D01*
X006660Y016549D02*
X007763Y016549D01*
X007841Y016626D02*
X006660Y016626D01*
X006660Y016703D02*
X011801Y016703D01*
X011724Y016781D02*
X006660Y016781D01*
X006660Y016858D02*
X011647Y016858D01*
X011569Y016935D02*
X006660Y016935D01*
X006660Y017012D02*
X011492Y017012D01*
X011415Y017090D02*
X006660Y017090D01*
X006660Y017167D02*
X010503Y017167D01*
X010504Y017165D02*
X010536Y017147D01*
X010572Y017137D01*
X010767Y017137D01*
X010767Y017434D01*
X010846Y017434D01*
X010846Y017137D01*
X011041Y017137D01*
X011077Y017147D01*
X011109Y017165D01*
X011134Y017191D01*
X011139Y017200D01*
X011201Y017137D01*
X011367Y017137D01*
X012712Y015793D01*
X012350Y015793D01*
X012222Y015665D01*
X012016Y015458D01*
X011777Y015458D01*
X011777Y015513D01*
X011715Y015575D01*
X011724Y015580D01*
X011749Y015606D01*
X011768Y015638D01*
X011777Y015673D01*
X011777Y015869D01*
X011481Y015869D01*
X011481Y015948D01*
X011777Y015948D01*
X011777Y016143D01*
X011768Y016179D01*
X011749Y016210D01*
X011724Y016236D01*
X011692Y016255D01*
X011656Y016264D01*
X011480Y016264D01*
X011480Y015948D01*
X011402Y015948D01*
X011402Y016264D01*
X011226Y016264D01*
X011190Y016255D01*
X011159Y016236D01*
X011133Y016210D01*
X011114Y016179D01*
X011105Y016143D01*
X011105Y015948D01*
X011402Y015948D01*
X011402Y015869D01*
X011105Y015869D01*
X011105Y015673D01*
X011114Y015638D01*
X011133Y015606D01*
X011159Y015580D01*
X011167Y015575D01*
X011105Y015513D01*
X011105Y015485D01*
X011032Y015559D01*
X010908Y015610D01*
X010774Y015610D01*
X010651Y015559D01*
X010556Y015464D01*
X010505Y015341D01*
X010505Y015207D01*
X010556Y015083D01*
X010587Y015052D01*
X010315Y015052D01*
X010167Y015052D01*
X008867Y013752D01*
X007115Y013752D01*
X006967Y013752D01*
X006267Y013052D01*
X006162Y012948D01*
X006162Y006648D01*
X006162Y006500D01*
X007262Y005400D01*
X007367Y005295D01*
X007369Y005295D01*
X007222Y005147D01*
X007222Y004800D01*
X007467Y004554D01*
X007815Y004554D01*
X008060Y004800D01*
X008060Y005147D01*
X007913Y005295D01*
X008067Y005295D01*
X008222Y005140D01*
X008222Y004800D01*
X008467Y004554D01*
X008815Y004554D01*
X009060Y004800D01*
X009060Y005147D01*
X008815Y005393D01*
X008474Y005393D01*
X008215Y005652D01*
X008067Y005652D01*
X007913Y005652D01*
X008060Y005800D01*
X008060Y006147D01*
X007815Y006393D01*
X007467Y006393D01*
X007271Y006197D01*
X006720Y006748D01*
X006720Y012700D01*
X007215Y013195D01*
X009115Y013195D01*
X009220Y013300D01*
X010415Y014495D01*
X011105Y014495D01*
X011105Y014348D01*
X011402Y014348D01*
X011402Y014269D01*
X011105Y014269D01*
X011105Y014073D01*
X011114Y014038D01*
X011133Y014006D01*
X011159Y013980D01*
X011167Y013975D01*
X011105Y013913D01*
X011105Y013785D01*
X011032Y013859D01*
X010908Y013910D01*
X010774Y013910D01*
X010651Y013859D01*
X010556Y013764D01*
X010505Y013641D01*
X010505Y013507D01*
X010556Y013383D01*
X010651Y013289D01*
X010774Y013237D01*
X010908Y013237D01*
X011032Y013289D01*
X011106Y013363D01*
X011186Y013283D01*
X011696Y013283D01*
X011777Y013365D01*
X011777Y013420D01*
X012216Y013420D01*
X012220Y013420D01*
X011864Y013063D01*
X007384Y013063D01*
X007277Y013019D01*
X007196Y012938D01*
X006996Y012738D01*
X006952Y012631D01*
X006952Y012516D01*
X006952Y010216D01*
X006996Y010110D01*
X007077Y010028D01*
X007752Y009354D01*
X007752Y007629D01*
X007722Y007557D01*
X007722Y007390D01*
X007786Y007236D01*
X007852Y007170D01*
X007852Y007121D01*
X007848Y007111D01*
X007852Y007063D01*
X007852Y007016D01*
X007852Y006916D01*
X007896Y006810D01*
X007977Y006728D01*
X007990Y006723D01*
X007996Y006710D01*
X008003Y006702D01*
X008008Y006693D01*
X008044Y006662D01*
X008077Y006628D01*
X008087Y006624D01*
X008095Y006617D01*
X008140Y006602D01*
X008184Y006584D01*
X008194Y006584D01*
X008204Y006581D01*
X008251Y006584D01*
X009687Y006584D01*
X009691Y006583D01*
X009745Y006584D01*
X009799Y006584D01*
X009802Y006586D01*
X009806Y006586D01*
X009855Y006608D01*
X009905Y006628D01*
X009908Y006631D01*
X009911Y006633D01*
X009948Y006671D01*
X009986Y006710D01*
X009988Y006713D01*
X011505Y008310D01*
X011505Y008307D01*
X011556Y008183D01*
X011616Y008124D01*
X011556Y008064D01*
X011505Y007941D01*
X011505Y007807D01*
X011556Y007683D01*
X011616Y007624D01*
X011556Y007564D01*
X011505Y007441D01*
X011505Y007307D01*
X011556Y007183D01*
X011651Y007089D01*
X011774Y007037D01*
X011908Y007037D01*
X012032Y007089D01*
X012126Y007183D01*
X012131Y007195D01*
X012951Y007195D01*
X012956Y007183D01*
X013051Y007089D01*
X013174Y007037D01*
X013205Y007037D01*
X013205Y006907D01*
X013256Y006783D01*
X013277Y006762D01*
X013245Y006811D02*
X010081Y006811D01*
X010154Y006888D02*
X013213Y006888D01*
X013205Y006966D02*
X010227Y006966D01*
X010301Y007043D02*
X011761Y007043D01*
X011921Y007043D02*
X013161Y007043D01*
X013019Y007120D02*
X012063Y007120D01*
X011841Y007374D02*
X013241Y007374D01*
X013550Y007506D02*
X014599Y007506D01*
X014676Y007429D02*
X013577Y007429D01*
X013577Y007441D02*
X013526Y007564D01*
X013467Y007624D01*
X013526Y007683D01*
X013577Y007807D01*
X013577Y007941D01*
X013526Y008064D01*
X013467Y008124D01*
X013526Y008183D01*
X013577Y008307D01*
X013577Y008441D01*
X013526Y008564D01*
X013506Y008584D01*
X013521Y008584D01*
X016213Y005893D01*
X016180Y005893D01*
X016180Y005513D01*
X016102Y005513D01*
X016102Y005893D01*
X015967Y005893D01*
X015722Y005647D01*
X015722Y005513D01*
X016102Y005513D01*
X016102Y005434D01*
X016180Y005434D01*
X016180Y005054D01*
X016315Y005054D01*
X016560Y005300D01*
X016560Y005434D01*
X016181Y005434D01*
X016181Y005513D01*
X016560Y005513D01*
X016560Y005647D01*
X016523Y005684D01*
X016599Y005684D01*
X017421Y005684D01*
X018252Y004854D01*
X018252Y004771D01*
X018244Y004763D01*
X016445Y004763D01*
X016315Y004893D01*
X015967Y004893D01*
X015722Y004647D01*
X015560Y004647D01*
X015315Y004893D01*
X014967Y004893D01*
X014722Y004647D01*
X014560Y004647D01*
X014315Y004893D01*
X013967Y004893D01*
X013722Y004647D01*
X013567Y004647D01*
X013560Y004640D02*
X013820Y004900D01*
X013820Y005048D01*
X013820Y005202D01*
X013967Y005054D01*
X014315Y005054D01*
X014560Y005300D01*
X014560Y005647D01*
X014315Y005893D01*
X013967Y005893D01*
X013820Y005745D01*
X013820Y005900D01*
X014058Y006137D01*
X014108Y006137D01*
X014232Y006189D01*
X014326Y006283D01*
X014377Y006407D01*
X014377Y006541D01*
X014326Y006664D01*
X014267Y006724D01*
X014326Y006783D01*
X014377Y006907D01*
X014377Y007041D01*
X014326Y007164D01*
X014232Y007259D01*
X014108Y007310D01*
X013974Y007310D01*
X013851Y007259D01*
X013791Y007199D01*
X013732Y007259D01*
X013608Y007310D01*
X013577Y007310D01*
X013577Y007441D01*
X013577Y007352D02*
X014754Y007352D01*
X014831Y007275D02*
X014193Y007275D01*
X014293Y007197D02*
X014908Y007197D01*
X014985Y007120D02*
X014344Y007120D01*
X014376Y007043D02*
X015063Y007043D01*
X015140Y006966D02*
X014377Y006966D01*
X014370Y006888D02*
X015217Y006888D01*
X015295Y006811D02*
X014338Y006811D01*
X014277Y006734D02*
X015372Y006734D01*
X015449Y006656D02*
X014329Y006656D01*
X014361Y006579D02*
X015526Y006579D01*
X015604Y006502D02*
X014377Y006502D01*
X014377Y006425D02*
X015681Y006425D01*
X015758Y006347D02*
X014353Y006347D01*
X014313Y006270D02*
X015836Y006270D01*
X015913Y006193D02*
X014236Y006193D01*
X014036Y006115D02*
X015990Y006115D01*
X016067Y006038D02*
X013958Y006038D01*
X013881Y005961D02*
X016145Y005961D01*
X016180Y005884D02*
X016102Y005884D01*
X016102Y005806D02*
X016180Y005806D01*
X016180Y005729D02*
X016102Y005729D01*
X016102Y005652D02*
X016180Y005652D01*
X016180Y005574D02*
X016102Y005574D01*
X016102Y005497D02*
X015560Y005497D01*
X015560Y005420D02*
X015722Y005420D01*
X015722Y005434D02*
X015722Y005300D01*
X015967Y005054D01*
X016102Y005054D01*
X016102Y005434D01*
X015722Y005434D01*
X015722Y005343D02*
X015560Y005343D01*
X015560Y005300D02*
X015315Y005054D01*
X014967Y005054D01*
X014722Y005300D01*
X014722Y005647D01*
X014967Y005893D01*
X015315Y005893D01*
X015560Y005647D01*
X015560Y005300D01*
X015526Y005265D02*
X015756Y005265D01*
X015834Y005188D02*
X015448Y005188D01*
X015371Y005111D02*
X015911Y005111D01*
X016102Y005111D02*
X016180Y005111D01*
X016180Y005188D02*
X016102Y005188D01*
X016102Y005265D02*
X016180Y005265D01*
X016180Y005343D02*
X016102Y005343D01*
X016102Y005420D02*
X016180Y005420D01*
X016181Y005497D02*
X017608Y005497D01*
X017531Y005574D02*
X016560Y005574D01*
X016556Y005652D02*
X017454Y005652D01*
X017686Y005420D02*
X016560Y005420D01*
X016560Y005343D02*
X017763Y005343D01*
X017840Y005265D02*
X016526Y005265D01*
X016448Y005188D02*
X017918Y005188D01*
X017995Y005111D02*
X016371Y005111D01*
X016329Y004879D02*
X018227Y004879D01*
X018252Y004802D02*
X016406Y004802D01*
X015953Y004879D02*
X015329Y004879D01*
X015406Y004802D02*
X015876Y004802D01*
X015799Y004724D02*
X015484Y004724D01*
X015560Y004647D02*
X015560Y004300D01*
X015423Y004163D01*
X015859Y004163D01*
X015722Y004300D01*
X015722Y004647D01*
X015722Y004570D02*
X015560Y004570D01*
X015560Y004492D02*
X015722Y004492D01*
X015722Y004415D02*
X015560Y004415D01*
X015560Y004338D02*
X015722Y004338D01*
X015761Y004261D02*
X015521Y004261D01*
X015444Y004183D02*
X015838Y004183D01*
X014859Y004163D02*
X014423Y004163D01*
X014560Y004300D01*
X014560Y004647D01*
X014560Y004570D02*
X014722Y004570D01*
X014722Y004647D02*
X014722Y004300D01*
X014859Y004163D01*
X014838Y004183D02*
X014444Y004183D01*
X014521Y004261D02*
X014761Y004261D01*
X014722Y004338D02*
X014560Y004338D01*
X014560Y004415D02*
X014722Y004415D01*
X014722Y004492D02*
X014560Y004492D01*
X014484Y004724D02*
X014799Y004724D01*
X014876Y004802D02*
X014406Y004802D01*
X014329Y004879D02*
X014953Y004879D01*
X014911Y005111D02*
X014371Y005111D01*
X014448Y005188D02*
X014834Y005188D01*
X014756Y005265D02*
X014526Y005265D01*
X014560Y005343D02*
X014722Y005343D01*
X014722Y005420D02*
X014560Y005420D01*
X014560Y005497D02*
X014722Y005497D01*
X014722Y005574D02*
X014560Y005574D01*
X014556Y005652D02*
X014726Y005652D01*
X014803Y005729D02*
X014479Y005729D01*
X014402Y005806D02*
X014881Y005806D01*
X014958Y005884D02*
X014324Y005884D01*
X013958Y005884D02*
X013820Y005884D01*
X013820Y005806D02*
X013881Y005806D01*
X013641Y005974D02*
X013641Y004974D01*
X013141Y004474D01*
X012838Y004183D02*
X012444Y004183D01*
X012423Y004163D02*
X012560Y004300D01*
X012560Y004647D01*
X012560Y004570D02*
X012722Y004570D01*
X012722Y004647D02*
X012722Y004300D01*
X012859Y004163D01*
X012423Y004163D01*
X012521Y004261D02*
X012761Y004261D01*
X012722Y004338D02*
X012560Y004338D01*
X012560Y004415D02*
X012722Y004415D01*
X012722Y004492D02*
X012560Y004492D01*
X012484Y004724D02*
X012799Y004724D01*
X012876Y004802D02*
X012406Y004802D01*
X012329Y004879D02*
X012953Y004879D01*
X012911Y005111D02*
X012371Y005111D01*
X012448Y005188D02*
X012834Y005188D01*
X012756Y005265D02*
X012526Y005265D01*
X012560Y005343D02*
X012722Y005343D01*
X012722Y005420D02*
X012560Y005420D01*
X012560Y005497D02*
X012722Y005497D01*
X012722Y005574D02*
X012595Y005574D01*
X012672Y005652D02*
X012726Y005652D01*
X012749Y005729D02*
X012803Y005729D01*
X012826Y005806D02*
X012881Y005806D01*
X012904Y005884D02*
X012958Y005884D01*
X013141Y006074D02*
X013141Y005474D01*
X013448Y005188D02*
X013462Y005188D01*
X013462Y005111D02*
X013371Y005111D01*
X013448Y005033D02*
X009060Y005033D01*
X009060Y004956D02*
X013371Y004956D01*
X013644Y004724D02*
X013799Y004724D01*
X013722Y004647D02*
X013722Y004300D01*
X013859Y004163D01*
X013423Y004163D01*
X013560Y004300D01*
X013560Y004640D01*
X013560Y004570D02*
X013722Y004570D01*
X013722Y004492D02*
X013560Y004492D01*
X013560Y004415D02*
X013722Y004415D01*
X013722Y004338D02*
X013560Y004338D01*
X013521Y004261D02*
X013761Y004261D01*
X013838Y004183D02*
X013444Y004183D01*
X013722Y004802D02*
X013876Y004802D01*
X013799Y004879D02*
X013953Y004879D01*
X013820Y004956D02*
X018149Y004956D01*
X018072Y005033D02*
X013820Y005033D01*
X013820Y005111D02*
X013911Y005111D01*
X013834Y005188D02*
X013820Y005188D01*
X013641Y005974D02*
X014041Y006374D01*
X014041Y006474D01*
X014041Y006974D02*
X013141Y006074D01*
X012939Y006425D02*
X012843Y006425D01*
X012788Y006502D02*
X013016Y006502D01*
X013094Y006579D02*
X012682Y006579D01*
X012400Y006579D02*
X006888Y006579D01*
X006811Y006656D02*
X008049Y006656D01*
X007972Y006734D02*
X006734Y006734D01*
X006720Y006811D02*
X007895Y006811D01*
X007863Y006888D02*
X006720Y006888D01*
X006720Y006966D02*
X007852Y006966D01*
X007852Y007043D02*
X006720Y007043D01*
X006720Y007120D02*
X007852Y007120D01*
X007824Y007197D02*
X006720Y007197D01*
X006720Y007275D02*
X007770Y007275D01*
X007738Y007352D02*
X006720Y007352D01*
X006720Y007429D02*
X007722Y007429D01*
X007722Y007506D02*
X006720Y007506D01*
X006720Y007584D02*
X007733Y007584D01*
X007752Y007661D02*
X006720Y007661D01*
X006720Y007738D02*
X007752Y007738D01*
X007752Y007816D02*
X006720Y007816D01*
X006720Y007893D02*
X007752Y007893D01*
X007752Y007970D02*
X006720Y007970D01*
X006720Y008047D02*
X007752Y008047D01*
X007752Y008125D02*
X006720Y008125D01*
X006720Y008202D02*
X007752Y008202D01*
X007752Y008279D02*
X006720Y008279D01*
X006720Y008357D02*
X007752Y008357D01*
X007752Y008434D02*
X006720Y008434D01*
X006720Y008511D02*
X007752Y008511D01*
X007752Y008588D02*
X006720Y008588D01*
X006720Y008666D02*
X007752Y008666D01*
X007752Y008743D02*
X006720Y008743D01*
X006720Y008820D02*
X007752Y008820D01*
X007752Y008898D02*
X006720Y008898D01*
X006720Y008975D02*
X007752Y008975D01*
X007752Y009052D02*
X006720Y009052D01*
X006720Y009129D02*
X007752Y009129D01*
X007752Y009207D02*
X006720Y009207D01*
X006720Y009284D02*
X007752Y009284D01*
X007744Y009361D02*
X006720Y009361D01*
X006720Y009439D02*
X007667Y009439D01*
X007590Y009516D02*
X006720Y009516D01*
X006720Y009593D02*
X007512Y009593D01*
X007435Y009670D02*
X006720Y009670D01*
X006720Y009748D02*
X007358Y009748D01*
X007281Y009825D02*
X006720Y009825D01*
X006720Y009902D02*
X007203Y009902D01*
X007126Y009980D02*
X006720Y009980D01*
X006720Y010057D02*
X007049Y010057D01*
X006986Y010134D02*
X006720Y010134D01*
X006720Y010211D02*
X006954Y010211D01*
X006952Y010289D02*
X006720Y010289D01*
X006720Y010366D02*
X006952Y010366D01*
X006952Y010443D02*
X006720Y010443D01*
X006720Y010521D02*
X006952Y010521D01*
X006952Y010598D02*
X006720Y010598D01*
X006720Y010675D02*
X006952Y010675D01*
X006952Y010752D02*
X006720Y010752D01*
X006720Y010830D02*
X006952Y010830D01*
X006952Y010907D02*
X006720Y010907D01*
X006720Y010984D02*
X006952Y010984D01*
X006952Y011062D02*
X006720Y011062D01*
X006720Y011139D02*
X006952Y011139D01*
X006952Y011216D02*
X006720Y011216D01*
X006720Y011293D02*
X006952Y011293D01*
X006952Y011371D02*
X006720Y011371D01*
X006720Y011448D02*
X006952Y011448D01*
X006952Y011525D02*
X006720Y011525D01*
X006720Y011603D02*
X006952Y011603D01*
X006952Y011680D02*
X006720Y011680D01*
X006720Y011757D02*
X006952Y011757D01*
X006952Y011834D02*
X006720Y011834D01*
X006720Y011912D02*
X006952Y011912D01*
X006952Y011989D02*
X006720Y011989D01*
X006720Y012066D02*
X006952Y012066D01*
X006952Y012144D02*
X006720Y012144D01*
X006720Y012221D02*
X006952Y012221D01*
X006952Y012298D02*
X006720Y012298D01*
X006720Y012375D02*
X006952Y012375D01*
X006952Y012453D02*
X006720Y012453D01*
X006720Y012530D02*
X006952Y012530D01*
X006952Y012607D02*
X006720Y012607D01*
X006720Y012684D02*
X006974Y012684D01*
X007020Y012762D02*
X006782Y012762D01*
X006859Y012839D02*
X007097Y012839D01*
X007175Y012916D02*
X006936Y012916D01*
X007014Y012994D02*
X007252Y012994D01*
X007168Y013148D02*
X011949Y013148D01*
X011872Y013071D02*
X007091Y013071D01*
X007141Y013374D02*
X006541Y012774D01*
X006541Y006674D01*
X007241Y005974D01*
X007641Y005974D01*
X007344Y006270D02*
X007198Y006270D01*
X007120Y006347D02*
X007422Y006347D01*
X007861Y006347D02*
X008422Y006347D01*
X008467Y006393D02*
X008222Y006147D01*
X008222Y005800D01*
X008467Y005554D01*
X008815Y005554D01*
X009060Y005800D01*
X009060Y006147D01*
X008815Y006393D01*
X008467Y006393D01*
X008344Y006270D02*
X007938Y006270D01*
X008015Y006193D02*
X008267Y006193D01*
X008222Y006115D02*
X008060Y006115D01*
X008060Y006038D02*
X008222Y006038D01*
X008222Y005961D02*
X008060Y005961D01*
X008060Y005884D02*
X008222Y005884D01*
X008222Y005806D02*
X008060Y005806D01*
X007989Y005729D02*
X008293Y005729D01*
X008216Y005652D02*
X008370Y005652D01*
X008293Y005574D02*
X008447Y005574D01*
X008370Y005497D02*
X009722Y005497D01*
X009722Y005420D02*
X008448Y005420D01*
X008141Y005474D02*
X008641Y004974D01*
X008943Y005265D02*
X009756Y005265D01*
X009722Y005300D02*
X009967Y005054D01*
X010315Y005054D01*
X010560Y005300D01*
X010560Y005647D01*
X010315Y005893D01*
X009967Y005893D01*
X009722Y005647D01*
X009722Y005300D01*
X009722Y005343D02*
X008865Y005343D01*
X009020Y005188D02*
X009834Y005188D01*
X009911Y005111D02*
X009060Y005111D01*
X009060Y004879D02*
X009953Y004879D01*
X009876Y004802D02*
X009060Y004802D01*
X008985Y004724D02*
X009799Y004724D01*
X009722Y004492D02*
X005032Y004492D01*
X005109Y004415D02*
X009722Y004415D01*
X009722Y004338D02*
X005186Y004338D01*
X005263Y004261D02*
X009761Y004261D01*
X009838Y004183D02*
X005341Y004183D01*
X004954Y004570D02*
X007452Y004570D01*
X007375Y004647D02*
X004930Y004647D01*
X004930Y004724D02*
X007297Y004724D01*
X007222Y004802D02*
X004930Y004802D01*
X004930Y004879D02*
X007222Y004879D01*
X007222Y004956D02*
X004930Y004956D01*
X004930Y005033D02*
X007222Y005033D01*
X007222Y005111D02*
X004930Y005111D01*
X004930Y005188D02*
X007262Y005188D01*
X007340Y005265D02*
X004930Y005265D01*
X004930Y005343D02*
X007319Y005343D01*
X007242Y005420D02*
X004930Y005420D01*
X004930Y005497D02*
X007165Y005497D01*
X007088Y005574D02*
X004930Y005574D01*
X004930Y005652D02*
X007010Y005652D01*
X006933Y005729D02*
X004930Y005729D01*
X004930Y005806D02*
X006856Y005806D01*
X006778Y005884D02*
X004930Y005884D01*
X004930Y005961D02*
X006701Y005961D01*
X006624Y006038D02*
X004930Y006038D01*
X004930Y006115D02*
X006547Y006115D01*
X006469Y006193D02*
X004930Y006193D01*
X004930Y006270D02*
X006392Y006270D01*
X006315Y006347D02*
X004930Y006347D01*
X004930Y006425D02*
X006237Y006425D01*
X006162Y006502D02*
X004930Y006502D01*
X004930Y006579D02*
X006162Y006579D01*
X006162Y006656D02*
X004930Y006656D01*
X004930Y006734D02*
X006162Y006734D01*
X006162Y006811D02*
X004930Y006811D01*
X004930Y006888D02*
X006162Y006888D01*
X006162Y006966D02*
X004930Y006966D01*
X004930Y007043D02*
X006162Y007043D01*
X006162Y007120D02*
X004930Y007120D01*
X004930Y007197D02*
X006162Y007197D01*
X006162Y007275D02*
X004930Y007275D01*
X004930Y007352D02*
X006162Y007352D01*
X006162Y007429D02*
X004930Y007429D01*
X004930Y007506D02*
X006162Y007506D01*
X006162Y007584D02*
X004930Y007584D01*
X004930Y007661D02*
X006162Y007661D01*
X006162Y007738D02*
X004930Y007738D01*
X004930Y007816D02*
X006162Y007816D01*
X006162Y007893D02*
X004930Y007893D01*
X004930Y007970D02*
X006162Y007970D01*
X006162Y008047D02*
X004930Y008047D01*
X004930Y008125D02*
X006162Y008125D01*
X006162Y008202D02*
X004930Y008202D01*
X004930Y008279D02*
X006162Y008279D01*
X006162Y008357D02*
X004930Y008357D01*
X004930Y008434D02*
X006162Y008434D01*
X006162Y008511D02*
X004930Y008511D01*
X004930Y008588D02*
X006162Y008588D01*
X006162Y008666D02*
X004930Y008666D01*
X004930Y008743D02*
X006162Y008743D01*
X006162Y008820D02*
X004930Y008820D01*
X004930Y008898D02*
X006162Y008898D01*
X006162Y008975D02*
X004930Y008975D01*
X004930Y009052D02*
X006162Y009052D01*
X006162Y009129D02*
X004930Y009129D01*
X004930Y009207D02*
X006162Y009207D01*
X006162Y009284D02*
X004930Y009284D01*
X004930Y009361D02*
X006162Y009361D01*
X006162Y009439D02*
X004930Y009439D01*
X004930Y009516D02*
X006162Y009516D01*
X006162Y009593D02*
X004930Y009593D01*
X004930Y009670D02*
X006162Y009670D01*
X006162Y009748D02*
X004930Y009748D01*
X004930Y009825D02*
X006162Y009825D01*
X006162Y009902D02*
X004930Y009902D01*
X004930Y009980D02*
X006162Y009980D01*
X006162Y010057D02*
X004930Y010057D01*
X004930Y010134D02*
X006162Y010134D01*
X006162Y010211D02*
X004930Y010211D01*
X004930Y010289D02*
X006162Y010289D01*
X006162Y010366D02*
X004930Y010366D01*
X004930Y010443D02*
X006162Y010443D01*
X006162Y010521D02*
X004930Y010521D01*
X004930Y010598D02*
X006162Y010598D01*
X006162Y010675D02*
X004930Y010675D01*
X004930Y010752D02*
X006162Y010752D01*
X006162Y010830D02*
X004930Y010830D01*
X004930Y010907D02*
X006162Y010907D01*
X006162Y010984D02*
X004930Y010984D01*
X004930Y011062D02*
X006162Y011062D01*
X006162Y011139D02*
X004930Y011139D01*
X004930Y011216D02*
X006162Y011216D01*
X006162Y011293D02*
X004930Y011293D01*
X004930Y011371D02*
X006162Y011371D01*
X006162Y011448D02*
X004930Y011448D01*
X004930Y011525D02*
X006162Y011525D01*
X006162Y011603D02*
X004930Y011603D01*
X004930Y011680D02*
X006162Y011680D01*
X006162Y011757D02*
X004930Y011757D01*
X004930Y011834D02*
X006162Y011834D01*
X006162Y011912D02*
X004930Y011912D01*
X004930Y011989D02*
X006162Y011989D01*
X006162Y012066D02*
X004930Y012066D01*
X004930Y012144D02*
X006162Y012144D01*
X006162Y012221D02*
X004930Y012221D01*
X004930Y012298D02*
X006162Y012298D01*
X006162Y012375D02*
X004930Y012375D01*
X004930Y012453D02*
X006162Y012453D01*
X006162Y012530D02*
X004930Y012530D01*
X004930Y012607D02*
X006162Y012607D01*
X006162Y012684D02*
X004930Y012684D01*
X004930Y012762D02*
X006162Y012762D01*
X006162Y012839D02*
X004930Y012839D01*
X004930Y012916D02*
X006162Y012916D01*
X006208Y012994D02*
X004930Y012994D01*
X004930Y013071D02*
X006286Y013071D01*
X006267Y013052D02*
X006267Y013052D01*
X006363Y013148D02*
X004930Y013148D01*
X004930Y013225D02*
X006440Y013225D01*
X006517Y013303D02*
X004930Y013303D01*
X004930Y013380D02*
X006595Y013380D01*
X006672Y013457D02*
X004930Y013457D01*
X004930Y013535D02*
X006749Y013535D01*
X006827Y013612D02*
X004930Y013612D01*
X004930Y013689D02*
X006904Y013689D01*
X007041Y013574D02*
X006341Y012874D01*
X006341Y006574D01*
X007441Y005474D01*
X008141Y005474D01*
X008097Y005265D02*
X007943Y005265D01*
X008020Y005188D02*
X008174Y005188D01*
X008222Y005111D02*
X008060Y005111D01*
X008060Y005033D02*
X008222Y005033D01*
X008222Y004956D02*
X008060Y004956D01*
X008060Y004879D02*
X008222Y004879D01*
X008222Y004802D02*
X008060Y004802D01*
X007985Y004724D02*
X008297Y004724D01*
X008375Y004647D02*
X007907Y004647D01*
X007830Y004570D02*
X008452Y004570D01*
X008835Y005574D02*
X009722Y005574D01*
X009726Y005652D02*
X008912Y005652D01*
X008989Y005729D02*
X009803Y005729D01*
X009881Y005806D02*
X009060Y005806D01*
X009060Y005884D02*
X009958Y005884D01*
X010324Y005884D02*
X010958Y005884D01*
X010881Y005806D02*
X010402Y005806D01*
X010479Y005729D02*
X010803Y005729D01*
X010726Y005652D02*
X010556Y005652D01*
X010560Y005574D02*
X010722Y005574D01*
X010722Y005497D02*
X010560Y005497D01*
X010560Y005420D02*
X010722Y005420D01*
X010722Y005343D02*
X010560Y005343D01*
X010526Y005265D02*
X010756Y005265D01*
X010834Y005188D02*
X010448Y005188D01*
X010371Y005111D02*
X010911Y005111D01*
X010953Y004879D02*
X010329Y004879D01*
X010406Y004802D02*
X010876Y004802D01*
X010799Y004724D02*
X010484Y004724D01*
X010560Y004647D02*
X010560Y004300D01*
X010430Y004170D01*
X010430Y004163D01*
X010859Y004163D01*
X010722Y004300D01*
X010722Y004647D01*
X010722Y004570D02*
X010560Y004570D01*
X010560Y004492D02*
X010722Y004492D01*
X010722Y004415D02*
X010560Y004415D01*
X010560Y004338D02*
X010722Y004338D01*
X010761Y004261D02*
X010521Y004261D01*
X010444Y004183D02*
X010838Y004183D01*
X011329Y004879D02*
X011953Y004879D01*
X011876Y004802D02*
X011406Y004802D01*
X011484Y004724D02*
X011799Y004724D01*
X011722Y004647D02*
X011722Y004300D01*
X011859Y004163D01*
X011423Y004163D01*
X011560Y004300D01*
X011560Y004647D01*
X011560Y004570D02*
X011722Y004570D01*
X011722Y004492D02*
X011560Y004492D01*
X011560Y004415D02*
X011722Y004415D01*
X011722Y004338D02*
X011560Y004338D01*
X011521Y004261D02*
X011761Y004261D01*
X011838Y004183D02*
X011444Y004183D01*
X011371Y005111D02*
X011911Y005111D01*
X011834Y005188D02*
X011448Y005188D01*
X011526Y005265D02*
X011756Y005265D01*
X011722Y005343D02*
X011560Y005343D01*
X011560Y005420D02*
X011722Y005420D01*
X011722Y005497D02*
X011560Y005497D01*
X011560Y005574D02*
X011722Y005574D01*
X011726Y005652D02*
X011572Y005652D01*
X011649Y005729D02*
X011803Y005729D01*
X011726Y005806D02*
X011881Y005806D01*
X011804Y005884D02*
X011958Y005884D01*
X011881Y005961D02*
X012418Y005961D01*
X012398Y005884D02*
X012324Y005884D01*
X012301Y006038D02*
X011958Y006038D01*
X011941Y006274D02*
X011141Y005474D01*
X011376Y005961D02*
X009060Y005961D01*
X009060Y006038D02*
X011453Y006038D01*
X011530Y006115D02*
X009060Y006115D01*
X009015Y006193D02*
X011607Y006193D01*
X011685Y006270D02*
X008938Y006270D01*
X008861Y006347D02*
X011762Y006347D01*
X011839Y006425D02*
X007043Y006425D01*
X006966Y006502D02*
X012294Y006502D01*
X012541Y006274D02*
X011941Y006274D01*
X012241Y005574D02*
X012141Y005474D01*
X012241Y005574D02*
X012341Y005574D01*
X013541Y006774D01*
X013541Y006974D01*
X013693Y007275D02*
X013889Y007275D01*
X013506Y007584D02*
X014522Y007584D01*
X014444Y007661D02*
X013504Y007661D01*
X013549Y007738D02*
X014367Y007738D01*
X014290Y007816D02*
X013577Y007816D01*
X013577Y007893D02*
X014213Y007893D01*
X014135Y007970D02*
X013565Y007970D01*
X013533Y008047D02*
X014058Y008047D01*
X013981Y008125D02*
X013468Y008125D01*
X013534Y008202D02*
X013904Y008202D01*
X013826Y008279D02*
X013566Y008279D01*
X013577Y008357D02*
X013749Y008357D01*
X013672Y008434D02*
X013577Y008434D01*
X013594Y008511D02*
X013548Y008511D01*
X013241Y008374D02*
X011841Y008374D01*
X011615Y008125D02*
X011329Y008125D01*
X011402Y008202D02*
X011548Y008202D01*
X011516Y008279D02*
X011476Y008279D01*
X011549Y008047D02*
X011255Y008047D01*
X011182Y007970D02*
X011517Y007970D01*
X011505Y007893D02*
X011108Y007893D01*
X011035Y007816D02*
X011505Y007816D01*
X011533Y007738D02*
X010962Y007738D01*
X010888Y007661D02*
X011578Y007661D01*
X011576Y007584D02*
X010815Y007584D01*
X010741Y007506D02*
X011532Y007506D01*
X011505Y007429D02*
X010668Y007429D01*
X010594Y007352D02*
X011505Y007352D01*
X011518Y007275D02*
X010521Y007275D01*
X010448Y007197D02*
X011550Y007197D01*
X011619Y007120D02*
X010374Y007120D01*
X009934Y006656D02*
X013171Y006656D01*
X013241Y007874D02*
X011841Y007874D01*
X011045Y008666D02*
X009430Y008666D01*
X009430Y008743D02*
X011118Y008743D01*
X011191Y008820D02*
X009430Y008820D01*
X009430Y008898D02*
X011265Y008898D01*
X011338Y008975D02*
X009430Y008975D01*
X009430Y009052D02*
X011410Y009052D01*
X011502Y009129D02*
X009430Y009129D01*
X009430Y009207D02*
X011345Y009207D01*
X011336Y009212D02*
X011367Y009194D01*
X011403Y009184D01*
X011822Y009184D01*
X011822Y009524D01*
X011900Y009524D01*
X011900Y009184D01*
X012319Y009184D01*
X012355Y009194D01*
X012387Y009212D01*
X012413Y009238D01*
X012431Y009270D01*
X012440Y009305D01*
X012440Y009524D01*
X011901Y009524D01*
X011901Y009603D01*
X012440Y009603D01*
X012440Y009822D01*
X012431Y009857D01*
X012413Y009889D01*
X012387Y009915D01*
X012355Y009934D01*
X012319Y009943D01*
X011900Y009943D01*
X011900Y009603D01*
X011822Y009603D01*
X011822Y009943D01*
X011403Y009943D01*
X011367Y009934D01*
X011336Y009915D01*
X011310Y009889D01*
X011291Y009857D01*
X011282Y009822D01*
X011282Y009603D01*
X011822Y009603D01*
X011822Y009524D01*
X011282Y009524D01*
X011282Y009305D01*
X011291Y009270D01*
X011310Y009238D01*
X011336Y009212D01*
X011287Y009284D02*
X009430Y009284D01*
X009430Y009361D02*
X011282Y009361D01*
X011282Y009439D02*
X009430Y009439D01*
X009430Y009516D02*
X011282Y009516D01*
X011282Y009670D02*
X009957Y009670D01*
X009993Y009707D02*
X009993Y010184D01*
X011282Y010184D01*
X011282Y010176D01*
X011363Y010094D01*
X012359Y010094D01*
X012440Y010176D01*
X012440Y010771D01*
X012359Y010853D01*
X011363Y010853D01*
X011282Y010771D01*
X011282Y010763D01*
X009993Y010763D01*
X009993Y011240D01*
X009912Y011322D01*
X008930Y011322D01*
X008849Y011240D01*
X008849Y010763D01*
X008595Y010763D01*
X008595Y010764D01*
X008526Y010931D01*
X008398Y011059D01*
X008231Y011128D01*
X008051Y011128D01*
X007884Y011059D01*
X007756Y010931D01*
X007687Y010764D01*
X007687Y010583D01*
X007756Y010416D01*
X007884Y010289D01*
X007635Y010289D01*
X007558Y010366D02*
X007806Y010366D01*
X007745Y010443D02*
X007530Y010443D01*
X007530Y010394D02*
X007530Y012454D01*
X007561Y012484D01*
X007909Y012484D01*
X007687Y012262D01*
X007687Y012113D01*
X008102Y012113D01*
X008102Y012034D01*
X008180Y012034D01*
X008180Y011619D01*
X008329Y011619D01*
X008595Y011885D01*
X008595Y012034D01*
X008181Y012034D01*
X008181Y012113D01*
X008595Y012113D01*
X008595Y012262D01*
X008373Y012484D01*
X011999Y012484D01*
X012105Y012528D01*
X012186Y012610D01*
X012216Y012682D01*
X013388Y013854D01*
X013461Y013927D01*
X013500Y014022D01*
X013500Y015104D01*
X013722Y014883D01*
X013722Y014065D01*
X013722Y013883D01*
X014385Y013220D01*
X014405Y013220D01*
X014405Y013165D01*
X014486Y013083D01*
X014996Y013083D01*
X015076Y013163D01*
X015151Y013089D01*
X015274Y013037D01*
X015408Y013037D01*
X015532Y013089D01*
X015576Y013133D01*
X016014Y013133D01*
X016014Y013048D01*
X016878Y012184D01*
X016864Y012149D01*
X016864Y011999D01*
X016921Y011860D01*
X017027Y011754D01*
X017166Y011697D01*
X017316Y011697D01*
X017455Y011754D01*
X017561Y011860D01*
X017618Y011999D01*
X017618Y012149D01*
X017561Y012287D01*
X017524Y012324D01*
X017561Y012360D01*
X017618Y012499D01*
X017618Y012649D01*
X017561Y012787D01*
X017524Y012824D01*
X017534Y012833D01*
X017575Y012895D01*
X017604Y012964D01*
X017618Y013037D01*
X017618Y013044D01*
X017271Y013044D01*
X017271Y013103D01*
X017618Y013103D01*
X017618Y013111D01*
X017604Y013184D01*
X017575Y013252D01*
X017534Y013314D01*
X017524Y013324D01*
X017561Y013360D01*
X017618Y013499D01*
X017618Y013649D01*
X017561Y013787D01*
X017455Y013893D01*
X017316Y013951D01*
X017166Y013951D01*
X017027Y013893D01*
X016921Y013787D01*
X016864Y013649D01*
X016864Y013499D01*
X016921Y013360D01*
X016958Y013324D01*
X016948Y013314D01*
X016907Y013252D01*
X016878Y013184D01*
X016864Y013111D01*
X016864Y013103D01*
X017211Y013103D01*
X017211Y013044D01*
X016864Y013044D01*
X016864Y013037D01*
X016878Y012964D01*
X016907Y012895D01*
X016948Y012833D01*
X016958Y012824D01*
X016921Y012787D01*
X016880Y012687D01*
X016371Y013197D01*
X016371Y013237D01*
X017320Y014186D01*
X017320Y014334D01*
X017320Y014434D01*
X017499Y014434D01*
X017580Y014516D01*
X017580Y014931D01*
X017499Y015013D01*
X016797Y015013D01*
X016797Y015100D01*
X016481Y015100D01*
X016481Y015178D01*
X016797Y015178D01*
X016797Y015354D01*
X016787Y015390D01*
X016769Y015421D01*
X016743Y015447D01*
X016711Y015466D01*
X016688Y015472D01*
X016715Y015472D01*
X016797Y015554D01*
X016797Y015911D01*
X016820Y015934D01*
X017499Y015934D01*
X017580Y016016D01*
X017580Y016431D01*
X017499Y016513D01*
X016783Y016513D01*
X016702Y016431D01*
X016702Y016322D01*
X016525Y016145D01*
X016167Y016145D01*
X016085Y016063D01*
X016085Y016052D01*
X014931Y016052D01*
X014926Y016064D01*
X014832Y016159D01*
X014708Y016210D01*
X014574Y016210D01*
X014451Y016159D01*
X014356Y016064D01*
X014305Y015941D01*
X014305Y015807D01*
X014356Y015683D01*
X014451Y015589D01*
X014574Y015537D01*
X014708Y015537D01*
X014832Y015589D01*
X014926Y015683D01*
X014931Y015695D01*
X016085Y015695D01*
X016085Y015554D01*
X016167Y015472D01*
X016195Y015472D01*
X016171Y015466D01*
X016139Y015447D01*
X016113Y015421D01*
X016095Y015390D01*
X016085Y015354D01*
X016085Y015178D01*
X016402Y015178D01*
X016402Y015100D01*
X016480Y015100D01*
X016480Y014803D01*
X016676Y014803D01*
X016702Y014810D01*
X016702Y014516D01*
X016783Y014434D01*
X016962Y014434D01*
X016962Y014334D01*
X016118Y013490D01*
X015657Y013490D01*
X015626Y013564D01*
X015532Y013659D01*
X015408Y013710D01*
X015274Y013710D01*
X015151Y013659D01*
X015077Y013585D01*
X015077Y013713D01*
X015015Y013775D01*
X015024Y013780D01*
X015049Y013806D01*
X015068Y013838D01*
X015077Y013873D01*
X015077Y014069D01*
X014781Y014069D01*
X014781Y014148D01*
X015077Y014148D01*
X015077Y014343D01*
X015068Y014379D01*
X015049Y014410D01*
X015024Y014436D01*
X014992Y014455D01*
X014956Y014464D01*
X014780Y014464D01*
X014780Y014148D01*
X014702Y014148D01*
X014702Y014464D01*
X014526Y014464D01*
X014490Y014455D01*
X014459Y014436D01*
X014433Y014410D01*
X014414Y014379D01*
X014405Y014343D01*
X014405Y014148D01*
X014702Y014148D01*
X014702Y014069D01*
X014405Y014069D01*
X014405Y013873D01*
X014414Y013838D01*
X014433Y013806D01*
X014459Y013780D01*
X014467Y013775D01*
X014458Y013767D01*
X014160Y014065D01*
X014160Y014883D01*
X014160Y015065D01*
X013651Y015574D01*
X015095Y017017D01*
X015095Y017199D01*
X015095Y017537D01*
X015145Y017537D01*
X015105Y017441D01*
X015105Y017307D01*
X015156Y017183D01*
X015251Y017089D01*
X015374Y017037D01*
X015508Y017037D01*
X015632Y017089D01*
X015726Y017183D01*
X015731Y017195D01*
X016175Y017195D01*
X016186Y017183D01*
X016544Y017183D01*
X016702Y017026D01*
X016702Y016916D01*
X016783Y016834D01*
X017499Y016834D01*
X017580Y016916D01*
X017580Y017331D01*
X017499Y017413D01*
X016820Y017413D01*
X016777Y017456D01*
X016777Y017813D01*
X016715Y017875D01*
X016724Y017880D01*
X016749Y017906D01*
X016768Y017938D01*
X016777Y017973D01*
X016777Y018169D01*
X016481Y018169D01*
X016481Y018248D01*
X016777Y018248D01*
X016777Y018350D01*
X016787Y018344D01*
X016823Y018334D01*
X017105Y018334D01*
X017105Y018588D01*
X016702Y018588D01*
X016702Y018549D01*
X016692Y018555D01*
X016656Y018564D01*
X016480Y018564D01*
X016480Y018248D01*
X016402Y018248D01*
X016402Y018564D01*
X016226Y018564D01*
X016190Y018555D01*
X016159Y018536D01*
X016133Y018510D01*
X016114Y018479D01*
X016105Y018443D01*
X016105Y018248D01*
X016402Y018248D01*
X016402Y018169D01*
X016105Y018169D01*
X016105Y017973D01*
X016114Y017938D01*
X016133Y017906D01*
X016159Y017880D01*
X016167Y017875D01*
X016105Y017813D01*
X016105Y017552D01*
X015731Y017552D01*
X015726Y017564D01*
X015667Y017624D01*
X015726Y017683D01*
X015777Y017807D01*
X015777Y017941D01*
X015726Y018064D01*
X015632Y018159D01*
X015508Y018210D01*
X015374Y018210D01*
X015251Y018159D01*
X015226Y018134D01*
X015150Y018210D01*
X014601Y018210D01*
X014539Y018148D01*
X014534Y018156D01*
X014509Y018182D01*
X014477Y018200D01*
X014441Y018210D01*
X014246Y018210D01*
X014246Y017913D01*
X014167Y017913D01*
X014167Y017834D01*
X014246Y017834D01*
X014246Y017537D01*
X014441Y017537D01*
X014477Y017547D01*
X014509Y017565D01*
X014534Y017591D01*
X014539Y017600D01*
X014601Y017537D01*
X014656Y017537D01*
X014656Y017199D01*
X013350Y015893D01*
X013250Y015893D01*
X013232Y015893D01*
X012016Y017109D01*
X012080Y017109D01*
X012203Y017160D01*
X012298Y017255D01*
X012349Y017378D01*
X012349Y017512D01*
X012298Y017636D01*
X012203Y017730D01*
X012080Y017782D01*
X011946Y017782D01*
X011827Y017732D01*
X011750Y017810D01*
X011201Y017810D01*
X011139Y017748D01*
X011134Y017756D01*
X011109Y017782D01*
X011077Y017800D01*
X011041Y017810D01*
X010846Y017810D01*
X010846Y017513D01*
X010767Y017513D01*
X010767Y017434D01*
X010451Y017434D01*
X010451Y017258D01*
X010460Y017223D01*
X010478Y017191D01*
X010504Y017165D01*
X010454Y017244D02*
X006660Y017244D01*
X006660Y017321D02*
X010451Y017321D01*
X010451Y017399D02*
X006660Y017399D01*
X006660Y017476D02*
X010767Y017476D01*
X010767Y017513D02*
X010451Y017513D01*
X010451Y017689D01*
X010460Y017724D01*
X010478Y017756D01*
X010504Y017782D01*
X010536Y017800D01*
X010572Y017810D01*
X010767Y017810D01*
X010767Y017513D01*
X010767Y017553D02*
X010846Y017553D01*
X010846Y017631D02*
X010767Y017631D01*
X010767Y017708D02*
X010846Y017708D01*
X010846Y017785D02*
X010767Y017785D01*
X010510Y017785D02*
X006660Y017785D01*
X006660Y017708D02*
X010456Y017708D01*
X010451Y017631D02*
X006660Y017631D01*
X006660Y017553D02*
X010451Y017553D01*
X010767Y017399D02*
X010846Y017399D01*
X010846Y017321D02*
X010767Y017321D01*
X010767Y017244D02*
X010846Y017244D01*
X010846Y017167D02*
X010767Y017167D01*
X011110Y017167D02*
X011172Y017167D01*
X011476Y017474D02*
X011504Y017445D01*
X012013Y017445D01*
X012325Y017321D02*
X012736Y017321D01*
X012662Y017244D02*
X012287Y017244D01*
X012210Y017167D02*
X012662Y017167D01*
X012662Y017090D02*
X012035Y017090D01*
X012113Y017012D02*
X012662Y017012D01*
X012662Y016935D02*
X012190Y016935D01*
X012267Y016858D02*
X012704Y016858D01*
X012781Y016781D02*
X012344Y016781D01*
X012422Y016703D02*
X012859Y016703D01*
X012905Y016626D02*
X012499Y016626D01*
X012576Y016549D02*
X012905Y016549D01*
X012920Y016471D02*
X012654Y016471D01*
X012731Y016394D02*
X012952Y016394D01*
X013022Y016317D02*
X012808Y016317D01*
X012885Y016240D02*
X013169Y016240D01*
X013313Y016240D02*
X013697Y016240D01*
X013774Y016317D02*
X013460Y016317D01*
X013531Y016394D02*
X013851Y016394D01*
X013929Y016471D02*
X013563Y016471D01*
X013577Y016549D02*
X014006Y016549D01*
X014083Y016626D02*
X013577Y016626D01*
X013551Y016703D02*
X014160Y016703D01*
X014238Y016781D02*
X013510Y016781D01*
X013501Y016858D02*
X014315Y016858D01*
X014392Y016935D02*
X013548Y016935D01*
X013577Y017012D02*
X014470Y017012D01*
X014547Y017090D02*
X013577Y017090D01*
X013566Y017167D02*
X014624Y017167D01*
X014656Y017244D02*
X013534Y017244D01*
X013469Y017321D02*
X014656Y017321D01*
X014656Y017399D02*
X013420Y017399D01*
X013420Y017476D02*
X014656Y017476D01*
X014586Y017553D02*
X014488Y017553D01*
X014246Y017553D02*
X014167Y017553D01*
X014167Y017537D02*
X014167Y017834D01*
X013851Y017834D01*
X013851Y017658D01*
X013860Y017623D01*
X013878Y017591D01*
X013904Y017565D01*
X013936Y017547D01*
X013972Y017537D01*
X014167Y017537D01*
X014167Y017631D02*
X014246Y017631D01*
X014246Y017708D02*
X014167Y017708D01*
X014167Y017785D02*
X014246Y017785D01*
X014167Y017862D02*
X013420Y017862D01*
X013420Y017785D02*
X013851Y017785D01*
X013851Y017708D02*
X013420Y017708D01*
X013420Y017631D02*
X013858Y017631D01*
X013925Y017553D02*
X013420Y017553D01*
X013420Y017940D02*
X013851Y017940D01*
X013851Y017913D02*
X014167Y017913D01*
X014167Y018210D01*
X013972Y018210D01*
X013936Y018200D01*
X013904Y018182D01*
X013878Y018156D01*
X013860Y018124D01*
X013851Y018089D01*
X013851Y017913D01*
X013851Y018017D02*
X013420Y018017D01*
X013420Y018094D02*
X013852Y018094D01*
X013894Y018172D02*
X013420Y018172D01*
X013420Y018249D02*
X016105Y018249D01*
X016105Y018326D02*
X013420Y018326D01*
X013420Y018403D02*
X016105Y018403D01*
X016116Y018481D02*
X013420Y018481D01*
X013420Y018558D02*
X016203Y018558D01*
X016402Y018558D02*
X016480Y018558D01*
X016480Y018481D02*
X016402Y018481D01*
X016402Y018403D02*
X016480Y018403D01*
X016480Y018326D02*
X016402Y018326D01*
X016402Y018249D02*
X016480Y018249D01*
X016481Y018172D02*
X020162Y018172D01*
X020162Y018249D02*
X016777Y018249D01*
X016777Y018326D02*
X020162Y018326D01*
X020162Y018403D02*
X019561Y018403D01*
X019553Y018388D02*
X019571Y018420D01*
X019580Y018455D01*
X019580Y018588D01*
X019177Y018588D01*
X019177Y018659D01*
X019580Y018659D01*
X019580Y018792D01*
X019571Y018827D01*
X019553Y018859D01*
X019527Y018885D01*
X019495Y018904D01*
X019459Y018913D01*
X019177Y018913D01*
X019177Y018660D01*
X019105Y018660D01*
X019105Y018913D01*
X018823Y018913D01*
X018787Y018904D01*
X018756Y018885D01*
X018730Y018859D01*
X018711Y018827D01*
X018702Y018792D01*
X018702Y018659D01*
X019105Y018659D01*
X019105Y018588D01*
X018702Y018588D01*
X018702Y018455D01*
X018711Y018420D01*
X018730Y018388D01*
X018756Y018362D01*
X018787Y018344D01*
X018823Y018334D01*
X019105Y018334D01*
X019105Y018588D01*
X019177Y018588D01*
X019177Y018334D01*
X019459Y018334D01*
X019495Y018344D01*
X019527Y018362D01*
X019553Y018388D01*
X019580Y018481D02*
X020162Y018481D01*
X020162Y018558D02*
X019580Y018558D01*
X019580Y018713D02*
X020162Y018713D01*
X020162Y018790D02*
X019580Y018790D01*
X019545Y018867D02*
X020162Y018867D01*
X020162Y018944D02*
X013420Y018944D01*
X013420Y018867D02*
X016737Y018867D01*
X016730Y018859D02*
X016711Y018827D01*
X016702Y018792D01*
X016702Y018659D01*
X017105Y018659D01*
X017105Y018588D01*
X017177Y018588D01*
X017177Y018659D01*
X017580Y018659D01*
X017580Y018792D01*
X017571Y018827D01*
X017553Y018859D01*
X017527Y018885D01*
X017495Y018904D01*
X017459Y018913D01*
X017177Y018913D01*
X017177Y018660D01*
X017105Y018660D01*
X017105Y018913D01*
X016823Y018913D01*
X016787Y018904D01*
X016756Y018885D01*
X016730Y018859D01*
X016702Y018790D02*
X013420Y018790D01*
X013420Y018713D02*
X016702Y018713D01*
X016702Y018558D02*
X016679Y018558D01*
X016777Y018094D02*
X020162Y018094D01*
X020162Y018017D02*
X016777Y018017D01*
X016768Y017940D02*
X020162Y017940D01*
X020162Y017862D02*
X016728Y017862D01*
X016777Y017785D02*
X020162Y017785D01*
X020162Y017708D02*
X016777Y017708D01*
X016777Y017631D02*
X020162Y017631D01*
X020162Y017553D02*
X016777Y017553D01*
X016777Y017476D02*
X020162Y017476D01*
X020162Y017399D02*
X019513Y017399D01*
X019499Y017413D02*
X019580Y017331D01*
X019580Y016916D01*
X019499Y016834D01*
X018783Y016834D01*
X018702Y016916D01*
X018702Y017331D01*
X018783Y017413D01*
X019499Y017413D01*
X019580Y017321D02*
X020162Y017321D01*
X020162Y017244D02*
X019580Y017244D01*
X019580Y017167D02*
X020162Y017167D01*
X020162Y017090D02*
X019580Y017090D01*
X019580Y017012D02*
X020162Y017012D01*
X020162Y016935D02*
X019580Y016935D01*
X019522Y016858D02*
X020162Y016858D01*
X020162Y016781D02*
X014858Y016781D01*
X014935Y016858D02*
X016760Y016858D01*
X016702Y016935D02*
X015013Y016935D01*
X015090Y017012D02*
X016702Y017012D01*
X016638Y017090D02*
X015633Y017090D01*
X015710Y017167D02*
X016560Y017167D01*
X016856Y017124D02*
X016441Y017539D01*
X016276Y017374D01*
X015441Y017374D01*
X015131Y017244D02*
X015095Y017244D01*
X015095Y017167D02*
X015172Y017167D01*
X015095Y017090D02*
X015250Y017090D01*
X015105Y017321D02*
X015095Y017321D01*
X015095Y017399D02*
X015105Y017399D01*
X015095Y017476D02*
X015120Y017476D01*
X014876Y017874D02*
X015441Y017874D01*
X015777Y017862D02*
X016154Y017862D01*
X016114Y017940D02*
X015777Y017940D01*
X015746Y018017D02*
X016105Y018017D01*
X016105Y018094D02*
X015696Y018094D01*
X015600Y018172D02*
X016402Y018172D01*
X016105Y017785D02*
X015768Y017785D01*
X015736Y017708D02*
X016105Y017708D01*
X016105Y017631D02*
X015674Y017631D01*
X015731Y017553D02*
X016105Y017553D01*
X016856Y017124D02*
X017141Y017124D01*
X017580Y017090D02*
X018702Y017090D01*
X018702Y017167D02*
X017580Y017167D01*
X017580Y017244D02*
X018702Y017244D01*
X018702Y017321D02*
X017580Y017321D01*
X017513Y017399D02*
X018769Y017399D01*
X018702Y017012D02*
X017580Y017012D01*
X017580Y016935D02*
X018702Y016935D01*
X018760Y016858D02*
X017522Y016858D01*
X017540Y016471D02*
X018742Y016471D01*
X018702Y016431D02*
X018702Y016016D01*
X018783Y015934D01*
X019499Y015934D01*
X019580Y016016D01*
X019580Y016431D01*
X019499Y016513D01*
X018783Y016513D01*
X018702Y016431D01*
X018702Y016394D02*
X017580Y016394D01*
X017580Y016317D02*
X018702Y016317D01*
X018702Y016240D02*
X017580Y016240D01*
X017580Y016162D02*
X018702Y016162D01*
X018702Y016085D02*
X017580Y016085D01*
X017572Y016008D02*
X018710Y016008D01*
X019572Y016008D02*
X020162Y016008D01*
X020162Y016085D02*
X019580Y016085D01*
X019580Y016162D02*
X020162Y016162D01*
X020162Y016240D02*
X019580Y016240D01*
X019580Y016317D02*
X020162Y016317D01*
X020162Y016394D02*
X019580Y016394D01*
X019540Y016471D02*
X020162Y016471D01*
X020162Y016549D02*
X014626Y016549D01*
X014704Y016626D02*
X020162Y016626D01*
X020162Y016703D02*
X014781Y016703D01*
X014549Y016471D02*
X016742Y016471D01*
X016702Y016394D02*
X014472Y016394D01*
X014394Y016317D02*
X016697Y016317D01*
X016620Y016240D02*
X014317Y016240D01*
X014240Y016162D02*
X014459Y016162D01*
X014377Y016085D02*
X014163Y016085D01*
X014085Y016008D02*
X014333Y016008D01*
X014305Y015930D02*
X014008Y015930D01*
X013931Y015853D02*
X014305Y015853D01*
X014318Y015776D02*
X013853Y015776D01*
X013776Y015699D02*
X014350Y015699D01*
X014418Y015621D02*
X013699Y015621D01*
X013681Y015544D02*
X014558Y015544D01*
X014724Y015544D02*
X016095Y015544D01*
X016085Y015621D02*
X014864Y015621D01*
X014641Y015874D02*
X016376Y015874D01*
X016441Y015808D01*
X016856Y016224D01*
X017141Y016224D01*
X016816Y015930D02*
X020162Y015930D01*
X020162Y015853D02*
X016797Y015853D01*
X016797Y015776D02*
X020090Y015776D01*
X020012Y015699D02*
X016797Y015699D01*
X016797Y015621D02*
X019935Y015621D01*
X019858Y015544D02*
X016787Y015544D01*
X016708Y015467D02*
X019531Y015467D01*
X019454Y015389D02*
X016788Y015389D01*
X016797Y015312D02*
X019413Y015312D01*
X019385Y015235D02*
X016797Y015235D01*
X016797Y015080D02*
X019395Y015080D01*
X019385Y015158D02*
X016481Y015158D01*
X016480Y015080D02*
X016402Y015080D01*
X016402Y015100D02*
X016402Y014803D01*
X016206Y014803D01*
X016171Y014812D01*
X016139Y014831D01*
X016113Y014857D01*
X016095Y014888D01*
X016085Y014924D01*
X016085Y015100D01*
X016402Y015100D01*
X016402Y015158D02*
X014067Y015158D01*
X013990Y015235D02*
X016085Y015235D01*
X016085Y015312D02*
X013913Y015312D01*
X013836Y015389D02*
X016095Y015389D01*
X016174Y015467D02*
X013758Y015467D01*
X013524Y015080D02*
X013500Y015080D01*
X013500Y015003D02*
X013602Y015003D01*
X013679Y014926D02*
X013500Y014926D01*
X013500Y014848D02*
X013722Y014848D01*
X013722Y014771D02*
X013500Y014771D01*
X013500Y014694D02*
X013722Y014694D01*
X013722Y014617D02*
X013500Y014617D01*
X013500Y014539D02*
X013722Y014539D01*
X013722Y014462D02*
X013500Y014462D01*
X013500Y014385D02*
X013722Y014385D01*
X013722Y014307D02*
X013500Y014307D01*
X013500Y014230D02*
X013722Y014230D01*
X013722Y014153D02*
X013500Y014153D01*
X013500Y014076D02*
X013722Y014076D01*
X013722Y013998D02*
X013491Y013998D01*
X013455Y013921D02*
X013722Y013921D01*
X013761Y013844D02*
X013378Y013844D01*
X013301Y013766D02*
X013838Y013766D01*
X013915Y013689D02*
X013223Y013689D01*
X013146Y013612D02*
X013993Y013612D01*
X014070Y013535D02*
X013069Y013535D01*
X012991Y013457D02*
X014147Y013457D01*
X014224Y013380D02*
X012914Y013380D01*
X012837Y013303D02*
X014302Y013303D01*
X014379Y013225D02*
X012760Y013225D01*
X012682Y013148D02*
X014421Y013148D01*
X014741Y013439D02*
X015341Y013374D01*
X015403Y013311D01*
X016192Y013311D01*
X016192Y013123D01*
X017241Y012074D01*
X017588Y012221D02*
X021352Y012221D01*
X021352Y012298D02*
X017550Y012298D01*
X017567Y012375D02*
X021352Y012375D01*
X021352Y012453D02*
X017599Y012453D01*
X017618Y012530D02*
X021352Y012530D01*
X021352Y012607D02*
X017618Y012607D01*
X017603Y012684D02*
X021352Y012684D01*
X021352Y012762D02*
X017571Y012762D01*
X017538Y012839D02*
X021352Y012839D01*
X021352Y012916D02*
X017584Y012916D01*
X017610Y012994D02*
X021352Y012994D01*
X021352Y013071D02*
X017271Y013071D01*
X017211Y013071D02*
X016497Y013071D01*
X016574Y012994D02*
X016872Y012994D01*
X016898Y012916D02*
X016651Y012916D01*
X016728Y012839D02*
X016944Y012839D01*
X016911Y012762D02*
X016806Y012762D01*
X016532Y012530D02*
X012107Y012530D01*
X012184Y012607D02*
X016455Y012607D01*
X016378Y012684D02*
X012219Y012684D01*
X012296Y012762D02*
X016300Y012762D01*
X016223Y012839D02*
X012373Y012839D01*
X012450Y012916D02*
X016146Y012916D01*
X016068Y012994D02*
X012528Y012994D01*
X012605Y013071D02*
X015193Y013071D01*
X015091Y013148D02*
X015061Y013148D01*
X015489Y013071D02*
X016014Y013071D01*
X016192Y013311D02*
X017141Y014260D01*
X017141Y014724D01*
X016962Y014385D02*
X015064Y014385D01*
X015077Y014307D02*
X016935Y014307D01*
X016858Y014230D02*
X015077Y014230D01*
X015077Y014153D02*
X016781Y014153D01*
X016704Y014076D02*
X014781Y014076D01*
X014780Y014153D02*
X014702Y014153D01*
X014702Y014230D02*
X014780Y014230D01*
X014780Y014307D02*
X014702Y014307D01*
X014702Y014385D02*
X014780Y014385D01*
X014780Y014462D02*
X014702Y014462D01*
X014518Y014462D02*
X014160Y014462D01*
X014160Y014385D02*
X014418Y014385D01*
X014405Y014307D02*
X014160Y014307D01*
X014160Y014230D02*
X014405Y014230D01*
X014405Y014153D02*
X014160Y014153D01*
X014160Y014076D02*
X014702Y014076D01*
X014405Y013998D02*
X014227Y013998D01*
X014304Y013921D02*
X014405Y013921D01*
X014413Y013844D02*
X014381Y013844D01*
X015024Y013766D02*
X016394Y013766D01*
X016317Y013689D02*
X015458Y013689D01*
X015578Y013612D02*
X016240Y013612D01*
X016163Y013535D02*
X015638Y013535D01*
X015224Y013689D02*
X015077Y013689D01*
X015077Y013612D02*
X015104Y013612D01*
X015069Y013844D02*
X016472Y013844D01*
X016549Y013921D02*
X015077Y013921D01*
X015077Y013998D02*
X016626Y013998D01*
X016900Y013766D02*
X016913Y013766D01*
X016881Y013689D02*
X016823Y013689D01*
X016864Y013612D02*
X016745Y013612D01*
X016668Y013535D02*
X016864Y013535D01*
X016881Y013457D02*
X016591Y013457D01*
X016514Y013380D02*
X016913Y013380D01*
X016941Y013303D02*
X016436Y013303D01*
X016371Y013225D02*
X016896Y013225D01*
X016871Y013148D02*
X016419Y013148D01*
X016609Y012453D02*
X008405Y012453D01*
X008482Y012375D02*
X016687Y012375D01*
X016764Y012298D02*
X008559Y012298D01*
X008595Y012221D02*
X016841Y012221D01*
X016864Y012144D02*
X008595Y012144D01*
X008595Y011989D02*
X016868Y011989D01*
X016864Y012066D02*
X008181Y012066D01*
X008180Y011989D02*
X008102Y011989D01*
X008102Y012034D02*
X008102Y011619D01*
X007953Y011619D01*
X007687Y011885D01*
X007687Y012034D01*
X008102Y012034D01*
X008102Y012066D02*
X007530Y012066D01*
X007530Y011989D02*
X007687Y011989D01*
X007687Y011912D02*
X007530Y011912D01*
X007530Y011834D02*
X007738Y011834D01*
X007815Y011757D02*
X007530Y011757D01*
X007530Y011680D02*
X007892Y011680D01*
X008102Y011680D02*
X008180Y011680D01*
X008180Y011757D02*
X008102Y011757D01*
X008102Y011834D02*
X008180Y011834D01*
X008180Y011912D02*
X008102Y011912D01*
X008390Y011680D02*
X011282Y011680D01*
X011282Y011603D02*
X007530Y011603D01*
X007530Y011525D02*
X011282Y011525D01*
X011282Y011448D02*
X007530Y011448D01*
X007530Y011371D02*
X011282Y011371D01*
X011282Y011293D02*
X009940Y011293D01*
X009993Y011216D02*
X011282Y011216D01*
X011282Y011139D02*
X009993Y011139D01*
X009993Y011062D02*
X011306Y011062D01*
X011340Y010830D02*
X009993Y010830D01*
X009993Y010907D02*
X012633Y010907D01*
X012598Y010984D02*
X009993Y010984D01*
X009993Y010134D02*
X011324Y010134D01*
X011323Y009902D02*
X009993Y009902D01*
X009993Y009825D02*
X011283Y009825D01*
X011282Y009748D02*
X009993Y009748D01*
X009993Y009707D02*
X009912Y009626D01*
X009430Y009626D01*
X009430Y009616D01*
X009430Y007893D01*
X009479Y007893D01*
X009430Y007970D02*
X010384Y007970D01*
X010457Y008047D02*
X009430Y008047D01*
X009430Y008125D02*
X010531Y008125D01*
X010604Y008202D02*
X009430Y008202D01*
X009430Y008279D02*
X010677Y008279D01*
X010751Y008357D02*
X009430Y008357D01*
X009430Y008434D02*
X010824Y008434D01*
X010898Y008511D02*
X009430Y008511D01*
X009430Y008588D02*
X010971Y008588D01*
X011822Y009207D02*
X011900Y009207D01*
X011900Y009284D02*
X011822Y009284D01*
X011822Y009361D02*
X011900Y009361D01*
X011900Y009439D02*
X011822Y009439D01*
X011822Y009516D02*
X011900Y009516D01*
X011901Y009593D02*
X013221Y009593D01*
X013255Y009516D02*
X012440Y009516D01*
X012440Y009439D02*
X013290Y009439D01*
X013344Y009361D02*
X012440Y009361D01*
X012435Y009284D02*
X013470Y009284D01*
X013186Y009670D02*
X012440Y009670D01*
X012440Y009748D02*
X013152Y009748D01*
X013117Y009825D02*
X012440Y009825D01*
X012400Y009902D02*
X013083Y009902D01*
X013048Y009980D02*
X009993Y009980D01*
X009993Y010057D02*
X013013Y010057D01*
X012979Y010134D02*
X012399Y010134D01*
X012440Y010211D02*
X012944Y010211D01*
X012910Y010289D02*
X012440Y010289D01*
X012440Y010366D02*
X012875Y010366D01*
X012840Y010443D02*
X012440Y010443D01*
X012440Y010521D02*
X012806Y010521D01*
X012771Y010598D02*
X012440Y010598D01*
X012440Y010675D02*
X012737Y010675D01*
X012702Y010752D02*
X012440Y010752D01*
X012382Y010830D02*
X012668Y010830D01*
X012564Y011062D02*
X012416Y011062D01*
X012440Y011680D02*
X013853Y011680D01*
X013851Y011677D02*
X013842Y011642D01*
X013842Y011423D01*
X014382Y011423D01*
X014382Y011763D01*
X013963Y011763D01*
X013927Y011754D01*
X013896Y011735D01*
X013870Y011709D01*
X013851Y011677D01*
X013842Y011603D02*
X012921Y011603D01*
X012991Y011525D02*
X013842Y011525D01*
X013842Y011448D02*
X013025Y011448D01*
X013059Y011371D02*
X014382Y011371D01*
X014382Y011344D02*
X014382Y011423D01*
X014460Y011423D01*
X014460Y011763D01*
X014879Y011763D01*
X014915Y011754D01*
X014947Y011735D01*
X014973Y011709D01*
X014991Y011677D01*
X015000Y011642D01*
X015000Y011423D01*
X014461Y011423D01*
X014461Y011344D01*
X015000Y011344D01*
X015000Y011125D01*
X014991Y011090D01*
X014973Y011058D01*
X014947Y011032D01*
X014915Y011014D01*
X014879Y011004D01*
X014460Y011004D01*
X014460Y011344D01*
X014382Y011344D01*
X014382Y011004D01*
X013963Y011004D01*
X013927Y011014D01*
X013896Y011032D01*
X013870Y011058D01*
X013851Y011090D01*
X013842Y011125D01*
X013842Y011344D01*
X014382Y011344D01*
X014382Y011293D02*
X014460Y011293D01*
X014460Y011216D02*
X014382Y011216D01*
X014382Y011139D02*
X014460Y011139D01*
X014460Y011062D02*
X014382Y011062D01*
X014461Y011371D02*
X021352Y011371D01*
X021352Y011448D02*
X015000Y011448D01*
X015000Y011525D02*
X021352Y011525D01*
X021352Y011603D02*
X015000Y011603D01*
X014990Y011680D02*
X021352Y011680D01*
X021352Y011757D02*
X017458Y011757D01*
X017535Y011834D02*
X021352Y011834D01*
X021352Y011912D02*
X017582Y011912D01*
X017614Y011989D02*
X021352Y011989D01*
X021352Y012066D02*
X017618Y012066D01*
X017618Y012144D02*
X021352Y012144D01*
X021352Y011293D02*
X017380Y011293D01*
X017434Y011216D02*
X021352Y011216D01*
X021352Y011139D02*
X017434Y011139D01*
X017434Y011062D02*
X017886Y011062D01*
X017953Y011128D02*
X017687Y010862D01*
X017687Y010713D01*
X018102Y010713D01*
X018102Y011128D01*
X017953Y011128D01*
X018102Y011062D02*
X018180Y011062D01*
X018180Y011128D02*
X018180Y010713D01*
X018102Y010713D01*
X018102Y010634D01*
X018180Y010634D01*
X018180Y010219D01*
X018329Y010219D01*
X018595Y010485D01*
X018595Y010634D01*
X018181Y010634D01*
X018181Y010713D01*
X018595Y010713D01*
X018595Y010862D01*
X018329Y011128D01*
X018180Y011128D01*
X018180Y010984D02*
X018102Y010984D01*
X018102Y010907D02*
X018180Y010907D01*
X018180Y010830D02*
X018102Y010830D01*
X018102Y010752D02*
X018180Y010752D01*
X018181Y010675D02*
X021352Y010675D01*
X021352Y010598D02*
X018595Y010598D01*
X018595Y010521D02*
X021352Y010521D01*
X021352Y010443D02*
X018553Y010443D01*
X018476Y010366D02*
X021352Y010366D01*
X021352Y010289D02*
X018399Y010289D01*
X018180Y010289D02*
X018102Y010289D01*
X018102Y010219D02*
X018102Y010634D01*
X017687Y010634D01*
X017687Y010485D01*
X017953Y010219D01*
X018102Y010219D01*
X018102Y010366D02*
X018180Y010366D01*
X018180Y010443D02*
X018102Y010443D01*
X018102Y010521D02*
X018180Y010521D01*
X018180Y010598D02*
X018102Y010598D01*
X018102Y010675D02*
X017434Y010675D01*
X017434Y010598D02*
X017687Y010598D01*
X017687Y010521D02*
X017434Y010521D01*
X017434Y010443D02*
X017729Y010443D01*
X017806Y010366D02*
X017458Y010366D01*
X017535Y010289D02*
X017884Y010289D01*
X017690Y010134D02*
X021352Y010134D01*
X021352Y010057D02*
X017767Y010057D01*
X017844Y009980D02*
X021352Y009980D01*
X021352Y009902D02*
X017922Y009902D01*
X017999Y009825D02*
X021352Y009825D01*
X021352Y009748D02*
X018076Y009748D01*
X018371Y009670D02*
X021352Y009670D01*
X021352Y009593D02*
X018464Y009593D01*
X018533Y009516D02*
X021352Y009516D01*
X021352Y009439D02*
X018565Y009439D01*
X018595Y009361D02*
X021352Y009361D01*
X021352Y009284D02*
X018595Y009284D01*
X018595Y009207D02*
X021352Y009207D01*
X021352Y009129D02*
X018573Y009129D01*
X018541Y009052D02*
X021352Y009052D01*
X021352Y008975D02*
X018485Y008975D01*
X018408Y008898D02*
X021352Y008898D01*
X021352Y008820D02*
X018234Y008820D01*
X018020Y008743D02*
X021352Y008743D01*
X021352Y008666D02*
X017942Y008666D01*
X017865Y008588D02*
X021352Y008588D01*
X021352Y008511D02*
X017788Y008511D01*
X017711Y008434D02*
X021352Y008434D01*
X021352Y008357D02*
X017633Y008357D01*
X017556Y008279D02*
X021352Y008279D01*
X021352Y008202D02*
X017479Y008202D01*
X017430Y008125D02*
X021352Y008125D01*
X021352Y008047D02*
X017430Y008047D01*
X017430Y007893D02*
X017479Y007893D01*
X018057Y007893D01*
X018058Y007893D02*
X017904Y007829D01*
X017786Y007711D01*
X017722Y007557D01*
X017722Y007390D01*
X017786Y007236D01*
X017904Y007118D01*
X018058Y007054D01*
X018225Y007054D01*
X018379Y007118D01*
X018445Y007184D01*
X021352Y007184D01*
X021352Y004594D01*
X020921Y004163D01*
X018817Y004163D01*
X018893Y004239D01*
X018956Y004391D01*
X018956Y004556D01*
X018934Y004611D01*
X019059Y004559D01*
X019224Y004559D01*
X019376Y004622D01*
X019493Y004739D01*
X019556Y004891D01*
X019556Y005056D01*
X019493Y005209D01*
X019376Y005325D01*
X019224Y005389D01*
X019135Y005389D01*
X017905Y006619D01*
X017799Y006663D01*
X017684Y006663D01*
X016861Y006663D01*
X015886Y007637D01*
X016008Y007637D01*
X016132Y007689D01*
X016191Y007748D01*
X016251Y007689D01*
X016374Y007637D01*
X016508Y007637D01*
X016632Y007689D01*
X016722Y007779D01*
X016722Y007136D01*
X016803Y007054D01*
X017479Y007054D01*
X017560Y007136D01*
X017560Y007811D01*
X017479Y007893D01*
X017556Y007816D02*
X017890Y007816D01*
X017813Y007738D02*
X017560Y007738D01*
X017560Y007661D02*
X017765Y007661D01*
X017733Y007584D02*
X017560Y007584D01*
X017560Y007506D02*
X017722Y007506D01*
X017722Y007429D02*
X017560Y007429D01*
X017560Y007352D02*
X017738Y007352D01*
X017770Y007275D02*
X017560Y007275D01*
X017560Y007197D02*
X017824Y007197D01*
X017902Y007120D02*
X017545Y007120D01*
X017815Y006656D02*
X021352Y006656D01*
X021352Y006579D02*
X017945Y006579D01*
X018022Y006502D02*
X021352Y006502D01*
X021352Y006425D02*
X018099Y006425D01*
X018177Y006347D02*
X021352Y006347D01*
X021352Y006270D02*
X018254Y006270D01*
X018331Y006193D02*
X021352Y006193D01*
X021352Y006115D02*
X018409Y006115D01*
X018486Y006038D02*
X021352Y006038D01*
X021352Y005961D02*
X018563Y005961D01*
X018640Y005884D02*
X021352Y005884D01*
X021352Y005806D02*
X018718Y005806D01*
X018795Y005729D02*
X021352Y005729D01*
X021352Y005652D02*
X018872Y005652D01*
X018950Y005574D02*
X021352Y005574D01*
X021352Y005497D02*
X019027Y005497D01*
X019104Y005420D02*
X021352Y005420D01*
X021352Y005343D02*
X019335Y005343D01*
X019436Y005265D02*
X021352Y005265D01*
X021352Y005188D02*
X019501Y005188D01*
X019533Y005111D02*
X021352Y005111D01*
X021352Y005033D02*
X019556Y005033D01*
X019556Y004956D02*
X021352Y004956D01*
X021352Y004879D02*
X019551Y004879D01*
X019519Y004802D02*
X021352Y004802D01*
X021352Y004724D02*
X019479Y004724D01*
X019401Y004647D02*
X021352Y004647D01*
X021328Y004570D02*
X019250Y004570D01*
X019032Y004570D02*
X018950Y004570D01*
X018956Y004492D02*
X021251Y004492D01*
X021173Y004415D02*
X018956Y004415D01*
X018934Y004338D02*
X021096Y004338D01*
X021019Y004261D02*
X018902Y004261D01*
X018838Y004183D02*
X020942Y004183D01*
X019214Y003184D02*
X018953Y003184D01*
X018893Y003039D01*
X018776Y002922D01*
X018624Y002859D01*
X018459Y002859D01*
X018306Y002922D01*
X018189Y003039D01*
X018129Y003184D01*
X011960Y003184D01*
X011960Y001730D01*
X012026Y001664D01*
X012077Y001541D01*
X012077Y001407D01*
X012026Y001283D01*
X011932Y001189D01*
X011808Y001137D01*
X011674Y001137D01*
X011551Y001189D01*
X011456Y001283D01*
X011405Y001407D01*
X011405Y001541D01*
X011456Y001664D01*
X011522Y001730D01*
X011522Y003184D01*
X007051Y003184D01*
X007226Y003084D01*
X007226Y003084D01*
X007578Y002704D01*
X007578Y002703D01*
X007803Y002236D01*
X007803Y002236D01*
X007880Y001724D01*
X007803Y001211D01*
X007803Y001211D01*
X007578Y000744D01*
X007578Y000744D01*
X007550Y000713D01*
X018749Y000713D01*
X018574Y000969D01*
X018574Y000969D01*
X018421Y001464D01*
X018421Y001464D01*
X018421Y001983D01*
X018421Y001983D01*
X018574Y002478D01*
X018574Y002478D01*
X018866Y002907D01*
X018866Y002907D01*
X018866Y002907D01*
X019214Y003184D01*
X019207Y003179D02*
X018951Y003179D01*
X018919Y003101D02*
X019110Y003101D01*
X019013Y003024D02*
X018878Y003024D01*
X018916Y002947D02*
X018801Y002947D01*
X018841Y002869D02*
X018650Y002869D01*
X018788Y002792D02*
X016778Y002792D01*
X016743Y002827D02*
X016590Y002890D01*
X016424Y002890D01*
X016271Y002827D01*
X016154Y002710D01*
X016091Y002557D01*
X016091Y002391D01*
X016154Y002238D01*
X016271Y002121D01*
X016424Y002057D01*
X016590Y002057D01*
X016743Y002121D01*
X016860Y002238D01*
X016924Y002391D01*
X016924Y002557D01*
X016860Y002710D01*
X016743Y002827D01*
X016640Y002869D02*
X018433Y002869D01*
X018281Y002947D02*
X011960Y002947D01*
X011960Y003024D02*
X018204Y003024D01*
X018163Y003101D02*
X011960Y003101D01*
X011960Y003179D02*
X018131Y003179D01*
X018735Y002715D02*
X016855Y002715D01*
X016890Y002638D02*
X018683Y002638D01*
X018630Y002560D02*
X016922Y002560D01*
X016924Y002483D02*
X018577Y002483D01*
X018552Y002406D02*
X016924Y002406D01*
X016898Y002329D02*
X018528Y002329D01*
X018504Y002251D02*
X016866Y002251D01*
X016797Y002174D02*
X018480Y002174D01*
X018456Y002097D02*
X016685Y002097D01*
X016329Y002097D02*
X014953Y002097D01*
X015011Y002121D02*
X015128Y002238D01*
X015191Y002391D01*
X015191Y002557D01*
X015128Y002710D01*
X015011Y002827D01*
X014858Y002890D01*
X014692Y002890D01*
X014539Y002827D01*
X014422Y002710D01*
X014358Y002557D01*
X014358Y002391D01*
X014422Y002238D01*
X014539Y002121D01*
X014692Y002057D01*
X014858Y002057D01*
X015011Y002121D01*
X015064Y002174D02*
X016218Y002174D01*
X016149Y002251D02*
X015134Y002251D01*
X015166Y002329D02*
X016116Y002329D01*
X016091Y002406D02*
X015191Y002406D01*
X015191Y002483D02*
X016091Y002483D01*
X016092Y002560D02*
X015190Y002560D01*
X015158Y002638D02*
X016124Y002638D01*
X016159Y002715D02*
X015123Y002715D01*
X015045Y002792D02*
X016237Y002792D01*
X016374Y002869D02*
X014908Y002869D01*
X014642Y002869D02*
X011960Y002869D01*
X011960Y002792D02*
X014504Y002792D01*
X014427Y002715D02*
X011960Y002715D01*
X011960Y002638D02*
X014392Y002638D01*
X014360Y002560D02*
X011960Y002560D01*
X011960Y002483D02*
X014358Y002483D01*
X014358Y002406D02*
X011960Y002406D01*
X011960Y002329D02*
X014384Y002329D01*
X014416Y002251D02*
X011960Y002251D01*
X011960Y002174D02*
X014486Y002174D01*
X014597Y002097D02*
X011960Y002097D01*
X011960Y002019D02*
X018432Y002019D01*
X018421Y001942D02*
X011960Y001942D01*
X011960Y001865D02*
X018421Y001865D01*
X018421Y001788D02*
X011960Y001788D01*
X011980Y001710D02*
X018421Y001710D01*
X018421Y001633D02*
X012039Y001633D01*
X012071Y001556D02*
X018421Y001556D01*
X018421Y001478D02*
X012077Y001478D01*
X012075Y001401D02*
X018441Y001401D01*
X018464Y001324D02*
X012043Y001324D01*
X011989Y001247D02*
X018488Y001247D01*
X018512Y001169D02*
X011885Y001169D01*
X011597Y001169D02*
X007783Y001169D01*
X007808Y001247D02*
X011493Y001247D01*
X011439Y001324D02*
X007820Y001324D01*
X007832Y001401D02*
X011407Y001401D01*
X011405Y001478D02*
X007843Y001478D01*
X007855Y001556D02*
X011411Y001556D01*
X011443Y001633D02*
X007867Y001633D01*
X007878Y001710D02*
X011502Y001710D01*
X011522Y001788D02*
X007871Y001788D01*
X007859Y001865D02*
X011522Y001865D01*
X011522Y001942D02*
X007848Y001942D01*
X007836Y002019D02*
X011522Y002019D01*
X011522Y002097D02*
X007824Y002097D01*
X007813Y002174D02*
X011522Y002174D01*
X011522Y002251D02*
X007796Y002251D01*
X007759Y002329D02*
X011522Y002329D01*
X011522Y002406D02*
X007722Y002406D01*
X007684Y002483D02*
X011522Y002483D01*
X011522Y002560D02*
X007647Y002560D01*
X007610Y002638D02*
X011522Y002638D01*
X011522Y002715D02*
X007568Y002715D01*
X007496Y002792D02*
X011522Y002792D01*
X011522Y002869D02*
X007424Y002869D01*
X007353Y002947D02*
X011522Y002947D01*
X011522Y003024D02*
X007281Y003024D01*
X007195Y003101D02*
X011522Y003101D01*
X011522Y003179D02*
X007061Y003179D01*
X007746Y001092D02*
X018536Y001092D01*
X018560Y001015D02*
X007709Y001015D01*
X007671Y000937D02*
X018596Y000937D01*
X018648Y000860D02*
X007634Y000860D01*
X007597Y000783D02*
X018701Y000783D01*
X015722Y005574D02*
X015560Y005574D01*
X015556Y005652D02*
X015726Y005652D01*
X015803Y005729D02*
X015479Y005729D01*
X015402Y005806D02*
X015881Y005806D01*
X015958Y005884D02*
X015324Y005884D01*
X016404Y007120D02*
X016738Y007120D01*
X016722Y007197D02*
X016327Y007197D01*
X016249Y007275D02*
X016722Y007275D01*
X016722Y007352D02*
X016172Y007352D01*
X016095Y007429D02*
X016722Y007429D01*
X016722Y007506D02*
X016017Y007506D01*
X015940Y007584D02*
X016722Y007584D01*
X016722Y007661D02*
X016565Y007661D01*
X016681Y007738D02*
X016722Y007738D01*
X016777Y007970D02*
X016852Y007970D01*
X016852Y008047D02*
X016774Y008047D01*
X016742Y008125D02*
X016852Y008125D01*
X016852Y008202D02*
X016688Y008202D01*
X016620Y008279D02*
X016852Y008279D01*
X016862Y008357D02*
X016620Y008357D01*
X016620Y008434D02*
X016894Y008434D01*
X016969Y008511D02*
X016620Y008511D01*
X016620Y008588D02*
X017047Y008588D01*
X017124Y008666D02*
X016620Y008666D01*
X016620Y008743D02*
X017201Y008743D01*
X017279Y008820D02*
X016620Y008820D01*
X016640Y008898D02*
X017356Y008898D01*
X017433Y008975D02*
X016718Y008975D01*
X016755Y009052D02*
X017510Y009052D01*
X017588Y009129D02*
X016777Y009129D01*
X016777Y009207D02*
X017665Y009207D01*
X017687Y009284D02*
X016759Y009284D01*
X016727Y009361D02*
X017644Y009361D01*
X017567Y009439D02*
X016652Y009439D01*
X016441Y009174D02*
X016441Y007974D01*
X016201Y007738D02*
X016181Y007738D01*
X016065Y007661D02*
X016317Y007661D01*
X015941Y007974D02*
X015941Y009174D01*
X015627Y009052D02*
X014930Y009052D01*
X014930Y008975D02*
X015664Y008975D01*
X015742Y008898D02*
X014930Y008898D01*
X014930Y008820D02*
X015762Y008820D01*
X015762Y008743D02*
X014930Y008743D01*
X014930Y008666D02*
X015762Y008666D01*
X015762Y008588D02*
X014936Y008588D01*
X015013Y008511D02*
X015762Y008511D01*
X015762Y008434D02*
X015090Y008434D01*
X015167Y008357D02*
X015762Y008357D01*
X015762Y008279D02*
X015245Y008279D01*
X015322Y008202D02*
X015694Y008202D01*
X015640Y008125D02*
X015399Y008125D01*
X015476Y008047D02*
X015608Y008047D01*
X015605Y007970D02*
X015554Y007970D01*
X015605Y009129D02*
X014930Y009129D01*
X014941Y009207D02*
X015605Y009207D01*
X015623Y009284D02*
X015000Y009284D01*
X015000Y009361D02*
X015655Y009361D01*
X015731Y009439D02*
X015000Y009439D01*
X015000Y009516D02*
X017490Y009516D01*
X017412Y009593D02*
X015000Y009593D01*
X015000Y009670D02*
X016326Y009670D01*
X016289Y009748D02*
X015000Y009748D01*
X015000Y009825D02*
X016289Y009825D01*
X016289Y009902D02*
X014960Y009902D01*
X014959Y010134D02*
X016289Y010134D01*
X016289Y010057D02*
X013647Y010057D01*
X013613Y010134D02*
X013884Y010134D01*
X013842Y010211D02*
X013578Y010211D01*
X013544Y010289D02*
X013842Y010289D01*
X013842Y010366D02*
X013509Y010366D01*
X013474Y010443D02*
X013842Y010443D01*
X013842Y010521D02*
X013440Y010521D01*
X013405Y010598D02*
X013842Y010598D01*
X013842Y010675D02*
X013371Y010675D01*
X013336Y010752D02*
X013842Y010752D01*
X013900Y010830D02*
X013302Y010830D01*
X013267Y010907D02*
X016289Y010907D01*
X016289Y010984D02*
X013232Y010984D01*
X013198Y011062D02*
X013868Y011062D01*
X013842Y011139D02*
X013163Y011139D01*
X013129Y011216D02*
X013842Y011216D01*
X013842Y011293D02*
X013094Y011293D01*
X012365Y011757D02*
X013941Y011757D01*
X014382Y011757D02*
X014460Y011757D01*
X014460Y011680D02*
X014382Y011680D01*
X014382Y011603D02*
X014460Y011603D01*
X014460Y011525D02*
X014382Y011525D01*
X014382Y011448D02*
X014460Y011448D01*
X014902Y011757D02*
X017024Y011757D01*
X016947Y011834D02*
X008544Y011834D01*
X008595Y011912D02*
X016900Y011912D01*
X016342Y011293D02*
X015000Y011293D01*
X015000Y011216D02*
X016289Y011216D01*
X016289Y011139D02*
X015000Y011139D01*
X014975Y011062D02*
X016289Y011062D01*
X016289Y010830D02*
X014942Y010830D01*
X013883Y009902D02*
X013717Y009902D01*
X013682Y009980D02*
X016289Y009980D01*
X016231Y009439D02*
X016152Y009439D01*
X017613Y010211D02*
X021352Y010211D01*
X021352Y010752D02*
X018595Y010752D01*
X018595Y010830D02*
X021352Y010830D01*
X021352Y010907D02*
X018550Y010907D01*
X018473Y010984D02*
X021352Y010984D01*
X021352Y011062D02*
X018396Y011062D01*
X017809Y010984D02*
X017434Y010984D01*
X017434Y010907D02*
X017732Y010907D01*
X017687Y010830D02*
X017434Y010830D01*
X017434Y010752D02*
X017687Y010752D01*
X017611Y013148D02*
X021352Y013148D01*
X021352Y013225D02*
X017586Y013225D01*
X017542Y013303D02*
X021352Y013303D01*
X021352Y013380D02*
X017569Y013380D01*
X017601Y013457D02*
X021352Y013457D01*
X021352Y013535D02*
X017618Y013535D01*
X017618Y013612D02*
X021352Y013612D01*
X021352Y013689D02*
X017601Y013689D01*
X017569Y013766D02*
X021352Y013766D01*
X021352Y013844D02*
X017504Y013844D01*
X017388Y013921D02*
X021352Y013921D01*
X021352Y013998D02*
X017132Y013998D01*
X017094Y013921D02*
X017055Y013921D01*
X016978Y013844D02*
X016977Y013844D01*
X017209Y014076D02*
X021352Y014076D01*
X021352Y014153D02*
X017286Y014153D01*
X017320Y014230D02*
X021352Y014230D01*
X021352Y014307D02*
X017320Y014307D01*
X017320Y014385D02*
X021352Y014385D01*
X021352Y014462D02*
X019526Y014462D01*
X019580Y014539D02*
X021355Y014539D01*
X021382Y014617D02*
X019580Y014617D01*
X019580Y014694D02*
X021382Y014694D01*
X021382Y014771D02*
X019580Y014771D01*
X019580Y014848D02*
X019596Y014848D01*
X019886Y014848D02*
X020196Y014848D01*
X020086Y014926D02*
X019996Y014926D01*
X020486Y014848D02*
X021382Y014848D01*
X021382Y014926D02*
X020596Y014926D01*
X020656Y015003D02*
X021382Y015003D01*
X021382Y015080D02*
X020688Y015080D01*
X020697Y015158D02*
X021382Y015158D01*
X021382Y015235D02*
X020697Y015235D01*
X020720Y015312D02*
X021382Y015312D01*
X021382Y015389D02*
X020720Y015389D01*
X020720Y015467D02*
X021382Y015467D01*
X021382Y015544D02*
X020720Y015544D01*
X020720Y015621D02*
X021382Y015621D01*
X021382Y015699D02*
X020720Y015699D01*
X020720Y015776D02*
X021382Y015776D01*
X021382Y015853D02*
X020720Y015853D01*
X020720Y015930D02*
X021382Y015930D01*
X021382Y016008D02*
X020720Y016008D01*
X020720Y016085D02*
X021382Y016085D01*
X021382Y016162D02*
X020720Y016162D01*
X020720Y016240D02*
X021382Y016240D01*
X021382Y016317D02*
X020720Y016317D01*
X020720Y016394D02*
X021382Y016394D01*
X021382Y016471D02*
X020720Y016471D01*
X020720Y016549D02*
X021391Y016549D01*
X021427Y016626D02*
X020720Y016626D01*
X020720Y016703D02*
X021518Y016703D01*
X021641Y016781D02*
X020720Y016781D01*
X020720Y016858D02*
X021641Y016858D01*
X021641Y016935D02*
X020720Y016935D01*
X020720Y017012D02*
X021641Y017012D01*
X021641Y017090D02*
X020720Y017090D01*
X020720Y017167D02*
X021641Y017167D01*
X021641Y017244D02*
X020720Y017244D01*
X020720Y017321D02*
X021641Y017321D01*
X021641Y017399D02*
X020720Y017399D01*
X020720Y017476D02*
X021641Y017476D01*
X021641Y017553D02*
X020720Y017553D01*
X020720Y017631D02*
X021641Y017631D01*
X021641Y017708D02*
X020720Y017708D01*
X020720Y017785D02*
X021641Y017785D01*
X021641Y017862D02*
X020720Y017862D01*
X020720Y017940D02*
X021641Y017940D01*
X021641Y018017D02*
X020720Y018017D01*
X020720Y018094D02*
X021641Y018094D01*
X021641Y018172D02*
X020720Y018172D01*
X020720Y018249D02*
X021641Y018249D01*
X021641Y018326D02*
X020720Y018326D01*
X020720Y018403D02*
X021641Y018403D01*
X021641Y018481D02*
X020720Y018481D01*
X020720Y018558D02*
X021641Y018558D01*
X021641Y018635D02*
X020720Y018635D01*
X020720Y018713D02*
X021641Y018713D01*
X021641Y018790D02*
X020720Y018790D01*
X020720Y018867D02*
X021641Y018867D01*
X021641Y018944D02*
X020720Y018944D01*
X020720Y019022D02*
X021641Y019022D01*
X021641Y019099D02*
X020720Y019099D01*
X020720Y019176D02*
X021641Y019176D01*
X021641Y019254D02*
X020720Y019254D01*
X020720Y019331D02*
X021641Y019331D01*
X021641Y019408D02*
X020720Y019408D01*
X020720Y019485D02*
X021641Y019485D01*
X021641Y019563D02*
X020720Y019563D01*
X020720Y019640D02*
X021641Y019640D01*
X021641Y019717D02*
X020720Y019717D01*
X020720Y019795D02*
X021641Y019795D01*
X021641Y019872D02*
X020720Y019872D01*
X020720Y019949D02*
X021641Y019949D01*
X021641Y020026D02*
X020720Y020026D01*
X020720Y020104D02*
X021641Y020104D01*
X021641Y020181D02*
X020720Y020181D01*
X020720Y020258D02*
X021641Y020258D01*
X021641Y020336D02*
X020720Y020336D01*
X020720Y020413D02*
X021641Y020413D01*
X021641Y020490D02*
X020720Y020490D01*
X020720Y020567D02*
X021641Y020567D01*
X021641Y020645D02*
X020720Y020645D01*
X020720Y020722D02*
X021641Y020722D01*
X021641Y020799D02*
X020720Y020799D01*
X020720Y020877D02*
X021641Y020877D01*
X021641Y020954D02*
X020720Y020954D01*
X020720Y021031D02*
X021641Y021031D01*
X021641Y021108D02*
X020720Y021108D01*
X020720Y021186D02*
X021641Y021186D01*
X021641Y021263D02*
X020720Y021263D01*
X020720Y021340D02*
X021641Y021340D01*
X021641Y021418D02*
X020720Y021418D01*
X020720Y021495D02*
X021641Y021495D01*
X021641Y021572D02*
X020720Y021572D01*
X020720Y021649D02*
X021641Y021649D01*
X021641Y021727D02*
X020720Y021727D01*
X020720Y021804D02*
X021641Y021804D01*
X021641Y021881D02*
X020720Y021881D01*
X020720Y021959D02*
X021641Y021959D01*
X021641Y022036D02*
X020720Y022036D01*
X020720Y022113D02*
X021641Y022113D01*
X021641Y022190D02*
X020720Y022190D01*
X020720Y022268D02*
X021641Y022268D01*
X021641Y022345D02*
X020720Y022345D01*
X020793Y022422D02*
X021641Y022422D01*
X021641Y022499D02*
X020871Y022499D01*
X020948Y022577D02*
X021641Y022577D01*
X021641Y022654D02*
X021025Y022654D01*
X021102Y022731D02*
X021641Y022731D01*
X021641Y022809D02*
X021180Y022809D01*
X021257Y022886D02*
X021641Y022886D01*
X021641Y022963D02*
X021334Y022963D01*
X021412Y023040D02*
X021641Y023040D01*
X021641Y023118D02*
X021489Y023118D01*
X021566Y023195D02*
X021641Y023195D01*
X021875Y023504D02*
X024902Y023504D01*
X024902Y023581D02*
X021952Y023581D01*
X022030Y023659D02*
X024902Y023659D01*
X024908Y023736D02*
X022107Y023736D01*
X021763Y024200D02*
X021537Y024200D01*
X021578Y024244D02*
X021803Y024711D01*
X021880Y025224D01*
X021803Y025736D01*
X021803Y025736D01*
X021578Y026203D01*
X021578Y026204D02*
X021226Y026584D01*
X020776Y026843D01*
X020271Y026958D01*
X019754Y026919D01*
X019271Y026730D01*
X018866Y026407D01*
X018866Y026407D01*
X018866Y026407D01*
X018574Y025978D01*
X018421Y025483D01*
X018421Y024964D01*
X018574Y024469D01*
X018866Y024041D01*
X018866Y024041D01*
X019271Y023717D01*
X019271Y023717D01*
X019754Y023528D01*
X020271Y023489D01*
X020776Y023605D01*
X020777Y023605D02*
X021226Y023864D01*
X021578Y024244D01*
X021578Y024244D01*
X021594Y024277D02*
X021841Y024277D01*
X021686Y024122D02*
X021466Y024122D01*
X021394Y024045D02*
X021609Y024045D01*
X021532Y023968D02*
X021322Y023968D01*
X021250Y023891D02*
X021454Y023891D01*
X021377Y023813D02*
X021138Y023813D01*
X021226Y023864D02*
X021226Y023864D01*
X021300Y023736D02*
X021004Y023736D01*
X020870Y023659D02*
X021222Y023659D01*
X021145Y023581D02*
X020675Y023581D01*
X020776Y023605D02*
X020777Y023605D01*
X020991Y023427D02*
X016060Y023427D01*
X016060Y023434D02*
X015681Y023434D01*
X015681Y023513D01*
X016060Y023513D01*
X016060Y023647D01*
X015815Y023893D01*
X015680Y023893D01*
X015680Y023513D01*
X015602Y023513D01*
X015602Y023893D01*
X015467Y023893D01*
X015222Y023647D01*
X015222Y023513D01*
X015602Y023513D01*
X015602Y023434D01*
X015680Y023434D01*
X015680Y023054D01*
X015815Y023054D01*
X016060Y023300D01*
X016060Y023434D01*
X016060Y023350D02*
X020913Y023350D01*
X020836Y023272D02*
X016033Y023272D01*
X015955Y023195D02*
X020759Y023195D01*
X020681Y023118D02*
X015878Y023118D01*
X015680Y023118D02*
X015602Y023118D01*
X015602Y023054D02*
X015602Y023434D01*
X015222Y023434D01*
X015222Y023300D01*
X015467Y023054D01*
X015602Y023054D01*
X015602Y023195D02*
X015680Y023195D01*
X015680Y023272D02*
X015602Y023272D01*
X015602Y023350D02*
X015680Y023350D01*
X015680Y023427D02*
X015602Y023427D01*
X015602Y023504D02*
X014681Y023504D01*
X014681Y023513D02*
X015060Y023513D01*
X015060Y023647D01*
X014815Y023893D01*
X014680Y023893D01*
X014680Y023513D01*
X014602Y023513D01*
X014602Y023893D01*
X014467Y023893D01*
X014222Y023647D01*
X014222Y023513D01*
X014602Y023513D01*
X014602Y023434D01*
X014680Y023434D01*
X014680Y023054D01*
X014815Y023054D01*
X015060Y023300D01*
X015060Y023434D01*
X014681Y023434D01*
X014681Y023513D01*
X014680Y023581D02*
X014602Y023581D01*
X014602Y023504D02*
X014060Y023504D01*
X014060Y023427D02*
X014222Y023427D01*
X014222Y023434D02*
X014222Y023300D01*
X014467Y023054D01*
X014602Y023054D01*
X014602Y023434D01*
X014222Y023434D01*
X014222Y023350D02*
X014060Y023350D01*
X014033Y023272D02*
X014249Y023272D01*
X014327Y023195D02*
X013955Y023195D01*
X013878Y023118D02*
X014404Y023118D01*
X014602Y023118D02*
X014680Y023118D01*
X014680Y023195D02*
X014602Y023195D01*
X014602Y023272D02*
X014680Y023272D01*
X014680Y023350D02*
X014602Y023350D01*
X014602Y023427D02*
X014680Y023427D01*
X014680Y023659D02*
X014602Y023659D01*
X014602Y023736D02*
X014680Y023736D01*
X014680Y023813D02*
X014602Y023813D01*
X014602Y023891D02*
X014680Y023891D01*
X014817Y023891D02*
X015465Y023891D01*
X015388Y023813D02*
X014894Y023813D01*
X014972Y023736D02*
X015310Y023736D01*
X015233Y023659D02*
X015049Y023659D01*
X015060Y023581D02*
X015222Y023581D01*
X015222Y023427D02*
X015060Y023427D01*
X015060Y023350D02*
X015222Y023350D01*
X015249Y023272D02*
X015033Y023272D01*
X014955Y023195D02*
X015327Y023195D01*
X015404Y023118D02*
X014878Y023118D01*
X014822Y022886D02*
X015460Y022886D01*
X015467Y022893D02*
X015222Y022647D01*
X015222Y022300D01*
X015467Y022054D01*
X015815Y022054D01*
X016060Y022300D01*
X016060Y022647D01*
X015815Y022893D01*
X015467Y022893D01*
X015383Y022809D02*
X014899Y022809D01*
X014976Y022731D02*
X015306Y022731D01*
X015228Y022654D02*
X015054Y022654D01*
X015060Y022577D02*
X015222Y022577D01*
X015222Y022499D02*
X015060Y022499D01*
X015060Y022422D02*
X015222Y022422D01*
X015222Y022345D02*
X015060Y022345D01*
X015028Y022268D02*
X015254Y022268D01*
X015331Y022190D02*
X014951Y022190D01*
X014874Y022113D02*
X015409Y022113D01*
X015874Y022113D02*
X018766Y022113D01*
X018766Y022036D02*
X014554Y022036D01*
X014628Y021959D02*
X018800Y021959D01*
X018793Y021965D02*
X018819Y021939D01*
X018851Y021921D01*
X018886Y021911D01*
X019102Y021911D01*
X019102Y022248D01*
X019180Y022248D01*
X019180Y021911D01*
X019396Y021911D01*
X019431Y021921D01*
X019463Y021939D01*
X019489Y021965D01*
X019507Y021997D01*
X019517Y022032D01*
X019517Y022248D01*
X019181Y022248D01*
X019181Y022326D01*
X019517Y022326D01*
X019517Y022542D01*
X019507Y022577D01*
X019489Y022609D01*
X019463Y022635D01*
X019431Y022653D01*
X019396Y022663D01*
X019180Y022663D01*
X019180Y022327D01*
X019102Y022327D01*
X019102Y022663D01*
X018886Y022663D01*
X018851Y022653D01*
X018819Y022635D01*
X018793Y022609D01*
X018775Y022577D01*
X018766Y022542D01*
X018766Y022326D01*
X019102Y022326D01*
X019102Y022248D01*
X018766Y022248D01*
X018766Y022032D01*
X018775Y021997D01*
X018793Y021965D01*
X018847Y021836D02*
X018766Y021754D01*
X018766Y021166D01*
X018847Y021085D01*
X018877Y021085D01*
X018856Y021064D01*
X018805Y020941D01*
X018805Y020807D01*
X018856Y020683D01*
X018951Y020589D01*
X019074Y020537D01*
X019208Y020537D01*
X019332Y020589D01*
X019426Y020683D01*
X019477Y020807D01*
X019477Y020941D01*
X019426Y021064D01*
X019405Y021085D01*
X019435Y021085D01*
X019517Y021166D01*
X019517Y021754D01*
X019435Y021836D01*
X018847Y021836D01*
X018815Y021804D02*
X016964Y021804D01*
X017041Y021727D02*
X018766Y021727D01*
X018766Y021649D02*
X017118Y021649D01*
X017399Y021572D02*
X018766Y021572D01*
X018766Y021495D02*
X017495Y021495D01*
X017545Y021418D02*
X018766Y021418D01*
X018766Y021340D02*
X017577Y021340D01*
X017577Y021263D02*
X018766Y021263D01*
X018766Y021186D02*
X017569Y021186D01*
X017536Y021108D02*
X018823Y021108D01*
X018842Y021031D02*
X017474Y021031D01*
X017347Y020954D02*
X018810Y020954D01*
X018805Y020877D02*
X014791Y020877D01*
X014714Y020954D02*
X017135Y020954D01*
X017008Y021031D02*
X014636Y021031D01*
X014559Y021108D02*
X016946Y021108D01*
X016914Y021186D02*
X014482Y021186D01*
X014405Y021263D02*
X016905Y021263D01*
X016905Y021340D02*
X014327Y021340D01*
X014250Y021418D02*
X016844Y021418D01*
X016767Y021495D02*
X014538Y021495D01*
X014615Y021572D02*
X016690Y021572D01*
X016741Y021774D02*
X017241Y021274D01*
X016886Y021881D02*
X020162Y021881D01*
X020162Y021804D02*
X019467Y021804D01*
X019517Y021727D02*
X020162Y021727D01*
X020162Y021649D02*
X019517Y021649D01*
X019517Y021572D02*
X020162Y021572D01*
X020162Y021495D02*
X019517Y021495D01*
X019517Y021418D02*
X020162Y021418D01*
X020162Y021340D02*
X019517Y021340D01*
X019517Y021263D02*
X020162Y021263D01*
X020162Y021186D02*
X019517Y021186D01*
X019459Y021108D02*
X020162Y021108D01*
X020162Y021031D02*
X019440Y021031D01*
X019472Y020954D02*
X020162Y020954D01*
X020162Y020877D02*
X019477Y020877D01*
X019474Y020799D02*
X020162Y020799D01*
X020162Y020722D02*
X019442Y020722D01*
X019388Y020645D02*
X020162Y020645D01*
X020162Y020567D02*
X019280Y020567D01*
X019002Y020567D02*
X015123Y020567D01*
X015157Y020490D02*
X020162Y020490D01*
X020162Y020413D02*
X015177Y020413D01*
X015177Y020336D02*
X020162Y020336D01*
X020162Y020258D02*
X015157Y020258D01*
X015124Y020181D02*
X020162Y020181D01*
X020162Y020104D02*
X015047Y020104D01*
X014941Y019949D02*
X020162Y019949D01*
X020162Y019872D02*
X015018Y019872D01*
X015055Y019795D02*
X020162Y019795D01*
X020162Y019717D02*
X015077Y019717D01*
X015077Y019640D02*
X020162Y019640D01*
X020162Y019563D02*
X015059Y019563D01*
X015027Y019485D02*
X020162Y019485D01*
X020162Y019408D02*
X014951Y019408D01*
X014741Y019674D02*
X014241Y019674D01*
X012141Y021774D01*
X011341Y021774D01*
X010641Y022474D01*
X010331Y022190D02*
X009677Y022190D01*
X009677Y022268D02*
X010254Y022268D01*
X010222Y022345D02*
X009676Y022345D01*
X009644Y022422D02*
X010222Y022422D01*
X010222Y022499D02*
X009591Y022499D01*
X009488Y022577D02*
X010222Y022577D01*
X010228Y022654D02*
X008536Y022654D01*
X008613Y022577D02*
X009194Y022577D01*
X009091Y022499D02*
X008653Y022499D01*
X008677Y022422D02*
X009039Y022422D01*
X009007Y022345D02*
X008677Y022345D01*
X008661Y022268D02*
X009005Y022268D01*
X009012Y022190D02*
X008629Y022190D01*
X008556Y022113D02*
X009044Y022113D01*
X009104Y022036D02*
X008332Y022036D01*
X008409Y021959D02*
X009223Y021959D01*
X009481Y021881D02*
X008486Y021881D01*
X008564Y021804D02*
X009558Y021804D01*
X009635Y021727D02*
X008641Y021727D01*
X008718Y021649D02*
X009713Y021649D01*
X009790Y021572D02*
X008795Y021572D01*
X008522Y021340D02*
X007417Y021340D01*
X007417Y021263D02*
X008599Y021263D01*
X008444Y021418D02*
X007417Y021418D01*
X007417Y021495D02*
X008367Y021495D01*
X008290Y021572D02*
X007417Y021572D01*
X007417Y021649D02*
X008213Y021649D01*
X008135Y021727D02*
X007344Y021727D01*
X006738Y021727D02*
X006660Y021727D01*
X006660Y021649D02*
X006666Y021649D01*
X006660Y021572D02*
X006666Y021572D01*
X006660Y021495D02*
X006666Y021495D01*
X006660Y021418D02*
X006666Y021418D01*
X007396Y020258D02*
X009692Y020258D01*
X009626Y020181D02*
X007397Y020181D01*
X007397Y020104D02*
X009587Y020104D01*
X009567Y020026D02*
X007081Y020026D01*
X006685Y019949D02*
X006660Y019949D01*
X006660Y019872D02*
X006685Y019872D01*
X006693Y019795D02*
X006660Y019795D01*
X006660Y019563D02*
X012688Y019563D01*
X012607Y019640D02*
X011621Y019640D01*
X011718Y019717D02*
X012525Y019717D01*
X012444Y019795D02*
X011775Y019795D01*
X011807Y019872D02*
X012362Y019872D01*
X012281Y019949D02*
X011818Y019949D01*
X011818Y020026D02*
X012200Y020026D01*
X012118Y020104D02*
X011795Y020104D01*
X011763Y020181D02*
X012037Y020181D01*
X011956Y020258D02*
X011690Y020258D01*
X011553Y020336D02*
X011874Y020336D01*
X011329Y020336D02*
X011053Y020336D01*
X011190Y020258D02*
X011192Y020258D01*
X010829Y020336D02*
X010553Y020336D01*
X010471Y020336D02*
X010411Y020336D01*
X010411Y020258D02*
X010471Y020258D01*
X010471Y020181D02*
X010411Y020181D01*
X010411Y020104D02*
X010471Y020104D01*
X010471Y020026D02*
X010411Y020026D01*
X010192Y020258D02*
X010190Y020258D01*
X010053Y020336D02*
X010329Y020336D01*
X010690Y020258D02*
X010692Y020258D01*
X010761Y019640D02*
X010621Y019640D01*
X011121Y019640D02*
X011261Y019640D01*
X012295Y020722D02*
X012940Y020722D01*
X012863Y020799D02*
X012213Y020799D01*
X012132Y020877D02*
X012785Y020877D01*
X012708Y020954D02*
X012051Y020954D01*
X011970Y021031D02*
X012631Y021031D01*
X012554Y021108D02*
X011889Y021108D01*
X011808Y021186D02*
X012476Y021186D01*
X012399Y021263D02*
X011726Y021263D01*
X011645Y021340D02*
X012322Y021340D01*
X012244Y021418D02*
X011564Y021418D01*
X011483Y021495D02*
X012167Y021495D01*
X012090Y021572D02*
X011402Y021572D01*
X011141Y021574D02*
X010041Y021574D01*
X009341Y022274D01*
X009754Y022113D02*
X010409Y022113D01*
X010826Y022036D02*
X009832Y022036D01*
X009909Y021959D02*
X010904Y021959D01*
X010981Y021881D02*
X009986Y021881D01*
X010064Y021804D02*
X011058Y021804D01*
X011141Y021574D02*
X013241Y019574D01*
X013241Y017074D01*
X013041Y017374D02*
X013041Y019474D01*
X011041Y021374D01*
X011409Y021959D02*
X012203Y021959D01*
X012125Y022036D02*
X011332Y022036D01*
X011409Y022113D02*
X011254Y022113D01*
X011177Y022190D02*
X011331Y022190D01*
X011254Y022268D02*
X011100Y022268D01*
X011060Y022345D02*
X011222Y022345D01*
X011222Y022422D02*
X011060Y022422D01*
X011060Y022499D02*
X011222Y022499D01*
X011222Y022577D02*
X011060Y022577D01*
X011054Y022654D02*
X011228Y022654D01*
X011306Y022731D02*
X010976Y022731D01*
X010899Y022809D02*
X011383Y022809D01*
X011460Y022886D02*
X010822Y022886D01*
X010878Y023118D02*
X011404Y023118D01*
X011327Y023195D02*
X010955Y023195D01*
X011033Y023272D02*
X011249Y023272D01*
X011222Y023350D02*
X011060Y023350D01*
X011060Y023427D02*
X011222Y023427D01*
X011222Y023504D02*
X011060Y023504D01*
X011060Y023581D02*
X011222Y023581D01*
X011233Y023659D02*
X011079Y023659D01*
X011156Y023736D02*
X011310Y023736D01*
X011141Y023974D02*
X010641Y023474D01*
X010327Y023195D02*
X004641Y023195D01*
X004641Y023118D02*
X010404Y023118D01*
X010249Y023272D02*
X004641Y023272D01*
X004641Y023350D02*
X010222Y023350D01*
X010222Y023427D02*
X004641Y023427D01*
X004957Y023968D02*
X001361Y023968D01*
X001380Y023891D02*
X005054Y023891D01*
X005151Y023813D02*
X001380Y023813D01*
X001380Y023736D02*
X005248Y023736D01*
X005271Y023717D02*
X005271Y023717D01*
X004866Y024041D01*
X004866Y024041D01*
X004574Y024469D01*
X004574Y024469D01*
X004421Y024964D01*
X004421Y024964D01*
X004421Y025483D01*
X004421Y025483D01*
X004574Y025978D01*
X004574Y025978D01*
X004866Y026407D01*
X004866Y026407D01*
X005271Y026730D01*
X005271Y026730D01*
X005754Y026919D01*
X005754Y026919D01*
X006271Y026958D01*
X006271Y026958D01*
X006776Y026843D01*
X006777Y026843D01*
X007226Y026584D01*
X007226Y026584D01*
X007578Y026204D01*
X007578Y026203D01*
X007803Y025736D01*
X007880Y025224D01*
X007803Y024711D01*
X007803Y024711D01*
X007578Y024244D01*
X007226Y023864D01*
X007226Y023864D01*
X006777Y023605D01*
X006271Y023489D01*
X006271Y023489D01*
X005754Y023528D01*
X005754Y023528D01*
X005271Y023717D01*
X005421Y023659D02*
X001380Y023659D01*
X001380Y023581D02*
X005618Y023581D01*
X006071Y023504D02*
X001380Y023504D01*
X001308Y024045D02*
X004863Y024045D01*
X004866Y024041D02*
X004866Y024041D01*
X004810Y024122D02*
X001231Y024122D01*
X001154Y024200D02*
X004758Y024200D01*
X004705Y024277D02*
X001076Y024277D01*
X000999Y024354D02*
X004652Y024354D01*
X004599Y024432D02*
X000922Y024432D01*
X000844Y024509D02*
X004562Y024509D01*
X004538Y024586D02*
X002848Y024586D01*
X002871Y024598D02*
X002927Y024639D01*
X002976Y024687D01*
X003017Y024743D01*
X003048Y024805D01*
X003070Y024871D01*
X003080Y024934D01*
X002681Y024934D01*
X002681Y025013D01*
X003080Y025013D01*
X003070Y025077D01*
X003048Y025142D01*
X003017Y025204D01*
X002976Y025260D01*
X002927Y025309D01*
X002871Y025349D01*
X002810Y025381D01*
X002744Y025402D01*
X002680Y025412D01*
X002680Y025013D01*
X002602Y025013D01*
X002602Y025412D01*
X002538Y025402D01*
X002472Y025381D01*
X002411Y025349D01*
X002355Y025309D01*
X002306Y025260D01*
X002265Y025204D01*
X002234Y025142D01*
X002213Y025077D01*
X002202Y025013D01*
X002602Y025013D01*
X002602Y024934D01*
X002680Y024934D01*
X002680Y024535D01*
X002744Y024545D01*
X002810Y024567D01*
X002871Y024598D01*
X002952Y024663D02*
X004514Y024663D01*
X004490Y024741D02*
X003015Y024741D01*
X003052Y024818D02*
X004466Y024818D01*
X004442Y024895D02*
X003073Y024895D01*
X003074Y025050D02*
X004421Y025050D01*
X004421Y025127D02*
X003053Y025127D01*
X003017Y025204D02*
X004421Y025204D01*
X004421Y025282D02*
X002954Y025282D01*
X002853Y025359D02*
X004421Y025359D01*
X004421Y025436D02*
X000680Y025436D01*
X000680Y025359D02*
X000729Y025359D01*
X000702Y025282D02*
X000680Y025282D01*
X000680Y025204D02*
X000702Y025204D01*
X000702Y025127D02*
X000680Y025127D01*
X000680Y025050D02*
X000702Y025050D01*
X000702Y024973D02*
X000680Y024973D01*
X000680Y024895D02*
X000702Y024895D01*
X000702Y024818D02*
X000680Y024818D01*
X000680Y024741D02*
X000702Y024741D01*
X000690Y024663D02*
X000702Y024663D01*
X000680Y025514D02*
X004431Y025514D01*
X004454Y025591D02*
X002865Y025591D01*
X002890Y025601D02*
X003014Y025725D01*
X003080Y025886D01*
X003080Y026061D01*
X003014Y026223D01*
X002890Y026346D01*
X002729Y026413D01*
X002554Y026413D01*
X002392Y026346D01*
X002269Y026223D01*
X002202Y026061D01*
X002202Y025886D01*
X002269Y025725D01*
X002392Y025601D01*
X002554Y025534D01*
X002729Y025534D01*
X002890Y025601D01*
X002957Y025668D02*
X004478Y025668D01*
X004502Y025745D02*
X003022Y025745D01*
X003054Y025823D02*
X004526Y025823D01*
X004550Y025900D02*
X003080Y025900D01*
X003080Y025977D02*
X004574Y025977D01*
X004626Y026055D02*
X003080Y026055D01*
X003051Y026132D02*
X004679Y026132D01*
X004731Y026209D02*
X003019Y026209D01*
X002950Y026286D02*
X004784Y026286D01*
X004837Y026364D02*
X002848Y026364D01*
X002729Y026534D02*
X002554Y026534D01*
X002392Y026601D01*
X002269Y026725D01*
X002202Y026886D01*
X002202Y027061D01*
X002269Y027223D01*
X002392Y027346D01*
X002554Y027413D01*
X002729Y027413D01*
X002890Y027346D01*
X003014Y027223D01*
X003080Y027061D01*
X003080Y026886D01*
X003014Y026725D01*
X002890Y026601D01*
X002729Y026534D01*
X002876Y026596D02*
X005103Y026596D01*
X005200Y026673D02*
X002962Y026673D01*
X003024Y026750D02*
X005323Y026750D01*
X005519Y026827D02*
X003056Y026827D01*
X003080Y026905D02*
X005716Y026905D01*
X006506Y026905D02*
X007256Y026905D01*
X007179Y026982D02*
X003080Y026982D01*
X003080Y027059D02*
X007102Y027059D01*
X007025Y027136D02*
X003049Y027136D01*
X003017Y027214D02*
X006947Y027214D01*
X006870Y027291D02*
X002945Y027291D01*
X002836Y027368D02*
X006793Y027368D01*
X006715Y027446D02*
X000380Y027446D01*
X000380Y027523D02*
X006638Y027523D01*
X006561Y027600D02*
X003060Y027600D01*
X003053Y027588D02*
X003071Y027620D01*
X003080Y027655D01*
X003080Y027934D01*
X002681Y027934D01*
X002681Y028013D01*
X003080Y028013D01*
X003080Y028292D01*
X003071Y028327D01*
X003053Y028359D01*
X003027Y028385D01*
X002995Y028404D01*
X002959Y028413D01*
X002680Y028413D01*
X002680Y028013D01*
X002602Y028013D01*
X002602Y028413D01*
X002323Y028413D01*
X002287Y028404D01*
X002256Y028385D01*
X002230Y028359D01*
X002211Y028327D01*
X002202Y028292D01*
X002202Y028013D01*
X002602Y028013D01*
X002602Y027934D01*
X002680Y027934D01*
X002680Y027534D01*
X002959Y027534D01*
X002995Y027544D01*
X003027Y027562D01*
X003053Y027588D01*
X003080Y027677D02*
X006484Y027677D01*
X006406Y027755D02*
X003080Y027755D01*
X003080Y027832D02*
X006329Y027832D01*
X006252Y027909D02*
X003080Y027909D01*
X003080Y028064D02*
X006097Y028064D01*
X006020Y028141D02*
X003080Y028141D01*
X003080Y028218D02*
X005943Y028218D01*
X005865Y028296D02*
X003079Y028296D01*
X003039Y028373D02*
X005788Y028373D01*
X005643Y028450D02*
X005142Y028450D01*
X004740Y028450D02*
X000380Y028450D01*
X000380Y028373D02*
X000957Y028373D01*
X000972Y028381D02*
X000911Y028349D01*
X000855Y028309D01*
X000806Y028260D01*
X000765Y028204D01*
X000734Y028142D01*
X000713Y028077D01*
X000702Y028013D01*
X001102Y028013D01*
X001102Y028412D01*
X001038Y028402D01*
X000972Y028381D01*
X001102Y028373D02*
X001180Y028373D01*
X001180Y028412D02*
X001244Y028402D01*
X001310Y028381D01*
X001371Y028349D01*
X001427Y028309D01*
X001476Y028260D01*
X001517Y028204D01*
X001548Y028142D01*
X001570Y028077D01*
X001580Y028013D01*
X001181Y028013D01*
X001181Y027934D01*
X001580Y027934D01*
X001570Y027871D01*
X001548Y027805D01*
X001517Y027743D01*
X001476Y027687D01*
X001427Y027639D01*
X001371Y027598D01*
X001310Y027567D01*
X001244Y027545D01*
X001180Y027535D01*
X001180Y027934D01*
X001102Y027934D01*
X001102Y027535D01*
X001038Y027545D01*
X000972Y027567D01*
X000911Y027598D01*
X000855Y027639D01*
X000806Y027687D01*
X000765Y027743D01*
X000734Y027805D01*
X000713Y027871D01*
X000702Y027934D01*
X001102Y027934D01*
X001102Y028013D01*
X001180Y028013D01*
X001180Y028412D01*
X001180Y028296D02*
X001102Y028296D01*
X001102Y028218D02*
X001180Y028218D01*
X001180Y028141D02*
X001102Y028141D01*
X001102Y028064D02*
X001180Y028064D01*
X001181Y027987D02*
X002602Y027987D01*
X002602Y027934D02*
X002202Y027934D01*
X002202Y027655D01*
X002211Y027620D01*
X002230Y027588D01*
X002256Y027562D01*
X002287Y027544D01*
X002323Y027534D01*
X002602Y027534D01*
X002602Y027934D01*
X002602Y027909D02*
X002680Y027909D01*
X002680Y027832D02*
X002602Y027832D01*
X002602Y027755D02*
X002680Y027755D01*
X002680Y027677D02*
X002602Y027677D01*
X002602Y027600D02*
X002680Y027600D01*
X002446Y027368D02*
X001336Y027368D01*
X001445Y027291D02*
X002337Y027291D01*
X002265Y027214D02*
X001517Y027214D01*
X001549Y027136D02*
X002233Y027136D01*
X002202Y027059D02*
X001580Y027059D01*
X001580Y026982D02*
X002202Y026982D01*
X002202Y026905D02*
X001580Y026905D01*
X001556Y026827D02*
X002226Y026827D01*
X002258Y026750D02*
X001524Y026750D01*
X001462Y026673D02*
X002321Y026673D01*
X002406Y026596D02*
X001376Y026596D01*
X001348Y026364D02*
X002435Y026364D01*
X002332Y026286D02*
X001450Y026286D01*
X001390Y026346D02*
X001229Y026413D01*
X001054Y026413D01*
X000892Y026346D01*
X000769Y026223D01*
X000702Y026061D01*
X000702Y025886D01*
X000769Y025725D01*
X000892Y025601D01*
X001054Y025534D01*
X001229Y025534D01*
X001390Y025601D01*
X001514Y025725D01*
X001580Y025886D01*
X001580Y026061D01*
X001514Y026223D01*
X001390Y026346D01*
X001519Y026209D02*
X002263Y026209D01*
X002231Y026132D02*
X001551Y026132D01*
X001580Y026055D02*
X002202Y026055D01*
X002202Y025977D02*
X001580Y025977D01*
X001580Y025900D02*
X002202Y025900D01*
X002228Y025823D02*
X001554Y025823D01*
X001522Y025745D02*
X002260Y025745D01*
X002325Y025668D02*
X001457Y025668D01*
X001365Y025591D02*
X002417Y025591D01*
X002430Y025359D02*
X001553Y025359D01*
X001580Y025282D02*
X002328Y025282D01*
X002266Y025204D02*
X001580Y025204D01*
X001580Y025127D02*
X002229Y025127D01*
X002208Y025050D02*
X001580Y025050D01*
X001580Y024973D02*
X002602Y024973D01*
X002602Y024934D02*
X002202Y024934D01*
X002213Y024871D01*
X002234Y024805D01*
X002265Y024743D01*
X002306Y024687D01*
X002355Y024639D01*
X002411Y024598D01*
X002472Y024567D01*
X002538Y024545D01*
X002602Y024535D01*
X002602Y024934D01*
X002602Y024895D02*
X002680Y024895D01*
X002680Y024818D02*
X002602Y024818D01*
X002602Y024741D02*
X002680Y024741D01*
X002680Y024663D02*
X002602Y024663D01*
X002602Y024586D02*
X002680Y024586D01*
X002434Y024586D02*
X001551Y024586D01*
X001580Y024663D02*
X002330Y024663D01*
X002267Y024741D02*
X001580Y024741D01*
X001580Y024818D02*
X002230Y024818D01*
X002209Y024895D02*
X001580Y024895D01*
X000917Y025591D02*
X000680Y025591D01*
X000680Y025668D02*
X000825Y025668D01*
X000760Y025745D02*
X000680Y025745D01*
X000680Y025823D02*
X000728Y025823D01*
X000702Y025900D02*
X000680Y025900D01*
X000680Y025977D02*
X000702Y025977D01*
X000702Y026055D02*
X000680Y026055D01*
X000680Y026132D02*
X000731Y026132D01*
X000763Y026209D02*
X000680Y026209D01*
X000680Y026286D02*
X000832Y026286D01*
X000935Y026364D02*
X000680Y026364D01*
X000680Y026441D02*
X004909Y026441D01*
X005006Y026518D02*
X000680Y026518D01*
X000701Y026596D02*
X000906Y026596D01*
X000821Y026673D02*
X000779Y026673D01*
X000411Y026982D02*
X000380Y026982D01*
X000380Y027059D02*
X000488Y027059D01*
X000565Y027136D02*
X000380Y027136D01*
X000380Y027214D02*
X000765Y027214D01*
X000837Y027291D02*
X000380Y027291D01*
X000380Y027368D02*
X000946Y027368D01*
X000908Y027600D02*
X000380Y027600D01*
X000380Y027677D02*
X000816Y027677D01*
X000759Y027755D02*
X000380Y027755D01*
X000380Y027832D02*
X000725Y027832D01*
X000706Y027909D02*
X000380Y027909D01*
X000380Y027987D02*
X001102Y027987D01*
X001102Y027909D02*
X001180Y027909D01*
X001180Y027832D02*
X001102Y027832D01*
X001102Y027755D02*
X001180Y027755D01*
X001180Y027677D02*
X001102Y027677D01*
X001102Y027600D02*
X001180Y027600D01*
X001374Y027600D02*
X002223Y027600D01*
X002202Y027677D02*
X001466Y027677D01*
X001523Y027755D02*
X002202Y027755D01*
X002202Y027832D02*
X001557Y027832D01*
X001576Y027909D02*
X002202Y027909D01*
X002202Y028064D02*
X001572Y028064D01*
X001549Y028141D02*
X002202Y028141D01*
X002202Y028218D02*
X001506Y028218D01*
X001440Y028296D02*
X002203Y028296D01*
X002243Y028373D02*
X001325Y028373D01*
X000842Y028296D02*
X000380Y028296D01*
X000380Y028218D02*
X000776Y028218D01*
X000734Y028141D02*
X000380Y028141D01*
X000380Y028064D02*
X000711Y028064D01*
X000380Y028528D02*
X004087Y028528D01*
X004010Y028605D02*
X000380Y028605D01*
X000380Y028682D02*
X003933Y028682D01*
X003855Y028759D02*
X000380Y028759D01*
X000380Y028837D02*
X003778Y028837D01*
X003701Y028914D02*
X000380Y028914D01*
X002602Y028373D02*
X002680Y028373D01*
X002680Y028296D02*
X002602Y028296D01*
X002602Y028218D02*
X002680Y028218D01*
X002680Y028141D02*
X002602Y028141D01*
X002602Y028064D02*
X002680Y028064D01*
X002681Y027987D02*
X006174Y027987D01*
X006803Y026827D02*
X007334Y026827D01*
X007411Y026750D02*
X006937Y026750D01*
X007071Y026673D02*
X007488Y026673D01*
X007566Y026596D02*
X007205Y026596D01*
X007286Y026518D02*
X007643Y026518D01*
X007720Y026441D02*
X007358Y026441D01*
X007430Y026364D02*
X007797Y026364D01*
X007875Y026286D02*
X007501Y026286D01*
X007573Y026209D02*
X007952Y026209D01*
X008029Y026132D02*
X007613Y026132D01*
X007650Y026055D02*
X008107Y026055D01*
X008184Y025977D02*
X007687Y025977D01*
X007724Y025900D02*
X008261Y025900D01*
X008305Y025823D02*
X007762Y025823D01*
X007799Y025745D02*
X008305Y025745D01*
X008321Y025668D02*
X007813Y025668D01*
X007803Y025736D02*
X007803Y025736D01*
X007825Y025591D02*
X008353Y025591D01*
X008426Y025514D02*
X007837Y025514D01*
X007848Y025436D02*
X009226Y025436D01*
X009303Y025359D02*
X007860Y025359D01*
X007872Y025282D02*
X009380Y025282D01*
X009458Y025204D02*
X007878Y025204D01*
X007866Y025127D02*
X009535Y025127D01*
X009612Y025050D02*
X007854Y025050D01*
X007843Y024973D02*
X009689Y024973D01*
X009767Y024895D02*
X007831Y024895D01*
X007819Y024818D02*
X009844Y024818D01*
X009921Y024741D02*
X007808Y024741D01*
X007780Y024663D02*
X009999Y024663D01*
X010076Y024586D02*
X007743Y024586D01*
X007706Y024509D02*
X010153Y024509D01*
X010230Y024432D02*
X007669Y024432D01*
X007631Y024354D02*
X010308Y024354D01*
X010441Y024474D02*
X009141Y025774D01*
X008641Y025774D01*
X008856Y025514D02*
X009148Y025514D01*
X009071Y025591D02*
X008929Y025591D01*
X009414Y026055D02*
X017552Y026055D01*
X017520Y025977D02*
X009491Y025977D01*
X009568Y025900D02*
X017505Y025900D01*
X017505Y025823D02*
X009646Y025823D01*
X009723Y025745D02*
X017530Y025745D01*
X017571Y025668D02*
X009800Y025668D01*
X009878Y025591D02*
X017648Y025591D01*
X017624Y026132D02*
X009337Y026132D01*
X009259Y026209D02*
X017772Y026209D01*
X017910Y026209D02*
X017923Y026209D01*
X018000Y026286D02*
X009182Y026286D01*
X009105Y026364D02*
X018077Y026364D01*
X018155Y026441D02*
X009027Y026441D01*
X008950Y026518D02*
X018162Y026518D01*
X018162Y026596D02*
X008873Y026596D01*
X008877Y026673D02*
X018162Y026673D01*
X018162Y026750D02*
X008873Y026750D01*
X008841Y026827D02*
X018162Y026827D01*
X018162Y026905D02*
X008786Y026905D01*
X008675Y026982D02*
X018162Y026982D01*
X018162Y027059D02*
X008520Y027059D01*
X008520Y027136D02*
X018162Y027136D01*
X018162Y027214D02*
X014554Y027214D01*
X014690Y027291D02*
X018162Y027291D01*
X018162Y027368D02*
X017120Y027368D01*
X017197Y027446D02*
X018162Y027446D01*
X018162Y027523D02*
X017274Y027523D01*
X017351Y027600D02*
X018162Y027600D01*
X018162Y027677D02*
X017429Y027677D01*
X017506Y027755D02*
X018162Y027755D01*
X018162Y027832D02*
X017583Y027832D01*
X017610Y027909D02*
X018162Y027909D01*
X018162Y027987D02*
X017610Y027987D01*
X017610Y028064D02*
X018162Y028064D01*
X018162Y028141D02*
X017610Y028141D01*
X017610Y028218D02*
X018162Y028218D01*
X018162Y028296D02*
X017610Y028296D01*
X017672Y028373D02*
X018162Y028373D01*
X018089Y028450D02*
X017749Y028450D01*
X018520Y028373D02*
X019611Y028373D01*
X019533Y028450D02*
X018593Y028450D01*
X018520Y028296D02*
X023342Y028296D01*
X023267Y028218D02*
X018520Y028218D01*
X018520Y028141D02*
X023235Y028141D01*
X023203Y028064D02*
X018520Y028064D01*
X018520Y027987D02*
X023202Y027987D01*
X023202Y027909D02*
X018520Y027909D01*
X018520Y027832D02*
X023224Y027832D01*
X023256Y027755D02*
X018520Y027755D01*
X018520Y027677D02*
X023316Y027677D01*
X023395Y027600D02*
X018520Y027600D01*
X018520Y027523D02*
X023753Y027523D01*
X023831Y027446D02*
X018520Y027446D01*
X018520Y027368D02*
X023446Y027368D01*
X023392Y027346D02*
X023269Y027223D01*
X023202Y027061D01*
X023202Y026886D01*
X023269Y026725D01*
X023392Y026601D01*
X023554Y026534D01*
X023729Y026534D01*
X023890Y026601D01*
X024014Y026725D01*
X024080Y026886D01*
X024080Y027061D01*
X024014Y027223D01*
X023890Y027346D01*
X023729Y027413D01*
X023554Y027413D01*
X023392Y027346D01*
X023337Y027291D02*
X018520Y027291D01*
X018520Y027214D02*
X023265Y027214D01*
X023233Y027136D02*
X018520Y027136D01*
X018520Y027059D02*
X023202Y027059D01*
X023202Y026982D02*
X018520Y026982D01*
X018520Y026905D02*
X019716Y026905D01*
X019520Y026827D02*
X018520Y026827D01*
X018520Y026750D02*
X019323Y026750D01*
X019271Y026730D02*
X019271Y026730D01*
X019200Y026673D02*
X018520Y026673D01*
X018520Y026596D02*
X019103Y026596D01*
X019006Y026518D02*
X018520Y026518D01*
X018520Y026441D02*
X018909Y026441D01*
X018837Y026364D02*
X018520Y026364D01*
X018507Y026286D02*
X018784Y026286D01*
X018731Y026209D02*
X018430Y026209D01*
X018353Y026132D02*
X018679Y026132D01*
X018626Y026055D02*
X018276Y026055D01*
X018198Y025977D02*
X018574Y025977D01*
X018574Y025978D02*
X018574Y025978D01*
X018550Y025900D02*
X018177Y025900D01*
X018177Y025823D02*
X018526Y025823D01*
X018502Y025745D02*
X018152Y025745D01*
X018111Y025668D02*
X018478Y025668D01*
X018454Y025591D02*
X018034Y025591D01*
X018421Y025483D02*
X018421Y025483D01*
X018431Y025514D02*
X009955Y025514D01*
X010032Y025436D02*
X018421Y025436D01*
X018421Y025359D02*
X010109Y025359D01*
X010187Y025282D02*
X018421Y025282D01*
X018421Y025204D02*
X010264Y025204D01*
X010341Y025127D02*
X018421Y025127D01*
X018421Y025050D02*
X010419Y025050D01*
X010496Y024973D02*
X014884Y024973D01*
X014787Y024895D02*
X010573Y024895D01*
X010441Y024474D02*
X014641Y024474D01*
X014841Y024274D01*
X015441Y024274D01*
X015565Y024586D02*
X018538Y024586D01*
X018562Y024509D02*
X015681Y024509D01*
X015740Y024432D02*
X018599Y024432D01*
X018574Y024469D02*
X018574Y024469D01*
X018652Y024354D02*
X015772Y024354D01*
X015777Y024277D02*
X018705Y024277D01*
X018758Y024200D02*
X015774Y024200D01*
X015742Y024122D02*
X018810Y024122D01*
X018863Y024045D02*
X015688Y024045D01*
X015581Y023968D02*
X018957Y023968D01*
X018866Y024041D02*
X018866Y024041D01*
X019054Y023891D02*
X015817Y023891D01*
X015894Y023813D02*
X019151Y023813D01*
X019248Y023736D02*
X015972Y023736D01*
X016049Y023659D02*
X019421Y023659D01*
X019618Y023581D02*
X016060Y023581D01*
X015680Y023581D02*
X015602Y023581D01*
X015602Y023659D02*
X015680Y023659D01*
X015680Y023736D02*
X015602Y023736D01*
X015602Y023813D02*
X015680Y023813D01*
X015680Y023891D02*
X015602Y023891D01*
X015301Y023968D02*
X013200Y023968D01*
X013277Y023891D02*
X013465Y023891D01*
X013388Y023813D02*
X013320Y023813D01*
X013141Y023774D02*
X012941Y023974D01*
X011141Y023974D01*
X011037Y024122D02*
X007465Y024122D01*
X007394Y024045D02*
X010960Y024045D01*
X010883Y023968D02*
X007322Y023968D01*
X007250Y023891D02*
X010465Y023891D01*
X010388Y023813D02*
X007138Y023813D01*
X007004Y023736D02*
X010310Y023736D01*
X010233Y023659D02*
X006870Y023659D01*
X006675Y023581D02*
X010222Y023581D01*
X010222Y023504D02*
X006337Y023504D01*
X006643Y022886D02*
X004641Y022886D01*
X004641Y022963D02*
X011962Y022963D01*
X011962Y022886D02*
X011822Y022886D01*
X011899Y022809D02*
X011962Y022809D01*
X011962Y023040D02*
X004641Y023040D01*
X004641Y022809D02*
X006566Y022809D01*
X006489Y022731D02*
X004641Y022731D01*
X004421Y024973D02*
X002681Y024973D01*
X002680Y025050D02*
X002602Y025050D01*
X002602Y025127D02*
X002680Y025127D01*
X002680Y025204D02*
X002602Y025204D01*
X002602Y025282D02*
X002680Y025282D01*
X002680Y025359D02*
X002602Y025359D01*
X007537Y024200D02*
X014662Y024200D01*
X014585Y024277D02*
X007594Y024277D01*
X008139Y022886D02*
X010460Y022886D01*
X010383Y022809D02*
X008216Y022809D01*
X008294Y022731D02*
X010306Y022731D01*
X011878Y023118D02*
X012032Y023118D01*
X011955Y023195D02*
X012109Y023195D01*
X012033Y023272D02*
X012186Y023272D01*
X012222Y023350D02*
X012060Y023350D01*
X012060Y023427D02*
X012222Y023427D01*
X012222Y023504D02*
X012060Y023504D01*
X012060Y023581D02*
X012222Y023581D01*
X012233Y023659D02*
X012049Y023659D01*
X011972Y023736D02*
X012310Y023736D01*
X013045Y024122D02*
X014740Y024122D01*
X014465Y023891D02*
X013817Y023891D01*
X013894Y023813D02*
X014388Y023813D01*
X014310Y023736D02*
X013972Y023736D01*
X014049Y023659D02*
X014233Y023659D01*
X014222Y023581D02*
X014060Y023581D01*
X013822Y022886D02*
X014460Y022886D01*
X014383Y022809D02*
X013899Y022809D01*
X013976Y022731D02*
X014306Y022731D01*
X014228Y022654D02*
X014054Y022654D01*
X014060Y022577D02*
X014222Y022577D01*
X014222Y022499D02*
X014060Y022499D01*
X014060Y022422D02*
X014222Y022422D01*
X014222Y022345D02*
X014060Y022345D01*
X014028Y022268D02*
X014254Y022268D01*
X014331Y022190D02*
X013951Y022190D01*
X013874Y022113D02*
X014409Y022113D01*
X014128Y022036D02*
X013632Y022036D01*
X013709Y021959D02*
X014054Y021959D01*
X014022Y021881D02*
X013786Y021881D01*
X013864Y021804D02*
X014005Y021804D01*
X014005Y021727D02*
X013941Y021727D01*
X014018Y021649D02*
X014029Y021649D01*
X013675Y021186D02*
X013598Y021186D01*
X013551Y021108D02*
X013753Y021108D01*
X013830Y021031D02*
X013463Y021031D01*
X013291Y020877D02*
X013985Y020877D01*
X013907Y020954D02*
X013214Y020954D01*
X013368Y020799D02*
X014062Y020799D01*
X014139Y020722D02*
X013446Y020722D01*
X013523Y020645D02*
X014137Y020645D01*
X014059Y020567D02*
X013600Y020567D01*
X013677Y020490D02*
X014025Y020490D01*
X014005Y020413D02*
X013755Y020413D01*
X013832Y020336D02*
X014005Y020336D01*
X014025Y020258D02*
X013909Y020258D01*
X013987Y020181D02*
X014058Y020181D01*
X014064Y020104D02*
X014136Y020104D01*
X014141Y020026D02*
X020162Y020026D01*
X020162Y019331D02*
X013420Y019331D01*
X013420Y019408D02*
X014531Y019408D01*
X014455Y019485D02*
X013420Y019485D01*
X013420Y019563D02*
X014099Y019563D01*
X014022Y019640D02*
X013420Y019640D01*
X013350Y019717D02*
X013945Y019717D01*
X013867Y019795D02*
X013268Y019795D01*
X013187Y019872D02*
X013790Y019872D01*
X013713Y019949D02*
X013106Y019949D01*
X013025Y020026D02*
X013636Y020026D01*
X013558Y020104D02*
X012944Y020104D01*
X012863Y020181D02*
X013481Y020181D01*
X013404Y020258D02*
X012781Y020258D01*
X012700Y020336D02*
X013326Y020336D01*
X013249Y020413D02*
X012619Y020413D01*
X012538Y020490D02*
X013172Y020490D01*
X013095Y020567D02*
X012457Y020567D01*
X012376Y020645D02*
X013017Y020645D01*
X012769Y019485D02*
X006660Y019485D01*
X006660Y019408D02*
X012851Y019408D01*
X012862Y019331D02*
X006660Y019331D01*
X006660Y019254D02*
X012862Y019254D01*
X012862Y019176D02*
X006660Y019176D01*
X006660Y019099D02*
X012862Y019099D01*
X012862Y019022D02*
X006660Y019022D01*
X006660Y018944D02*
X012862Y018944D01*
X012862Y018867D02*
X006660Y018867D01*
X006660Y018790D02*
X012862Y018790D01*
X012862Y018713D02*
X006660Y018713D01*
X006660Y018635D02*
X012862Y018635D01*
X012862Y018558D02*
X006660Y018558D01*
X006660Y018481D02*
X012862Y018481D01*
X012862Y018403D02*
X006660Y018403D01*
X006660Y018326D02*
X012862Y018326D01*
X012862Y018249D02*
X006660Y018249D01*
X006660Y018172D02*
X012862Y018172D01*
X012862Y018094D02*
X006660Y018094D01*
X006660Y018017D02*
X012862Y018017D01*
X012862Y017940D02*
X006660Y017940D01*
X006660Y017862D02*
X012862Y017862D01*
X012862Y017785D02*
X011775Y017785D01*
X012226Y017708D02*
X012862Y017708D01*
X012862Y017631D02*
X012300Y017631D01*
X012332Y017553D02*
X012862Y017553D01*
X012862Y017476D02*
X012349Y017476D01*
X012349Y017399D02*
X012813Y017399D01*
X012841Y017174D02*
X013041Y017374D01*
X012841Y017174D02*
X012841Y016974D01*
X013241Y016574D01*
X012963Y016162D02*
X013619Y016162D01*
X013542Y016085D02*
X013040Y016085D01*
X013117Y016008D02*
X013465Y016008D01*
X013388Y015930D02*
X013195Y015930D01*
X012651Y015853D02*
X011777Y015853D01*
X011777Y015776D02*
X012333Y015776D01*
X012256Y015699D02*
X011777Y015699D01*
X011758Y015621D02*
X012178Y015621D01*
X012101Y015544D02*
X011747Y015544D01*
X011777Y015467D02*
X012024Y015467D01*
X012041Y014874D02*
X012241Y014674D01*
X012041Y014874D02*
X010241Y014874D01*
X008941Y013574D01*
X007041Y013574D01*
X007141Y013374D02*
X009041Y013374D01*
X010341Y014674D01*
X011741Y014674D01*
X012141Y014274D01*
X012441Y014274D01*
X012641Y014474D01*
X012641Y014974D01*
X012541Y015074D01*
X011932Y014230D02*
X011777Y014230D01*
X011777Y014269D02*
X011481Y014269D01*
X011481Y014348D01*
X011777Y014348D01*
X011777Y014385D01*
X011962Y014200D01*
X012067Y014095D01*
X012367Y014095D01*
X012452Y014095D01*
X012216Y013858D01*
X011777Y013858D01*
X011777Y013913D01*
X011715Y013975D01*
X011724Y013980D01*
X011749Y014006D01*
X011768Y014038D01*
X011777Y014073D01*
X011777Y014269D01*
X011855Y014307D02*
X011481Y014307D01*
X011402Y014307D02*
X010228Y014307D01*
X010150Y014230D02*
X011105Y014230D01*
X011105Y014153D02*
X010073Y014153D01*
X009996Y014076D02*
X011105Y014076D01*
X011141Y013998D02*
X009918Y013998D01*
X009841Y013921D02*
X011113Y013921D01*
X011105Y013844D02*
X011046Y013844D01*
X010841Y013574D02*
X011441Y013639D01*
X011777Y013380D02*
X012181Y013380D01*
X012103Y013303D02*
X011715Y013303D01*
X012026Y013225D02*
X009146Y013225D01*
X009223Y013303D02*
X010637Y013303D01*
X010559Y013380D02*
X009300Y013380D01*
X009377Y013457D02*
X010525Y013457D01*
X010505Y013535D02*
X009455Y013535D01*
X009532Y013612D02*
X010505Y013612D01*
X010525Y013689D02*
X009609Y013689D01*
X009687Y013766D02*
X010558Y013766D01*
X010636Y013844D02*
X009764Y013844D01*
X009268Y014153D02*
X009173Y014153D01*
X009190Y014076D02*
X009096Y014076D01*
X009113Y013998D02*
X009018Y013998D01*
X009036Y013921D02*
X008941Y013921D01*
X008958Y013844D02*
X004930Y013844D01*
X004930Y013921D02*
X007841Y013921D01*
X007764Y013998D02*
X004930Y013998D01*
X004930Y014076D02*
X007762Y014076D01*
X007762Y014153D02*
X004930Y014153D01*
X004930Y014230D02*
X007762Y014230D01*
X007762Y014307D02*
X004930Y014307D01*
X004930Y014385D02*
X007762Y014385D01*
X007762Y014462D02*
X004930Y014462D01*
X004927Y014539D02*
X007762Y014539D01*
X007762Y014617D02*
X004900Y014617D01*
X004900Y014694D02*
X007762Y014694D01*
X007762Y014771D02*
X004900Y014771D01*
X004900Y014848D02*
X007762Y014848D01*
X007762Y014926D02*
X004900Y014926D01*
X004930Y013766D02*
X008881Y013766D01*
X009250Y014230D02*
X009345Y014230D01*
X009328Y014307D02*
X009422Y014307D01*
X009405Y014385D02*
X009499Y014385D01*
X009482Y014462D02*
X009577Y014462D01*
X009520Y014539D02*
X009654Y014539D01*
X009731Y014617D02*
X009520Y014617D01*
X009520Y014694D02*
X009809Y014694D01*
X009886Y014771D02*
X009520Y014771D01*
X009520Y014848D02*
X009963Y014848D01*
X010040Y014926D02*
X009520Y014926D01*
X009520Y015003D02*
X010118Y015003D01*
X010525Y015158D02*
X009520Y015158D01*
X009520Y015235D02*
X010505Y015235D01*
X010505Y015312D02*
X009520Y015312D01*
X009520Y015389D02*
X010525Y015389D01*
X010559Y015467D02*
X009520Y015467D01*
X009520Y015544D02*
X010636Y015544D01*
X010841Y015274D02*
X011441Y015239D01*
X011136Y015544D02*
X011046Y015544D01*
X011124Y015621D02*
X009520Y015621D01*
X009520Y015699D02*
X011105Y015699D01*
X011105Y015776D02*
X009520Y015776D01*
X009520Y015853D02*
X011105Y015853D01*
X011105Y016008D02*
X009520Y016008D01*
X009520Y016085D02*
X011105Y016085D01*
X011110Y016162D02*
X009520Y016162D01*
X009520Y016240D02*
X011164Y016240D01*
X011402Y016240D02*
X011480Y016240D01*
X011480Y016162D02*
X011402Y016162D01*
X011402Y016085D02*
X011480Y016085D01*
X011480Y016008D02*
X011402Y016008D01*
X011402Y015930D02*
X009520Y015930D01*
X009520Y016317D02*
X012188Y016317D01*
X012265Y016240D02*
X011718Y016240D01*
X011772Y016162D02*
X012342Y016162D01*
X012420Y016085D02*
X011777Y016085D01*
X011777Y016008D02*
X012497Y016008D01*
X012574Y015930D02*
X011481Y015930D01*
X012033Y016471D02*
X009520Y016471D01*
X009520Y016394D02*
X012110Y016394D01*
X011956Y016549D02*
X009519Y016549D01*
X009442Y016626D02*
X011879Y016626D01*
X011177Y017785D02*
X011103Y017785D01*
X013420Y018635D02*
X017105Y018635D01*
X017177Y018635D02*
X019105Y018635D01*
X019177Y018635D02*
X020162Y018635D01*
X020162Y019022D02*
X013420Y019022D01*
X013420Y019099D02*
X020162Y019099D01*
X020162Y019176D02*
X013420Y019176D01*
X013420Y019254D02*
X020162Y019254D01*
X019177Y018867D02*
X019105Y018867D01*
X019105Y018790D02*
X019177Y018790D01*
X019177Y018713D02*
X019105Y018713D01*
X019105Y018558D02*
X019177Y018558D01*
X019177Y018481D02*
X019105Y018481D01*
X019105Y018403D02*
X019177Y018403D01*
X018721Y018403D02*
X017561Y018403D01*
X017553Y018388D02*
X017571Y018420D01*
X017580Y018455D01*
X017580Y018588D01*
X017177Y018588D01*
X017177Y018334D01*
X017459Y018334D01*
X017495Y018344D01*
X017527Y018362D01*
X017553Y018388D01*
X017580Y018481D02*
X018702Y018481D01*
X018702Y018558D02*
X017580Y018558D01*
X017580Y018713D02*
X018702Y018713D01*
X018702Y018790D02*
X017580Y018790D01*
X017545Y018867D02*
X018737Y018867D01*
X017177Y018867D02*
X017105Y018867D01*
X017105Y018790D02*
X017177Y018790D01*
X017177Y018713D02*
X017105Y018713D01*
X017105Y018558D02*
X017177Y018558D01*
X017177Y018481D02*
X017105Y018481D01*
X017105Y018403D02*
X017177Y018403D01*
X015282Y018172D02*
X015188Y018172D01*
X014563Y018172D02*
X014519Y018172D01*
X014246Y018172D02*
X014167Y018172D01*
X014167Y018094D02*
X014246Y018094D01*
X014246Y018017D02*
X014167Y018017D01*
X014167Y017940D02*
X014246Y017940D01*
X014823Y016162D02*
X016542Y016162D01*
X016107Y016085D02*
X014905Y016085D01*
X014145Y015080D02*
X016085Y015080D01*
X016085Y015003D02*
X014160Y015003D01*
X014160Y014926D02*
X016085Y014926D01*
X016121Y014848D02*
X014160Y014848D01*
X014160Y014771D02*
X016702Y014771D01*
X016702Y014694D02*
X014160Y014694D01*
X014160Y014617D02*
X016702Y014617D01*
X016702Y014539D02*
X014160Y014539D01*
X014965Y014462D02*
X016756Y014462D01*
X016480Y014848D02*
X016402Y014848D01*
X016402Y014926D02*
X016480Y014926D01*
X016480Y015003D02*
X016402Y015003D01*
X017509Y015003D02*
X018773Y015003D01*
X018702Y014926D02*
X017580Y014926D01*
X017580Y014848D02*
X018702Y014848D01*
X018702Y014771D02*
X017580Y014771D01*
X017580Y014694D02*
X018702Y014694D01*
X018702Y014617D02*
X017580Y014617D01*
X017580Y014539D02*
X018702Y014539D01*
X018756Y014462D02*
X017526Y014462D01*
X013901Y009207D02*
X012377Y009207D01*
X011900Y009670D02*
X011822Y009670D01*
X011822Y009593D02*
X009430Y009593D01*
X008852Y009554D02*
X008852Y007893D01*
X008803Y007893D01*
X008330Y007893D01*
X008330Y007849D02*
X008330Y009416D01*
X008330Y009531D01*
X008286Y009638D01*
X007530Y010394D01*
X007530Y010521D02*
X007713Y010521D01*
X007687Y010598D02*
X007530Y010598D01*
X007530Y010675D02*
X007687Y010675D01*
X007687Y010752D02*
X007530Y010752D01*
X007530Y010830D02*
X007714Y010830D01*
X007746Y010907D02*
X007530Y010907D01*
X007530Y010984D02*
X007809Y010984D01*
X007890Y011062D02*
X007530Y011062D01*
X007530Y011139D02*
X008849Y011139D01*
X008849Y011216D02*
X007530Y011216D01*
X007530Y011293D02*
X008902Y011293D01*
X008849Y011062D02*
X008392Y011062D01*
X008473Y010984D02*
X008849Y010984D01*
X008849Y010907D02*
X008536Y010907D01*
X008568Y010830D02*
X008849Y010830D01*
X008271Y010134D02*
X007790Y010134D01*
X007867Y010057D02*
X008349Y010057D01*
X008426Y009980D02*
X007944Y009980D01*
X008022Y009902D02*
X008503Y009902D01*
X008581Y009825D02*
X008099Y009825D01*
X008176Y009748D02*
X008658Y009748D01*
X008735Y009670D02*
X008254Y009670D01*
X008305Y009593D02*
X008812Y009593D01*
X008852Y009554D02*
X008186Y010219D01*
X008051Y010219D01*
X007884Y010289D01*
X007713Y010211D02*
X008194Y010211D01*
X008330Y009516D02*
X008852Y009516D01*
X008852Y009439D02*
X008330Y009439D01*
X008330Y009361D02*
X008852Y009361D01*
X008852Y009284D02*
X008330Y009284D01*
X008330Y009207D02*
X008852Y009207D01*
X008852Y009129D02*
X008330Y009129D01*
X008330Y009052D02*
X008852Y009052D01*
X008852Y008975D02*
X008330Y008975D01*
X008330Y008898D02*
X008852Y008898D01*
X008852Y008820D02*
X008330Y008820D01*
X008330Y008743D02*
X008852Y008743D01*
X008852Y008666D02*
X008330Y008666D01*
X008330Y008588D02*
X008852Y008588D01*
X008852Y008511D02*
X008330Y008511D01*
X008330Y008434D02*
X008852Y008434D01*
X008852Y008357D02*
X008330Y008357D01*
X008330Y008279D02*
X008852Y008279D01*
X008852Y008202D02*
X008330Y008202D01*
X008330Y008125D02*
X008852Y008125D01*
X008852Y008047D02*
X008330Y008047D01*
X008330Y007970D02*
X008852Y007970D01*
X008803Y007893D02*
X008722Y007811D01*
X008722Y007163D01*
X008430Y007163D01*
X008430Y007170D01*
X008497Y007236D01*
X008560Y007390D01*
X008560Y007557D01*
X008497Y007711D01*
X008379Y007829D01*
X008330Y007849D01*
X008392Y007816D02*
X008726Y007816D01*
X008722Y007738D02*
X008469Y007738D01*
X008517Y007661D02*
X008722Y007661D01*
X008722Y007584D02*
X008549Y007584D01*
X008560Y007506D02*
X008722Y007506D01*
X008722Y007429D02*
X008560Y007429D01*
X008545Y007352D02*
X008722Y007352D01*
X008722Y007275D02*
X008513Y007275D01*
X008458Y007197D02*
X008722Y007197D01*
X011822Y009748D02*
X011900Y009748D01*
X011900Y009825D02*
X011822Y009825D01*
X011822Y009902D02*
X011900Y009902D01*
X011357Y011757D02*
X008467Y011757D01*
X007687Y012144D02*
X007530Y012144D01*
X007530Y012221D02*
X007687Y012221D01*
X007723Y012298D02*
X007530Y012298D01*
X007530Y012375D02*
X007800Y012375D01*
X007878Y012453D02*
X007530Y012453D01*
X009520Y015080D02*
X010559Y015080D01*
X010382Y014462D02*
X011105Y014462D01*
X011105Y014385D02*
X010305Y014385D01*
X011046Y013303D02*
X011167Y013303D01*
X011770Y013921D02*
X012278Y013921D01*
X012356Y013998D02*
X011742Y013998D01*
X011777Y014076D02*
X012433Y014076D01*
X012009Y014153D02*
X011777Y014153D01*
X013780Y009129D02*
X014352Y009129D01*
X014352Y009052D02*
X013872Y009052D01*
X013949Y008975D02*
X014352Y008975D01*
X014352Y008898D02*
X014026Y008898D01*
X014104Y008820D02*
X014352Y008820D01*
X014352Y008743D02*
X014181Y008743D01*
X014258Y008666D02*
X014352Y008666D01*
X014352Y008588D02*
X014336Y008588D01*
X016481Y007043D02*
X021352Y007043D01*
X021352Y007120D02*
X018381Y007120D01*
X018392Y007816D02*
X021352Y007816D01*
X021352Y006966D02*
X016558Y006966D01*
X016636Y006888D02*
X021352Y006888D01*
X021352Y006811D02*
X016713Y006811D01*
X016790Y006734D02*
X021352Y006734D01*
X018225Y007893D02*
X018058Y007893D01*
X014464Y019872D02*
X014296Y019872D01*
X014218Y019949D02*
X014541Y019949D01*
X014547Y020104D02*
X014636Y020104D01*
X014841Y020374D02*
X014841Y020574D01*
X013141Y022274D01*
X013141Y023774D01*
X013122Y024045D02*
X015194Y024045D01*
X015377Y024663D02*
X018514Y024663D01*
X018442Y024895D02*
X015295Y024895D01*
X015326Y024864D02*
X015377Y024741D01*
X015198Y024973D02*
X018421Y024973D01*
X018421Y024964D02*
X018421Y024964D01*
X019754Y023528D02*
X019754Y023528D01*
X020071Y023504D02*
X015681Y023504D01*
X015822Y022886D02*
X020450Y022886D01*
X020527Y022963D02*
X013320Y022963D01*
X013320Y022886D02*
X013460Y022886D01*
X013383Y022809D02*
X013320Y022809D01*
X013320Y023040D02*
X020604Y023040D01*
X020372Y022809D02*
X015899Y022809D01*
X015976Y022731D02*
X020295Y022731D01*
X020218Y022654D02*
X019428Y022654D01*
X019507Y022577D02*
X020162Y022577D01*
X020162Y022499D02*
X019517Y022499D01*
X019517Y022422D02*
X020162Y022422D01*
X020162Y022345D02*
X019517Y022345D01*
X019517Y022190D02*
X020162Y022190D01*
X020162Y022113D02*
X019517Y022113D01*
X019517Y022036D02*
X020162Y022036D01*
X020162Y021959D02*
X019482Y021959D01*
X019180Y021959D02*
X019102Y021959D01*
X019102Y022036D02*
X019180Y022036D01*
X019180Y022113D02*
X019102Y022113D01*
X019102Y022190D02*
X019180Y022190D01*
X019181Y022268D02*
X020162Y022268D01*
X019180Y022345D02*
X019102Y022345D01*
X019102Y022422D02*
X019180Y022422D01*
X019180Y022499D02*
X019102Y022499D01*
X019102Y022577D02*
X019180Y022577D01*
X019180Y022654D02*
X019102Y022654D01*
X018854Y022654D02*
X016054Y022654D01*
X016060Y022577D02*
X018775Y022577D01*
X018766Y022499D02*
X016060Y022499D01*
X016060Y022422D02*
X018766Y022422D01*
X018766Y022345D02*
X016060Y022345D01*
X016028Y022268D02*
X019102Y022268D01*
X018766Y022190D02*
X015951Y022190D01*
X016741Y021774D02*
X014341Y021774D01*
X014868Y020799D02*
X018808Y020799D01*
X018840Y020722D02*
X014946Y020722D01*
X015046Y020645D02*
X018895Y020645D01*
X020271Y023489D02*
X020271Y023489D01*
X020337Y023504D02*
X021068Y023504D01*
X021631Y024354D02*
X023968Y024354D01*
X024045Y024432D02*
X021669Y024432D01*
X021706Y024509D02*
X024123Y024509D01*
X024051Y024586D02*
X024200Y024586D01*
X024277Y024663D02*
X024080Y024663D01*
X024080Y024655D02*
X024080Y024934D01*
X023681Y024934D01*
X023681Y025013D01*
X024080Y025013D01*
X024080Y025292D01*
X024071Y025327D01*
X024053Y025359D01*
X024362Y025359D01*
X024362Y025436D02*
X021848Y025436D01*
X021860Y025359D02*
X023229Y025359D01*
X023230Y025359D02*
X023211Y025327D01*
X023202Y025292D01*
X023202Y025013D01*
X023602Y025013D01*
X023602Y025413D01*
X023323Y025413D01*
X023287Y025404D01*
X023256Y025385D01*
X023230Y025359D01*
X023202Y025282D02*
X021872Y025282D01*
X021878Y025204D02*
X023202Y025204D01*
X023202Y025127D02*
X021866Y025127D01*
X021854Y025050D02*
X023202Y025050D01*
X023202Y024934D02*
X023202Y024655D01*
X023211Y024620D01*
X023230Y024588D01*
X023256Y024562D01*
X023287Y024544D01*
X023323Y024534D01*
X023602Y024534D01*
X023602Y024934D01*
X023680Y024934D01*
X023680Y024534D01*
X023959Y024534D01*
X023995Y024544D01*
X024027Y024562D01*
X024053Y024588D01*
X024071Y024620D01*
X024080Y024655D01*
X024080Y024741D02*
X024354Y024741D01*
X024362Y024818D02*
X024080Y024818D01*
X024080Y024895D02*
X024362Y024895D01*
X024362Y024973D02*
X023681Y024973D01*
X023680Y025013D02*
X023602Y025013D01*
X023602Y024934D01*
X023202Y024934D01*
X023202Y024895D02*
X021831Y024895D01*
X021819Y024818D02*
X023202Y024818D01*
X023202Y024741D02*
X021808Y024741D01*
X021803Y024711D02*
X021803Y024711D01*
X021780Y024663D02*
X023202Y024663D01*
X023232Y024586D02*
X021743Y024586D01*
X021843Y024973D02*
X023602Y024973D01*
X023602Y025050D02*
X023680Y025050D01*
X023680Y025013D02*
X023680Y025413D01*
X023959Y025413D01*
X023995Y025404D01*
X024027Y025385D01*
X024053Y025359D01*
X024080Y025282D02*
X024362Y025282D01*
X024362Y025204D02*
X024080Y025204D01*
X024080Y025127D02*
X024362Y025127D01*
X024362Y025050D02*
X024080Y025050D01*
X023680Y025127D02*
X023602Y025127D01*
X023602Y025204D02*
X023680Y025204D01*
X023680Y025282D02*
X023602Y025282D01*
X023602Y025359D02*
X023680Y025359D01*
X023729Y025534D02*
X023890Y025601D01*
X024014Y025725D01*
X024080Y025886D01*
X024080Y026061D01*
X024014Y026223D01*
X023890Y026346D01*
X023729Y026413D01*
X023554Y026413D01*
X023392Y026346D01*
X023269Y026223D01*
X023202Y026061D01*
X023202Y025886D01*
X023269Y025725D01*
X023392Y025601D01*
X023554Y025534D01*
X023729Y025534D01*
X023865Y025591D02*
X024505Y025591D01*
X024582Y025668D02*
X023957Y025668D01*
X024022Y025745D02*
X024659Y025745D01*
X024728Y025823D02*
X024054Y025823D01*
X024080Y025900D02*
X024702Y025900D01*
X024702Y025977D02*
X024080Y025977D01*
X024080Y026055D02*
X024702Y026055D01*
X024731Y026132D02*
X024051Y026132D01*
X024019Y026209D02*
X024763Y026209D01*
X024832Y026286D02*
X023950Y026286D01*
X023848Y026364D02*
X024935Y026364D01*
X024906Y026596D02*
X023876Y026596D01*
X023962Y026673D02*
X024821Y026673D01*
X024555Y026750D02*
X024024Y026750D01*
X024056Y026827D02*
X024449Y026827D01*
X024372Y026905D02*
X024080Y026905D01*
X024080Y026982D02*
X024294Y026982D01*
X024217Y027059D02*
X024080Y027059D01*
X024049Y027136D02*
X024140Y027136D01*
X024062Y027214D02*
X024017Y027214D01*
X023985Y027291D02*
X023945Y027291D01*
X023908Y027368D02*
X023836Y027368D01*
X024199Y027755D02*
X024759Y027755D01*
X024765Y027743D02*
X024806Y027687D01*
X024855Y027639D01*
X024911Y027598D01*
X024972Y027567D01*
X025038Y027545D01*
X025102Y027535D01*
X025102Y027934D01*
X025180Y027934D01*
X025180Y027535D01*
X025244Y027545D01*
X025310Y027567D01*
X025371Y027598D01*
X025427Y027639D01*
X025476Y027687D01*
X025517Y027743D01*
X025548Y027805D01*
X025570Y027871D01*
X025580Y027934D01*
X025181Y027934D01*
X025181Y028013D01*
X025580Y028013D01*
X025570Y028077D01*
X025548Y028142D01*
X025517Y028204D01*
X025476Y028260D01*
X025427Y028309D01*
X025371Y028349D01*
X025310Y028381D01*
X025244Y028402D01*
X025180Y028412D01*
X025180Y028013D01*
X025102Y028013D01*
X025102Y028412D01*
X025038Y028402D01*
X024972Y028381D01*
X024911Y028349D01*
X024855Y028309D01*
X024806Y028260D01*
X024765Y028204D01*
X024734Y028142D01*
X024713Y028077D01*
X024702Y028013D01*
X025102Y028013D01*
X025102Y027934D01*
X024702Y027934D01*
X024713Y027871D01*
X024734Y027805D01*
X024765Y027743D01*
X024816Y027677D02*
X024276Y027677D01*
X024353Y027600D02*
X024908Y027600D01*
X025102Y027600D02*
X025180Y027600D01*
X025180Y027677D02*
X025102Y027677D01*
X025102Y027755D02*
X025180Y027755D01*
X025180Y027832D02*
X025102Y027832D01*
X025102Y027909D02*
X025180Y027909D01*
X025181Y027987D02*
X025902Y027987D01*
X025902Y028064D02*
X025572Y028064D01*
X025549Y028141D02*
X025902Y028141D01*
X025902Y028218D02*
X025506Y028218D01*
X025440Y028296D02*
X025902Y028296D01*
X025902Y028373D02*
X025325Y028373D01*
X025180Y028373D02*
X025102Y028373D01*
X025102Y028296D02*
X025180Y028296D01*
X025180Y028218D02*
X025102Y028218D01*
X025102Y028141D02*
X025180Y028141D01*
X025180Y028064D02*
X025102Y028064D01*
X025102Y027987D02*
X024080Y027987D01*
X024079Y028064D02*
X024711Y028064D01*
X024734Y028141D02*
X024047Y028141D01*
X024015Y028218D02*
X024776Y028218D01*
X024842Y028296D02*
X023940Y028296D01*
X023825Y028373D02*
X024957Y028373D01*
X024706Y027909D02*
X024080Y027909D01*
X024121Y027832D02*
X024725Y027832D01*
X024430Y027523D02*
X025902Y027523D01*
X025902Y027600D02*
X025374Y027600D01*
X025466Y027677D02*
X025902Y027677D01*
X025902Y027755D02*
X025523Y027755D01*
X025557Y027832D02*
X025902Y027832D01*
X025902Y027909D02*
X025576Y027909D01*
X025902Y027446D02*
X024508Y027446D01*
X024585Y027368D02*
X024946Y027368D01*
X024837Y027291D02*
X024662Y027291D01*
X024739Y027214D02*
X024765Y027214D01*
X025336Y027368D02*
X025902Y027368D01*
X025902Y027291D02*
X025445Y027291D01*
X025517Y027214D02*
X025902Y027214D01*
X025902Y027136D02*
X025817Y027136D01*
X025894Y027059D02*
X025902Y027059D01*
X025602Y026673D02*
X025462Y026673D01*
X025376Y026596D02*
X025602Y026596D01*
X025602Y026518D02*
X021286Y026518D01*
X021358Y026441D02*
X025602Y026441D01*
X025602Y026364D02*
X025348Y026364D01*
X025450Y026286D02*
X025602Y026286D01*
X025602Y026209D02*
X025519Y026209D01*
X025551Y026132D02*
X025602Y026132D01*
X025602Y026055D02*
X025580Y026055D01*
X025580Y025977D02*
X025602Y025977D01*
X025602Y025900D02*
X025580Y025900D01*
X025602Y025823D02*
X025554Y025823D01*
X025522Y025745D02*
X025602Y025745D01*
X025602Y025668D02*
X025457Y025668D01*
X025365Y025591D02*
X025602Y025591D01*
X025602Y025514D02*
X024935Y025514D01*
X024857Y025436D02*
X025602Y025436D01*
X025602Y025359D02*
X025553Y025359D01*
X025580Y025282D02*
X025602Y025282D01*
X025602Y025204D02*
X025580Y025204D01*
X025580Y025127D02*
X025602Y025127D01*
X025602Y025050D02*
X025580Y025050D01*
X025580Y024973D02*
X025602Y024973D01*
X025602Y024895D02*
X025580Y024895D01*
X025580Y024818D02*
X025602Y024818D01*
X025602Y024741D02*
X025580Y024741D01*
X025580Y024663D02*
X025602Y024663D01*
X025602Y024586D02*
X025551Y024586D01*
X025602Y024509D02*
X024930Y024509D01*
X024853Y024432D02*
X025560Y024432D01*
X025483Y024354D02*
X024775Y024354D01*
X024698Y024277D02*
X025406Y024277D01*
X025329Y024200D02*
X024621Y024200D01*
X024544Y024122D02*
X025251Y024122D01*
X025174Y024045D02*
X024466Y024045D01*
X024389Y023968D02*
X025097Y023968D01*
X025019Y023891D02*
X024312Y023891D01*
X024234Y023813D02*
X024942Y023813D01*
X023680Y024586D02*
X023602Y024586D01*
X023602Y024663D02*
X023680Y024663D01*
X023680Y024741D02*
X023602Y024741D01*
X023602Y024818D02*
X023680Y024818D01*
X023680Y024895D02*
X023602Y024895D01*
X023417Y025591D02*
X021825Y025591D01*
X021813Y025668D02*
X023325Y025668D01*
X023260Y025745D02*
X021799Y025745D01*
X021762Y025823D02*
X023228Y025823D01*
X023202Y025900D02*
X021724Y025900D01*
X021687Y025977D02*
X023202Y025977D01*
X023202Y026055D02*
X021650Y026055D01*
X021613Y026132D02*
X023231Y026132D01*
X023263Y026209D02*
X021573Y026209D01*
X021578Y026204D02*
X021578Y026204D01*
X021578Y026203D01*
X021501Y026286D02*
X023332Y026286D01*
X023435Y026364D02*
X021430Y026364D01*
X021205Y026596D02*
X023406Y026596D01*
X023321Y026673D02*
X021071Y026673D01*
X020937Y026750D02*
X023258Y026750D01*
X023226Y026827D02*
X020803Y026827D01*
X020506Y026905D02*
X023202Y026905D01*
X023457Y028373D02*
X020072Y028373D01*
X020149Y028450D02*
X025902Y028450D01*
X025902Y028528D02*
X022195Y028528D01*
X022272Y028605D02*
X025902Y028605D01*
X025902Y028682D02*
X022350Y028682D01*
X022427Y028759D02*
X025902Y028759D01*
X025902Y028837D02*
X022504Y028837D01*
X022581Y028914D02*
X025902Y028914D01*
X024427Y025514D02*
X021837Y025514D01*
X016807Y028450D02*
X016510Y028450D01*
X016411Y028373D02*
X016730Y028373D01*
X016653Y028296D02*
X015845Y028296D01*
X015927Y028218D02*
X016576Y028218D01*
X015971Y028373D02*
X010311Y028373D01*
X010410Y028450D02*
X015872Y028450D01*
X015437Y028296D02*
X009760Y028296D01*
X009760Y028373D02*
X009871Y028373D01*
X009772Y028450D02*
X009760Y028450D01*
X009807Y028218D02*
X015355Y028218D01*
X015304Y028141D02*
X010635Y028141D01*
X010782Y028064D02*
X015272Y028064D01*
X015266Y027987D02*
X010859Y027987D01*
X010891Y027909D02*
X011670Y027909D01*
X011568Y027832D02*
X010917Y027832D01*
X010917Y027755D02*
X011510Y027755D01*
X011478Y027677D02*
X010908Y027677D01*
X010876Y027600D02*
X011466Y027600D01*
X011954Y027214D02*
X014329Y027214D01*
X014193Y027291D02*
X012090Y027291D01*
X012163Y027368D02*
X014120Y027368D01*
X014088Y027446D02*
X012195Y027446D01*
X012217Y027523D02*
X014066Y027523D01*
X014066Y027600D02*
X012217Y027600D01*
X012205Y027677D02*
X014078Y027677D01*
X014110Y027755D02*
X012173Y027755D01*
X012114Y027832D02*
X014168Y027832D01*
X014270Y027909D02*
X012012Y027909D01*
X010447Y028141D02*
X009884Y028141D01*
X009961Y028064D02*
X010300Y028064D01*
X009636Y027368D02*
X008520Y027368D01*
X008520Y027291D02*
X009713Y027291D01*
X009791Y027214D02*
X008520Y027214D01*
X008520Y027446D02*
X009559Y027446D01*
X009482Y027523D02*
X008520Y027523D01*
X008520Y027600D02*
X009404Y027600D01*
X009327Y027677D02*
X008520Y027677D01*
X008520Y027755D02*
X009250Y027755D01*
X009172Y027832D02*
X008520Y027832D01*
X008520Y027909D02*
X009095Y027909D01*
X009022Y027987D02*
X008520Y027987D01*
X008520Y028064D02*
X009022Y028064D01*
X009022Y028141D02*
X008520Y028141D01*
X008520Y028218D02*
X009022Y028218D01*
X009022Y028296D02*
X008520Y028296D01*
X008520Y028373D02*
X009022Y028373D01*
X009022Y028450D02*
X008593Y028450D01*
X013320Y023195D02*
X013327Y023195D01*
X013320Y023118D02*
X013404Y023118D01*
X012048Y022113D02*
X011873Y022113D01*
X011951Y022190D02*
X011971Y022190D01*
X014714Y027832D02*
X015293Y027832D01*
X015266Y027909D02*
X014612Y027909D01*
D29*
X021141Y018474D02*
X024141Y018474D01*
X025141Y016474D02*
X021641Y016474D01*
X021641Y014474D01*
X024141Y015974D02*
X025141Y014974D01*
X025141Y013974D01*
X013241Y014074D02*
X013241Y015474D01*
X013291Y015524D01*
X013341Y015574D01*
X013241Y014074D02*
X011941Y012774D01*
X005641Y018474D02*
X002141Y018474D01*
X001141Y016474D02*
X004641Y016474D01*
X004641Y014474D01*
X002141Y015974D02*
X001141Y014974D01*
X001141Y013974D01*
D30*
X010641Y000974D03*
X015641Y000974D03*
X018541Y003274D03*
X018541Y004474D03*
X019141Y004974D03*
D31*
X018941Y005974D03*
X018941Y006374D03*
X016441Y007974D03*
X015941Y007974D03*
X015941Y009174D03*
X016441Y009174D03*
X015841Y009974D03*
X015441Y009974D03*
X015441Y011074D03*
X015841Y011074D03*
X015341Y013374D03*
X015341Y013874D03*
X013741Y013474D03*
X012241Y014674D03*
X012541Y015074D03*
X011981Y014004D03*
X010841Y014074D03*
X010841Y013574D03*
X010841Y015274D03*
X010841Y016474D03*
X012013Y017445D03*
X013241Y017074D03*
X013241Y016574D03*
X013841Y016974D03*
X013641Y017874D03*
X015241Y016774D03*
X015241Y016374D03*
X014641Y015874D03*
X015441Y017374D03*
X015441Y017874D03*
X014741Y019674D03*
X014841Y020374D03*
X014341Y020374D03*
X014341Y021774D03*
X013291Y021324D03*
X015441Y024274D03*
X015041Y024674D03*
X015641Y025074D03*
X016041Y025074D03*
X017841Y025874D03*
X018141Y024774D03*
X018141Y024374D03*
X017241Y021274D03*
X017441Y019924D03*
X017841Y019924D03*
X019141Y020874D03*
X022141Y025474D03*
X021341Y026774D03*
X018341Y028674D03*
X013341Y025074D03*
X012941Y025074D03*
X009341Y022274D03*
X008341Y022374D03*
X007841Y022274D03*
X007141Y023174D03*
X007141Y023574D03*
X008641Y025774D03*
X008541Y026674D03*
X008341Y028674D03*
X005741Y028774D03*
X001941Y023674D03*
X001541Y023674D03*
X006941Y018374D03*
X006941Y017974D03*
X006441Y015374D03*
X005371Y014544D03*
X008241Y015274D03*
X009141Y014974D03*
X010841Y018074D03*
X010441Y021024D03*
X010041Y021024D03*
X011041Y011074D03*
X011041Y009974D03*
X010641Y009974D03*
X010241Y009974D03*
X010041Y008574D03*
X010041Y008174D03*
X010641Y006874D03*
X011041Y006874D03*
X011841Y007374D03*
X011841Y007874D03*
X011841Y008374D03*
X013241Y008374D03*
X013241Y007874D03*
X013241Y007374D03*
X013541Y006974D03*
X014041Y006974D03*
X014041Y006474D03*
X014741Y006474D03*
X014741Y006874D03*
X015141Y006474D03*
X012541Y006274D03*
X013841Y002474D03*
X015441Y002274D03*
X011741Y001474D03*
X006741Y004374D03*
X006341Y004374D03*
X008541Y008174D03*
X008541Y008574D03*
X024241Y023674D03*
X024641Y023674D03*
D32*
X025141Y023674D02*
X025841Y024374D01*
X025841Y026774D01*
X025641Y026974D01*
X025141Y026974D01*
X024641Y026974D01*
X023641Y027974D01*
X024341Y023774D02*
X024141Y023574D01*
X024141Y022974D01*
X025141Y022974D02*
X025141Y023674D01*
X002141Y023374D02*
X002141Y022974D01*
X002141Y023374D02*
X001741Y023774D01*
X001141Y023874D02*
X000441Y024574D01*
X000441Y026674D01*
X000741Y026974D01*
X001141Y026974D01*
X001141Y023874D02*
X001141Y022974D01*
D33*
X001141Y013974D02*
X001141Y003974D01*
X002941Y002174D01*
X003141Y002174D01*
X004141Y001474D02*
X003641Y000974D01*
X002141Y000974D01*
X001141Y001974D01*
X001141Y002274D01*
X003141Y003474D02*
X002141Y004474D01*
X002141Y013974D01*
X003141Y003474D02*
X003641Y003474D01*
X004141Y002974D01*
X004141Y001474D01*
X023141Y002174D02*
X023141Y002474D01*
X024141Y003474D01*
X024141Y013974D01*
X025141Y013974D02*
X025141Y002274D01*
D34*
X024141Y017974D02*
X024141Y018474D01*
X024141Y018974D01*
X002141Y018974D02*
X002141Y018474D01*
X002141Y017974D01*
D35*
X008241Y015274D02*
X008841Y015274D01*
X009141Y014974D01*
D36*
X007441Y012774D02*
X011941Y012774D01*
X011861Y011384D02*
X011871Y011374D01*
X012741Y011374D01*
X013551Y009564D01*
X014421Y009564D01*
X014511Y009474D01*
X014641Y009474D01*
X014641Y008474D01*
X016741Y006374D01*
X017741Y006374D01*
X019141Y004974D01*
X018541Y004974D02*
X018541Y004474D01*
X016141Y004474D01*
X016541Y005974D02*
X013641Y008874D01*
X011641Y008874D01*
X009741Y006874D01*
X008241Y006874D01*
X008141Y007074D01*
X008141Y007474D01*
X008041Y007474D02*
X008041Y009474D01*
X007241Y010274D01*
X007241Y012574D01*
X007441Y012774D01*
X008141Y010674D02*
X009141Y009674D01*
X009141Y007474D01*
X008141Y007074D02*
X008141Y006974D01*
X010141Y004474D02*
X010141Y003974D01*
X010041Y003874D01*
X021041Y003874D01*
X021641Y004474D01*
X021641Y007474D01*
X018141Y007474D01*
X017141Y007474D02*
X017141Y008274D01*
X018141Y009274D01*
X016941Y010474D01*
X014421Y010474D01*
X011861Y010474D02*
X008341Y010474D01*
X008141Y010674D01*
X004641Y014474D02*
X004641Y004474D01*
X005241Y003874D01*
X010041Y003874D01*
X011741Y003474D02*
X018341Y003474D01*
X018541Y003274D01*
X018741Y003474D01*
X021241Y003474D01*
X022141Y004374D01*
X022141Y014974D01*
X021641Y014474D02*
X021641Y007474D01*
X018541Y004974D02*
X017541Y005974D01*
X016541Y005974D01*
X011741Y003474D02*
X005041Y003474D01*
X004141Y004374D01*
X004141Y014974D01*
X001141Y015974D02*
X001141Y016474D01*
X001141Y016974D01*
X025141Y016974D02*
X025141Y016474D01*
X025141Y015974D01*
D37*
X017015Y027574D02*
X017391Y027950D01*
X017391Y028724D01*
X017441Y028674D01*
X017041Y028374D02*
X017041Y029074D01*
X017241Y029274D01*
X019241Y029274D01*
X019841Y028674D01*
X017041Y028374D02*
X016641Y027974D01*
X015641Y027974D01*
X014441Y027574D02*
X017015Y027574D01*
X011841Y027574D02*
X011641Y027374D01*
X009941Y027374D01*
X009241Y028074D01*
X009241Y028574D01*
X008741Y029074D01*
X007841Y029074D01*
X007441Y028674D01*
X008841Y029374D02*
X005541Y029374D01*
X004941Y028774D01*
X002161Y029974D02*
X001310Y030825D01*
X001245Y030825D02*
X000537Y030825D01*
X000841Y030274D02*
X000841Y030027D01*
X000537Y029723D01*
X001245Y029723D01*
X006741Y022674D02*
X007041Y022674D01*
X008041Y022674D01*
X008341Y022374D01*
X006741Y022674D02*
X006441Y022374D01*
X006441Y015374D01*
X011441Y015239D02*
X012106Y015239D01*
X012441Y015574D01*
X013241Y015574D01*
X013291Y015524D01*
X013341Y015574D02*
X013941Y014974D01*
X013941Y013974D01*
X014476Y013439D01*
X014741Y013439D01*
X012941Y014274D02*
X012941Y015274D01*
X013341Y015674D01*
X013441Y015674D01*
X014876Y017108D01*
X014876Y017874D01*
X013341Y015674D02*
X013241Y015674D01*
X013341Y015574D01*
X013241Y015674D02*
X013141Y015674D01*
X011541Y017274D01*
X011541Y017474D01*
X012941Y014274D02*
X012306Y013639D01*
X011606Y013639D01*
X011741Y003474D02*
X011741Y001474D01*
X010541Y027774D02*
X009941Y027774D01*
X009541Y028174D01*
X009541Y028674D01*
X008841Y029374D01*
X022561Y029974D02*
X023412Y030825D01*
X025037Y030825D01*
X025745Y030825D01*
X025441Y030274D02*
X025441Y030027D01*
X025745Y029723D01*
X025037Y029723D01*
D38*
X019141Y021460D02*
X019141Y020874D01*
X007041Y020708D02*
X007041Y021360D01*
X007041Y022187D02*
X007041Y022674D01*
X001310Y030825D02*
X001245Y030825D01*
D39*
X005741Y028774D02*
X005741Y028674D01*
X008641Y025774D01*
X008541Y026674D02*
X008341Y026874D01*
X008341Y028674D01*
X008541Y026674D02*
X010541Y024674D01*
X015041Y024674D01*
X012641Y023474D02*
X012141Y022974D01*
X012141Y022274D01*
X013141Y021274D01*
X013291Y021324D01*
X014341Y020774D02*
X012641Y022474D01*
X014341Y020774D02*
X014341Y020374D01*
X017841Y025874D02*
X018341Y026374D01*
X018341Y028674D01*
X021991Y024174D02*
X024041Y024174D01*
X024541Y024674D01*
X024541Y025374D01*
X025141Y025974D01*
X025141Y024974D02*
X024141Y023974D01*
X022091Y023974D01*
X020541Y022424D01*
X020541Y015374D01*
X020341Y015174D01*
X020341Y015774D02*
X020341Y022524D01*
X021991Y024174D01*
X020341Y015774D02*
X019741Y015174D01*
D40*
X019741Y015174D03*
X020341Y015174D03*
D41*
X014441Y027574D03*
X015641Y027974D03*
X017441Y028674D03*
X019841Y028674D03*
X025441Y030274D03*
X011841Y027574D03*
X010541Y027774D03*
X007441Y028674D03*
X004941Y028774D03*
X000841Y030274D03*
M02*
