G75*
G70*
%OFA0B0*%
%FSLAX24Y24*%
%IPPOS*%
%LPD*%
%AMOC8*
5,1,8,0,0,1.08239X$1,22.5*
%
%ADD10R,0.0472X0.0126*%
%ADD11R,0.0126X0.0472*%
%ADD12OC8,0.0560*%
%ADD13C,0.0520*%
%ADD14R,0.0394X0.0433*%
%ADD15R,0.0600X0.0600*%
%ADD16C,0.0600*%
%ADD17C,0.0705*%
%ADD18R,0.0433X0.0394*%
%ADD19R,0.0560X0.0560*%
%ADD20C,0.0560*%
%ADD21R,0.0197X0.0984*%
%ADD22R,0.0787X0.0984*%
%ADD23C,0.0476*%
%ADD24R,0.0236X0.0866*%
%ADD25OC8,0.0705*%
%ADD26R,0.0394X0.0551*%
%ADD27OC8,0.0630*%
%ADD28C,0.0630*%
%ADD29C,0.0079*%
%ADD30C,0.0700*%
%ADD31C,0.0400*%
%ADD32C,0.0500*%
%ADD33C,0.0200*%
%ADD34C,0.0551*%
%ADD35C,0.0394*%
%ADD36C,0.0120*%
%ADD37C,0.0300*%
%ADD38C,0.0160*%
%ADD39C,0.0080*%
%ADD40C,0.0433*%
%ADD41C,0.0472*%
%ADD42C,0.0100*%
D10*
X010090Y013311D03*
X010090Y013508D03*
X010090Y013705D03*
X010090Y013902D03*
X010090Y014099D03*
X010090Y014296D03*
X010090Y014493D03*
X010090Y014689D03*
X010090Y014886D03*
X010090Y015083D03*
X010090Y015280D03*
X010090Y015477D03*
X010090Y015674D03*
X010090Y015871D03*
X010090Y016067D03*
X010090Y016264D03*
X010090Y016461D03*
X010090Y016658D03*
X010090Y016855D03*
X010090Y017052D03*
X010090Y017249D03*
X010090Y017445D03*
X010090Y017642D03*
X010090Y017839D03*
X010090Y018036D03*
X016192Y018036D03*
X016192Y017839D03*
X016192Y017642D03*
X016192Y017445D03*
X016192Y017249D03*
X016192Y017052D03*
X016192Y016855D03*
X016192Y016658D03*
X016192Y016461D03*
X016192Y016264D03*
X016192Y016067D03*
X016192Y015871D03*
X016192Y015674D03*
X016192Y015477D03*
X016192Y015280D03*
X016192Y015083D03*
X016192Y014886D03*
X016192Y014689D03*
X016192Y014493D03*
X016192Y014296D03*
X016192Y014099D03*
X016192Y013902D03*
X016192Y013705D03*
X016192Y013508D03*
X016192Y013311D03*
D11*
X015503Y012623D03*
X015306Y012623D03*
X015110Y012623D03*
X014913Y012623D03*
X014716Y012623D03*
X014519Y012623D03*
X014322Y012623D03*
X014125Y012623D03*
X013929Y012623D03*
X013732Y012623D03*
X013535Y012623D03*
X013338Y012623D03*
X013141Y012623D03*
X012944Y012623D03*
X012747Y012623D03*
X012551Y012623D03*
X012354Y012623D03*
X012157Y012623D03*
X011960Y012623D03*
X011763Y012623D03*
X011566Y012623D03*
X011369Y012623D03*
X011173Y012623D03*
X010976Y012623D03*
X010779Y012623D03*
X010779Y018725D03*
X010976Y018725D03*
X011173Y018725D03*
X011369Y018725D03*
X011566Y018725D03*
X011763Y018725D03*
X011960Y018725D03*
X012157Y018725D03*
X012354Y018725D03*
X012551Y018725D03*
X012747Y018725D03*
X012944Y018725D03*
X013141Y018725D03*
X013338Y018725D03*
X013535Y018725D03*
X013732Y018725D03*
X013929Y018725D03*
X014125Y018725D03*
X014322Y018725D03*
X014519Y018725D03*
X014716Y018725D03*
X014913Y018725D03*
X015110Y018725D03*
X015306Y018725D03*
X015503Y018725D03*
D12*
X015641Y022474D03*
X015641Y023474D03*
X014641Y023474D03*
X014641Y022474D03*
X013641Y022474D03*
X013641Y023474D03*
X012641Y023474D03*
X012641Y022474D03*
X011641Y022474D03*
X011641Y023474D03*
X010641Y023474D03*
X010641Y022474D03*
X008641Y005974D03*
X008641Y004974D03*
X007641Y004974D03*
X007641Y005974D03*
X010141Y005474D03*
X010141Y004474D03*
X011141Y004474D03*
X011141Y005474D03*
X012141Y005474D03*
X012141Y004474D03*
X013141Y004474D03*
X013141Y005474D03*
X014141Y005474D03*
X014141Y004474D03*
X015141Y004474D03*
X015141Y005474D03*
X016141Y005474D03*
X016141Y004474D03*
D13*
X008641Y014324D03*
X008641Y016224D03*
D14*
X007641Y016208D03*
X007641Y015539D03*
X007641Y015008D03*
X007641Y014339D03*
X006176Y013974D03*
X005506Y013974D03*
X005506Y012974D03*
X006176Y012974D03*
X006176Y011974D03*
X005506Y011974D03*
X005506Y010974D03*
X006176Y010974D03*
X006176Y009974D03*
X005506Y009974D03*
X005506Y008974D03*
X006176Y008974D03*
X006176Y007974D03*
X005506Y007974D03*
X005506Y006974D03*
X006176Y006974D03*
X006176Y005974D03*
X005506Y005974D03*
X005506Y004974D03*
X006176Y004974D03*
X009606Y003074D03*
X010276Y003074D03*
X010276Y002274D03*
X009606Y002274D03*
X008841Y011039D03*
X008841Y011708D03*
X005576Y015974D03*
X004906Y015974D03*
X004906Y016974D03*
X005576Y016974D03*
X005576Y017974D03*
X004906Y017974D03*
X004906Y018974D03*
X004906Y019774D03*
X005576Y019774D03*
X005576Y018974D03*
X005576Y020574D03*
X005576Y021374D03*
X004906Y021374D03*
X004906Y020574D03*
X004906Y022174D03*
X005576Y022174D03*
X009206Y025774D03*
X009876Y025774D03*
X009876Y026574D03*
X009206Y026574D03*
X010806Y025674D03*
X011476Y025674D03*
X012106Y025674D03*
X012776Y025674D03*
X013506Y025674D03*
X014176Y025674D03*
X014806Y025574D03*
X015476Y025574D03*
X016506Y025774D03*
X017176Y025774D03*
X017176Y026574D03*
X016506Y026574D03*
X017706Y021674D03*
X017706Y020874D03*
X018376Y020874D03*
X018376Y021674D03*
X020706Y021374D03*
X021376Y021374D03*
X021376Y020574D03*
X020706Y020574D03*
X020706Y019774D03*
X021376Y019774D03*
X021376Y018974D03*
X020706Y018974D03*
X020706Y017974D03*
X021376Y017974D03*
X021376Y016974D03*
X020706Y016974D03*
X020706Y015974D03*
X021376Y015974D03*
X020776Y013974D03*
X020106Y013974D03*
X020106Y012974D03*
X020776Y012974D03*
X020776Y011974D03*
X020106Y011974D03*
X020106Y010974D03*
X020776Y010974D03*
X020776Y009974D03*
X020106Y009974D03*
X020106Y008974D03*
X020776Y008974D03*
X020776Y007974D03*
X020106Y007974D03*
X020106Y006974D03*
X020776Y006974D03*
X020776Y005974D03*
X020106Y005974D03*
X020106Y004974D03*
X020776Y004974D03*
X018891Y009389D03*
X018891Y010058D03*
X020756Y022174D03*
X021426Y022174D03*
X022106Y026174D03*
X022776Y026174D03*
X022776Y026974D03*
X022106Y026974D03*
X024806Y028974D03*
X025476Y028974D03*
X001476Y028974D03*
X000806Y028974D03*
D15*
X002641Y027974D03*
X001141Y024974D03*
X001141Y022974D03*
X002141Y022974D03*
X003141Y022974D03*
X004141Y022974D03*
X003141Y013974D03*
X002141Y013974D03*
X001141Y013974D03*
X022141Y022974D03*
X023141Y022974D03*
X024141Y022974D03*
X025141Y022974D03*
X025141Y024974D03*
X023641Y024974D03*
X023141Y013974D03*
X024141Y013974D03*
X025141Y013974D03*
D16*
X025141Y012974D03*
X024141Y012974D03*
X023141Y012974D03*
X023141Y011974D03*
X023141Y010974D03*
X023141Y009974D03*
X023141Y008974D03*
X023141Y007974D03*
X023141Y006974D03*
X024141Y006974D03*
X024141Y007974D03*
X024141Y008974D03*
X024141Y009974D03*
X024141Y010974D03*
X024141Y011974D03*
X025141Y011974D03*
X025141Y010974D03*
X025141Y009974D03*
X025141Y008974D03*
X025141Y007974D03*
X025141Y006974D03*
X025141Y005974D03*
X024141Y005974D03*
X024141Y004974D03*
X025141Y004974D03*
X023141Y004974D03*
X023141Y005974D03*
X023141Y015974D03*
X023141Y016974D03*
X023141Y017974D03*
X023141Y018974D03*
X023141Y019974D03*
X023141Y020974D03*
X023141Y021974D03*
X022141Y021974D03*
X022141Y020974D03*
X022141Y019974D03*
X022141Y018974D03*
X022141Y017974D03*
X022141Y016974D03*
X022141Y015974D03*
X024141Y015974D03*
X024141Y016974D03*
X024141Y017974D03*
X025141Y017974D03*
X025141Y016974D03*
X025141Y015974D03*
X025141Y018974D03*
X025141Y019974D03*
X025141Y020974D03*
X025141Y021974D03*
X024141Y021974D03*
X024141Y020974D03*
X024141Y019974D03*
X024141Y018974D03*
X023641Y025974D03*
X023641Y026974D03*
X023641Y027974D03*
X025141Y027974D03*
X025141Y026974D03*
X025141Y025974D03*
X004141Y021974D03*
X004141Y020974D03*
X004141Y019974D03*
X004141Y018974D03*
X003141Y018974D03*
X003141Y019974D03*
X003141Y020974D03*
X003141Y021974D03*
X002141Y021974D03*
X002141Y020974D03*
X002141Y019974D03*
X002141Y018974D03*
X001141Y018974D03*
X001141Y019974D03*
X001141Y020974D03*
X001141Y021974D03*
X002641Y024974D03*
X002641Y025974D03*
X002641Y026974D03*
X001141Y026974D03*
X001141Y027974D03*
X001141Y025974D03*
X001141Y017974D03*
X001141Y016974D03*
X001141Y015974D03*
X002141Y015974D03*
X002141Y016974D03*
X002141Y017974D03*
X003141Y017974D03*
X003141Y016974D03*
X003141Y015974D03*
X004141Y015974D03*
X004141Y016974D03*
X004141Y017974D03*
X003141Y012974D03*
X002141Y012974D03*
X001141Y012974D03*
X001141Y011974D03*
X001141Y010974D03*
X001141Y009974D03*
X001141Y008974D03*
X001141Y007974D03*
X001141Y006974D03*
X002141Y006974D03*
X002141Y007974D03*
X002141Y008974D03*
X002141Y009974D03*
X002141Y010974D03*
X002141Y011974D03*
X003141Y011974D03*
X003141Y010974D03*
X003141Y009974D03*
X003141Y008974D03*
X003141Y007974D03*
X003141Y006974D03*
X003141Y005974D03*
X002141Y005974D03*
X002141Y004974D03*
X003141Y004974D03*
X001141Y004974D03*
X001141Y005974D03*
D17*
X001141Y002576D02*
X001141Y001871D01*
X003141Y001871D02*
X003141Y002576D01*
X023141Y002576D02*
X023141Y001871D01*
X025141Y001871D02*
X025141Y002576D01*
D18*
X022241Y005139D03*
X022241Y005808D03*
X021441Y005808D03*
X021441Y005139D03*
X021441Y007139D03*
X021441Y007808D03*
X022241Y007808D03*
X022241Y007139D03*
X022241Y009139D03*
X022241Y009808D03*
X021441Y009808D03*
X021441Y009139D03*
X021441Y011139D03*
X021441Y011808D03*
X022241Y011808D03*
X022241Y011139D03*
X022241Y013139D03*
X022241Y013808D03*
X021441Y013808D03*
X021441Y013139D03*
X012941Y002808D03*
X012941Y002139D03*
X012141Y002139D03*
X012141Y002808D03*
X011341Y002808D03*
X011341Y002139D03*
X004841Y005139D03*
X004841Y005808D03*
X004041Y005808D03*
X004041Y005139D03*
X004041Y007139D03*
X004041Y007808D03*
X004841Y007808D03*
X004841Y007139D03*
X004841Y009139D03*
X004841Y009808D03*
X004041Y009808D03*
X004041Y009139D03*
X004041Y011139D03*
X004041Y011808D03*
X004841Y011808D03*
X004841Y011139D03*
X004841Y013139D03*
X004841Y013808D03*
X004041Y013808D03*
X004041Y013139D03*
X009341Y024439D03*
X009341Y025108D03*
X011141Y027939D03*
X011141Y028608D03*
X012441Y028608D03*
X012441Y027939D03*
X013841Y027939D03*
X013841Y028608D03*
X015141Y028608D03*
X015141Y027939D03*
D19*
X022141Y014974D03*
X017141Y007474D03*
X009141Y007474D03*
X004141Y014974D03*
D20*
X003141Y014974D03*
X002141Y014974D03*
X008141Y007474D03*
X018141Y007474D03*
X023141Y014974D03*
X024141Y014974D03*
D21*
X016271Y003458D03*
X015956Y003458D03*
X015641Y003458D03*
X015326Y003458D03*
X015011Y003458D03*
D22*
X013869Y003458D03*
X013869Y001293D03*
X017413Y001293D03*
X017413Y003458D03*
D23*
X017241Y012074D03*
X017241Y012574D03*
X017241Y013074D03*
X017241Y013574D03*
X011441Y019974D03*
X010941Y019974D03*
X010441Y019974D03*
X009941Y019974D03*
D24*
X009391Y021450D03*
X008891Y021450D03*
X008391Y021450D03*
X007891Y021450D03*
X007891Y023497D03*
X008391Y023497D03*
X008891Y023497D03*
X009391Y023497D03*
X008891Y027950D03*
X008391Y027950D03*
X007891Y027950D03*
X007391Y027950D03*
X006391Y027950D03*
X005891Y027950D03*
X005391Y027950D03*
X004891Y027950D03*
X004891Y029997D03*
X005391Y029997D03*
X005891Y029997D03*
X006391Y029997D03*
X007391Y029997D03*
X007891Y029997D03*
X008391Y029997D03*
X008891Y029997D03*
X017391Y029997D03*
X017891Y029997D03*
X018391Y029997D03*
X018891Y029997D03*
X019891Y029997D03*
X020391Y029997D03*
X020891Y029997D03*
X021391Y029997D03*
X021391Y027950D03*
X020891Y027950D03*
X020391Y027950D03*
X019891Y027950D03*
X018891Y027950D03*
X018391Y027950D03*
X017891Y027950D03*
X017391Y027950D03*
D25*
X013921Y029974D03*
X012361Y029974D03*
X003721Y029974D03*
X002161Y029974D03*
X022561Y029974D03*
X024121Y029974D03*
D26*
X015515Y026441D03*
X014767Y026441D03*
X014215Y026441D03*
X013467Y026441D03*
X012815Y026441D03*
X012067Y026441D03*
X011515Y026441D03*
X010767Y026441D03*
X011141Y027307D03*
X012441Y027307D03*
X013841Y027307D03*
X015141Y027307D03*
D27*
X016191Y030174D03*
X010091Y030174D03*
X008141Y012074D03*
X018141Y010674D03*
D28*
X018141Y009274D03*
X008141Y010674D03*
X010091Y028774D03*
X016191Y028774D03*
D29*
X016291Y026930D02*
X016256Y026920D01*
X016224Y026902D01*
X016198Y026876D01*
X016180Y026844D01*
X016170Y026809D01*
X016170Y026613D01*
X016467Y026613D01*
X016467Y026534D01*
X016546Y026534D01*
X016546Y026218D01*
X016662Y026218D01*
X016662Y026165D01*
X016662Y026130D01*
X016546Y026130D01*
X016546Y025813D01*
X016467Y025813D01*
X016467Y025734D01*
X016546Y025734D01*
X016546Y025418D01*
X016662Y025418D01*
X016662Y025348D01*
X015862Y024548D01*
X015862Y024399D01*
X015862Y023846D01*
X015815Y023893D01*
X015680Y023893D01*
X015680Y023513D01*
X015602Y023513D01*
X015602Y023893D01*
X015467Y023893D01*
X015420Y023846D01*
X015420Y023937D01*
X015508Y023937D01*
X015632Y023989D01*
X015726Y024083D01*
X015777Y024207D01*
X015777Y024341D01*
X015726Y024464D01*
X015632Y024559D01*
X015508Y024610D01*
X015377Y024610D01*
X015377Y024741D01*
X016054Y024741D01*
X015977Y024663D02*
X015377Y024663D01*
X015377Y024741D02*
X015326Y024864D01*
X015232Y024959D01*
X015149Y024993D01*
X015374Y025218D01*
X015730Y025218D01*
X015812Y025299D01*
X015812Y025848D01*
X015730Y025930D01*
X015694Y025930D01*
X015694Y026026D01*
X015770Y026026D01*
X015851Y026107D01*
X015851Y026774D01*
X015770Y026856D01*
X015261Y026856D01*
X015179Y026774D01*
X015179Y026107D01*
X015261Y026026D01*
X015336Y026026D01*
X015336Y025930D01*
X015221Y025930D01*
X015140Y025848D01*
X015140Y025820D01*
X015133Y025844D01*
X015115Y025876D01*
X015089Y025902D01*
X015057Y025920D01*
X015022Y025930D01*
X014846Y025930D01*
X014846Y025613D01*
X014767Y025613D01*
X014767Y025930D01*
X014591Y025930D01*
X014556Y025920D01*
X014524Y025902D01*
X014512Y025890D01*
X014512Y025948D01*
X014434Y026026D01*
X014470Y026026D01*
X014493Y026049D01*
X014516Y026035D01*
X014552Y026026D01*
X014728Y026026D01*
X014728Y026401D01*
X014806Y026401D01*
X014806Y026026D01*
X014982Y026026D01*
X015018Y026035D01*
X015049Y026054D01*
X015075Y026079D01*
X015094Y026111D01*
X015103Y026147D01*
X015103Y026401D01*
X014807Y026401D01*
X014807Y026480D01*
X015103Y026480D01*
X015103Y026735D01*
X015094Y026770D01*
X015075Y026802D01*
X015049Y026828D01*
X015018Y026846D01*
X014982Y026856D01*
X014806Y026856D01*
X014806Y026480D01*
X014728Y026480D01*
X014728Y026856D01*
X014552Y026856D01*
X014516Y026846D01*
X014493Y026832D01*
X014470Y026856D01*
X013961Y026856D01*
X013879Y026774D01*
X013879Y026107D01*
X013957Y026030D01*
X013921Y026030D01*
X013840Y025948D01*
X013840Y025920D01*
X013833Y025944D01*
X013815Y025976D01*
X013789Y026002D01*
X013757Y026020D01*
X013722Y026030D01*
X013697Y026030D01*
X013718Y026035D01*
X013749Y026054D01*
X013775Y026079D01*
X013794Y026111D01*
X013803Y026147D01*
X013803Y026401D01*
X013507Y026401D01*
X013507Y026480D01*
X013803Y026480D01*
X013803Y026735D01*
X013794Y026770D01*
X013775Y026802D01*
X013749Y026828D01*
X013718Y026846D01*
X013682Y026856D01*
X013506Y026856D01*
X013506Y026480D01*
X013428Y026480D01*
X013428Y026856D01*
X013252Y026856D01*
X013216Y026846D01*
X013185Y026828D01*
X013159Y026802D01*
X013146Y026779D01*
X013070Y026856D01*
X012561Y026856D01*
X012479Y026774D01*
X012479Y026107D01*
X012557Y026030D01*
X012521Y026030D01*
X012440Y025948D01*
X012440Y025920D01*
X012433Y025944D01*
X012415Y025976D01*
X012389Y026002D01*
X012357Y026020D01*
X012322Y026030D01*
X012297Y026030D01*
X012318Y026035D01*
X012349Y026054D01*
X012375Y026079D01*
X012394Y026111D01*
X012403Y026147D01*
X012403Y026401D01*
X012107Y026401D01*
X012107Y026480D01*
X012403Y026480D01*
X012403Y026735D01*
X012394Y026770D01*
X012375Y026802D01*
X012349Y026828D01*
X012318Y026846D01*
X012282Y026856D01*
X012106Y026856D01*
X012106Y026480D01*
X012028Y026480D01*
X012028Y026856D01*
X011852Y026856D01*
X011816Y026846D01*
X011793Y026832D01*
X011770Y026856D01*
X011261Y026856D01*
X011179Y026774D01*
X011179Y026107D01*
X011257Y026030D01*
X011221Y026030D01*
X011140Y025948D01*
X011140Y025920D01*
X011133Y025944D01*
X011115Y025976D01*
X011089Y026002D01*
X011057Y026020D01*
X011022Y026030D01*
X010997Y026030D01*
X011018Y026035D01*
X011049Y026054D01*
X011075Y026079D01*
X011094Y026111D01*
X011103Y026147D01*
X011103Y026401D01*
X010807Y026401D01*
X010807Y026480D01*
X011103Y026480D01*
X011103Y026735D01*
X011094Y026770D01*
X011075Y026802D01*
X011049Y026828D01*
X011018Y026846D01*
X010982Y026856D01*
X010806Y026856D01*
X010806Y026480D01*
X010728Y026480D01*
X010728Y026856D01*
X010552Y026856D01*
X010516Y026846D01*
X010485Y026828D01*
X010459Y026802D01*
X010440Y026770D01*
X010431Y026735D01*
X010431Y026480D01*
X010728Y026480D01*
X010728Y026401D01*
X010806Y026401D01*
X010806Y026026D01*
X010846Y026026D01*
X010846Y025713D01*
X010767Y025713D01*
X010767Y025634D01*
X010846Y025634D01*
X010846Y025318D01*
X010866Y025318D01*
X010862Y025313D01*
X010862Y025165D01*
X010862Y023846D01*
X010815Y023893D01*
X010467Y023893D01*
X010222Y023647D01*
X010222Y023300D01*
X010467Y023054D01*
X010815Y023054D01*
X010862Y023101D01*
X010862Y022846D01*
X010815Y022893D01*
X010467Y022893D01*
X010222Y022647D01*
X010222Y022300D01*
X010467Y022054D01*
X010815Y022054D01*
X010862Y022101D01*
X010862Y021699D01*
X010967Y021594D01*
X011709Y020852D01*
X011567Y020852D01*
X007715Y020852D01*
X006520Y022048D01*
X006520Y022648D01*
X006415Y022752D01*
X006120Y023048D01*
X006015Y023152D01*
X005315Y023152D01*
X005220Y023248D01*
X005220Y023648D01*
X005115Y023752D01*
X004915Y023952D01*
X004767Y023952D01*
X002715Y023952D01*
X001820Y024848D01*
X001820Y025400D01*
X001820Y025548D01*
X001551Y025816D01*
X001580Y025886D01*
X001580Y026061D01*
X001514Y026223D01*
X001390Y026346D01*
X001229Y026413D01*
X001054Y026413D01*
X000892Y026346D01*
X000769Y026223D01*
X000702Y026061D01*
X000702Y025886D01*
X000769Y025725D01*
X000892Y025601D01*
X001054Y025534D01*
X001229Y025534D01*
X001299Y025563D01*
X001449Y025413D01*
X000783Y025413D01*
X000702Y025331D01*
X000702Y024616D01*
X000783Y024534D01*
X001328Y024534D01*
X002362Y023500D01*
X002388Y023474D01*
X000380Y023474D01*
X000380Y028974D01*
X000470Y028974D01*
X000470Y028699D01*
X000552Y028618D01*
X001061Y028618D01*
X001141Y028698D01*
X001221Y028618D01*
X001730Y028618D01*
X001812Y028699D01*
X001812Y028754D01*
X002630Y028754D01*
X002812Y028754D01*
X003031Y028974D01*
X003641Y028974D01*
X004141Y028474D01*
X004141Y026974D01*
X005161Y026974D01*
X005182Y026953D01*
X003080Y026953D01*
X003080Y027061D01*
X003014Y027223D01*
X002890Y027346D01*
X002729Y027413D01*
X002554Y027413D01*
X002392Y027346D01*
X002269Y027223D01*
X002202Y027061D01*
X002202Y026886D01*
X002269Y026725D01*
X002392Y026601D01*
X002554Y026534D01*
X002729Y026534D01*
X002873Y026594D01*
X002915Y026594D01*
X003008Y026594D01*
X002798Y026384D01*
X002729Y026413D01*
X002554Y026413D01*
X002392Y026346D01*
X002269Y026223D01*
X002202Y026061D01*
X002202Y025886D01*
X002269Y025725D01*
X002392Y025601D01*
X002554Y025534D01*
X002729Y025534D01*
X002890Y025601D01*
X003014Y025725D01*
X003080Y025886D01*
X003080Y026061D01*
X003052Y026131D01*
X003315Y026394D01*
X004858Y026394D01*
X004574Y025978D01*
X004421Y025483D01*
X004421Y024964D01*
X004574Y024469D01*
X004866Y024041D01*
X004866Y024041D01*
X005271Y023717D01*
X005271Y023717D01*
X005754Y023528D01*
X006271Y023489D01*
X006776Y023605D01*
X006777Y023605D02*
X007226Y023864D01*
X007578Y024244D01*
X007803Y024711D01*
X007880Y025224D01*
X007852Y025410D01*
X008212Y025050D01*
X007854Y025050D01*
X007866Y025127D02*
X008135Y025127D01*
X008212Y025050D02*
X008212Y024067D01*
X008141Y023996D01*
X008067Y024070D01*
X007715Y024070D01*
X007634Y023988D01*
X007634Y023006D01*
X007715Y022925D01*
X008067Y022925D01*
X008141Y022999D01*
X008215Y022925D01*
X008567Y022925D01*
X008641Y022999D01*
X008715Y022925D01*
X009067Y022925D01*
X009141Y022999D01*
X009215Y022925D01*
X009567Y022925D01*
X009649Y023006D01*
X009649Y023988D01*
X009570Y024067D01*
X009570Y024103D01*
X009615Y024103D01*
X009697Y024184D01*
X009697Y024694D01*
X009615Y024775D01*
X009587Y024775D01*
X009611Y024782D01*
X009643Y024800D01*
X009669Y024826D01*
X009687Y024858D01*
X009697Y024893D01*
X009697Y025069D01*
X009381Y025069D01*
X009381Y025148D01*
X009697Y025148D01*
X009697Y025324D01*
X009687Y025359D01*
X010511Y025359D01*
X010498Y025372D02*
X010524Y025346D01*
X010556Y025327D01*
X010591Y025318D01*
X010767Y025318D01*
X010767Y025634D01*
X010470Y025634D01*
X010470Y025439D01*
X010480Y025403D01*
X010498Y025372D01*
X010471Y025436D02*
X010142Y025436D01*
X010126Y025427D02*
X010158Y025446D01*
X010184Y025472D01*
X010202Y025503D01*
X010212Y025539D01*
X010212Y025734D01*
X009915Y025734D01*
X009915Y025418D01*
X010091Y025418D01*
X010126Y025427D01*
X010205Y025514D02*
X010470Y025514D01*
X010470Y025591D02*
X010212Y025591D01*
X010212Y025668D02*
X010767Y025668D01*
X010767Y025713D02*
X010470Y025713D01*
X010470Y025909D01*
X010480Y025944D01*
X010498Y025976D01*
X010524Y026002D01*
X010556Y026020D01*
X010577Y026026D01*
X010552Y026026D01*
X010516Y026035D01*
X010485Y026054D01*
X010459Y026079D01*
X010440Y026111D01*
X010431Y026147D01*
X010431Y026401D01*
X010728Y026401D01*
X010728Y026030D01*
X010767Y026030D01*
X010767Y025713D01*
X010767Y025745D02*
X010846Y025745D01*
X010846Y025823D02*
X010767Y025823D01*
X010767Y025900D02*
X010846Y025900D01*
X010846Y025977D02*
X010767Y025977D01*
X010728Y026055D02*
X010806Y026055D01*
X010806Y026132D02*
X010728Y026132D01*
X010728Y026209D02*
X010806Y026209D01*
X010806Y026286D02*
X010728Y026286D01*
X010728Y026364D02*
X010806Y026364D01*
X010807Y026441D02*
X011179Y026441D01*
X011179Y026518D02*
X011103Y026518D01*
X011103Y026596D02*
X011179Y026596D01*
X011179Y026673D02*
X011103Y026673D01*
X011099Y026750D02*
X011179Y026750D01*
X011232Y026827D02*
X011050Y026827D01*
X010886Y026892D02*
X010805Y026973D01*
X010805Y026974D01*
X009421Y026974D01*
X009377Y026930D01*
X009461Y026930D01*
X009543Y026848D01*
X009543Y026820D01*
X009549Y026844D01*
X009567Y026876D01*
X009593Y026902D01*
X009625Y026920D01*
X009661Y026930D01*
X009836Y026930D01*
X009836Y026613D01*
X009915Y026613D01*
X009915Y026930D01*
X010091Y026930D01*
X010126Y026920D01*
X010158Y026902D01*
X010184Y026876D01*
X010202Y026844D01*
X010212Y026809D01*
X010212Y026613D01*
X009915Y026613D01*
X009915Y026534D01*
X009915Y026218D01*
X010091Y026218D01*
X010126Y026227D01*
X010158Y026246D01*
X010184Y026272D01*
X010202Y026303D01*
X010212Y026339D01*
X010212Y026534D01*
X009915Y026534D01*
X009836Y026534D01*
X009836Y026218D01*
X009661Y026218D01*
X009625Y026227D01*
X009593Y026246D01*
X009567Y026272D01*
X009549Y026303D01*
X009543Y026327D01*
X009543Y026299D01*
X009461Y026218D01*
X008952Y026218D01*
X008870Y026299D01*
X008870Y026494D01*
X008831Y026494D01*
X008826Y026483D01*
X008732Y026389D01*
X008608Y026337D01*
X008474Y026337D01*
X008351Y026389D01*
X008256Y026483D01*
X008205Y026607D01*
X008205Y026741D01*
X008244Y026834D01*
X007874Y026834D01*
X007233Y026834D01*
X008305Y025763D01*
X008305Y025841D01*
X008356Y025964D01*
X008451Y026059D01*
X008574Y026110D01*
X008708Y026110D01*
X008832Y026059D01*
X008870Y026020D01*
X008870Y026048D01*
X008952Y026130D01*
X009461Y026130D01*
X009543Y026048D01*
X009543Y026020D01*
X009549Y026044D01*
X009567Y026076D01*
X009593Y026102D01*
X009625Y026120D01*
X009661Y026130D01*
X009836Y026130D01*
X009836Y025813D01*
X009915Y025813D01*
X009915Y026130D01*
X010091Y026130D01*
X010126Y026120D01*
X010158Y026102D01*
X010184Y026076D01*
X010202Y026044D01*
X010212Y026009D01*
X010212Y025813D01*
X009915Y025813D01*
X009915Y025734D01*
X009836Y025734D01*
X009836Y025418D01*
X009661Y025418D01*
X009625Y025427D01*
X009593Y025446D01*
X009567Y025472D01*
X009549Y025503D01*
X009543Y025527D01*
X009543Y025499D01*
X009488Y025445D01*
X009576Y025445D01*
X009611Y025435D01*
X009643Y025417D01*
X009669Y025391D01*
X009687Y025359D01*
X009697Y025282D02*
X010862Y025282D01*
X010862Y025204D02*
X009697Y025204D01*
X009697Y025050D02*
X010862Y025050D01*
X010862Y025127D02*
X009381Y025127D01*
X009302Y025127D02*
X008940Y025127D01*
X008985Y025148D02*
X009302Y025148D01*
X009302Y025069D01*
X008998Y025069D01*
X008630Y025437D01*
X008708Y025437D01*
X008832Y025489D01*
X008870Y025527D01*
X008870Y025499D01*
X008952Y025418D01*
X009041Y025418D01*
X009039Y025417D01*
X009013Y025391D01*
X008995Y025359D01*
X008709Y025359D01*
X008786Y025282D02*
X008985Y025282D01*
X008985Y025324D02*
X008985Y025148D01*
X008985Y025204D02*
X008863Y025204D01*
X008985Y025324D02*
X008995Y025359D01*
X008933Y025436D02*
X008631Y025436D01*
X008856Y025514D02*
X008870Y025514D01*
X008877Y026055D02*
X008836Y026055D01*
X008883Y026286D02*
X007781Y026286D01*
X007858Y026209D02*
X010431Y026209D01*
X010435Y026132D02*
X007936Y026132D01*
X008013Y026055D02*
X008446Y026055D01*
X008369Y025977D02*
X008090Y025977D01*
X008168Y025900D02*
X008329Y025900D01*
X008305Y025823D02*
X008245Y025823D01*
X007980Y025282D02*
X007872Y025282D01*
X007878Y025204D02*
X008058Y025204D01*
X007903Y025359D02*
X007860Y025359D01*
X007843Y024973D02*
X008212Y024973D01*
X008212Y024895D02*
X007831Y024895D01*
X007819Y024818D02*
X008212Y024818D01*
X008212Y024741D02*
X007808Y024741D01*
X007803Y024711D02*
X007803Y024711D01*
X007780Y024663D02*
X008212Y024663D01*
X008212Y024586D02*
X007743Y024586D01*
X007706Y024509D02*
X008212Y024509D01*
X008212Y024432D02*
X007669Y024432D01*
X007631Y024354D02*
X008212Y024354D01*
X008212Y024277D02*
X007594Y024277D01*
X007578Y024244D02*
X007578Y024244D01*
X007537Y024200D02*
X008212Y024200D01*
X008212Y024122D02*
X007466Y024122D01*
X007394Y024045D02*
X007691Y024045D01*
X007634Y023968D02*
X007322Y023968D01*
X007250Y023891D02*
X007634Y023891D01*
X007634Y023813D02*
X007138Y023813D01*
X007226Y023864D02*
X007226Y023864D01*
X007226Y023864D01*
X007004Y023736D02*
X007634Y023736D01*
X007634Y023659D02*
X006870Y023659D01*
X006777Y023605D02*
X006776Y023605D01*
X006675Y023581D02*
X007634Y023581D01*
X007634Y023504D02*
X006337Y023504D01*
X006271Y023489D02*
X006271Y023489D01*
X006071Y023504D02*
X005220Y023504D01*
X005220Y023427D02*
X007634Y023427D01*
X007634Y023350D02*
X005220Y023350D01*
X005220Y023272D02*
X007634Y023272D01*
X007634Y023195D02*
X005272Y023195D01*
X005241Y022974D02*
X005041Y023174D01*
X005041Y023574D01*
X004841Y023774D01*
X002641Y023774D01*
X001641Y024774D01*
X001641Y025474D01*
X001141Y025974D01*
X000832Y026286D02*
X000380Y026286D01*
X000380Y026209D02*
X000763Y026209D01*
X000731Y026132D02*
X000380Y026132D01*
X000380Y026055D02*
X000702Y026055D01*
X000702Y025977D02*
X000380Y025977D01*
X000380Y025900D02*
X000702Y025900D01*
X000728Y025823D02*
X000380Y025823D01*
X000380Y025745D02*
X000760Y025745D01*
X000825Y025668D02*
X000380Y025668D01*
X000380Y025591D02*
X000917Y025591D01*
X000729Y025359D02*
X000380Y025359D01*
X000380Y025436D02*
X001426Y025436D01*
X001348Y025514D02*
X000380Y025514D01*
X000380Y025282D02*
X000702Y025282D01*
X000702Y025204D02*
X000380Y025204D01*
X000380Y025127D02*
X000702Y025127D01*
X000702Y025050D02*
X000380Y025050D01*
X000380Y024973D02*
X000702Y024973D01*
X000702Y024895D02*
X000380Y024895D01*
X000380Y024818D02*
X000702Y024818D01*
X000702Y024741D02*
X000380Y024741D01*
X000380Y024663D02*
X000702Y024663D01*
X000732Y024586D02*
X000380Y024586D01*
X000380Y024509D02*
X001353Y024509D01*
X001430Y024432D02*
X000380Y024432D01*
X000380Y024354D02*
X001508Y024354D01*
X001585Y024277D02*
X000380Y024277D01*
X000380Y024200D02*
X001662Y024200D01*
X001740Y024122D02*
X000380Y024122D01*
X000380Y024045D02*
X001817Y024045D01*
X001894Y023968D02*
X000380Y023968D01*
X000380Y023891D02*
X001971Y023891D01*
X002049Y023813D02*
X000380Y023813D01*
X000380Y023736D02*
X002126Y023736D01*
X002203Y023659D02*
X000380Y023659D01*
X000380Y023581D02*
X002281Y023581D01*
X002358Y023504D02*
X000380Y023504D01*
X001141Y024974D02*
X002541Y023574D01*
X004741Y023574D01*
X004841Y023474D01*
X004841Y023074D01*
X005141Y022774D01*
X005841Y022774D01*
X006141Y022474D01*
X006141Y021874D01*
X007541Y020474D01*
X011541Y020474D01*
X011763Y020252D01*
X011763Y019596D01*
X011763Y018725D01*
X011566Y018725D02*
X011566Y019849D01*
X011441Y019974D01*
X011369Y019545D02*
X010941Y019974D01*
X010691Y019690D02*
X010727Y019654D01*
X010866Y019597D01*
X011016Y019597D01*
X011051Y019611D01*
X011191Y019471D01*
X011191Y019100D01*
X011052Y019100D01*
X010976Y019100D01*
X010976Y019024D01*
X010976Y019025D01*
X010976Y019024D02*
X010976Y019024D01*
X010976Y019025D02*
X010976Y019100D01*
X010894Y019100D01*
X010658Y019100D01*
X010577Y019019D01*
X010577Y018904D01*
X008664Y018904D01*
X006220Y021348D01*
X006220Y021542D01*
X007467Y020295D01*
X007615Y020295D01*
X009743Y020295D01*
X009701Y020267D01*
X009648Y020214D01*
X009607Y020152D01*
X009578Y020084D01*
X009564Y020011D01*
X009564Y020003D01*
X009911Y020003D01*
X009911Y019944D01*
X009564Y019944D01*
X009564Y019937D01*
X009578Y019864D01*
X009607Y019795D01*
X009648Y019733D01*
X009701Y019681D01*
X009762Y019639D01*
X009831Y019611D01*
X009904Y019597D01*
X009911Y019597D01*
X009911Y019944D01*
X009971Y019944D01*
X009971Y020003D01*
X010064Y020003D01*
X010411Y020003D01*
X010411Y019944D01*
X010064Y019944D01*
X009971Y019944D01*
X009971Y019597D01*
X009978Y019597D01*
X010051Y019611D01*
X010120Y019639D01*
X010181Y019681D01*
X010191Y019690D01*
X010201Y019681D01*
X010262Y019639D01*
X010331Y019611D01*
X010404Y019597D01*
X010411Y019597D01*
X010411Y019944D01*
X010471Y019944D01*
X010471Y019597D01*
X010478Y019597D01*
X010551Y019611D01*
X010620Y019639D01*
X010681Y019681D01*
X010691Y019690D01*
X010621Y019640D02*
X010761Y019640D01*
X010471Y019640D02*
X010411Y019640D01*
X010411Y019717D02*
X010471Y019717D01*
X010471Y019795D02*
X010411Y019795D01*
X010411Y019872D02*
X010471Y019872D01*
X010411Y019949D02*
X009971Y019949D01*
X009911Y019949D02*
X007618Y019949D01*
X007541Y020026D02*
X009567Y020026D01*
X009587Y020104D02*
X007464Y020104D01*
X007387Y020181D02*
X009626Y020181D01*
X009692Y020258D02*
X007309Y020258D01*
X007232Y020336D02*
X007426Y020336D01*
X007349Y020413D02*
X007155Y020413D01*
X007077Y020490D02*
X007272Y020490D01*
X007195Y020567D02*
X007000Y020567D01*
X006923Y020645D02*
X007117Y020645D01*
X007040Y020722D02*
X006846Y020722D01*
X006768Y020799D02*
X006963Y020799D01*
X006885Y020877D02*
X006691Y020877D01*
X006614Y020954D02*
X006808Y020954D01*
X006731Y021031D02*
X006536Y021031D01*
X006459Y021108D02*
X006654Y021108D01*
X006576Y021186D02*
X006382Y021186D01*
X006305Y021263D02*
X006499Y021263D01*
X006422Y021340D02*
X006227Y021340D01*
X006220Y021418D02*
X006344Y021418D01*
X006267Y021495D02*
X006220Y021495D01*
X006041Y021674D02*
X006041Y021274D01*
X008590Y018725D01*
X010779Y018725D01*
X010577Y018546D02*
X008721Y018546D01*
X009053Y018215D01*
X009772Y018215D01*
X009796Y018238D01*
X010384Y018238D01*
X010465Y018157D01*
X010465Y017915D01*
X010465Y017718D01*
X010465Y017624D01*
X010567Y017624D01*
X011538Y017624D01*
X010994Y018168D01*
X010994Y018316D01*
X010994Y018349D01*
X010976Y018349D01*
X010976Y018425D01*
X010976Y018425D01*
X010976Y018425D01*
X010976Y018349D01*
X010894Y018349D01*
X010658Y018349D01*
X010577Y018431D01*
X010577Y018546D01*
X010577Y018481D02*
X008787Y018481D01*
X008864Y018403D02*
X010604Y018403D01*
X010450Y018172D02*
X010994Y018172D01*
X010994Y018249D02*
X009019Y018249D01*
X008941Y018326D02*
X010994Y018326D01*
X010981Y018374D02*
X010981Y019124D01*
X010976Y019099D02*
X010976Y019099D01*
X011191Y019176D02*
X008391Y019176D01*
X008469Y019099D02*
X010657Y019099D01*
X010579Y019022D02*
X008546Y019022D01*
X008623Y018944D02*
X010577Y018944D01*
X010976Y018403D02*
X010976Y018403D01*
X011173Y018242D02*
X011941Y017474D01*
X012013Y017445D01*
X010641Y017445D01*
X010444Y017249D01*
X010090Y017249D01*
X010090Y017445D02*
X010641Y017445D01*
X010715Y017267D02*
X010518Y017070D01*
X010465Y017070D01*
X010465Y017052D01*
X010390Y017052D01*
X010389Y017051D01*
X010465Y017051D01*
X010465Y016970D01*
X010461Y016953D01*
X010465Y016936D01*
X010465Y016855D01*
X010389Y016855D01*
X010390Y016855D01*
X010465Y016855D01*
X010465Y016773D01*
X010465Y016537D01*
X010465Y016340D01*
X010465Y016144D01*
X010465Y016049D01*
X011664Y016049D01*
X012662Y017048D01*
X012662Y017100D01*
X012662Y017248D01*
X012962Y017548D01*
X013067Y017652D01*
X015187Y017652D01*
X015156Y017683D01*
X015105Y017807D01*
X015105Y017941D01*
X015156Y018064D01*
X015251Y018159D01*
X015325Y018189D01*
X015325Y018349D01*
X015307Y018349D01*
X015307Y018425D01*
X015306Y018425D01*
X015306Y018425D01*
X015306Y018349D01*
X015225Y018349D01*
X014989Y018349D01*
X014792Y018349D01*
X014640Y018349D01*
X014398Y018349D01*
X014201Y018349D01*
X014005Y018349D01*
X013808Y018349D01*
X013611Y018349D01*
X013414Y018349D01*
X013217Y018349D01*
X013020Y018349D01*
X012824Y018349D01*
X012627Y018349D01*
X012430Y018349D01*
X012233Y018349D01*
X012036Y018349D01*
X011839Y018349D01*
X011642Y018349D01*
X011446Y018349D01*
X011351Y018349D01*
X011351Y018316D01*
X011904Y017764D01*
X011946Y017782D01*
X012080Y017782D01*
X012203Y017730D01*
X012298Y017636D01*
X012349Y017512D01*
X012349Y017378D01*
X012298Y017255D01*
X012203Y017160D01*
X012080Y017109D01*
X011946Y017109D01*
X011822Y017160D01*
X011728Y017255D01*
X011723Y017267D01*
X010715Y017267D01*
X010693Y017244D02*
X011738Y017244D01*
X011816Y017167D02*
X010615Y017167D01*
X010538Y017090D02*
X012662Y017090D01*
X012662Y017167D02*
X012210Y017167D01*
X012287Y017244D02*
X012662Y017244D01*
X012736Y017321D02*
X012325Y017321D01*
X012349Y017399D02*
X012813Y017399D01*
X012891Y017476D02*
X012349Y017476D01*
X012332Y017553D02*
X012968Y017553D01*
X013045Y017631D02*
X012300Y017631D01*
X012226Y017708D02*
X015146Y017708D01*
X015114Y017785D02*
X011882Y017785D01*
X011805Y017862D02*
X015105Y017862D01*
X015105Y017940D02*
X011728Y017940D01*
X011650Y018017D02*
X015137Y018017D01*
X015186Y018094D02*
X011573Y018094D01*
X011496Y018172D02*
X015282Y018172D01*
X015325Y018249D02*
X011419Y018249D01*
X011351Y018326D02*
X015325Y018326D01*
X015311Y018334D02*
X015311Y019094D01*
X015381Y019164D01*
X015397Y019176D02*
X019362Y019176D01*
X019362Y019099D02*
X015625Y019099D01*
X015624Y019100D02*
X015383Y019100D01*
X015321Y019100D01*
X015915Y019694D01*
X016020Y019799D01*
X016020Y020599D01*
X018615Y023194D01*
X020767Y023194D01*
X020915Y023194D01*
X023015Y025294D01*
X023202Y025294D01*
X023202Y025292D01*
X023202Y025013D01*
X023602Y025013D01*
X023602Y024934D01*
X023680Y024934D01*
X023680Y024534D01*
X023959Y024534D01*
X023995Y024544D01*
X024027Y024562D01*
X024053Y024588D01*
X024071Y024620D01*
X024080Y024655D01*
X024080Y024934D01*
X023681Y024934D01*
X023681Y025013D01*
X024080Y025013D01*
X024080Y025292D01*
X024071Y025327D01*
X024063Y025342D01*
X024315Y025594D01*
X024420Y025699D01*
X024420Y026599D01*
X024420Y026748D01*
X024120Y027048D01*
X024061Y027107D01*
X024014Y027223D01*
X023890Y027346D01*
X023729Y027413D01*
X023554Y027413D01*
X023392Y027346D01*
X023269Y027223D01*
X023240Y027153D01*
X023112Y027153D01*
X023112Y027248D01*
X023030Y027330D01*
X022651Y027330D01*
X023115Y027794D01*
X023240Y027794D01*
X023269Y027725D01*
X023392Y027601D01*
X023554Y027534D01*
X023729Y027534D01*
X023890Y027601D01*
X024014Y027725D01*
X024080Y027886D01*
X024080Y028061D01*
X024014Y028223D01*
X023890Y028346D01*
X023729Y028413D01*
X023554Y028413D01*
X023392Y028346D01*
X023269Y028223D01*
X023240Y028153D01*
X022967Y028153D01*
X022862Y028048D01*
X022143Y027330D01*
X022141Y027330D01*
X022141Y028474D01*
X022641Y028974D01*
X024331Y028974D01*
X024470Y028834D01*
X024470Y028699D01*
X024552Y028618D01*
X025061Y028618D01*
X025141Y028698D01*
X025221Y028618D01*
X025730Y028618D01*
X025812Y028699D01*
X025812Y028974D01*
X025902Y028974D01*
X025902Y023474D01*
X021641Y023474D01*
X021641Y022726D01*
X021444Y022530D01*
X021171Y022530D01*
X021091Y022449D01*
X021011Y022530D01*
X020502Y022530D01*
X020420Y022448D01*
X020420Y022090D01*
X020062Y021732D01*
X020062Y021584D01*
X020062Y021298D01*
X019862Y021098D01*
X019862Y020950D01*
X019862Y020598D01*
X019662Y020398D01*
X019662Y020250D01*
X019662Y020148D01*
X019362Y019848D01*
X019362Y019700D01*
X019362Y018648D01*
X018936Y018221D01*
X016509Y018215D01*
X016486Y018238D01*
X015898Y018238D01*
X015817Y018157D01*
X015817Y017960D01*
X015817Y017763D01*
X015817Y017566D01*
X015817Y017369D01*
X015817Y017172D01*
X015817Y016976D01*
X015817Y016779D01*
X015817Y016582D01*
X015817Y016385D01*
X015817Y016188D01*
X015817Y015991D01*
X015817Y015794D01*
X015817Y015598D01*
X015817Y015401D01*
X015817Y015204D01*
X015817Y015007D01*
X015817Y014868D01*
X012904Y014868D01*
X012904Y014963D01*
X012872Y014995D01*
X012877Y015007D01*
X012877Y015141D01*
X012826Y015264D01*
X012732Y015359D01*
X012608Y015410D01*
X012474Y015410D01*
X012399Y015379D01*
X012715Y015695D01*
X014351Y015695D01*
X014356Y015683D01*
X014451Y015589D01*
X014574Y015537D01*
X014708Y015537D01*
X014832Y015589D01*
X014926Y015683D01*
X014977Y015807D01*
X014977Y015941D01*
X014926Y016064D01*
X014832Y016159D01*
X014708Y016210D01*
X014574Y016210D01*
X014451Y016159D01*
X014356Y016064D01*
X014351Y016052D01*
X012773Y016052D01*
X013030Y016310D01*
X013051Y016289D01*
X013174Y016237D01*
X013308Y016237D01*
X013432Y016289D01*
X013526Y016383D01*
X013577Y016507D01*
X013577Y016641D01*
X013526Y016764D01*
X013467Y016824D01*
X013526Y016883D01*
X013577Y017007D01*
X013577Y017141D01*
X013526Y017264D01*
X013495Y017295D01*
X015110Y017295D01*
X015156Y017183D01*
X015251Y017089D01*
X015374Y017037D01*
X015508Y017037D01*
X015632Y017089D01*
X015726Y017183D01*
X015777Y017307D01*
X015777Y017441D01*
X015726Y017564D01*
X015667Y017624D01*
X015726Y017683D01*
X015777Y017807D01*
X015777Y017941D01*
X015726Y018064D01*
X015682Y018108D01*
X015682Y018407D01*
X015706Y018431D01*
X015706Y019019D01*
X015624Y019100D01*
X015703Y019022D02*
X019362Y019022D01*
X019362Y018944D02*
X015706Y018944D01*
X015706Y018867D02*
X019362Y018867D01*
X019362Y018790D02*
X015706Y018790D01*
X015706Y018713D02*
X019362Y018713D01*
X019350Y018635D02*
X015706Y018635D01*
X015706Y018558D02*
X019273Y018558D01*
X019195Y018481D02*
X015706Y018481D01*
X015682Y018403D02*
X019118Y018403D01*
X019041Y018326D02*
X015682Y018326D01*
X015682Y018249D02*
X018964Y018249D01*
X019010Y018043D02*
X019541Y018574D01*
X019541Y019774D01*
X019841Y020074D01*
X019841Y020324D01*
X020041Y020524D01*
X020041Y021024D01*
X020241Y021224D01*
X020241Y021658D01*
X020756Y022174D01*
X020420Y022190D02*
X017611Y022190D01*
X017534Y022113D02*
X020420Y022113D01*
X020366Y022036D02*
X017457Y022036D01*
X017452Y022030D02*
X017370Y021948D01*
X017370Y021584D01*
X017308Y021610D01*
X017174Y021610D01*
X017051Y021559D01*
X016956Y021464D01*
X016905Y021341D01*
X016905Y021207D01*
X016956Y021083D01*
X017051Y020989D01*
X017174Y020937D01*
X017308Y020937D01*
X017370Y020963D01*
X017370Y020599D01*
X017452Y020518D01*
X017961Y020518D01*
X018043Y020599D01*
X018043Y020627D01*
X018049Y020603D01*
X018067Y020572D01*
X018093Y020546D01*
X018125Y020527D01*
X018161Y020518D01*
X018336Y020518D01*
X018336Y020834D01*
X018415Y020834D01*
X018415Y020518D01*
X018591Y020518D01*
X018626Y020527D01*
X018658Y020546D01*
X018684Y020572D01*
X018702Y020603D01*
X018712Y020639D01*
X018712Y020834D01*
X018415Y020834D01*
X018415Y020913D01*
X018336Y020913D01*
X018336Y021230D01*
X018161Y021230D01*
X018125Y021220D01*
X018093Y021202D01*
X018067Y021176D01*
X018049Y021144D01*
X018043Y021120D01*
X018043Y021148D01*
X017961Y021230D01*
X017885Y021230D01*
X017885Y021318D01*
X017961Y021318D01*
X018041Y021398D01*
X018121Y021318D01*
X018429Y021318D01*
X018517Y021230D01*
X018415Y021230D01*
X018415Y020913D01*
X018712Y020913D01*
X018712Y021035D01*
X018805Y020942D01*
X018805Y020941D01*
X018805Y020807D01*
X018856Y020683D01*
X018951Y020589D01*
X019074Y020537D01*
X019208Y020537D01*
X019332Y020589D01*
X019426Y020683D01*
X019477Y020807D01*
X019477Y020941D01*
X019426Y021064D01*
X019332Y021159D01*
X019208Y021210D01*
X019074Y021210D01*
X019073Y021209D01*
X018712Y021571D01*
X018712Y021948D01*
X018630Y022030D01*
X018121Y022030D01*
X018041Y021949D01*
X017961Y022030D01*
X017452Y022030D01*
X017381Y021959D02*
X017380Y021959D01*
X017370Y021881D02*
X017302Y021881D01*
X017370Y021804D02*
X017225Y021804D01*
X017148Y021727D02*
X017370Y021727D01*
X017370Y021649D02*
X017070Y021649D01*
X017083Y021572D02*
X016993Y021572D01*
X016987Y021495D02*
X016916Y021495D01*
X016937Y021418D02*
X016839Y021418D01*
X016905Y021340D02*
X016761Y021340D01*
X016684Y021263D02*
X016905Y021263D01*
X016914Y021186D02*
X016607Y021186D01*
X016529Y021108D02*
X016946Y021108D01*
X017008Y021031D02*
X016452Y021031D01*
X016375Y020954D02*
X017135Y020954D01*
X017347Y020954D02*
X017370Y020954D01*
X017370Y020877D02*
X016298Y020877D01*
X016220Y020799D02*
X017370Y020799D01*
X017370Y020722D02*
X016143Y020722D01*
X016066Y020645D02*
X017370Y020645D01*
X017402Y020567D02*
X016020Y020567D01*
X016020Y020490D02*
X019755Y020490D01*
X019832Y020567D02*
X019280Y020567D01*
X019388Y020645D02*
X019862Y020645D01*
X019862Y020722D02*
X019442Y020722D01*
X019474Y020799D02*
X019862Y020799D01*
X019862Y020877D02*
X019477Y020877D01*
X019472Y020954D02*
X019862Y020954D01*
X019862Y021031D02*
X019440Y021031D01*
X019382Y021108D02*
X019873Y021108D01*
X019950Y021186D02*
X019266Y021186D01*
X019020Y021263D02*
X020028Y021263D01*
X020062Y021340D02*
X018942Y021340D01*
X018865Y021418D02*
X020062Y021418D01*
X020062Y021495D02*
X018788Y021495D01*
X018712Y021572D02*
X020062Y021572D01*
X020062Y021649D02*
X018712Y021649D01*
X018712Y021727D02*
X020062Y021727D01*
X020134Y021804D02*
X018712Y021804D01*
X018712Y021881D02*
X020211Y021881D01*
X020289Y021959D02*
X018701Y021959D01*
X018050Y021959D02*
X018032Y021959D01*
X017766Y022345D02*
X020420Y022345D01*
X020420Y022422D02*
X017843Y022422D01*
X017921Y022499D02*
X020472Y022499D01*
X020420Y022268D02*
X017689Y022268D01*
X017998Y022577D02*
X021491Y022577D01*
X021569Y022654D02*
X018075Y022654D01*
X018152Y022731D02*
X021641Y022731D01*
X021641Y022809D02*
X018230Y022809D01*
X018307Y022886D02*
X021641Y022886D01*
X021641Y022963D02*
X018384Y022963D01*
X018461Y023040D02*
X021641Y023040D01*
X021641Y023118D02*
X018539Y023118D01*
X018272Y023659D02*
X016420Y023659D01*
X016420Y023736D02*
X018350Y023736D01*
X018367Y023753D02*
X018262Y023648D01*
X015462Y020848D01*
X015462Y020699D01*
X015462Y020048D01*
X015077Y019664D01*
X015077Y019741D01*
X015026Y019864D01*
X014932Y019959D01*
X014808Y020010D01*
X014730Y020010D01*
X014762Y020042D01*
X014774Y020037D01*
X014908Y020037D01*
X015032Y020089D01*
X015126Y020183D01*
X015177Y020307D01*
X015177Y020441D01*
X015126Y020564D01*
X015056Y020635D01*
X015120Y020699D01*
X016315Y021894D01*
X016420Y021999D01*
X016420Y024299D01*
X017215Y025094D01*
X017320Y025199D01*
X017320Y025418D01*
X017430Y025418D01*
X017512Y025499D01*
X017512Y025694D01*
X017551Y025694D01*
X017556Y025683D01*
X017651Y025589D01*
X017774Y025537D01*
X017908Y025537D01*
X018032Y025589D01*
X018126Y025683D01*
X018177Y025807D01*
X018177Y025941D01*
X018126Y026064D01*
X018032Y026159D01*
X017908Y026210D01*
X017774Y026210D01*
X017651Y026159D01*
X017556Y026064D01*
X017551Y026053D01*
X017507Y026053D01*
X017430Y026130D01*
X017020Y026130D01*
X017020Y026165D01*
X017074Y026218D01*
X017430Y026218D01*
X017512Y026299D01*
X017512Y026394D01*
X018858Y026394D01*
X018574Y025978D01*
X018421Y025483D01*
X018421Y024964D01*
X018574Y024469D01*
X018866Y024041D01*
X019227Y023753D01*
X018367Y023753D01*
X018195Y023581D02*
X016420Y023581D01*
X016420Y023504D02*
X018118Y023504D01*
X018041Y023427D02*
X016420Y023427D01*
X016420Y023350D02*
X017963Y023350D01*
X017886Y023272D02*
X016420Y023272D01*
X016420Y023195D02*
X017809Y023195D01*
X017731Y023118D02*
X016420Y023118D01*
X016420Y023040D02*
X017654Y023040D01*
X017577Y022963D02*
X016420Y022963D01*
X016420Y022886D02*
X017500Y022886D01*
X017422Y022809D02*
X016420Y022809D01*
X016420Y022731D02*
X017345Y022731D01*
X017268Y022654D02*
X016420Y022654D01*
X016420Y022577D02*
X017191Y022577D01*
X017113Y022499D02*
X016420Y022499D01*
X016420Y022422D02*
X017036Y022422D01*
X016959Y022345D02*
X016420Y022345D01*
X016420Y022268D02*
X016881Y022268D01*
X016804Y022190D02*
X016420Y022190D01*
X016420Y022113D02*
X016727Y022113D01*
X016650Y022036D02*
X016420Y022036D01*
X016380Y021959D02*
X016572Y021959D01*
X016495Y021881D02*
X016302Y021881D01*
X016315Y021894D02*
X016315Y021894D01*
X016225Y021804D02*
X016418Y021804D01*
X016340Y021727D02*
X016148Y021727D01*
X016070Y021649D02*
X016263Y021649D01*
X016186Y021572D02*
X015993Y021572D01*
X015916Y021495D02*
X016109Y021495D01*
X016031Y021418D02*
X015839Y021418D01*
X015761Y021340D02*
X015954Y021340D01*
X015877Y021263D02*
X015684Y021263D01*
X015607Y021186D02*
X015799Y021186D01*
X015722Y021108D02*
X015529Y021108D01*
X015452Y021031D02*
X015645Y021031D01*
X015568Y020954D02*
X015375Y020954D01*
X015298Y020877D02*
X015490Y020877D01*
X015462Y020799D02*
X015220Y020799D01*
X015143Y020722D02*
X015462Y020722D01*
X015462Y020645D02*
X015066Y020645D01*
X015120Y020699D02*
X015120Y020699D01*
X015123Y020567D02*
X015462Y020567D01*
X015462Y020490D02*
X015157Y020490D01*
X015177Y020413D02*
X015462Y020413D01*
X015462Y020336D02*
X015177Y020336D01*
X015157Y020258D02*
X015462Y020258D01*
X015462Y020181D02*
X015124Y020181D01*
X015047Y020104D02*
X015462Y020104D01*
X015440Y020026D02*
X014747Y020026D01*
X014941Y019949D02*
X015363Y019949D01*
X015286Y019872D02*
X015018Y019872D01*
X015055Y019795D02*
X015208Y019795D01*
X015131Y019717D02*
X015077Y019717D01*
X014741Y019674D02*
X014519Y019452D01*
X014519Y018725D01*
X014322Y018725D02*
X014322Y019855D01*
X014841Y020374D01*
X015706Y019485D02*
X019362Y019485D01*
X019362Y019408D02*
X015629Y019408D01*
X015552Y019331D02*
X019362Y019331D01*
X019362Y019254D02*
X015475Y019254D01*
X015784Y019563D02*
X019362Y019563D01*
X019362Y019640D02*
X015861Y019640D01*
X015938Y019717D02*
X019362Y019717D01*
X019362Y019795D02*
X016016Y019795D01*
X016020Y019872D02*
X019386Y019872D01*
X019464Y019949D02*
X016020Y019949D01*
X016020Y020026D02*
X019541Y020026D01*
X019618Y020104D02*
X016020Y020104D01*
X016020Y020181D02*
X019662Y020181D01*
X019662Y020258D02*
X016020Y020258D01*
X016020Y020336D02*
X019662Y020336D01*
X019677Y020413D02*
X016020Y020413D01*
X017241Y021274D02*
X017706Y021274D01*
X017706Y021674D01*
X017706Y021274D02*
X017706Y020874D01*
X017741Y020908D01*
X018005Y021186D02*
X018077Y021186D01*
X018099Y021340D02*
X017983Y021340D01*
X017885Y021263D02*
X018484Y021263D01*
X018415Y021186D02*
X018336Y021186D01*
X018336Y021108D02*
X018415Y021108D01*
X018415Y021031D02*
X018336Y021031D01*
X018336Y020954D02*
X018415Y020954D01*
X018415Y020877D02*
X018805Y020877D01*
X018793Y020954D02*
X018712Y020954D01*
X018712Y021031D02*
X018716Y021031D01*
X018712Y020799D02*
X018808Y020799D01*
X018840Y020722D02*
X018712Y020722D01*
X018712Y020645D02*
X018895Y020645D01*
X019002Y020567D02*
X018680Y020567D01*
X018415Y020567D02*
X018336Y020567D01*
X018336Y020645D02*
X018415Y020645D01*
X018415Y020722D02*
X018336Y020722D01*
X018336Y020799D02*
X018415Y020799D01*
X018072Y020567D02*
X018011Y020567D01*
X019741Y019674D02*
X020041Y019974D01*
X020041Y020224D01*
X020241Y020424D01*
X020241Y020908D01*
X020706Y021374D01*
X021376Y021374D02*
X021541Y021374D01*
X022141Y021974D01*
X021426Y022174D02*
X021426Y022258D01*
X022141Y022974D01*
X021641Y023195D02*
X020916Y023195D01*
X020993Y023272D02*
X021641Y023272D01*
X021641Y023350D02*
X021071Y023350D01*
X021148Y023427D02*
X021641Y023427D01*
X021380Y023659D02*
X025902Y023659D01*
X025902Y023736D02*
X021457Y023736D01*
X021534Y023813D02*
X025902Y023813D01*
X025902Y023891D02*
X021612Y023891D01*
X021689Y023968D02*
X025902Y023968D01*
X025902Y024045D02*
X021766Y024045D01*
X021844Y024122D02*
X025902Y024122D01*
X025902Y024200D02*
X021921Y024200D01*
X021998Y024277D02*
X025902Y024277D01*
X025902Y024354D02*
X022075Y024354D01*
X022153Y024432D02*
X025902Y024432D01*
X025902Y024509D02*
X022230Y024509D01*
X022307Y024586D02*
X023232Y024586D01*
X023230Y024588D02*
X023256Y024562D01*
X023287Y024544D01*
X023323Y024534D01*
X023602Y024534D01*
X023602Y024934D01*
X023202Y024934D01*
X023202Y024655D01*
X023211Y024620D01*
X023230Y024588D01*
X023202Y024663D02*
X022384Y024663D01*
X022462Y024741D02*
X023202Y024741D01*
X023202Y024818D02*
X022539Y024818D01*
X022616Y024895D02*
X023202Y024895D01*
X023202Y025050D02*
X022771Y025050D01*
X022848Y025127D02*
X023202Y025127D01*
X023202Y025204D02*
X022925Y025204D01*
X023003Y025282D02*
X023202Y025282D01*
X023602Y024973D02*
X022694Y024973D01*
X022273Y025359D02*
X021860Y025359D01*
X021848Y025436D02*
X022350Y025436D01*
X022427Y025514D02*
X021837Y025514D01*
X021825Y025591D02*
X022505Y025591D01*
X022582Y025668D02*
X021813Y025668D01*
X021803Y025736D02*
X021803Y025736D01*
X021880Y025224D01*
X021835Y024921D01*
X022732Y025818D01*
X022521Y025818D01*
X022441Y025898D01*
X022361Y025818D01*
X021852Y025818D01*
X021770Y025899D01*
X021770Y026448D01*
X021852Y026530D01*
X021927Y026530D01*
X021927Y026618D01*
X021852Y026618D01*
X021770Y026699D01*
X021770Y026974D01*
X020895Y026974D01*
X020766Y026845D01*
X020776Y026843D01*
X020777Y026843D01*
X021226Y026584D01*
X021226Y026584D01*
X021578Y026204D01*
X021578Y026203D01*
X021803Y025736D01*
X021799Y025745D02*
X022659Y025745D01*
X022516Y025823D02*
X022366Y025823D01*
X022195Y025282D02*
X021872Y025282D01*
X021878Y025204D02*
X022118Y025204D01*
X022041Y025127D02*
X021866Y025127D01*
X021854Y025050D02*
X021964Y025050D01*
X021886Y024973D02*
X021843Y024973D01*
X021847Y025823D02*
X021762Y025823D01*
X021770Y025900D02*
X021724Y025900D01*
X021687Y025977D02*
X021770Y025977D01*
X021770Y026055D02*
X021650Y026055D01*
X021613Y026132D02*
X021770Y026132D01*
X021770Y026209D02*
X021573Y026209D01*
X021501Y026286D02*
X021770Y026286D01*
X021770Y026364D02*
X021430Y026364D01*
X021358Y026441D02*
X021770Y026441D01*
X021841Y026518D02*
X021286Y026518D01*
X021205Y026596D02*
X021927Y026596D01*
X021797Y026673D02*
X021071Y026673D01*
X020937Y026750D02*
X021770Y026750D01*
X021770Y026827D02*
X020803Y026827D01*
X020826Y026905D02*
X021770Y026905D01*
X022141Y027368D02*
X022182Y027368D01*
X022141Y027446D02*
X022259Y027446D01*
X022337Y027523D02*
X022141Y027523D01*
X022141Y027600D02*
X022414Y027600D01*
X022491Y027677D02*
X022141Y027677D01*
X022141Y027755D02*
X022569Y027755D01*
X022646Y027832D02*
X022141Y027832D01*
X022141Y027909D02*
X022723Y027909D01*
X022800Y027987D02*
X022141Y027987D01*
X022141Y028064D02*
X022878Y028064D01*
X022955Y028141D02*
X022141Y028141D01*
X022141Y028218D02*
X023267Y028218D01*
X023342Y028296D02*
X022141Y028296D01*
X022141Y028373D02*
X023457Y028373D01*
X023825Y028373D02*
X024957Y028373D01*
X024972Y028381D02*
X024911Y028349D01*
X024855Y028309D01*
X024806Y028260D01*
X024765Y028204D01*
X024734Y028142D01*
X024713Y028077D01*
X024702Y028013D01*
X025102Y028013D01*
X025102Y028412D01*
X025038Y028402D01*
X024972Y028381D01*
X025102Y028373D02*
X025180Y028373D01*
X025180Y028412D02*
X025244Y028402D01*
X025310Y028381D01*
X025371Y028349D01*
X025427Y028309D01*
X025476Y028260D01*
X025517Y028204D01*
X025548Y028142D01*
X025570Y028077D01*
X025580Y028013D01*
X025181Y028013D01*
X025181Y027934D01*
X025580Y027934D01*
X025570Y027871D01*
X025548Y027805D01*
X025517Y027743D01*
X025476Y027687D01*
X025427Y027639D01*
X025371Y027598D01*
X025310Y027567D01*
X025244Y027545D01*
X025180Y027535D01*
X025180Y027934D01*
X025102Y027934D01*
X025102Y027535D01*
X025038Y027545D01*
X024972Y027567D01*
X024911Y027598D01*
X024855Y027639D01*
X024806Y027687D01*
X024765Y027743D01*
X024734Y027805D01*
X024713Y027871D01*
X024702Y027934D01*
X025102Y027934D01*
X025102Y028013D01*
X025180Y028013D01*
X025180Y028412D01*
X025180Y028296D02*
X025102Y028296D01*
X025102Y028218D02*
X025180Y028218D01*
X025180Y028141D02*
X025102Y028141D01*
X025102Y028064D02*
X025180Y028064D01*
X025181Y027987D02*
X025902Y027987D01*
X025902Y028064D02*
X025572Y028064D01*
X025549Y028141D02*
X025902Y028141D01*
X025902Y028218D02*
X025506Y028218D01*
X025440Y028296D02*
X025902Y028296D01*
X025902Y028373D02*
X025325Y028373D01*
X025157Y028682D02*
X025125Y028682D01*
X024842Y028296D02*
X023940Y028296D01*
X024015Y028218D02*
X024776Y028218D01*
X024734Y028141D02*
X024047Y028141D01*
X024079Y028064D02*
X024711Y028064D01*
X024706Y027909D02*
X024080Y027909D01*
X024080Y027987D02*
X025102Y027987D01*
X025102Y027909D02*
X025180Y027909D01*
X025180Y027832D02*
X025102Y027832D01*
X025102Y027755D02*
X025180Y027755D01*
X025180Y027677D02*
X025102Y027677D01*
X025102Y027600D02*
X025180Y027600D01*
X025229Y027413D02*
X025054Y027413D01*
X024892Y027346D01*
X024769Y027223D01*
X024702Y027061D01*
X024702Y026886D01*
X024769Y026725D01*
X024892Y026601D01*
X025054Y026534D01*
X025229Y026534D01*
X025390Y026601D01*
X025514Y026725D01*
X025580Y026886D01*
X025580Y027061D01*
X025514Y027223D01*
X025390Y027346D01*
X025229Y027413D01*
X025336Y027368D02*
X025902Y027368D01*
X025902Y027291D02*
X025445Y027291D01*
X025517Y027214D02*
X025902Y027214D01*
X025902Y027136D02*
X025549Y027136D01*
X025580Y027059D02*
X025902Y027059D01*
X025902Y026982D02*
X025580Y026982D01*
X025580Y026905D02*
X025902Y026905D01*
X025902Y026827D02*
X025556Y026827D01*
X025524Y026750D02*
X025902Y026750D01*
X025902Y026673D02*
X025462Y026673D01*
X025376Y026596D02*
X025902Y026596D01*
X025902Y026518D02*
X024420Y026518D01*
X024420Y026441D02*
X025902Y026441D01*
X025902Y026364D02*
X025348Y026364D01*
X025390Y026346D02*
X025229Y026413D01*
X025054Y026413D01*
X024892Y026346D01*
X024769Y026223D01*
X024702Y026061D01*
X024702Y025886D01*
X024769Y025725D01*
X024892Y025601D01*
X025054Y025534D01*
X025229Y025534D01*
X025390Y025601D01*
X025514Y025725D01*
X025580Y025886D01*
X025580Y026061D01*
X025514Y026223D01*
X025390Y026346D01*
X025450Y026286D02*
X025902Y026286D01*
X025902Y026209D02*
X025519Y026209D01*
X025551Y026132D02*
X025902Y026132D01*
X025902Y026055D02*
X025580Y026055D01*
X025580Y025977D02*
X025902Y025977D01*
X025902Y025900D02*
X025580Y025900D01*
X025554Y025823D02*
X025902Y025823D01*
X025902Y025745D02*
X025522Y025745D01*
X025457Y025668D02*
X025902Y025668D01*
X025902Y025591D02*
X025365Y025591D01*
X025499Y025413D02*
X024783Y025413D01*
X024702Y025331D01*
X024702Y024616D01*
X024783Y024534D01*
X025499Y024534D01*
X025580Y024616D01*
X025580Y025331D01*
X025499Y025413D01*
X025553Y025359D02*
X025902Y025359D01*
X025902Y025436D02*
X024157Y025436D01*
X024080Y025359D02*
X024729Y025359D01*
X024702Y025282D02*
X024080Y025282D01*
X024080Y025204D02*
X024702Y025204D01*
X024702Y025127D02*
X024080Y025127D01*
X024080Y025050D02*
X024702Y025050D01*
X024702Y024973D02*
X023681Y024973D01*
X023680Y024895D02*
X023602Y024895D01*
X023602Y024818D02*
X023680Y024818D01*
X023680Y024741D02*
X023602Y024741D01*
X023602Y024663D02*
X023680Y024663D01*
X023680Y024586D02*
X023602Y024586D01*
X024051Y024586D02*
X024732Y024586D01*
X024702Y024663D02*
X024080Y024663D01*
X024080Y024741D02*
X024702Y024741D01*
X024702Y024818D02*
X024080Y024818D01*
X024080Y024895D02*
X024702Y024895D01*
X024235Y025514D02*
X025902Y025514D01*
X025902Y025282D02*
X025580Y025282D01*
X025580Y025204D02*
X025902Y025204D01*
X025902Y025127D02*
X025580Y025127D01*
X025580Y025050D02*
X025902Y025050D01*
X025902Y024973D02*
X025580Y024973D01*
X025580Y024895D02*
X025902Y024895D01*
X025902Y024818D02*
X025580Y024818D01*
X025580Y024741D02*
X025902Y024741D01*
X025902Y024663D02*
X025580Y024663D01*
X025551Y024586D02*
X025902Y024586D01*
X025902Y023581D02*
X021303Y023581D01*
X021225Y023504D02*
X025902Y023504D01*
X024917Y025591D02*
X024312Y025591D01*
X024389Y025668D02*
X024825Y025668D01*
X024760Y025745D02*
X024420Y025745D01*
X024420Y025823D02*
X024728Y025823D01*
X024702Y025900D02*
X024420Y025900D01*
X024420Y025977D02*
X024702Y025977D01*
X024702Y026055D02*
X024420Y026055D01*
X024420Y026132D02*
X024731Y026132D01*
X024763Y026209D02*
X024420Y026209D01*
X024420Y026286D02*
X024832Y026286D01*
X024935Y026364D02*
X024420Y026364D01*
X024420Y026596D02*
X024906Y026596D01*
X024821Y026673D02*
X024420Y026673D01*
X024418Y026750D02*
X024758Y026750D01*
X024726Y026827D02*
X024341Y026827D01*
X024264Y026905D02*
X024702Y026905D01*
X024702Y026982D02*
X024186Y026982D01*
X024109Y027059D02*
X024702Y027059D01*
X024733Y027136D02*
X024049Y027136D01*
X024017Y027214D02*
X024765Y027214D01*
X024837Y027291D02*
X023945Y027291D01*
X023836Y027368D02*
X024946Y027368D01*
X024908Y027600D02*
X023887Y027600D01*
X023966Y027677D02*
X024816Y027677D01*
X024759Y027755D02*
X024026Y027755D01*
X024058Y027832D02*
X024725Y027832D01*
X025374Y027600D02*
X025902Y027600D01*
X025902Y027523D02*
X022844Y027523D01*
X022921Y027600D02*
X023395Y027600D01*
X023316Y027677D02*
X022999Y027677D01*
X023076Y027755D02*
X023256Y027755D01*
X023446Y027368D02*
X022689Y027368D01*
X022767Y027446D02*
X025902Y027446D01*
X025902Y027677D02*
X025466Y027677D01*
X025523Y027755D02*
X025902Y027755D01*
X025902Y027832D02*
X025557Y027832D01*
X025576Y027909D02*
X025902Y027909D01*
X025902Y028450D02*
X022141Y028450D01*
X022195Y028528D02*
X025902Y028528D01*
X025902Y028605D02*
X022272Y028605D01*
X022350Y028682D02*
X024487Y028682D01*
X024470Y028759D02*
X022427Y028759D01*
X022504Y028837D02*
X024468Y028837D01*
X024391Y028914D02*
X022581Y028914D01*
X023069Y027291D02*
X023337Y027291D01*
X023265Y027214D02*
X023112Y027214D01*
X025795Y028682D02*
X025902Y028682D01*
X025902Y028759D02*
X025812Y028759D01*
X025812Y028837D02*
X025902Y028837D01*
X025902Y028914D02*
X025812Y028914D01*
X021141Y022499D02*
X021041Y022499D01*
X022141Y020974D02*
X021741Y020574D01*
X021376Y020574D01*
X020706Y020574D02*
X020241Y020108D01*
X020241Y019874D01*
X019941Y019574D01*
X019941Y018374D01*
X019217Y017649D01*
X016192Y017642D01*
X016192Y017445D02*
X019320Y017452D01*
X020141Y018274D01*
X020141Y019524D01*
X020391Y019774D01*
X020706Y019774D01*
X021376Y019774D02*
X021941Y019774D01*
X022141Y019974D01*
X022141Y018974D02*
X021376Y018974D01*
X020706Y018974D02*
X020341Y018608D01*
X020341Y018174D01*
X019423Y017256D01*
X016192Y017249D01*
X016192Y017052D02*
X019526Y017059D01*
X020441Y017974D01*
X020706Y017974D01*
X021376Y017974D02*
X022141Y017974D01*
X022141Y016974D02*
X021376Y016974D01*
X020706Y016974D02*
X020595Y016862D01*
X016192Y016855D01*
X016192Y016658D02*
X020015Y016665D01*
X020706Y015974D01*
X021376Y015974D02*
X022141Y015974D01*
X020941Y013974D02*
X020776Y013974D01*
X020106Y013974D02*
X018006Y016074D01*
X016192Y016067D01*
X016192Y015871D02*
X017937Y015878D01*
X019641Y014174D01*
X019641Y013439D01*
X020106Y012974D01*
X019441Y012639D02*
X020106Y011974D01*
X020776Y011974D02*
X020941Y011974D01*
X020941Y010974D02*
X020776Y010974D01*
X020106Y010974D02*
X019241Y011839D01*
X019241Y013974D01*
X017731Y015484D01*
X016192Y015477D01*
X016192Y015674D02*
X017834Y015681D01*
X019441Y014074D01*
X019441Y012639D01*
X019041Y011474D02*
X019041Y013874D01*
X017628Y015287D01*
X016192Y015280D01*
X016192Y015083D02*
X017525Y015090D01*
X018841Y013774D01*
X018841Y011374D01*
X019541Y010674D01*
X019541Y009539D01*
X020106Y008974D01*
X019341Y008739D02*
X020106Y007974D01*
X019641Y008074D02*
X019641Y007074D01*
X019741Y006974D01*
X020106Y006974D01*
X019741Y006674D02*
X019441Y006974D01*
X019441Y007974D01*
X018841Y008574D01*
X015341Y008574D01*
X014913Y009002D01*
X014913Y012623D01*
X015110Y012623D02*
X015110Y009105D01*
X015441Y008774D01*
X018941Y008774D01*
X019641Y008074D01*
X019241Y007874D02*
X019241Y006874D01*
X019541Y006574D01*
X019541Y005539D01*
X020106Y004974D01*
X019770Y004956D02*
X019556Y004956D01*
X019556Y004891D02*
X019556Y005056D01*
X019493Y005209D01*
X019376Y005325D01*
X019224Y005389D01*
X019059Y005389D01*
X018906Y005325D01*
X018789Y005209D01*
X018726Y005056D01*
X018726Y004891D01*
X018749Y004837D01*
X018624Y004889D01*
X018459Y004889D01*
X018306Y004825D01*
X018189Y004709D01*
X018126Y004556D01*
X018126Y004391D01*
X018189Y004239D01*
X018252Y004176D01*
X018252Y003571D01*
X018189Y003509D01*
X018126Y003356D01*
X018126Y003191D01*
X018189Y003039D01*
X018306Y002922D01*
X018459Y002859D01*
X018624Y002859D01*
X018776Y002922D01*
X018893Y003039D01*
X018956Y003191D01*
X018956Y003356D01*
X018893Y003509D01*
X018830Y003571D01*
X018830Y004176D01*
X018893Y004239D01*
X018944Y004362D01*
X018977Y004328D01*
X019577Y003728D01*
X019684Y003684D01*
X019799Y003684D01*
X020321Y003684D01*
X020629Y003376D01*
X020271Y003458D01*
X019754Y003419D01*
X019271Y003230D01*
X018866Y002907D01*
X018866Y002907D01*
X018866Y002907D01*
X018574Y002478D01*
X018421Y001983D01*
X018421Y001464D01*
X018574Y000969D01*
X018749Y000713D01*
X017916Y000713D01*
X017946Y000743D01*
X017946Y001842D01*
X017864Y001924D01*
X016961Y001924D01*
X016880Y001842D01*
X016880Y000743D01*
X016909Y000713D01*
X014373Y000713D01*
X014402Y000743D01*
X014402Y001760D01*
X015681Y001760D01*
X015786Y001865D01*
X016902Y001865D01*
X016880Y001788D02*
X015709Y001788D01*
X015786Y001865D02*
X015786Y001866D01*
X015915Y001995D01*
X016020Y002100D01*
X016020Y002500D01*
X016020Y002648D01*
X015841Y002826D01*
X016112Y002826D01*
X016114Y002828D01*
X016115Y002826D01*
X016271Y002826D01*
X016154Y002710D01*
X016091Y002557D01*
X016091Y002391D01*
X016154Y002238D01*
X016271Y002121D01*
X016424Y002057D01*
X016590Y002057D01*
X016743Y002121D01*
X016860Y002238D01*
X016924Y002391D01*
X016924Y002557D01*
X016860Y002710D01*
X016743Y002827D01*
X016590Y002890D01*
X016491Y002890D01*
X016509Y002908D01*
X016509Y004008D01*
X016427Y004089D01*
X016350Y004089D01*
X016560Y004300D01*
X016560Y004647D01*
X018164Y004647D01*
X018132Y004570D02*
X016560Y004570D01*
X016560Y004647D02*
X016315Y004893D01*
X015967Y004893D01*
X015920Y004845D01*
X015920Y005102D01*
X015967Y005054D01*
X016102Y005054D01*
X016102Y005434D01*
X016180Y005434D01*
X016180Y005054D01*
X016315Y005054D01*
X016560Y005300D01*
X016560Y005434D01*
X016181Y005434D01*
X016181Y005513D01*
X016560Y005513D01*
X016560Y005647D01*
X016315Y005893D01*
X016180Y005893D01*
X016180Y005513D01*
X016102Y005513D01*
X016102Y005882D01*
X016620Y006400D01*
X016620Y006548D01*
X016620Y007684D01*
X016632Y007689D01*
X016722Y007779D01*
X016722Y007136D01*
X016803Y007054D01*
X017479Y007054D01*
X017560Y007136D01*
X017560Y007811D01*
X017479Y007893D01*
X018057Y007893D01*
X018058Y007893D02*
X017904Y007829D01*
X017786Y007711D01*
X017722Y007557D01*
X017722Y007390D01*
X017786Y007236D01*
X017904Y007118D01*
X018058Y007054D01*
X018225Y007054D01*
X018379Y007118D01*
X018497Y007236D01*
X018560Y007390D01*
X018560Y007557D01*
X018497Y007711D01*
X018379Y007829D01*
X018225Y007893D01*
X018969Y007893D01*
X018892Y007970D02*
X016777Y007970D01*
X016777Y007907D02*
X016777Y008041D01*
X016726Y008164D01*
X016695Y008195D01*
X018667Y008195D01*
X019062Y007800D01*
X019062Y006948D01*
X019062Y006800D01*
X019362Y006500D01*
X019362Y005613D01*
X019362Y005465D01*
X019770Y005057D01*
X019770Y004699D01*
X019852Y004618D01*
X020361Y004618D01*
X020441Y004698D01*
X020521Y004618D01*
X021015Y004618D01*
X021059Y004574D01*
X021359Y004574D01*
X021524Y004574D01*
X022141Y004574D01*
X022141Y004474D01*
X021641Y003974D01*
X021641Y003183D01*
X020686Y004138D01*
X020605Y004219D01*
X020499Y004263D01*
X019861Y004263D01*
X019439Y004685D01*
X019493Y004739D01*
X019556Y004891D01*
X019551Y004879D02*
X019770Y004879D01*
X019770Y004802D02*
X019519Y004802D01*
X019479Y004724D02*
X019770Y004724D01*
X019823Y004647D02*
X019477Y004647D01*
X019554Y004570D02*
X022141Y004570D01*
X022141Y004492D02*
X019632Y004492D01*
X019709Y004415D02*
X022083Y004415D01*
X022005Y004338D02*
X019786Y004338D01*
X019354Y003951D02*
X018830Y003951D01*
X018830Y003874D02*
X019431Y003874D01*
X019509Y003797D02*
X018830Y003797D01*
X018830Y003720D02*
X019598Y003720D01*
X019731Y003410D02*
X018934Y003410D01*
X018956Y003333D02*
X019534Y003333D01*
X019337Y003256D02*
X018956Y003256D01*
X018951Y003179D02*
X019207Y003179D01*
X019110Y003101D02*
X018919Y003101D01*
X018878Y003024D02*
X019013Y003024D01*
X018916Y002947D02*
X018801Y002947D01*
X018841Y002869D02*
X018650Y002869D01*
X018788Y002792D02*
X016778Y002792D01*
X016855Y002715D02*
X018735Y002715D01*
X018683Y002638D02*
X016890Y002638D01*
X016922Y002560D02*
X018630Y002560D01*
X018577Y002483D02*
X016924Y002483D01*
X016924Y002406D02*
X018552Y002406D01*
X018574Y002478D02*
X018574Y002478D01*
X018528Y002329D02*
X016898Y002329D01*
X016866Y002251D02*
X018504Y002251D01*
X018480Y002174D02*
X016797Y002174D01*
X016685Y002097D02*
X018456Y002097D01*
X018432Y002019D02*
X015940Y002019D01*
X016017Y002097D02*
X016329Y002097D01*
X016218Y002174D02*
X016020Y002174D01*
X016020Y002251D02*
X016149Y002251D01*
X016116Y002329D02*
X016020Y002329D01*
X016020Y002406D02*
X016091Y002406D01*
X016091Y002483D02*
X016020Y002483D01*
X016020Y002560D02*
X016092Y002560D01*
X016124Y002638D02*
X016020Y002638D01*
X015953Y002715D02*
X016159Y002715D01*
X016237Y002792D02*
X015875Y002792D01*
X015841Y002574D02*
X015641Y002774D01*
X015641Y003458D01*
X015641Y004074D01*
X015541Y004174D01*
X015541Y005874D01*
X016241Y006574D01*
X016241Y007674D01*
X015941Y007974D01*
X015701Y007738D02*
X014520Y007738D01*
X014520Y007661D02*
X015817Y007661D01*
X015874Y007637D02*
X016008Y007637D01*
X016020Y007642D01*
X016062Y007600D01*
X016062Y006648D01*
X015362Y005948D01*
X015362Y005845D01*
X015315Y005893D01*
X014967Y005893D01*
X014722Y005647D01*
X014722Y005300D01*
X014967Y005054D01*
X015315Y005054D01*
X015362Y005102D01*
X015362Y004845D01*
X015315Y004893D01*
X014967Y004893D01*
X014722Y004647D01*
X014567Y004647D01*
X014560Y004640D02*
X014560Y004300D01*
X014513Y004252D01*
X014667Y004252D01*
X014722Y004307D01*
X014722Y004647D01*
X014722Y004570D02*
X014560Y004570D01*
X014560Y004640D02*
X014720Y004800D01*
X014720Y004948D01*
X014720Y005748D01*
X014615Y005852D01*
X014315Y006152D01*
X014167Y006152D01*
X014144Y006152D01*
X014232Y006189D01*
X014326Y006283D01*
X014377Y006407D01*
X014377Y006541D01*
X014372Y006552D01*
X014520Y006700D01*
X014520Y006848D01*
X014520Y009048D01*
X014415Y009152D01*
X014320Y009248D01*
X014320Y011100D01*
X014537Y011317D01*
X014537Y008973D01*
X014537Y008825D01*
X015167Y008195D01*
X015315Y008195D01*
X015687Y008195D01*
X015656Y008164D01*
X015605Y008041D01*
X015605Y007907D01*
X015656Y007783D01*
X015751Y007689D01*
X015874Y007637D01*
X016062Y007584D02*
X014520Y007584D01*
X014520Y007506D02*
X016062Y007506D01*
X016062Y007429D02*
X014520Y007429D01*
X014520Y007352D02*
X016062Y007352D01*
X016062Y007275D02*
X014520Y007275D01*
X014520Y007197D02*
X016062Y007197D01*
X016062Y007120D02*
X014520Y007120D01*
X014520Y007043D02*
X016062Y007043D01*
X016062Y006966D02*
X014520Y006966D01*
X014520Y006888D02*
X016062Y006888D01*
X016062Y006811D02*
X014520Y006811D01*
X014520Y006734D02*
X016062Y006734D01*
X016062Y006656D02*
X014476Y006656D01*
X014399Y006579D02*
X015994Y006579D01*
X015916Y006502D02*
X014377Y006502D01*
X014377Y006425D02*
X015839Y006425D01*
X015762Y006347D02*
X014353Y006347D01*
X014313Y006270D02*
X015685Y006270D01*
X015607Y006193D02*
X014236Y006193D01*
X014352Y006115D02*
X015530Y006115D01*
X015453Y006038D02*
X014429Y006038D01*
X014507Y005961D02*
X015375Y005961D01*
X015362Y005884D02*
X015324Y005884D01*
X014958Y005884D02*
X014584Y005884D01*
X014661Y005806D02*
X014881Y005806D01*
X014803Y005729D02*
X014720Y005729D01*
X014720Y005652D02*
X014726Y005652D01*
X014720Y005574D02*
X014722Y005574D01*
X014720Y005497D02*
X014722Y005497D01*
X014720Y005420D02*
X014722Y005420D01*
X014720Y005343D02*
X014722Y005343D01*
X014720Y005265D02*
X014756Y005265D01*
X014720Y005188D02*
X014834Y005188D01*
X014911Y005111D02*
X014720Y005111D01*
X014720Y005033D02*
X015362Y005033D01*
X015362Y004956D02*
X014720Y004956D01*
X014720Y004879D02*
X014953Y004879D01*
X014876Y004802D02*
X014720Y004802D01*
X014644Y004724D02*
X014799Y004724D01*
X014722Y004492D02*
X014560Y004492D01*
X014560Y004415D02*
X014722Y004415D01*
X014722Y004338D02*
X014560Y004338D01*
X014521Y004261D02*
X014675Y004261D01*
X014741Y004074D02*
X015141Y004474D01*
X015329Y004879D02*
X015362Y004879D01*
X015920Y004879D02*
X015953Y004879D01*
X015920Y004956D02*
X018726Y004956D01*
X018731Y004879D02*
X018647Y004879D01*
X018726Y005033D02*
X015920Y005033D01*
X016102Y005111D02*
X016180Y005111D01*
X016180Y005188D02*
X016102Y005188D01*
X016102Y005265D02*
X016180Y005265D01*
X016180Y005343D02*
X016102Y005343D01*
X016102Y005420D02*
X016180Y005420D01*
X016181Y005497D02*
X019362Y005497D01*
X019362Y005574D02*
X016560Y005574D01*
X016556Y005652D02*
X019362Y005652D01*
X019362Y005729D02*
X016479Y005729D01*
X016402Y005806D02*
X019362Y005806D01*
X019362Y005884D02*
X016324Y005884D01*
X016180Y005884D02*
X016104Y005884D01*
X016102Y005806D02*
X016180Y005806D01*
X016180Y005729D02*
X016102Y005729D01*
X016102Y005652D02*
X016180Y005652D01*
X016180Y005574D02*
X016102Y005574D01*
X016181Y005961D02*
X019362Y005961D01*
X019362Y006038D02*
X016258Y006038D01*
X016336Y006115D02*
X019362Y006115D01*
X019362Y006193D02*
X016413Y006193D01*
X016490Y006270D02*
X019362Y006270D01*
X019362Y006347D02*
X016567Y006347D01*
X016620Y006425D02*
X019362Y006425D01*
X019360Y006502D02*
X016620Y006502D01*
X016620Y006579D02*
X019283Y006579D01*
X019206Y006656D02*
X016620Y006656D01*
X016620Y006734D02*
X019128Y006734D01*
X019062Y006811D02*
X016620Y006811D01*
X016620Y006888D02*
X019062Y006888D01*
X019062Y006966D02*
X016620Y006966D01*
X016620Y007043D02*
X019062Y007043D01*
X019062Y007120D02*
X018381Y007120D01*
X018458Y007197D02*
X019062Y007197D01*
X019062Y007275D02*
X018513Y007275D01*
X018545Y007352D02*
X019062Y007352D01*
X019062Y007429D02*
X018560Y007429D01*
X018560Y007506D02*
X019062Y007506D01*
X019062Y007584D02*
X018549Y007584D01*
X018517Y007661D02*
X019062Y007661D01*
X019062Y007738D02*
X018469Y007738D01*
X018392Y007816D02*
X019046Y007816D01*
X019241Y007874D02*
X018741Y008374D01*
X015241Y008374D01*
X014716Y008899D01*
X014716Y012623D01*
X014519Y012623D02*
X014519Y011552D01*
X014141Y011174D01*
X014141Y009174D01*
X014341Y008974D01*
X014341Y006774D01*
X014041Y006474D01*
X014041Y006974D02*
X014141Y007274D01*
X014141Y008874D01*
X013941Y009074D01*
X013941Y011274D01*
X014322Y011655D01*
X014322Y012623D01*
X014125Y012623D02*
X014125Y011758D01*
X013741Y011374D01*
X013741Y008974D01*
X013941Y008774D01*
X013941Y007474D01*
X013541Y006974D01*
X013241Y007374D02*
X013741Y007874D01*
X013741Y008674D01*
X013535Y008880D01*
X013535Y012623D01*
X013338Y012623D02*
X013338Y008777D01*
X013541Y008574D01*
X013541Y008174D01*
X013241Y007874D01*
X013241Y008374D02*
X013241Y008574D01*
X013141Y008674D01*
X013141Y012623D01*
X012944Y012623D02*
X012944Y006971D01*
X013941Y005974D01*
X014241Y005974D01*
X014541Y005674D01*
X014541Y004874D01*
X014141Y004474D01*
X013841Y004074D02*
X014741Y004074D01*
X014773Y003895D02*
X014773Y003468D01*
X015001Y003468D01*
X015001Y003448D01*
X014773Y003448D01*
X014773Y002947D01*
X014783Y002912D01*
X014796Y002890D01*
X014692Y002890D01*
X014539Y002827D01*
X014422Y002710D01*
X014358Y002557D01*
X014358Y002391D01*
X014422Y002238D01*
X014539Y002121D01*
X014544Y002118D01*
X013297Y002118D01*
X013297Y002394D01*
X013217Y002474D01*
X013297Y002554D01*
X013297Y003063D01*
X013215Y003145D01*
X012667Y003145D01*
X012585Y003063D01*
X012585Y002763D01*
X012497Y002674D01*
X012497Y003063D01*
X012415Y003145D01*
X012320Y003145D01*
X012320Y004059D01*
X012560Y004300D01*
X012560Y004647D01*
X012722Y004647D01*
X012722Y004300D01*
X012967Y004054D01*
X013315Y004054D01*
X013462Y004202D01*
X013462Y004200D01*
X013573Y004089D01*
X013418Y004089D01*
X013336Y004008D01*
X013336Y002908D01*
X013418Y002826D01*
X014321Y002826D01*
X014402Y002908D01*
X014402Y003895D01*
X014667Y003895D01*
X014773Y003895D01*
X014773Y003874D02*
X014402Y003874D01*
X014402Y003797D02*
X014773Y003797D01*
X014773Y003720D02*
X014402Y003720D01*
X014402Y003642D02*
X014773Y003642D01*
X014773Y003565D02*
X014402Y003565D01*
X014402Y003488D02*
X014773Y003488D01*
X014773Y003410D02*
X014402Y003410D01*
X014402Y003333D02*
X014773Y003333D01*
X014773Y003256D02*
X014402Y003256D01*
X014402Y003179D02*
X014773Y003179D01*
X014773Y003101D02*
X014402Y003101D01*
X014402Y003024D02*
X014773Y003024D01*
X014774Y002947D02*
X014402Y002947D01*
X014364Y002869D02*
X014642Y002869D01*
X014504Y002792D02*
X013297Y002792D01*
X013297Y002715D02*
X014427Y002715D01*
X014392Y002638D02*
X013297Y002638D01*
X013297Y002560D02*
X014360Y002560D01*
X014358Y002483D02*
X013226Y002483D01*
X013285Y002406D02*
X014358Y002406D01*
X014384Y002329D02*
X013297Y002329D01*
X013297Y002251D02*
X014416Y002251D01*
X014486Y002174D02*
X013297Y002174D01*
X013336Y001760D02*
X013215Y001760D01*
X013067Y001760D01*
X013024Y001803D01*
X012667Y001803D01*
X012585Y001884D01*
X012585Y002142D01*
X012497Y002054D01*
X012497Y001884D01*
X012415Y001803D01*
X011867Y001803D01*
X011785Y001884D01*
X011785Y001920D01*
X011697Y001920D01*
X011697Y001884D01*
X011669Y001856D01*
X011715Y001810D01*
X011808Y001810D01*
X011932Y001759D01*
X012026Y001664D01*
X012077Y001541D01*
X012077Y001407D01*
X012026Y001283D01*
X011932Y001189D01*
X011808Y001137D01*
X011674Y001137D01*
X011551Y001189D01*
X011456Y001283D01*
X011405Y001407D01*
X011405Y001500D01*
X011122Y001783D01*
X011122Y001803D01*
X011067Y001803D01*
X010985Y001884D01*
X010985Y002394D01*
X011065Y002474D01*
X010985Y002554D01*
X010985Y003063D01*
X011067Y003145D01*
X011162Y003145D01*
X011162Y003442D01*
X010920Y003200D01*
X010920Y002700D01*
X010815Y002595D01*
X010612Y002392D01*
X010612Y001999D01*
X010530Y001918D01*
X010021Y001918D01*
X009941Y001998D01*
X009861Y001918D01*
X009352Y001918D01*
X009270Y001999D01*
X009270Y002095D01*
X009167Y002095D01*
X009062Y002200D01*
X007462Y003800D01*
X007462Y003948D01*
X007462Y004559D01*
X007222Y004800D01*
X007222Y005147D01*
X007467Y005393D01*
X007815Y005393D01*
X007962Y005245D01*
X007962Y005400D01*
X007962Y005548D01*
X008222Y005807D01*
X008222Y006147D01*
X008467Y006393D01*
X008815Y006393D01*
X009060Y006147D01*
X009060Y005800D01*
X008815Y005554D01*
X008474Y005554D01*
X008320Y005400D01*
X008320Y005245D01*
X008467Y005393D01*
X008815Y005393D01*
X009060Y005147D01*
X009060Y004800D01*
X008815Y004554D01*
X008467Y004554D01*
X008320Y004702D01*
X008320Y004148D01*
X009215Y003252D01*
X009270Y003252D01*
X009270Y003348D01*
X009352Y003430D01*
X009861Y003430D01*
X009941Y003349D01*
X010021Y003430D01*
X010244Y003430D01*
X010462Y003648D01*
X010462Y004202D01*
X010315Y004054D01*
X009967Y004054D01*
X009722Y004300D01*
X009722Y004647D01*
X008907Y004647D01*
X008830Y004570D02*
X009722Y004570D01*
X009722Y004647D02*
X009967Y004893D01*
X010315Y004893D01*
X010462Y004745D01*
X010462Y004900D01*
X010308Y005054D01*
X009967Y005054D01*
X009722Y005300D01*
X009722Y005647D01*
X009967Y005893D01*
X010315Y005893D01*
X010560Y005647D01*
X010560Y005307D01*
X010820Y005048D01*
X010820Y004900D01*
X010820Y004745D01*
X010967Y004893D01*
X011315Y004893D01*
X011362Y004845D01*
X011362Y005000D01*
X011308Y005054D01*
X010967Y005054D01*
X010722Y005300D01*
X010722Y005647D01*
X010967Y005893D01*
X011315Y005893D01*
X011560Y005647D01*
X011560Y005307D01*
X011562Y005305D01*
X011562Y005748D01*
X011667Y005852D01*
X011978Y006163D01*
X011978Y007067D01*
X011908Y007037D01*
X011774Y007037D01*
X011651Y007089D01*
X011556Y007183D01*
X011505Y007307D01*
X011505Y007441D01*
X011510Y007452D01*
X010167Y008795D01*
X007515Y008795D01*
X007320Y008600D01*
X007320Y007448D01*
X007320Y007300D01*
X006920Y006900D01*
X006920Y006348D01*
X006920Y006200D01*
X006720Y006000D01*
X006720Y005413D01*
X006720Y005265D01*
X006512Y005057D01*
X006512Y004699D01*
X006430Y004618D01*
X005921Y004618D01*
X005841Y004698D01*
X005761Y004618D01*
X005267Y004618D01*
X005224Y004574D01*
X004924Y004574D01*
X004759Y004574D01*
X004141Y004574D01*
X004141Y004474D01*
X004641Y003974D01*
X004641Y002577D01*
X004866Y002907D01*
X004866Y002907D01*
X005271Y003230D01*
X005271Y003230D01*
X005754Y003419D01*
X005754Y003419D01*
X006271Y003458D01*
X006271Y003458D01*
X006776Y003343D01*
X006777Y003343D01*
X007226Y003084D01*
X007226Y003084D01*
X007578Y002704D01*
X007578Y002703D01*
X007803Y002236D01*
X007803Y002236D01*
X007880Y001724D01*
X007880Y001724D01*
X007803Y001211D01*
X007578Y000744D01*
X007550Y000713D01*
X013366Y000713D01*
X013336Y000743D01*
X013336Y001760D01*
X013336Y001710D02*
X011980Y001710D01*
X012039Y001633D02*
X013336Y001633D01*
X013336Y001556D02*
X012071Y001556D01*
X012077Y001478D02*
X013336Y001478D01*
X013336Y001401D02*
X012075Y001401D01*
X012043Y001324D02*
X013336Y001324D01*
X013336Y001247D02*
X011989Y001247D01*
X011885Y001169D02*
X013336Y001169D01*
X013336Y001092D02*
X007746Y001092D01*
X007783Y001169D02*
X011597Y001169D01*
X011493Y001247D02*
X007808Y001247D01*
X007820Y001324D02*
X011439Y001324D01*
X011407Y001401D02*
X007832Y001401D01*
X007843Y001478D02*
X011405Y001478D01*
X011349Y001556D02*
X007855Y001556D01*
X007867Y001633D02*
X011272Y001633D01*
X011194Y001710D02*
X007878Y001710D01*
X007871Y001788D02*
X011122Y001788D01*
X011005Y001865D02*
X007859Y001865D01*
X007848Y001942D02*
X009328Y001942D01*
X009270Y002019D02*
X007836Y002019D01*
X007824Y002097D02*
X009165Y002097D01*
X009088Y002174D02*
X007813Y002174D01*
X007796Y002251D02*
X009011Y002251D01*
X008934Y002329D02*
X007759Y002329D01*
X007722Y002406D02*
X008856Y002406D01*
X008779Y002483D02*
X007684Y002483D01*
X007647Y002560D02*
X008702Y002560D01*
X008624Y002638D02*
X007610Y002638D01*
X007568Y002715D02*
X008547Y002715D01*
X008470Y002792D02*
X007496Y002792D01*
X007424Y002869D02*
X008393Y002869D01*
X008315Y002947D02*
X007353Y002947D01*
X007281Y003024D02*
X008238Y003024D01*
X008161Y003101D02*
X007195Y003101D01*
X007061Y003179D02*
X008083Y003179D01*
X008006Y003256D02*
X006927Y003256D01*
X006793Y003333D02*
X007929Y003333D01*
X007852Y003410D02*
X006480Y003410D01*
X005731Y003410D02*
X004641Y003410D01*
X004641Y003333D02*
X005534Y003333D01*
X005337Y003256D02*
X004641Y003256D01*
X004641Y003179D02*
X005207Y003179D01*
X005110Y003101D02*
X004641Y003101D01*
X004641Y003024D02*
X005013Y003024D01*
X004916Y002947D02*
X004641Y002947D01*
X004641Y002869D02*
X004841Y002869D01*
X004788Y002792D02*
X004641Y002792D01*
X004641Y002715D02*
X004735Y002715D01*
X004683Y002638D02*
X004641Y002638D01*
X004641Y003488D02*
X007774Y003488D01*
X007697Y003565D02*
X004641Y003565D01*
X004641Y003642D02*
X007620Y003642D01*
X007542Y003720D02*
X004641Y003720D01*
X004641Y003797D02*
X007465Y003797D01*
X007462Y003874D02*
X004641Y003874D01*
X004641Y003951D02*
X007462Y003951D01*
X007462Y004029D02*
X004586Y004029D01*
X004509Y004106D02*
X007462Y004106D01*
X007462Y004183D02*
X004431Y004183D01*
X004354Y004261D02*
X007462Y004261D01*
X007462Y004338D02*
X004277Y004338D01*
X004200Y004415D02*
X007462Y004415D01*
X007462Y004492D02*
X004141Y004492D01*
X004141Y004570D02*
X007452Y004570D01*
X007375Y004647D02*
X006460Y004647D01*
X006512Y004724D02*
X007297Y004724D01*
X007222Y004802D02*
X006512Y004802D01*
X006512Y004879D02*
X007222Y004879D01*
X007222Y004956D02*
X006512Y004956D01*
X006512Y005033D02*
X007222Y005033D01*
X007222Y005111D02*
X006565Y005111D01*
X006643Y005188D02*
X007262Y005188D01*
X007340Y005265D02*
X006720Y005265D01*
X006720Y005343D02*
X007417Y005343D01*
X007467Y005554D02*
X007815Y005554D01*
X008060Y005800D01*
X008060Y006147D01*
X007815Y006393D01*
X007467Y006393D01*
X007222Y006147D01*
X007222Y005800D01*
X007467Y005554D01*
X007447Y005574D02*
X006720Y005574D01*
X006720Y005497D02*
X007962Y005497D01*
X007962Y005420D02*
X006720Y005420D01*
X006541Y005339D02*
X006176Y004974D01*
X005892Y004647D02*
X005790Y004647D01*
X005506Y004974D02*
X005341Y004974D01*
X005341Y005974D02*
X005506Y005974D01*
X006176Y005974D02*
X006541Y006339D01*
X006541Y007074D01*
X006941Y007474D01*
X006941Y008774D01*
X007341Y009174D01*
X010441Y009174D01*
X011741Y007874D01*
X011841Y007874D01*
X011841Y007374D02*
X010241Y008974D01*
X007441Y008974D01*
X007141Y008674D01*
X007141Y007374D01*
X006741Y006974D01*
X006741Y006274D01*
X006541Y006074D01*
X006541Y005339D01*
X006720Y005652D02*
X007370Y005652D01*
X007293Y005729D02*
X006720Y005729D01*
X006720Y005806D02*
X007222Y005806D01*
X007222Y005884D02*
X006720Y005884D01*
X006720Y005961D02*
X007222Y005961D01*
X007222Y006038D02*
X006758Y006038D01*
X006836Y006115D02*
X007222Y006115D01*
X007267Y006193D02*
X006913Y006193D01*
X006920Y006270D02*
X007344Y006270D01*
X007422Y006347D02*
X006920Y006347D01*
X006920Y006425D02*
X011978Y006425D01*
X011978Y006502D02*
X006920Y006502D01*
X006920Y006579D02*
X011978Y006579D01*
X011978Y006656D02*
X006920Y006656D01*
X006920Y006734D02*
X011978Y006734D01*
X011978Y006811D02*
X006920Y006811D01*
X006920Y006888D02*
X011978Y006888D01*
X011978Y006966D02*
X006986Y006966D01*
X007063Y007043D02*
X011761Y007043D01*
X011921Y007043D02*
X011978Y007043D01*
X011619Y007120D02*
X009545Y007120D01*
X009560Y007136D02*
X009560Y007811D01*
X009479Y007893D01*
X011069Y007893D01*
X010992Y007970D02*
X007320Y007970D01*
X007320Y007893D02*
X008057Y007893D01*
X008058Y007893D02*
X007904Y007829D01*
X007786Y007711D01*
X007722Y007557D01*
X007722Y007390D01*
X007786Y007236D01*
X007904Y007118D01*
X008058Y007054D01*
X008225Y007054D01*
X008379Y007118D01*
X008497Y007236D01*
X008560Y007390D01*
X008560Y007557D01*
X008497Y007711D01*
X008379Y007829D01*
X008225Y007893D01*
X008803Y007893D01*
X008722Y007811D01*
X008722Y007136D01*
X008803Y007054D01*
X009479Y007054D01*
X009560Y007136D01*
X009560Y007197D02*
X011550Y007197D01*
X011518Y007275D02*
X009560Y007275D01*
X009560Y007352D02*
X011505Y007352D01*
X011505Y007429D02*
X009560Y007429D01*
X009560Y007506D02*
X011456Y007506D01*
X011378Y007584D02*
X009560Y007584D01*
X009560Y007661D02*
X011301Y007661D01*
X011224Y007738D02*
X009560Y007738D01*
X009556Y007816D02*
X011146Y007816D01*
X010915Y008047D02*
X007320Y008047D01*
X007320Y008125D02*
X010837Y008125D01*
X010760Y008202D02*
X007320Y008202D01*
X007320Y008279D02*
X010683Y008279D01*
X010605Y008357D02*
X007320Y008357D01*
X007320Y008434D02*
X010528Y008434D01*
X010451Y008511D02*
X007320Y008511D01*
X007320Y008588D02*
X010374Y008588D01*
X010296Y008666D02*
X007386Y008666D01*
X007463Y008743D02*
X010219Y008743D01*
X010641Y009374D02*
X007241Y009374D01*
X006741Y008874D01*
X006741Y007539D01*
X006176Y006974D01*
X005506Y006974D02*
X005341Y006974D01*
X005341Y007974D02*
X005506Y007974D01*
X006176Y007974D02*
X006541Y008339D01*
X006541Y008974D01*
X007141Y009574D01*
X009041Y009574D01*
X011369Y011902D01*
X011369Y012623D01*
X011173Y012623D02*
X011173Y012005D01*
X008941Y009774D01*
X006976Y009774D01*
X006176Y008974D01*
X006279Y009330D02*
X005921Y009330D01*
X005841Y009249D01*
X005761Y009330D01*
X005252Y009330D01*
X005197Y009275D01*
X005197Y009394D01*
X005117Y009474D01*
X005197Y009554D01*
X005197Y009673D01*
X005252Y009618D01*
X005761Y009618D01*
X005841Y009698D01*
X005921Y009618D01*
X006430Y009618D01*
X006512Y009699D01*
X006512Y010057D01*
X008972Y010057D01*
X009049Y010134D02*
X006589Y010134D01*
X006512Y010057D02*
X007115Y010660D01*
X007220Y010765D01*
X007220Y012800D01*
X007315Y012895D01*
X009715Y012895D01*
X009820Y013000D01*
X009929Y013109D01*
X010384Y013109D01*
X010465Y013191D01*
X010465Y013388D01*
X010465Y013584D01*
X010465Y013781D01*
X010465Y013978D01*
X010465Y014175D01*
X010465Y014372D01*
X010465Y014569D01*
X010465Y014766D01*
X010465Y015002D01*
X010465Y015083D01*
X010390Y015083D01*
X010389Y015083D01*
X010390Y015083D01*
X010465Y015083D01*
X010465Y015101D01*
X010549Y015101D01*
X010556Y015083D01*
X010651Y014989D01*
X010774Y014937D01*
X010908Y014937D01*
X011032Y014989D01*
X011062Y015020D01*
X011062Y015000D01*
X011062Y013828D01*
X011032Y013859D01*
X010908Y013910D01*
X010774Y013910D01*
X010651Y013859D01*
X010556Y013764D01*
X010505Y013641D01*
X010505Y013507D01*
X010556Y013383D01*
X010600Y013339D01*
X010600Y012940D01*
X010577Y012916D01*
X009736Y012916D01*
X009814Y012994D02*
X010600Y012994D01*
X010600Y013071D02*
X009891Y013071D01*
X009886Y013319D02*
X009641Y013074D01*
X007241Y013074D01*
X007041Y012874D01*
X007041Y010839D01*
X006176Y009974D01*
X006512Y009980D02*
X008894Y009980D01*
X008867Y009952D02*
X007050Y009952D01*
X006902Y009952D01*
X006279Y009330D01*
X006311Y009361D02*
X005197Y009361D01*
X005197Y009284D02*
X005206Y009284D01*
X005152Y009439D02*
X006388Y009439D01*
X006465Y009516D02*
X005159Y009516D01*
X005197Y009593D02*
X006542Y009593D01*
X006483Y009670D02*
X006620Y009670D01*
X006697Y009748D02*
X006512Y009748D01*
X006512Y009825D02*
X006774Y009825D01*
X006852Y009902D02*
X006512Y009902D01*
X006666Y010211D02*
X009126Y010211D01*
X009203Y010289D02*
X008399Y010289D01*
X008398Y010289D02*
X008526Y010416D01*
X008550Y010474D01*
X008624Y010474D01*
X008740Y010591D01*
X008832Y010683D01*
X009096Y010683D01*
X009177Y010765D01*
X009177Y011313D01*
X009115Y011375D01*
X009124Y011380D01*
X009149Y011406D01*
X009168Y011438D01*
X009177Y011473D01*
X009177Y011669D01*
X008881Y011669D01*
X008881Y011748D01*
X009177Y011748D01*
X009177Y011943D01*
X009168Y011979D01*
X009149Y012010D01*
X009124Y012036D01*
X009092Y012055D01*
X009056Y012064D01*
X008880Y012064D01*
X008880Y011748D01*
X008802Y011748D01*
X008802Y012064D01*
X008626Y012064D01*
X008590Y012055D01*
X008559Y012036D01*
X008557Y012034D01*
X008181Y012034D01*
X008181Y012113D01*
X008595Y012113D01*
X008595Y012262D01*
X008329Y012528D01*
X008180Y012528D01*
X008180Y012113D01*
X008102Y012113D01*
X008102Y012528D01*
X007953Y012528D01*
X007687Y012262D01*
X007687Y012113D01*
X008102Y012113D01*
X008102Y012034D01*
X008180Y012034D01*
X008180Y011619D01*
X008329Y011619D01*
X008505Y011795D01*
X008505Y011748D01*
X008802Y011748D01*
X008802Y011669D01*
X008505Y011669D01*
X008505Y011473D01*
X008514Y011438D01*
X008533Y011406D01*
X008559Y011380D01*
X008567Y011375D01*
X008505Y011313D01*
X008505Y010952D01*
X008398Y011059D01*
X008231Y011128D01*
X008051Y011128D01*
X007884Y011059D01*
X007756Y010931D01*
X007687Y010764D01*
X007687Y010583D01*
X007756Y010416D01*
X007884Y010289D01*
X006743Y010289D01*
X006821Y010366D02*
X007806Y010366D01*
X007745Y010443D02*
X006898Y010443D01*
X006975Y010521D02*
X007713Y010521D01*
X007687Y010598D02*
X007053Y010598D01*
X007115Y010660D02*
X007115Y010660D01*
X007130Y010675D02*
X007687Y010675D01*
X007687Y010752D02*
X007207Y010752D01*
X007220Y010830D02*
X007714Y010830D01*
X007746Y010907D02*
X007220Y010907D01*
X007220Y010984D02*
X007809Y010984D01*
X007890Y011062D02*
X007220Y011062D01*
X007220Y011139D02*
X008505Y011139D01*
X008505Y011216D02*
X007220Y011216D01*
X007220Y011293D02*
X008505Y011293D01*
X008562Y011371D02*
X007220Y011371D01*
X007220Y011448D02*
X008512Y011448D01*
X008505Y011525D02*
X007220Y011525D01*
X007220Y011603D02*
X008505Y011603D01*
X008390Y011680D02*
X008802Y011680D01*
X008802Y011757D02*
X008880Y011757D01*
X008881Y011680D02*
X010594Y011680D01*
X010517Y011603D02*
X009177Y011603D01*
X009177Y011525D02*
X010440Y011525D01*
X010363Y011448D02*
X009170Y011448D01*
X009120Y011371D02*
X010285Y011371D01*
X010208Y011293D02*
X009177Y011293D01*
X009177Y011216D02*
X010131Y011216D01*
X010054Y011139D02*
X009177Y011139D01*
X009177Y011062D02*
X009976Y011062D01*
X009899Y010984D02*
X009177Y010984D01*
X009177Y010907D02*
X009822Y010907D01*
X009744Y010830D02*
X009177Y010830D01*
X009165Y010752D02*
X009667Y010752D01*
X009590Y010675D02*
X008824Y010675D01*
X008747Y010598D02*
X009513Y010598D01*
X009435Y010521D02*
X008670Y010521D01*
X008537Y010443D02*
X009358Y010443D01*
X009281Y010366D02*
X008476Y010366D01*
X008398Y010289D02*
X008231Y010219D01*
X008051Y010219D01*
X007884Y010289D01*
X008473Y010984D02*
X008505Y010984D01*
X008505Y011062D02*
X008392Y011062D01*
X008102Y011619D02*
X008102Y012034D01*
X007687Y012034D01*
X007687Y011885D01*
X007953Y011619D01*
X008102Y011619D01*
X008102Y011680D02*
X008180Y011680D01*
X008180Y011757D02*
X008102Y011757D01*
X008102Y011834D02*
X008180Y011834D01*
X008180Y011912D02*
X008102Y011912D01*
X008102Y011989D02*
X008180Y011989D01*
X008181Y012066D02*
X010981Y012066D01*
X010994Y012079D02*
X008867Y009952D01*
X009273Y009552D02*
X011445Y011725D01*
X011548Y011828D01*
X011548Y011832D01*
X011548Y012247D01*
X011687Y012247D01*
X011884Y012247D01*
X011978Y012247D01*
X011978Y008681D01*
X011908Y008710D01*
X011774Y008710D01*
X011651Y008659D01*
X011630Y008638D01*
X010820Y009448D01*
X010715Y009552D01*
X009273Y009552D01*
X009313Y009593D02*
X011978Y009593D01*
X011978Y009516D02*
X010752Y009516D01*
X010829Y009439D02*
X011978Y009439D01*
X011978Y009361D02*
X010906Y009361D01*
X010984Y009284D02*
X011978Y009284D01*
X011978Y009207D02*
X011061Y009207D01*
X011138Y009129D02*
X011978Y009129D01*
X011978Y009052D02*
X011215Y009052D01*
X011293Y008975D02*
X011978Y008975D01*
X011978Y008898D02*
X011370Y008898D01*
X011447Y008820D02*
X011978Y008820D01*
X011978Y008743D02*
X011524Y008743D01*
X011602Y008666D02*
X011668Y008666D01*
X011641Y008374D02*
X010641Y009374D01*
X009854Y010134D02*
X011978Y010134D01*
X011978Y010057D02*
X009777Y010057D01*
X009700Y009980D02*
X011978Y009980D01*
X011978Y009902D02*
X009622Y009902D01*
X009545Y009825D02*
X011978Y009825D01*
X011978Y009748D02*
X009468Y009748D01*
X009391Y009670D02*
X011978Y009670D01*
X011978Y010211D02*
X009932Y010211D01*
X010009Y010289D02*
X011978Y010289D01*
X011978Y010366D02*
X010086Y010366D01*
X010163Y010443D02*
X011978Y010443D01*
X011978Y010521D02*
X010241Y010521D01*
X010318Y010598D02*
X011978Y010598D01*
X011978Y010675D02*
X010395Y010675D01*
X010473Y010752D02*
X011978Y010752D01*
X011978Y010830D02*
X010550Y010830D01*
X010627Y010907D02*
X011978Y010907D01*
X011978Y010984D02*
X010704Y010984D01*
X010782Y011062D02*
X011978Y011062D01*
X011978Y011139D02*
X010859Y011139D01*
X010936Y011216D02*
X011978Y011216D01*
X011978Y011293D02*
X011014Y011293D01*
X011091Y011371D02*
X011978Y011371D01*
X011978Y011448D02*
X011168Y011448D01*
X011245Y011525D02*
X011978Y011525D01*
X011978Y011603D02*
X011323Y011603D01*
X011400Y011680D02*
X011978Y011680D01*
X011978Y011757D02*
X011477Y011757D01*
X011548Y011828D02*
X011548Y011828D01*
X011548Y011834D02*
X011978Y011834D01*
X011978Y011912D02*
X011548Y011912D01*
X011548Y011989D02*
X011978Y011989D01*
X011978Y012066D02*
X011548Y012066D01*
X011548Y012144D02*
X011978Y012144D01*
X011978Y012221D02*
X011548Y012221D01*
X011566Y012623D02*
X011566Y013249D01*
X011241Y013574D01*
X011241Y015074D01*
X013241Y017074D01*
X013548Y016935D02*
X015817Y016935D01*
X015817Y016858D02*
X013501Y016858D01*
X013510Y016781D02*
X015817Y016781D01*
X015817Y016703D02*
X013551Y016703D01*
X013577Y016626D02*
X015817Y016626D01*
X015817Y016549D02*
X013577Y016549D01*
X013563Y016471D02*
X015817Y016471D01*
X015817Y016394D02*
X013531Y016394D01*
X013460Y016317D02*
X015817Y016317D01*
X015817Y016240D02*
X013313Y016240D01*
X013169Y016240D02*
X012960Y016240D01*
X012882Y016162D02*
X014459Y016162D01*
X014377Y016085D02*
X012805Y016085D01*
X012641Y015874D02*
X014641Y015874D01*
X014950Y016008D02*
X015817Y016008D01*
X015817Y016085D02*
X014905Y016085D01*
X014823Y016162D02*
X015817Y016162D01*
X015817Y015930D02*
X014977Y015930D01*
X014977Y015853D02*
X015817Y015853D01*
X015817Y015776D02*
X014964Y015776D01*
X014932Y015699D02*
X015817Y015699D01*
X015817Y015621D02*
X014864Y015621D01*
X014724Y015544D02*
X015817Y015544D01*
X015817Y015467D02*
X012487Y015467D01*
X012425Y015389D02*
X012410Y015389D01*
X012564Y015544D02*
X014558Y015544D01*
X014418Y015621D02*
X012641Y015621D01*
X012657Y015389D02*
X015817Y015389D01*
X015817Y015312D02*
X012778Y015312D01*
X012838Y015235D02*
X015817Y015235D01*
X015817Y015158D02*
X012870Y015158D01*
X012877Y015080D02*
X015817Y015080D01*
X015817Y015003D02*
X012876Y015003D01*
X012904Y014926D02*
X015817Y014926D01*
X016192Y014886D02*
X017421Y014893D01*
X018641Y013674D01*
X018641Y011274D01*
X019341Y010574D01*
X019341Y008739D01*
X018815Y008047D02*
X016774Y008047D01*
X016742Y008125D02*
X018737Y008125D01*
X018225Y007893D02*
X018058Y007893D01*
X017890Y007816D02*
X017556Y007816D01*
X017560Y007738D02*
X017813Y007738D01*
X017765Y007661D02*
X017560Y007661D01*
X017560Y007584D02*
X017733Y007584D01*
X017722Y007506D02*
X017560Y007506D01*
X017560Y007429D02*
X017722Y007429D01*
X017738Y007352D02*
X017560Y007352D01*
X017560Y007275D02*
X017770Y007275D01*
X017824Y007197D02*
X017560Y007197D01*
X017545Y007120D02*
X017902Y007120D01*
X017479Y007893D02*
X016803Y007893D01*
X016771Y007893D01*
X016777Y007907D02*
X016749Y007839D01*
X016803Y007893D01*
X016722Y007738D02*
X016681Y007738D01*
X016722Y007661D02*
X016620Y007661D01*
X016620Y007584D02*
X016722Y007584D01*
X016722Y007506D02*
X016620Y007506D01*
X016620Y007429D02*
X016722Y007429D01*
X016722Y007352D02*
X016620Y007352D01*
X016620Y007275D02*
X016722Y007275D01*
X016722Y007197D02*
X016620Y007197D01*
X016620Y007120D02*
X016738Y007120D01*
X016441Y006474D02*
X015741Y005774D01*
X015741Y004274D01*
X015956Y004059D01*
X015956Y003458D01*
X016509Y003488D02*
X016880Y003488D01*
X016880Y003565D02*
X016509Y003565D01*
X016509Y003642D02*
X016880Y003642D01*
X016880Y003720D02*
X016509Y003720D01*
X016509Y003797D02*
X016880Y003797D01*
X016880Y003874D02*
X016509Y003874D01*
X016509Y003951D02*
X016880Y003951D01*
X016880Y004008D02*
X016880Y002908D01*
X016961Y002826D01*
X017864Y002826D01*
X017946Y002908D01*
X017946Y004008D01*
X017864Y004089D01*
X016961Y004089D01*
X016880Y004008D01*
X016901Y004029D02*
X016488Y004029D01*
X016366Y004106D02*
X018252Y004106D01*
X018252Y004029D02*
X017925Y004029D01*
X017946Y003951D02*
X018252Y003951D01*
X018252Y003874D02*
X017946Y003874D01*
X017946Y003797D02*
X018252Y003797D01*
X018252Y003720D02*
X017946Y003720D01*
X017946Y003642D02*
X018252Y003642D01*
X018246Y003565D02*
X017946Y003565D01*
X017946Y003488D02*
X018181Y003488D01*
X018149Y003410D02*
X017946Y003410D01*
X017946Y003333D02*
X018126Y003333D01*
X018126Y003256D02*
X017946Y003256D01*
X017946Y003179D02*
X018131Y003179D01*
X018163Y003101D02*
X017946Y003101D01*
X017946Y003024D02*
X018204Y003024D01*
X018281Y002947D02*
X017946Y002947D01*
X017907Y002869D02*
X018433Y002869D01*
X018902Y003488D02*
X020518Y003488D01*
X020480Y003410D02*
X020595Y003410D01*
X020441Y003565D02*
X018837Y003565D01*
X018830Y003642D02*
X020363Y003642D01*
X020795Y004029D02*
X021696Y004029D01*
X021641Y003951D02*
X020873Y003951D01*
X020950Y003874D02*
X021641Y003874D01*
X021641Y003797D02*
X021027Y003797D01*
X021104Y003720D02*
X021641Y003720D01*
X021641Y003642D02*
X021182Y003642D01*
X021259Y003565D02*
X021641Y003565D01*
X021641Y003488D02*
X021336Y003488D01*
X021414Y003410D02*
X021641Y003410D01*
X021641Y003333D02*
X021491Y003333D01*
X021568Y003256D02*
X021641Y003256D01*
X021773Y004106D02*
X020718Y004106D01*
X020641Y004183D02*
X021851Y004183D01*
X021928Y004261D02*
X020505Y004261D01*
X020492Y004647D02*
X020390Y004647D01*
X020776Y004974D02*
X020941Y004974D01*
X020941Y005974D02*
X020776Y005974D01*
X020106Y005974D02*
X019741Y006339D01*
X019741Y006674D01*
X020776Y006974D02*
X020941Y006974D01*
X020941Y007974D02*
X020776Y007974D01*
X020776Y008974D02*
X020941Y008974D01*
X020941Y009974D02*
X020776Y009974D01*
X020106Y009974D02*
X019741Y010339D01*
X019741Y010774D01*
X019041Y011474D01*
X018600Y011062D02*
X018396Y011062D01*
X018329Y011128D02*
X018180Y011128D01*
X018180Y010713D01*
X018102Y010713D01*
X018102Y011128D01*
X017953Y011128D01*
X017687Y010862D01*
X017687Y010713D01*
X018102Y010713D01*
X018102Y010634D01*
X018180Y010634D01*
X018180Y010219D01*
X018329Y010219D01*
X018595Y010485D01*
X018595Y010634D01*
X018181Y010634D01*
X018181Y010713D01*
X018595Y010713D01*
X018595Y010862D01*
X018329Y011128D01*
X018462Y011200D02*
X019162Y010500D01*
X019162Y010393D01*
X019142Y010405D01*
X019106Y010414D01*
X018930Y010414D01*
X018930Y010098D01*
X018852Y010098D01*
X018852Y010414D01*
X018676Y010414D01*
X018640Y010405D01*
X018609Y010386D01*
X018583Y010360D01*
X018564Y010329D01*
X018555Y010293D01*
X018555Y010098D01*
X018852Y010098D01*
X018852Y010019D01*
X018555Y010019D01*
X018555Y009823D01*
X018564Y009788D01*
X018583Y009756D01*
X018609Y009730D01*
X018617Y009725D01*
X018555Y009663D01*
X018555Y009519D01*
X018538Y009503D01*
X018526Y009531D01*
X018398Y009659D01*
X018231Y009728D01*
X018051Y009728D01*
X017884Y009659D01*
X017756Y009531D01*
X017687Y009364D01*
X017687Y009183D01*
X017756Y009016D01*
X017820Y008952D01*
X016695Y008952D01*
X016726Y008983D01*
X016777Y009107D01*
X016777Y009241D01*
X016772Y009252D01*
X017320Y009800D01*
X017320Y009948D01*
X017320Y010600D01*
X018462Y011742D01*
X018462Y011348D01*
X018462Y011200D01*
X018462Y011216D02*
X017936Y011216D01*
X017859Y011139D02*
X018523Y011139D01*
X018473Y010984D02*
X018678Y010984D01*
X018755Y010907D02*
X018550Y010907D01*
X018595Y010830D02*
X018832Y010830D01*
X018910Y010752D02*
X018595Y010752D01*
X018595Y010598D02*
X019064Y010598D01*
X018987Y010675D02*
X018181Y010675D01*
X018180Y010598D02*
X018102Y010598D01*
X018102Y010634D02*
X018102Y010219D01*
X017953Y010219D01*
X017687Y010485D01*
X017687Y010634D01*
X018102Y010634D01*
X018102Y010675D02*
X017395Y010675D01*
X017320Y010598D02*
X017687Y010598D01*
X017687Y010521D02*
X017320Y010521D01*
X017320Y010443D02*
X017729Y010443D01*
X017806Y010366D02*
X017320Y010366D01*
X017320Y010289D02*
X017884Y010289D01*
X018102Y010289D02*
X018180Y010289D01*
X018180Y010366D02*
X018102Y010366D01*
X018102Y010443D02*
X018180Y010443D01*
X018180Y010521D02*
X018102Y010521D01*
X018102Y010752D02*
X018180Y010752D01*
X018180Y010830D02*
X018102Y010830D01*
X018102Y010907D02*
X018180Y010907D01*
X018180Y010984D02*
X018102Y010984D01*
X018102Y011062D02*
X018180Y011062D01*
X018014Y011293D02*
X018462Y011293D01*
X018462Y011371D02*
X018091Y011371D01*
X018168Y011448D02*
X018462Y011448D01*
X018462Y011525D02*
X018245Y011525D01*
X018323Y011603D02*
X018462Y011603D01*
X018462Y011680D02*
X018400Y011680D01*
X018341Y011874D02*
X017141Y010674D01*
X017141Y009874D01*
X016441Y009174D01*
X016755Y009052D02*
X017741Y009052D01*
X017709Y009129D02*
X016777Y009129D01*
X016777Y009207D02*
X017687Y009207D01*
X017687Y009284D02*
X016804Y009284D01*
X016881Y009361D02*
X017687Y009361D01*
X017718Y009439D02*
X016959Y009439D01*
X017036Y009516D02*
X017750Y009516D01*
X017818Y009593D02*
X017113Y009593D01*
X017191Y009670D02*
X017912Y009670D01*
X018371Y009670D02*
X018562Y009670D01*
X018555Y009593D02*
X018464Y009593D01*
X018533Y009516D02*
X018551Y009516D01*
X018591Y009748D02*
X017268Y009748D01*
X017320Y009825D02*
X018555Y009825D01*
X018555Y009902D02*
X017320Y009902D01*
X017320Y009980D02*
X018555Y009980D01*
X018555Y010134D02*
X017320Y010134D01*
X017320Y010057D02*
X018852Y010057D01*
X018852Y010134D02*
X018930Y010134D01*
X018930Y010211D02*
X018852Y010211D01*
X018852Y010289D02*
X018930Y010289D01*
X018930Y010366D02*
X018852Y010366D01*
X018588Y010366D02*
X018476Y010366D01*
X018553Y010443D02*
X019162Y010443D01*
X019141Y010521D02*
X018595Y010521D01*
X018555Y010289D02*
X018399Y010289D01*
X018555Y010211D02*
X017320Y010211D01*
X016941Y009974D02*
X016941Y010774D01*
X018141Y011974D01*
X018141Y013574D01*
X017616Y014099D01*
X016192Y014099D01*
X016192Y014296D02*
X017719Y014296D01*
X018341Y013674D01*
X018341Y011874D01*
X017962Y012048D02*
X016867Y010952D01*
X016762Y010848D01*
X016762Y010048D01*
X016467Y009752D01*
X016415Y009752D01*
X016267Y009752D01*
X016020Y009505D01*
X016008Y009510D01*
X015874Y009510D01*
X015751Y009459D01*
X015656Y009364D01*
X015605Y009241D01*
X015605Y009107D01*
X015656Y008983D01*
X015687Y008952D01*
X015515Y008952D01*
X015288Y009179D01*
X015288Y012247D01*
X015427Y012247D01*
X015624Y012247D01*
X015706Y012329D01*
X015706Y012444D01*
X016887Y012444D01*
X016921Y012360D01*
X016958Y012324D01*
X016921Y012287D01*
X016864Y012149D01*
X016864Y011999D01*
X016921Y011860D01*
X017027Y011754D01*
X017166Y011697D01*
X017316Y011697D01*
X017455Y011754D01*
X017561Y011860D01*
X017618Y011999D01*
X017618Y012149D01*
X017561Y012287D01*
X017524Y012324D01*
X017561Y012360D01*
X017618Y012499D01*
X017618Y012649D01*
X017561Y012787D01*
X017524Y012824D01*
X017534Y012833D01*
X017575Y012895D01*
X017604Y012964D01*
X017618Y013037D01*
X017618Y013044D01*
X017271Y013044D01*
X017271Y013103D01*
X017618Y013103D01*
X017618Y013111D01*
X017604Y013184D01*
X017575Y013252D01*
X017534Y013314D01*
X017524Y013324D01*
X017561Y013360D01*
X017618Y013499D01*
X017618Y013649D01*
X017561Y013787D01*
X017455Y013893D01*
X017390Y013920D01*
X017542Y013920D01*
X017962Y013500D01*
X017962Y012048D01*
X017962Y012066D02*
X017618Y012066D01*
X017614Y011989D02*
X017904Y011989D01*
X017826Y011912D02*
X017582Y011912D01*
X017535Y011834D02*
X017749Y011834D01*
X017672Y011757D02*
X017458Y011757D01*
X017594Y011680D02*
X015288Y011680D01*
X015288Y011757D02*
X017024Y011757D01*
X016947Y011834D02*
X015288Y011834D01*
X015288Y011912D02*
X016900Y011912D01*
X016868Y011989D02*
X015288Y011989D01*
X015288Y012066D02*
X016864Y012066D01*
X016864Y012144D02*
X015288Y012144D01*
X015288Y012221D02*
X016894Y012221D01*
X016932Y012298D02*
X015675Y012298D01*
X015706Y012375D02*
X016915Y012375D01*
X017192Y012623D02*
X017241Y012574D01*
X017192Y012623D02*
X015503Y012623D01*
X015306Y012623D02*
X015306Y013008D01*
X015241Y013074D01*
X014141Y013074D01*
X014125Y013058D01*
X014125Y012623D01*
X013947Y012998D02*
X013852Y012998D01*
X013656Y012998D01*
X013459Y012998D01*
X013262Y012998D01*
X013065Y012998D01*
X012868Y012998D01*
X012671Y012998D01*
X012474Y012998D01*
X012278Y012998D01*
X012139Y012998D01*
X012139Y013381D01*
X012139Y013529D01*
X011820Y013848D01*
X011820Y014800D01*
X012236Y015216D01*
X012205Y015141D01*
X012205Y015010D01*
X012174Y015010D01*
X012051Y014959D01*
X011956Y014864D01*
X011905Y014741D01*
X011905Y014607D01*
X011956Y014483D01*
X012051Y014389D01*
X012174Y014337D01*
X012262Y014337D01*
X012286Y014314D01*
X012434Y014314D01*
X015817Y014314D01*
X015817Y014220D01*
X015817Y014023D01*
X015817Y013826D01*
X015817Y013590D01*
X015817Y013509D01*
X015893Y013509D01*
X015893Y013508D01*
X015893Y013508D01*
X015817Y013508D01*
X015817Y013490D01*
X015657Y013490D01*
X015626Y013564D01*
X015532Y013659D01*
X015408Y013710D01*
X015274Y013710D01*
X015151Y013659D01*
X015056Y013564D01*
X015005Y013441D01*
X015005Y013307D01*
X015027Y013252D01*
X014067Y013252D01*
X013962Y013148D01*
X013947Y013132D01*
X013947Y012998D01*
X013947Y013071D02*
X012139Y013071D01*
X012139Y013148D02*
X013963Y013148D01*
X014040Y013225D02*
X012139Y013225D01*
X012139Y013303D02*
X015007Y013303D01*
X015005Y013380D02*
X012139Y013380D01*
X012139Y013457D02*
X015012Y013457D01*
X015044Y013535D02*
X012133Y013535D01*
X012056Y013612D02*
X015104Y013612D01*
X015224Y013689D02*
X011978Y013689D01*
X011901Y013766D02*
X015817Y013766D01*
X015817Y013689D02*
X015458Y013689D01*
X015578Y013612D02*
X015817Y013612D01*
X015817Y013535D02*
X015638Y013535D01*
X015781Y013504D02*
X016571Y013504D01*
X016568Y013508D02*
X016492Y013508D01*
X016492Y013508D01*
X016492Y013509D01*
X016568Y013509D01*
X016568Y013590D01*
X016568Y013723D01*
X016839Y013723D01*
X016878Y013684D01*
X016864Y013649D01*
X016864Y013499D01*
X016921Y013360D01*
X016958Y013324D01*
X016948Y013314D01*
X016907Y013252D01*
X016878Y013184D01*
X016864Y013111D01*
X016864Y013103D01*
X017211Y013103D01*
X017211Y013044D01*
X016864Y013044D01*
X016864Y013037D01*
X016878Y012964D01*
X016907Y012895D01*
X016948Y012833D01*
X016958Y012824D01*
X016935Y012801D01*
X015706Y012801D01*
X015706Y012916D01*
X016898Y012916D01*
X016872Y012994D02*
X015628Y012994D01*
X015624Y012998D02*
X015485Y012998D01*
X015485Y013069D01*
X015532Y013089D01*
X015576Y013133D01*
X015875Y013133D01*
X015898Y013109D01*
X016486Y013109D01*
X016568Y013191D01*
X016568Y013427D01*
X016568Y013508D01*
X016568Y013535D02*
X016864Y013535D01*
X016864Y013612D02*
X016568Y013612D01*
X016568Y013689D02*
X016873Y013689D01*
X016913Y013902D02*
X017241Y013574D01*
X017504Y013844D02*
X017618Y013844D01*
X017569Y013766D02*
X017696Y013766D01*
X017773Y013689D02*
X017601Y013689D01*
X017618Y013612D02*
X017850Y013612D01*
X017927Y013535D02*
X017618Y013535D01*
X017601Y013457D02*
X017962Y013457D01*
X017962Y013380D02*
X017569Y013380D01*
X017542Y013303D02*
X017962Y013303D01*
X017962Y013225D02*
X017586Y013225D01*
X017611Y013148D02*
X017962Y013148D01*
X017962Y013071D02*
X017271Y013071D01*
X017211Y013071D02*
X015489Y013071D01*
X015624Y012998D02*
X015706Y012916D01*
X015706Y012839D02*
X016944Y012839D01*
X016871Y013148D02*
X016525Y013148D01*
X016568Y013225D02*
X016896Y013225D01*
X016941Y013303D02*
X016568Y013303D01*
X016568Y013380D02*
X016913Y013380D01*
X016881Y013457D02*
X016568Y013457D01*
X016568Y013427D02*
X016568Y013427D01*
X016192Y013311D02*
X015403Y013311D01*
X015341Y013374D01*
X015817Y013844D02*
X011824Y013844D01*
X011820Y013921D02*
X015817Y013921D01*
X015817Y013998D02*
X011820Y013998D01*
X011820Y014076D02*
X015817Y014076D01*
X015817Y014153D02*
X011820Y014153D01*
X011820Y014230D02*
X015817Y014230D01*
X015817Y014307D02*
X011820Y014307D01*
X011820Y014385D02*
X012060Y014385D01*
X011977Y014462D02*
X011820Y014462D01*
X011820Y014539D02*
X011933Y014539D01*
X011905Y014617D02*
X011820Y014617D01*
X011820Y014694D02*
X011905Y014694D01*
X011918Y014771D02*
X011820Y014771D01*
X011869Y014848D02*
X011950Y014848D01*
X011946Y014926D02*
X012018Y014926D01*
X012023Y015003D02*
X012158Y015003D01*
X012205Y015080D02*
X012100Y015080D01*
X012178Y015158D02*
X012212Y015158D01*
X012541Y015074D02*
X012725Y014889D01*
X012725Y014689D01*
X016192Y014689D01*
X016192Y014493D02*
X012360Y014493D01*
X012360Y014555D01*
X012241Y014674D01*
X011641Y014874D02*
X011641Y013774D01*
X011960Y013455D01*
X011960Y012623D01*
X012157Y012623D02*
X012157Y006089D01*
X011741Y005674D01*
X011741Y004874D01*
X012141Y004474D01*
X012141Y002808D01*
X012497Y002792D02*
X012585Y002792D01*
X012585Y002869D02*
X012497Y002869D01*
X012497Y002947D02*
X012585Y002947D01*
X012585Y003024D02*
X012497Y003024D01*
X012459Y003101D02*
X012624Y003101D01*
X012320Y003179D02*
X013336Y003179D01*
X013336Y003256D02*
X012320Y003256D01*
X012320Y003333D02*
X013336Y003333D01*
X013336Y003410D02*
X012320Y003410D01*
X012320Y003488D02*
X013336Y003488D01*
X013336Y003565D02*
X012320Y003565D01*
X012320Y003642D02*
X013336Y003642D01*
X013336Y003720D02*
X012320Y003720D01*
X012320Y003797D02*
X013336Y003797D01*
X013336Y003874D02*
X012320Y003874D01*
X012320Y003951D02*
X013336Y003951D01*
X013357Y004029D02*
X012320Y004029D01*
X012366Y004106D02*
X012916Y004106D01*
X012838Y004183D02*
X012444Y004183D01*
X012521Y004261D02*
X012761Y004261D01*
X012722Y004338D02*
X012560Y004338D01*
X012560Y004415D02*
X012722Y004415D01*
X012722Y004492D02*
X012560Y004492D01*
X012560Y004570D02*
X012722Y004570D01*
X012722Y004647D02*
X012967Y004893D01*
X013315Y004893D01*
X013462Y004745D01*
X013462Y005202D01*
X013315Y005054D01*
X012967Y005054D01*
X012722Y005300D01*
X012722Y005647D01*
X012967Y005893D01*
X013169Y005893D01*
X012871Y006191D01*
X012826Y006083D01*
X012732Y005989D01*
X012608Y005937D01*
X012474Y005937D01*
X012351Y005989D01*
X012330Y006010D01*
X012213Y005893D01*
X012315Y005893D01*
X012560Y005647D01*
X012560Y005300D01*
X012315Y005054D01*
X011967Y005054D01*
X011920Y005102D01*
X011920Y004948D01*
X011974Y004893D01*
X012315Y004893D01*
X012560Y004647D01*
X012484Y004724D02*
X012799Y004724D01*
X012876Y004802D02*
X012406Y004802D01*
X012329Y004879D02*
X012953Y004879D01*
X012911Y005111D02*
X012371Y005111D01*
X012448Y005188D02*
X012834Y005188D01*
X012756Y005265D02*
X012526Y005265D01*
X012560Y005343D02*
X012722Y005343D01*
X012722Y005420D02*
X012560Y005420D01*
X012560Y005497D02*
X012722Y005497D01*
X012722Y005574D02*
X012560Y005574D01*
X012556Y005652D02*
X012726Y005652D01*
X012803Y005729D02*
X012479Y005729D01*
X012402Y005806D02*
X012881Y005806D01*
X012958Y005884D02*
X012324Y005884D01*
X012281Y005961D02*
X012418Y005961D01*
X012664Y005961D02*
X013101Y005961D01*
X013024Y006038D02*
X012781Y006038D01*
X012839Y006115D02*
X012947Y006115D01*
X012541Y006274D02*
X012354Y006461D01*
X012354Y012623D01*
X012551Y012623D02*
X012551Y006983D01*
X012541Y006974D01*
X012541Y006774D01*
X013641Y005674D01*
X013641Y004274D01*
X013841Y004074D01*
X013556Y004106D02*
X013366Y004106D01*
X013444Y004183D02*
X013479Y004183D01*
X013462Y004802D02*
X013406Y004802D01*
X013462Y004879D02*
X013329Y004879D01*
X013462Y004956D02*
X011920Y004956D01*
X011920Y005033D02*
X013462Y005033D01*
X013462Y005111D02*
X013371Y005111D01*
X013448Y005188D02*
X013462Y005188D01*
X014141Y005474D02*
X012747Y006867D01*
X012747Y012623D01*
X011763Y012623D02*
X011763Y013352D01*
X011441Y013674D01*
X011441Y014974D01*
X013141Y016674D01*
X013241Y016574D01*
X013577Y017012D02*
X015817Y017012D01*
X015817Y017090D02*
X015633Y017090D01*
X015710Y017167D02*
X015817Y017167D01*
X015817Y017244D02*
X015751Y017244D01*
X015777Y017321D02*
X015817Y017321D01*
X015817Y017399D02*
X015777Y017399D01*
X015763Y017476D02*
X015817Y017476D01*
X015817Y017553D02*
X015731Y017553D01*
X015673Y017631D02*
X015817Y017631D01*
X015817Y017708D02*
X015736Y017708D01*
X015768Y017785D02*
X015817Y017785D01*
X015817Y017862D02*
X015777Y017862D01*
X015777Y017940D02*
X015817Y017940D01*
X015817Y018017D02*
X015746Y018017D01*
X015696Y018094D02*
X015817Y018094D01*
X015832Y018172D02*
X015682Y018172D01*
X015503Y017936D02*
X015441Y017874D01*
X015503Y017936D02*
X015503Y018725D01*
X015307Y018403D02*
X015306Y018403D01*
X015341Y017474D02*
X015441Y017374D01*
X015341Y017474D02*
X013141Y017474D01*
X012841Y017174D01*
X012841Y016974D01*
X011738Y015871D01*
X010090Y015871D01*
X010090Y016067D02*
X009440Y016074D01*
X008841Y016674D01*
X006041Y016674D01*
X005641Y016274D01*
X005641Y016039D01*
X005576Y015974D01*
X005912Y016008D02*
X007062Y016008D01*
X007062Y016085D02*
X005912Y016085D01*
X005912Y016162D02*
X007062Y016162D01*
X007062Y016240D02*
X005912Y016240D01*
X005912Y016248D02*
X005890Y016270D01*
X006115Y016495D01*
X007062Y016495D01*
X007062Y016400D01*
X007062Y014148D01*
X007062Y014052D01*
X006512Y014052D01*
X006512Y014248D01*
X006430Y014330D01*
X005921Y014330D01*
X005841Y014249D01*
X005761Y014330D01*
X005267Y014330D01*
X005224Y014373D01*
X004540Y014373D01*
X004641Y014474D01*
X004641Y014754D01*
X005950Y014754D01*
X006132Y014754D01*
X006415Y015037D01*
X006508Y015037D01*
X006632Y015089D01*
X006726Y015183D01*
X006777Y015307D01*
X006777Y015441D01*
X006726Y015564D01*
X006632Y015659D01*
X006508Y015710D01*
X006374Y015710D01*
X006251Y015659D01*
X006156Y015564D01*
X006105Y015441D01*
X006105Y015348D01*
X005950Y015193D01*
X004641Y015193D01*
X004641Y015629D01*
X004652Y015618D01*
X005161Y015618D01*
X005241Y015698D01*
X005321Y015618D01*
X005830Y015618D01*
X005912Y015699D01*
X005912Y016248D01*
X005937Y016317D02*
X007062Y016317D01*
X007062Y016394D02*
X006014Y016394D01*
X006091Y016471D02*
X007062Y016471D01*
X007062Y015930D02*
X005912Y015930D01*
X005912Y015853D02*
X007062Y015853D01*
X007062Y015776D02*
X005912Y015776D01*
X005911Y015699D02*
X006347Y015699D01*
X006213Y015621D02*
X005834Y015621D01*
X006116Y015467D02*
X004641Y015467D01*
X004641Y015544D02*
X006148Y015544D01*
X006105Y015389D02*
X004641Y015389D01*
X004641Y015312D02*
X006069Y015312D01*
X005992Y015235D02*
X004641Y015235D01*
X004641Y015621D02*
X004648Y015621D01*
X004906Y015974D02*
X004141Y015974D01*
X004141Y016974D02*
X004906Y016974D01*
X005576Y016974D02*
X005676Y016874D01*
X008941Y016874D01*
X009543Y016271D01*
X010090Y016264D01*
X010090Y016461D02*
X009647Y016468D01*
X009041Y017074D01*
X006941Y017074D01*
X006041Y017974D01*
X005576Y017974D01*
X006087Y018481D02*
X007681Y018481D01*
X007604Y018558D02*
X006009Y018558D01*
X005932Y018635D02*
X007527Y018635D01*
X007449Y018713D02*
X005912Y018713D01*
X005912Y018699D02*
X005912Y019248D01*
X005830Y019330D01*
X005321Y019330D01*
X005241Y019249D01*
X005161Y019330D01*
X004652Y019330D01*
X004641Y019319D01*
X004641Y019429D01*
X004652Y019418D01*
X005161Y019418D01*
X005241Y019498D01*
X005321Y019418D01*
X005830Y019418D01*
X005912Y019499D01*
X005912Y019595D01*
X006567Y019595D01*
X008699Y017463D01*
X008847Y017463D01*
X009714Y017463D01*
X009714Y017325D01*
X009714Y017128D01*
X009714Y017052D01*
X009790Y017052D01*
X009791Y017051D01*
X009714Y017051D01*
X009714Y016970D01*
X009719Y016953D01*
X009718Y016950D01*
X009320Y017348D01*
X009215Y017452D01*
X007115Y017452D01*
X005890Y018677D01*
X005912Y018699D01*
X005912Y018790D02*
X007372Y018790D01*
X007295Y018867D02*
X005912Y018867D01*
X005912Y018944D02*
X007218Y018944D01*
X007140Y019022D02*
X005912Y019022D01*
X005912Y019099D02*
X007063Y019099D01*
X006986Y019176D02*
X005912Y019176D01*
X005906Y019254D02*
X006908Y019254D01*
X006831Y019331D02*
X004641Y019331D01*
X004641Y019408D02*
X006754Y019408D01*
X006677Y019485D02*
X005898Y019485D01*
X005912Y019563D02*
X006599Y019563D01*
X006641Y019774D02*
X005576Y019774D01*
X005254Y019485D02*
X005229Y019485D01*
X005237Y019254D02*
X005245Y019254D01*
X004906Y018974D02*
X004141Y018974D01*
X004341Y019774D02*
X004141Y019974D01*
X004341Y019774D02*
X004906Y019774D01*
X004906Y020574D02*
X004541Y020574D01*
X004141Y020974D01*
X004741Y021374D02*
X004141Y021974D01*
X004741Y021374D02*
X004906Y021374D01*
X005576Y021374D02*
X005641Y021374D01*
X008979Y018036D01*
X010090Y018036D01*
X010090Y017839D02*
X008876Y017839D01*
X006141Y020574D01*
X005576Y020574D01*
X006041Y021674D02*
X005807Y021966D01*
X005600Y022174D01*
X005576Y022174D01*
X005641Y022174D02*
X005807Y021966D01*
X006341Y021974D02*
X006341Y022574D01*
X005941Y022974D01*
X005241Y022974D01*
X005220Y023581D02*
X005618Y023581D01*
X005754Y023528D02*
X005754Y023528D01*
X005421Y023659D02*
X005209Y023659D01*
X005248Y023736D02*
X005131Y023736D01*
X005151Y023813D02*
X005054Y023813D01*
X005054Y023891D02*
X004977Y023891D01*
X004957Y023968D02*
X002700Y023968D01*
X002622Y024045D02*
X004863Y024045D01*
X004866Y024041D02*
X004866Y024041D01*
X004810Y024122D02*
X002545Y024122D01*
X002468Y024200D02*
X004758Y024200D01*
X004705Y024277D02*
X002391Y024277D01*
X002313Y024354D02*
X004652Y024354D01*
X004599Y024432D02*
X002236Y024432D01*
X002159Y024509D02*
X004562Y024509D01*
X004574Y024469D02*
X004574Y024469D01*
X004538Y024586D02*
X002848Y024586D01*
X002871Y024598D02*
X002927Y024639D01*
X002976Y024687D01*
X003017Y024743D01*
X003048Y024805D01*
X003070Y024871D01*
X003080Y024934D01*
X002681Y024934D01*
X002681Y025013D01*
X003080Y025013D01*
X003070Y025077D01*
X003048Y025142D01*
X003017Y025204D01*
X002976Y025260D01*
X002927Y025309D01*
X002871Y025349D01*
X002810Y025381D01*
X002744Y025402D01*
X002680Y025412D01*
X002680Y025013D01*
X002602Y025013D01*
X002602Y025412D01*
X002538Y025402D01*
X002472Y025381D01*
X002411Y025349D01*
X002355Y025309D01*
X002306Y025260D01*
X002265Y025204D01*
X002234Y025142D01*
X002213Y025077D01*
X002202Y025013D01*
X002602Y025013D01*
X002602Y024934D01*
X002680Y024934D01*
X002680Y024535D01*
X002744Y024545D01*
X002810Y024567D01*
X002871Y024598D01*
X002952Y024663D02*
X004514Y024663D01*
X004490Y024741D02*
X003015Y024741D01*
X003052Y024818D02*
X004466Y024818D01*
X004442Y024895D02*
X003073Y024895D01*
X003074Y025050D02*
X004421Y025050D01*
X004421Y025127D02*
X003053Y025127D01*
X003017Y025204D02*
X004421Y025204D01*
X004421Y025282D02*
X002954Y025282D01*
X002853Y025359D02*
X004421Y025359D01*
X004421Y025436D02*
X001820Y025436D01*
X001820Y025359D02*
X002430Y025359D01*
X002328Y025282D02*
X001820Y025282D01*
X001820Y025204D02*
X002266Y025204D01*
X002229Y025127D02*
X001820Y025127D01*
X001820Y025050D02*
X002208Y025050D01*
X002202Y024934D02*
X002213Y024871D01*
X002234Y024805D01*
X002265Y024743D01*
X002306Y024687D01*
X002355Y024639D01*
X002411Y024598D01*
X002472Y024567D01*
X002538Y024545D01*
X002602Y024535D01*
X002602Y024934D01*
X002202Y024934D01*
X002209Y024895D02*
X001820Y024895D01*
X001820Y024973D02*
X002602Y024973D01*
X002602Y025050D02*
X002680Y025050D01*
X002680Y025127D02*
X002602Y025127D01*
X002602Y025204D02*
X002680Y025204D01*
X002680Y025282D02*
X002602Y025282D01*
X002602Y025359D02*
X002680Y025359D01*
X002865Y025591D02*
X004454Y025591D01*
X004478Y025668D02*
X002957Y025668D01*
X003022Y025745D02*
X004502Y025745D01*
X004526Y025823D02*
X003054Y025823D01*
X003080Y025900D02*
X004550Y025900D01*
X004574Y025977D02*
X003080Y025977D01*
X003080Y026055D02*
X004626Y026055D01*
X004574Y025978D02*
X004574Y025978D01*
X004679Y026132D02*
X003053Y026132D01*
X003130Y026209D02*
X004731Y026209D01*
X004784Y026286D02*
X003207Y026286D01*
X003285Y026364D02*
X004837Y026364D01*
X004141Y026982D02*
X003080Y026982D01*
X003080Y027059D02*
X004141Y027059D01*
X004141Y027136D02*
X003049Y027136D01*
X003017Y027214D02*
X004141Y027214D01*
X004141Y027291D02*
X002945Y027291D01*
X002836Y027368D02*
X004141Y027368D01*
X004141Y027446D02*
X000380Y027446D01*
X000380Y027523D02*
X004141Y027523D01*
X004141Y027600D02*
X003060Y027600D01*
X003053Y027588D02*
X003071Y027620D01*
X003080Y027655D01*
X003080Y027934D01*
X002681Y027934D01*
X002681Y028013D01*
X003080Y028013D01*
X003080Y028292D01*
X003071Y028327D01*
X003053Y028359D01*
X003027Y028385D01*
X002995Y028404D01*
X002959Y028413D01*
X002680Y028413D01*
X002680Y028013D01*
X002602Y028013D01*
X002602Y028413D01*
X002323Y028413D01*
X002287Y028404D01*
X002256Y028385D01*
X002230Y028359D01*
X002211Y028327D01*
X002202Y028292D01*
X002202Y028013D01*
X002602Y028013D01*
X002602Y027934D01*
X002680Y027934D01*
X002680Y027534D01*
X002959Y027534D01*
X002995Y027544D01*
X003027Y027562D01*
X003053Y027588D01*
X003080Y027677D02*
X004141Y027677D01*
X004141Y027755D02*
X003080Y027755D01*
X003080Y027832D02*
X004141Y027832D01*
X004141Y027909D02*
X003080Y027909D01*
X003080Y028064D02*
X004141Y028064D01*
X004141Y028141D02*
X003080Y028141D01*
X003080Y028218D02*
X004141Y028218D01*
X004141Y028296D02*
X003079Y028296D01*
X003039Y028373D02*
X004141Y028373D01*
X004141Y028450D02*
X000380Y028450D01*
X000380Y028373D02*
X000957Y028373D01*
X000972Y028381D02*
X000911Y028349D01*
X000855Y028309D01*
X000806Y028260D01*
X000765Y028204D01*
X000734Y028142D01*
X000713Y028077D01*
X000702Y028013D01*
X001102Y028013D01*
X001102Y028412D01*
X001038Y028402D01*
X000972Y028381D01*
X001102Y028373D02*
X001180Y028373D01*
X001180Y028412D02*
X001244Y028402D01*
X001310Y028381D01*
X001371Y028349D01*
X001427Y028309D01*
X001476Y028260D01*
X001517Y028204D01*
X001548Y028142D01*
X001570Y028077D01*
X001580Y028013D01*
X001181Y028013D01*
X001181Y027934D01*
X001580Y027934D01*
X001570Y027871D01*
X001548Y027805D01*
X001517Y027743D01*
X001476Y027687D01*
X001427Y027639D01*
X001371Y027598D01*
X001310Y027567D01*
X001244Y027545D01*
X001180Y027535D01*
X001180Y027934D01*
X001102Y027934D01*
X001102Y027535D01*
X001038Y027545D01*
X000972Y027567D01*
X000911Y027598D01*
X000855Y027639D01*
X000806Y027687D01*
X000765Y027743D01*
X000734Y027805D01*
X000713Y027871D01*
X000702Y027934D01*
X001102Y027934D01*
X001102Y028013D01*
X001180Y028013D01*
X001180Y028412D01*
X001180Y028296D02*
X001102Y028296D01*
X001102Y028218D02*
X001180Y028218D01*
X001180Y028141D02*
X001102Y028141D01*
X001102Y028064D02*
X001180Y028064D01*
X001181Y027987D02*
X002602Y027987D01*
X002602Y027934D02*
X002202Y027934D01*
X002202Y027655D01*
X002211Y027620D01*
X002230Y027588D01*
X002256Y027562D01*
X002287Y027544D01*
X002323Y027534D01*
X002602Y027534D01*
X002602Y027934D01*
X002602Y027909D02*
X002680Y027909D01*
X002680Y027832D02*
X002602Y027832D01*
X002602Y027755D02*
X002680Y027755D01*
X002680Y027677D02*
X002602Y027677D01*
X002602Y027600D02*
X002680Y027600D01*
X002446Y027368D02*
X001336Y027368D01*
X001390Y027346D02*
X001229Y027413D01*
X001054Y027413D01*
X000892Y027346D01*
X000769Y027223D01*
X000702Y027061D01*
X000702Y026886D01*
X000769Y026725D01*
X000892Y026601D01*
X001054Y026534D01*
X001229Y026534D01*
X001390Y026601D01*
X001514Y026725D01*
X001580Y026886D01*
X001580Y027061D01*
X001514Y027223D01*
X001390Y027346D01*
X001445Y027291D02*
X002337Y027291D01*
X002265Y027214D02*
X001517Y027214D01*
X001549Y027136D02*
X002233Y027136D01*
X002202Y027059D02*
X001580Y027059D01*
X001580Y026982D02*
X002202Y026982D01*
X002202Y026905D02*
X001580Y026905D01*
X001556Y026827D02*
X002226Y026827D01*
X002258Y026750D02*
X001524Y026750D01*
X001462Y026673D02*
X002321Y026673D01*
X002406Y026596D02*
X001376Y026596D01*
X001348Y026364D02*
X002435Y026364D01*
X002332Y026286D02*
X001450Y026286D01*
X001519Y026209D02*
X002263Y026209D01*
X002231Y026132D02*
X001551Y026132D01*
X001580Y026055D02*
X002202Y026055D01*
X002202Y025977D02*
X001580Y025977D01*
X001580Y025900D02*
X002202Y025900D01*
X002228Y025823D02*
X001554Y025823D01*
X001622Y025745D02*
X002260Y025745D01*
X002325Y025668D02*
X001699Y025668D01*
X001777Y025591D02*
X002417Y025591D01*
X002681Y024973D02*
X004421Y024973D01*
X004421Y024964D02*
X004421Y024964D01*
X004421Y025483D02*
X004421Y025483D01*
X004431Y025514D02*
X001820Y025514D01*
X001850Y024818D02*
X002230Y024818D01*
X002267Y024741D02*
X001927Y024741D01*
X002004Y024663D02*
X002330Y024663D01*
X002434Y024586D02*
X002081Y024586D01*
X002602Y024586D02*
X002680Y024586D01*
X002680Y024663D02*
X002602Y024663D01*
X002602Y024741D02*
X002680Y024741D01*
X002680Y024818D02*
X002602Y024818D01*
X002602Y024895D02*
X002680Y024895D01*
X002855Y026441D02*
X000380Y026441D01*
X000380Y026518D02*
X002932Y026518D01*
X002223Y027600D02*
X001374Y027600D01*
X001466Y027677D02*
X002202Y027677D01*
X002202Y027755D02*
X001523Y027755D01*
X001557Y027832D02*
X002202Y027832D01*
X002202Y027909D02*
X001576Y027909D01*
X001572Y028064D02*
X002202Y028064D01*
X002202Y028141D02*
X001549Y028141D01*
X001506Y028218D02*
X002202Y028218D01*
X002203Y028296D02*
X001440Y028296D01*
X001325Y028373D02*
X002243Y028373D01*
X002602Y028373D02*
X002680Y028373D01*
X002680Y028296D02*
X002602Y028296D01*
X002602Y028218D02*
X002680Y028218D01*
X002680Y028141D02*
X002602Y028141D01*
X002602Y028064D02*
X002680Y028064D01*
X002681Y027987D02*
X004141Y027987D01*
X004087Y028528D02*
X000380Y028528D01*
X000380Y028605D02*
X004010Y028605D01*
X003933Y028682D02*
X001795Y028682D01*
X001157Y028682D02*
X001125Y028682D01*
X000842Y028296D02*
X000380Y028296D01*
X000380Y028218D02*
X000776Y028218D01*
X000734Y028141D02*
X000380Y028141D01*
X000380Y028064D02*
X000711Y028064D01*
X000706Y027909D02*
X000380Y027909D01*
X000380Y027832D02*
X000725Y027832D01*
X000759Y027755D02*
X000380Y027755D01*
X000380Y027677D02*
X000816Y027677D01*
X000908Y027600D02*
X000380Y027600D01*
X000380Y027368D02*
X000946Y027368D01*
X000837Y027291D02*
X000380Y027291D01*
X000380Y027214D02*
X000765Y027214D01*
X000733Y027136D02*
X000380Y027136D01*
X000380Y027059D02*
X000702Y027059D01*
X000702Y026982D02*
X000380Y026982D01*
X000380Y026905D02*
X000702Y026905D01*
X000726Y026827D02*
X000380Y026827D01*
X000380Y026750D02*
X000758Y026750D01*
X000821Y026673D02*
X000380Y026673D01*
X000380Y026596D02*
X000906Y026596D01*
X000935Y026364D02*
X000380Y026364D01*
X001102Y027600D02*
X001180Y027600D01*
X001180Y027677D02*
X001102Y027677D01*
X001102Y027755D02*
X001180Y027755D01*
X001180Y027832D02*
X001102Y027832D01*
X001102Y027909D02*
X001180Y027909D01*
X001102Y027987D02*
X000380Y027987D01*
X000380Y028682D02*
X000487Y028682D01*
X000470Y028759D02*
X000380Y028759D01*
X000380Y028837D02*
X000470Y028837D01*
X000470Y028914D02*
X000380Y028914D01*
X002817Y028759D02*
X003855Y028759D01*
X003778Y028837D02*
X002894Y028837D01*
X002972Y028914D02*
X003701Y028914D01*
X007041Y026774D02*
X008891Y024924D01*
X008891Y023497D01*
X008391Y023497D02*
X008391Y025124D01*
X006941Y026574D01*
X007240Y026827D02*
X008241Y026827D01*
X008209Y026750D02*
X007317Y026750D01*
X007395Y026673D02*
X008205Y026673D01*
X008210Y026596D02*
X007472Y026596D01*
X007549Y026518D02*
X008242Y026518D01*
X008298Y026441D02*
X007627Y026441D01*
X007704Y026364D02*
X008411Y026364D01*
X008671Y026364D02*
X008870Y026364D01*
X008870Y026441D02*
X008784Y026441D01*
X009530Y026286D02*
X009559Y026286D01*
X009555Y026055D02*
X009536Y026055D01*
X009836Y026055D02*
X009915Y026055D01*
X009915Y025977D02*
X009836Y025977D01*
X009836Y025900D02*
X009915Y025900D01*
X009915Y025823D02*
X009836Y025823D01*
X009915Y025745D02*
X010470Y025745D01*
X010470Y025823D02*
X010212Y025823D01*
X010212Y025900D02*
X010470Y025900D01*
X010500Y025977D02*
X010212Y025977D01*
X010196Y026055D02*
X010484Y026055D01*
X010431Y026286D02*
X010193Y026286D01*
X010212Y026364D02*
X010431Y026364D01*
X010431Y026518D02*
X010212Y026518D01*
X010212Y026441D02*
X010728Y026441D01*
X010728Y026518D02*
X010806Y026518D01*
X010806Y026596D02*
X010728Y026596D01*
X010728Y026673D02*
X010806Y026673D01*
X010806Y026750D02*
X010728Y026750D01*
X010728Y026827D02*
X010806Y026827D01*
X010874Y026905D02*
X010153Y026905D01*
X010207Y026827D02*
X010484Y026827D01*
X010435Y026750D02*
X010212Y026750D01*
X010212Y026673D02*
X010431Y026673D01*
X010431Y026596D02*
X009915Y026596D01*
X009915Y026673D02*
X009836Y026673D01*
X009836Y026750D02*
X009915Y026750D01*
X009915Y026827D02*
X009836Y026827D01*
X009836Y026905D02*
X009915Y026905D01*
X009598Y026905D02*
X009486Y026905D01*
X009543Y026827D02*
X009545Y026827D01*
X009836Y026518D02*
X009915Y026518D01*
X009915Y026441D02*
X009836Y026441D01*
X009836Y026364D02*
X009915Y026364D01*
X009915Y026286D02*
X009836Y026286D01*
X009836Y025668D02*
X009915Y025668D01*
X009915Y025591D02*
X009836Y025591D01*
X009836Y025514D02*
X009915Y025514D01*
X009915Y025436D02*
X009836Y025436D01*
X009610Y025436D02*
X009607Y025436D01*
X009546Y025514D02*
X009543Y025514D01*
X009697Y024973D02*
X010862Y024973D01*
X010862Y024895D02*
X009697Y024895D01*
X009661Y024818D02*
X010862Y024818D01*
X010862Y024741D02*
X009650Y024741D01*
X009697Y024663D02*
X010862Y024663D01*
X010862Y024586D02*
X009697Y024586D01*
X009697Y024509D02*
X010862Y024509D01*
X010862Y024432D02*
X009697Y024432D01*
X009697Y024354D02*
X010862Y024354D01*
X010862Y024277D02*
X009697Y024277D01*
X009697Y024200D02*
X010862Y024200D01*
X010862Y024122D02*
X009635Y024122D01*
X009591Y024045D02*
X010862Y024045D01*
X010862Y023968D02*
X009649Y023968D01*
X009649Y023891D02*
X010465Y023891D01*
X010388Y023813D02*
X009649Y023813D01*
X009649Y023736D02*
X010310Y023736D01*
X010233Y023659D02*
X009649Y023659D01*
X009649Y023581D02*
X010222Y023581D01*
X010222Y023504D02*
X009649Y023504D01*
X009649Y023427D02*
X010222Y023427D01*
X010222Y023350D02*
X009649Y023350D01*
X009649Y023272D02*
X010249Y023272D01*
X010327Y023195D02*
X009649Y023195D01*
X009649Y023118D02*
X010404Y023118D01*
X010460Y022886D02*
X006282Y022886D01*
X006359Y022809D02*
X010383Y022809D01*
X010306Y022731D02*
X006436Y022731D01*
X006415Y022752D02*
X006415Y022752D01*
X006513Y022654D02*
X008146Y022654D01*
X008151Y022659D02*
X008056Y022564D01*
X008047Y022543D01*
X008032Y022559D01*
X007908Y022610D01*
X007774Y022610D01*
X007651Y022559D01*
X007556Y022464D01*
X007505Y022341D01*
X007505Y022207D01*
X007556Y022083D01*
X007651Y021989D01*
X007662Y021984D01*
X007662Y021970D01*
X007634Y021941D01*
X007634Y020959D01*
X007715Y020878D01*
X008067Y020878D01*
X008141Y020952D01*
X008215Y020878D01*
X008567Y020878D01*
X008647Y020957D01*
X008661Y020931D01*
X008687Y020905D01*
X008719Y020887D01*
X008755Y020878D01*
X008871Y020878D01*
X008871Y021430D01*
X008911Y021430D01*
X008911Y020878D01*
X009028Y020878D01*
X009063Y020887D01*
X009095Y020905D01*
X009121Y020931D01*
X009136Y020957D01*
X009215Y020878D01*
X009567Y020878D01*
X009649Y020959D01*
X009649Y021941D01*
X009567Y022022D01*
X009565Y022022D01*
X009626Y022083D01*
X009677Y022207D01*
X009677Y022341D01*
X009626Y022464D01*
X009532Y022559D01*
X009408Y022610D01*
X009274Y022610D01*
X009151Y022559D01*
X009056Y022464D01*
X009005Y022341D01*
X009005Y022207D01*
X009056Y022083D01*
X009151Y021989D01*
X009162Y021984D01*
X009162Y021970D01*
X009136Y021943D01*
X009121Y021969D01*
X009095Y021995D01*
X009063Y022013D01*
X009028Y022022D01*
X008911Y022022D01*
X008911Y021470D01*
X008871Y021470D01*
X008871Y022022D01*
X008755Y022022D01*
X008719Y022013D01*
X008687Y021995D01*
X008661Y021969D01*
X008647Y021943D01*
X008610Y021979D01*
X008610Y022168D01*
X008626Y022183D01*
X008677Y022307D01*
X008677Y022441D01*
X008626Y022564D01*
X008532Y022659D01*
X008408Y022710D01*
X008274Y022710D01*
X008151Y022659D01*
X008069Y022577D02*
X007988Y022577D01*
X007694Y022577D02*
X006520Y022577D01*
X006520Y022499D02*
X007591Y022499D01*
X007539Y022422D02*
X006520Y022422D01*
X006520Y022345D02*
X007507Y022345D01*
X007505Y022268D02*
X006520Y022268D01*
X006520Y022190D02*
X007512Y022190D01*
X007544Y022113D02*
X006520Y022113D01*
X006532Y022036D02*
X007604Y022036D01*
X007651Y021959D02*
X006609Y021959D01*
X006686Y021881D02*
X007634Y021881D01*
X007634Y021804D02*
X006764Y021804D01*
X006841Y021727D02*
X007634Y021727D01*
X007634Y021649D02*
X006918Y021649D01*
X006995Y021572D02*
X007634Y021572D01*
X007634Y021495D02*
X007073Y021495D01*
X007150Y021418D02*
X007634Y021418D01*
X007634Y021340D02*
X007227Y021340D01*
X007305Y021263D02*
X007634Y021263D01*
X007634Y021186D02*
X007382Y021186D01*
X007459Y021108D02*
X007634Y021108D01*
X007634Y021031D02*
X007536Y021031D01*
X007614Y020954D02*
X007639Y020954D01*
X007691Y020877D02*
X011685Y020877D01*
X011607Y020954D02*
X009643Y020954D01*
X009649Y021031D02*
X011530Y021031D01*
X011453Y021108D02*
X009649Y021108D01*
X009649Y021186D02*
X011375Y021186D01*
X011298Y021263D02*
X009649Y021263D01*
X009649Y021340D02*
X011221Y021340D01*
X011144Y021418D02*
X009649Y021418D01*
X009649Y021495D02*
X011066Y021495D01*
X010989Y021572D02*
X009649Y021572D01*
X009649Y021649D02*
X010912Y021649D01*
X010862Y021727D02*
X009649Y021727D01*
X009649Y021804D02*
X010862Y021804D01*
X010862Y021881D02*
X009649Y021881D01*
X009631Y021959D02*
X010862Y021959D01*
X010862Y022036D02*
X009579Y022036D01*
X009638Y022113D02*
X010409Y022113D01*
X010331Y022190D02*
X009670Y022190D01*
X009677Y022268D02*
X010254Y022268D01*
X010222Y022345D02*
X009676Y022345D01*
X009644Y022422D02*
X010222Y022422D01*
X010222Y022499D02*
X009591Y022499D01*
X009488Y022577D02*
X010222Y022577D01*
X010228Y022654D02*
X008536Y022654D01*
X008613Y022577D02*
X009194Y022577D01*
X009091Y022499D02*
X008653Y022499D01*
X008677Y022422D02*
X009039Y022422D01*
X009007Y022345D02*
X008677Y022345D01*
X008661Y022268D02*
X009005Y022268D01*
X009012Y022190D02*
X008629Y022190D01*
X008610Y022113D02*
X009044Y022113D01*
X009104Y022036D02*
X008610Y022036D01*
X008631Y021959D02*
X008656Y021959D01*
X008871Y021959D02*
X008911Y021959D01*
X008911Y021881D02*
X008871Y021881D01*
X008871Y021804D02*
X008911Y021804D01*
X008911Y021727D02*
X008871Y021727D01*
X008871Y021649D02*
X008911Y021649D01*
X008911Y021572D02*
X008871Y021572D01*
X008871Y021495D02*
X008911Y021495D01*
X008911Y021418D02*
X008871Y021418D01*
X008871Y021340D02*
X008911Y021340D01*
X008911Y021263D02*
X008871Y021263D01*
X008871Y021186D02*
X008911Y021186D01*
X008911Y021108D02*
X008871Y021108D01*
X008871Y021031D02*
X008911Y021031D01*
X008911Y020954D02*
X008871Y020954D01*
X008649Y020954D02*
X008643Y020954D01*
X009134Y020954D02*
X009139Y020954D01*
X009391Y021450D02*
X009341Y021500D01*
X009341Y022274D01*
X009151Y021959D02*
X009127Y021959D01*
X009105Y022963D02*
X009177Y022963D01*
X009605Y022963D02*
X010862Y022963D01*
X010862Y022886D02*
X010822Y022886D01*
X010862Y023040D02*
X009649Y023040D01*
X009391Y023497D02*
X009391Y024389D01*
X009341Y024439D01*
X008191Y024045D02*
X008091Y024045D01*
X007634Y023118D02*
X006050Y023118D01*
X006120Y023048D02*
X006120Y023048D01*
X006127Y023040D02*
X007634Y023040D01*
X007677Y022963D02*
X006204Y022963D01*
X006341Y021974D02*
X007641Y020674D01*
X011641Y020674D01*
X011960Y020355D01*
X011960Y019493D01*
X011960Y018725D01*
X012354Y019286D02*
X012354Y020761D01*
X012341Y020774D01*
X012157Y020658D02*
X012141Y020674D01*
X012157Y020658D02*
X012157Y019389D01*
X012551Y019183D02*
X012551Y021683D01*
X012941Y022074D01*
X013841Y022074D01*
X014041Y022274D01*
X014041Y025539D01*
X013840Y025427D02*
X013840Y025399D01*
X013862Y025377D01*
X013862Y023845D01*
X013815Y023893D01*
X013467Y023893D01*
X013222Y023647D01*
X013222Y023300D01*
X013467Y023054D01*
X013815Y023054D01*
X013862Y023102D01*
X013862Y022845D01*
X013815Y022893D01*
X013467Y022893D01*
X013222Y022647D01*
X013222Y022300D01*
X013269Y022252D01*
X013013Y022252D01*
X013060Y022300D01*
X013060Y022647D01*
X012815Y022893D01*
X012467Y022893D01*
X012222Y022647D01*
X012222Y022300D01*
X012467Y022054D01*
X012669Y022054D01*
X012372Y021757D01*
X012372Y021609D01*
X012372Y020997D01*
X011420Y021948D01*
X011420Y022101D01*
X011467Y022054D01*
X011815Y022054D01*
X012060Y022300D01*
X012060Y022647D01*
X011815Y022893D01*
X011467Y022893D01*
X011420Y022846D01*
X011420Y023101D01*
X011467Y023054D01*
X011815Y023054D01*
X012060Y023300D01*
X012060Y023647D01*
X011815Y023893D01*
X011467Y023893D01*
X011420Y023846D01*
X011420Y024599D01*
X011715Y024894D01*
X012101Y024894D01*
X012250Y024894D01*
X012674Y025318D01*
X013030Y025318D01*
X013112Y025399D01*
X013112Y025948D01*
X013034Y026026D01*
X013070Y026026D01*
X013146Y026102D01*
X013159Y026079D01*
X013185Y026054D01*
X013216Y026035D01*
X013252Y026026D01*
X013277Y026026D01*
X013256Y026020D01*
X013224Y026002D01*
X013198Y025976D01*
X013180Y025944D01*
X013170Y025909D01*
X013170Y025713D01*
X013467Y025713D01*
X013467Y025634D01*
X013546Y025634D01*
X013546Y025318D01*
X013722Y025318D01*
X013757Y025327D01*
X013789Y025346D01*
X013815Y025372D01*
X013833Y025403D01*
X013840Y025427D01*
X013862Y025359D02*
X013802Y025359D01*
X013862Y025282D02*
X012637Y025282D01*
X012560Y025204D02*
X013862Y025204D01*
X013862Y025127D02*
X012483Y025127D01*
X012406Y025050D02*
X013862Y025050D01*
X013862Y024973D02*
X012328Y024973D01*
X012251Y024895D02*
X013862Y024895D01*
X013862Y024818D02*
X011639Y024818D01*
X011562Y024741D02*
X013862Y024741D01*
X013862Y024663D02*
X011484Y024663D01*
X011420Y024586D02*
X013862Y024586D01*
X013862Y024509D02*
X011420Y024509D01*
X011420Y024432D02*
X013862Y024432D01*
X013862Y024354D02*
X011420Y024354D01*
X011420Y024277D02*
X013862Y024277D01*
X013862Y024200D02*
X011420Y024200D01*
X011420Y024122D02*
X013862Y024122D01*
X013862Y024045D02*
X011420Y024045D01*
X011420Y023968D02*
X013862Y023968D01*
X013862Y023891D02*
X013817Y023891D01*
X013465Y023891D02*
X012817Y023891D01*
X012815Y023893D02*
X012467Y023893D01*
X012222Y023647D01*
X012222Y023300D01*
X012467Y023054D01*
X012815Y023054D01*
X013060Y023300D01*
X013060Y023647D01*
X012815Y023893D01*
X012894Y023813D02*
X013388Y023813D01*
X013310Y023736D02*
X012972Y023736D01*
X013049Y023659D02*
X013233Y023659D01*
X013222Y023581D02*
X013060Y023581D01*
X013060Y023504D02*
X013222Y023504D01*
X013222Y023427D02*
X013060Y023427D01*
X013060Y023350D02*
X013222Y023350D01*
X013249Y023272D02*
X013033Y023272D01*
X012955Y023195D02*
X013327Y023195D01*
X013404Y023118D02*
X012878Y023118D01*
X012822Y022886D02*
X013460Y022886D01*
X013383Y022809D02*
X012899Y022809D01*
X012976Y022731D02*
X013306Y022731D01*
X013228Y022654D02*
X013054Y022654D01*
X013060Y022577D02*
X013222Y022577D01*
X013222Y022499D02*
X013060Y022499D01*
X013060Y022422D02*
X013222Y022422D01*
X013222Y022345D02*
X013060Y022345D01*
X013028Y022268D02*
X013254Y022268D01*
X013041Y021874D02*
X012747Y021580D01*
X012747Y019080D01*
X012944Y018725D02*
X012944Y021471D01*
X013141Y021674D01*
X014241Y021674D01*
X014341Y021774D01*
X013941Y021874D02*
X014241Y022174D01*
X013941Y021874D02*
X013041Y021874D01*
X012650Y022036D02*
X011420Y022036D01*
X011420Y021959D02*
X012573Y021959D01*
X012496Y021881D02*
X011487Y021881D01*
X011564Y021804D02*
X012419Y021804D01*
X012372Y021727D02*
X011642Y021727D01*
X011719Y021649D02*
X012372Y021649D01*
X012372Y021572D02*
X011796Y021572D01*
X011874Y021495D02*
X012372Y021495D01*
X012372Y021418D02*
X011951Y021418D01*
X012028Y021340D02*
X012372Y021340D01*
X012372Y021263D02*
X012105Y021263D01*
X012183Y021186D02*
X012372Y021186D01*
X012372Y021108D02*
X012260Y021108D01*
X012337Y021031D02*
X012372Y021031D01*
X012409Y022113D02*
X011874Y022113D01*
X011951Y022190D02*
X012331Y022190D01*
X012254Y022268D02*
X012028Y022268D01*
X012060Y022345D02*
X012222Y022345D01*
X012222Y022422D02*
X012060Y022422D01*
X012060Y022499D02*
X012222Y022499D01*
X012222Y022577D02*
X012060Y022577D01*
X012054Y022654D02*
X012228Y022654D01*
X012306Y022731D02*
X011976Y022731D01*
X011899Y022809D02*
X012383Y022809D01*
X012460Y022886D02*
X011822Y022886D01*
X011878Y023118D02*
X012404Y023118D01*
X012327Y023195D02*
X011955Y023195D01*
X012033Y023272D02*
X012249Y023272D01*
X012222Y023350D02*
X012060Y023350D01*
X012060Y023427D02*
X012222Y023427D01*
X012222Y023504D02*
X012060Y023504D01*
X012060Y023581D02*
X012222Y023581D01*
X012233Y023659D02*
X012049Y023659D01*
X011972Y023736D02*
X012310Y023736D01*
X012388Y023813D02*
X011894Y023813D01*
X011817Y023891D02*
X012465Y023891D01*
X011465Y023891D02*
X011420Y023891D01*
X010862Y023891D02*
X010817Y023891D01*
X011420Y023040D02*
X013862Y023040D01*
X013862Y022963D02*
X011420Y022963D01*
X011420Y022886D02*
X011460Y022886D01*
X011220Y024907D02*
X011220Y025165D01*
X011374Y025318D01*
X011730Y025318D01*
X011793Y025380D01*
X011798Y025372D01*
X011824Y025346D01*
X011856Y025327D01*
X011891Y025318D01*
X012067Y025318D01*
X012067Y025634D01*
X012146Y025634D01*
X012146Y025318D01*
X012166Y025318D01*
X012101Y025253D01*
X011567Y025253D01*
X011462Y025148D01*
X011220Y024907D01*
X011220Y024973D02*
X011286Y024973D01*
X011220Y025050D02*
X011364Y025050D01*
X011441Y025127D02*
X011220Y025127D01*
X011260Y025204D02*
X011518Y025204D01*
X011337Y025282D02*
X012130Y025282D01*
X012146Y025359D02*
X012067Y025359D01*
X012067Y025436D02*
X012146Y025436D01*
X012146Y025514D02*
X012067Y025514D01*
X012067Y025591D02*
X012146Y025591D01*
X012146Y025713D02*
X012067Y025713D01*
X012067Y026030D01*
X012028Y026030D01*
X012028Y026401D01*
X012106Y026401D01*
X012106Y026026D01*
X012146Y026026D01*
X012146Y025713D01*
X012146Y025745D02*
X012067Y025745D01*
X012067Y025823D02*
X012146Y025823D01*
X012146Y025900D02*
X012067Y025900D01*
X012067Y025977D02*
X012146Y025977D01*
X012106Y026055D02*
X012028Y026055D01*
X012028Y026132D02*
X012106Y026132D01*
X012106Y026209D02*
X012028Y026209D01*
X012028Y026286D02*
X012106Y026286D01*
X012106Y026364D02*
X012028Y026364D01*
X012107Y026441D02*
X012479Y026441D01*
X012479Y026518D02*
X012403Y026518D01*
X012403Y026596D02*
X012479Y026596D01*
X012479Y026673D02*
X012403Y026673D01*
X012399Y026750D02*
X012479Y026750D01*
X012532Y026827D02*
X012350Y026827D01*
X012186Y026892D02*
X012105Y026973D01*
X012105Y026974D01*
X011477Y026974D01*
X011477Y026973D01*
X011396Y026892D01*
X010886Y026892D01*
X011409Y026905D02*
X012174Y026905D01*
X012186Y026892D02*
X012696Y026892D01*
X012777Y026973D01*
X012777Y026974D01*
X013505Y026974D01*
X013505Y026973D01*
X013586Y026892D01*
X014096Y026892D01*
X014177Y026973D01*
X014177Y026974D01*
X014805Y026974D01*
X014805Y026973D01*
X014886Y026892D01*
X015396Y026892D01*
X015477Y026973D01*
X015477Y026974D01*
X016861Y026974D01*
X016913Y026922D01*
X016840Y026848D01*
X016840Y026820D01*
X016833Y026844D01*
X016815Y026876D01*
X016789Y026902D01*
X016757Y026920D01*
X016722Y026930D01*
X016546Y026930D01*
X016546Y026613D01*
X016467Y026613D01*
X016467Y026930D01*
X016291Y026930D01*
X016229Y026905D02*
X015409Y026905D01*
X015232Y026827D02*
X015050Y026827D01*
X015099Y026750D02*
X015179Y026750D01*
X015179Y026673D02*
X015103Y026673D01*
X015103Y026596D02*
X015179Y026596D01*
X015179Y026518D02*
X015103Y026518D01*
X015179Y026441D02*
X014807Y026441D01*
X014806Y026518D02*
X014728Y026518D01*
X014728Y026596D02*
X014806Y026596D01*
X014806Y026673D02*
X014728Y026673D01*
X014728Y026750D02*
X014806Y026750D01*
X014806Y026827D02*
X014728Y026827D01*
X014874Y026905D02*
X014109Y026905D01*
X013932Y026827D02*
X013750Y026827D01*
X013799Y026750D02*
X013879Y026750D01*
X013879Y026673D02*
X013803Y026673D01*
X013803Y026596D02*
X013879Y026596D01*
X013879Y026518D02*
X013803Y026518D01*
X013879Y026441D02*
X013507Y026441D01*
X013506Y026401D02*
X013506Y026026D01*
X013546Y026026D01*
X013546Y025713D01*
X013467Y025713D01*
X013467Y026030D01*
X013428Y026030D01*
X013428Y026401D01*
X013506Y026401D01*
X013506Y026364D02*
X013428Y026364D01*
X013428Y026286D02*
X013506Y026286D01*
X013506Y026209D02*
X013428Y026209D01*
X013428Y026132D02*
X013506Y026132D01*
X013506Y026055D02*
X013428Y026055D01*
X013467Y025977D02*
X013546Y025977D01*
X013546Y025900D02*
X013467Y025900D01*
X013467Y025823D02*
X013546Y025823D01*
X013546Y025745D02*
X013467Y025745D01*
X013467Y025668D02*
X013112Y025668D01*
X013170Y025634D02*
X013170Y025439D01*
X013180Y025403D01*
X013198Y025372D01*
X013224Y025346D01*
X013256Y025327D01*
X013291Y025318D01*
X013467Y025318D01*
X013467Y025634D01*
X013170Y025634D01*
X013170Y025591D02*
X013112Y025591D01*
X013112Y025514D02*
X013170Y025514D01*
X013171Y025436D02*
X013112Y025436D01*
X013071Y025359D02*
X013211Y025359D01*
X013467Y025359D02*
X013546Y025359D01*
X013546Y025436D02*
X013467Y025436D01*
X013467Y025514D02*
X013546Y025514D01*
X013546Y025591D02*
X013467Y025591D01*
X013170Y025745D02*
X013112Y025745D01*
X013112Y025823D02*
X013170Y025823D01*
X013170Y025900D02*
X013112Y025900D01*
X013083Y025977D02*
X013200Y025977D01*
X013184Y026055D02*
X013099Y026055D01*
X013428Y026518D02*
X013506Y026518D01*
X013506Y026596D02*
X013428Y026596D01*
X013428Y026673D02*
X013506Y026673D01*
X013506Y026750D02*
X013428Y026750D01*
X013428Y026827D02*
X013506Y026827D01*
X013574Y026905D02*
X012709Y026905D01*
X013098Y026827D02*
X013184Y026827D01*
X012479Y026364D02*
X012403Y026364D01*
X012403Y026286D02*
X012479Y026286D01*
X012479Y026209D02*
X012403Y026209D01*
X012399Y026132D02*
X012479Y026132D01*
X012532Y026055D02*
X012351Y026055D01*
X012413Y025977D02*
X012469Y025977D01*
X012106Y026518D02*
X012028Y026518D01*
X012028Y026596D02*
X012106Y026596D01*
X012106Y026673D02*
X012028Y026673D01*
X012028Y026750D02*
X012106Y026750D01*
X012106Y026827D02*
X012028Y026827D01*
X011179Y026364D02*
X011103Y026364D01*
X011103Y026286D02*
X011179Y026286D01*
X011179Y026209D02*
X011103Y026209D01*
X011099Y026132D02*
X011179Y026132D01*
X011232Y026055D02*
X011051Y026055D01*
X011113Y025977D02*
X011169Y025977D01*
X010846Y025591D02*
X010767Y025591D01*
X010767Y025514D02*
X010846Y025514D01*
X010846Y025436D02*
X010767Y025436D01*
X010767Y025359D02*
X010846Y025359D01*
X011771Y025359D02*
X011811Y025359D01*
X013751Y026055D02*
X013932Y026055D01*
X013879Y026132D02*
X013799Y026132D01*
X013803Y026209D02*
X013879Y026209D01*
X013879Y026286D02*
X013803Y026286D01*
X013803Y026364D02*
X013879Y026364D01*
X013869Y025977D02*
X013813Y025977D01*
X014483Y025977D02*
X015336Y025977D01*
X015232Y026055D02*
X015051Y026055D01*
X015099Y026132D02*
X015179Y026132D01*
X015179Y026209D02*
X015103Y026209D01*
X015103Y026286D02*
X015179Y026286D01*
X015179Y026364D02*
X015103Y026364D01*
X015091Y025900D02*
X015192Y025900D01*
X015140Y025823D02*
X015139Y025823D01*
X014846Y025823D02*
X014767Y025823D01*
X014767Y025900D02*
X014846Y025900D01*
X014846Y025745D02*
X014767Y025745D01*
X014767Y025668D02*
X014846Y025668D01*
X014806Y026055D02*
X014728Y026055D01*
X014728Y026132D02*
X014806Y026132D01*
X014806Y026209D02*
X014728Y026209D01*
X014728Y026286D02*
X014806Y026286D01*
X014806Y026364D02*
X014728Y026364D01*
X014522Y025900D02*
X014512Y025900D01*
X015283Y025127D02*
X016441Y025127D01*
X016518Y025204D02*
X015360Y025204D01*
X015206Y025050D02*
X016364Y025050D01*
X016286Y024973D02*
X015198Y024973D01*
X015295Y024895D02*
X016209Y024895D01*
X016132Y024818D02*
X015345Y024818D01*
X015565Y024586D02*
X015900Y024586D01*
X015862Y024509D02*
X015681Y024509D01*
X015740Y024432D02*
X015862Y024432D01*
X015862Y024354D02*
X015772Y024354D01*
X015777Y024277D02*
X015862Y024277D01*
X015862Y024200D02*
X015774Y024200D01*
X015742Y024122D02*
X015862Y024122D01*
X015862Y024045D02*
X015688Y024045D01*
X015581Y023968D02*
X015862Y023968D01*
X015862Y023891D02*
X015817Y023891D01*
X015680Y023891D02*
X015602Y023891D01*
X015602Y023813D02*
X015680Y023813D01*
X015680Y023736D02*
X015602Y023736D01*
X015602Y023659D02*
X015680Y023659D01*
X015680Y023581D02*
X015602Y023581D01*
X015602Y023434D02*
X015680Y023434D01*
X015680Y023054D01*
X015815Y023054D01*
X015862Y023101D01*
X015862Y022846D01*
X015815Y022893D01*
X015467Y022893D01*
X015420Y022846D01*
X015420Y023101D01*
X015467Y023054D01*
X015602Y023054D01*
X015602Y023434D01*
X015602Y023427D02*
X015680Y023427D01*
X015680Y023350D02*
X015602Y023350D01*
X015602Y023272D02*
X015680Y023272D01*
X015680Y023195D02*
X015602Y023195D01*
X015602Y023118D02*
X015680Y023118D01*
X015862Y023040D02*
X015420Y023040D01*
X015420Y022963D02*
X015862Y022963D01*
X015862Y022886D02*
X015822Y022886D01*
X015460Y022886D02*
X015420Y022886D01*
X014862Y022886D02*
X014822Y022886D01*
X014815Y022893D02*
X014467Y022893D01*
X014420Y022846D01*
X014420Y023101D01*
X014467Y023054D01*
X014602Y023054D01*
X014602Y023434D01*
X014680Y023434D01*
X014680Y023054D01*
X014815Y023054D01*
X014862Y023101D01*
X014862Y022846D01*
X014815Y022893D01*
X014862Y022963D02*
X014420Y022963D01*
X014420Y022886D02*
X014460Y022886D01*
X014420Y023040D02*
X014862Y023040D01*
X014680Y023118D02*
X014602Y023118D01*
X014602Y023195D02*
X014680Y023195D01*
X014680Y023272D02*
X014602Y023272D01*
X014602Y023350D02*
X014680Y023350D01*
X014680Y023427D02*
X014602Y023427D01*
X014602Y023513D02*
X014602Y023893D01*
X014467Y023893D01*
X014420Y023846D01*
X014420Y024599D01*
X014715Y024894D01*
X014786Y024894D01*
X014756Y024864D01*
X014705Y024741D01*
X014562Y024741D01*
X014639Y024818D02*
X014737Y024818D01*
X014705Y024741D02*
X014705Y024607D01*
X014756Y024483D01*
X014851Y024389D01*
X014862Y024384D01*
X014862Y023846D01*
X014815Y023893D01*
X014680Y023893D01*
X014680Y023513D01*
X014602Y023513D01*
X014602Y023581D02*
X014680Y023581D01*
X014680Y023659D02*
X014602Y023659D01*
X014602Y023736D02*
X014680Y023736D01*
X014680Y023813D02*
X014602Y023813D01*
X014602Y023891D02*
X014680Y023891D01*
X014817Y023891D02*
X014862Y023891D01*
X014862Y023968D02*
X014420Y023968D01*
X014420Y024045D02*
X014862Y024045D01*
X014862Y024122D02*
X014420Y024122D01*
X014420Y024200D02*
X014862Y024200D01*
X014862Y024277D02*
X014420Y024277D01*
X014420Y024354D02*
X014862Y024354D01*
X014808Y024432D02*
X014420Y024432D01*
X014420Y024509D02*
X014745Y024509D01*
X014713Y024586D02*
X014420Y024586D01*
X014484Y024663D02*
X014705Y024663D01*
X014465Y023891D02*
X014420Y023891D01*
X013862Y022886D02*
X013822Y022886D01*
X015420Y023891D02*
X015465Y023891D01*
X016420Y023891D02*
X019054Y023891D01*
X018957Y023968D02*
X016420Y023968D01*
X016420Y024045D02*
X018863Y024045D01*
X018866Y024041D02*
X018866Y024041D01*
X018810Y024122D02*
X016420Y024122D01*
X016420Y024200D02*
X018758Y024200D01*
X018705Y024277D02*
X016420Y024277D01*
X016475Y024354D02*
X018652Y024354D01*
X018599Y024432D02*
X016553Y024432D01*
X016630Y024509D02*
X018562Y024509D01*
X018538Y024586D02*
X016707Y024586D01*
X016784Y024663D02*
X018514Y024663D01*
X018490Y024741D02*
X016862Y024741D01*
X016939Y024818D02*
X018466Y024818D01*
X018442Y024895D02*
X017016Y024895D01*
X017094Y024973D02*
X018421Y024973D01*
X018421Y024964D02*
X018421Y024964D01*
X018421Y025050D02*
X017171Y025050D01*
X017248Y025127D02*
X018421Y025127D01*
X018421Y025204D02*
X017320Y025204D01*
X017320Y025282D02*
X018421Y025282D01*
X018421Y025359D02*
X017320Y025359D01*
X017449Y025436D02*
X018421Y025436D01*
X018421Y025483D02*
X018421Y025483D01*
X018431Y025514D02*
X017512Y025514D01*
X017512Y025591D02*
X017648Y025591D01*
X017571Y025668D02*
X017512Y025668D01*
X017505Y026055D02*
X017552Y026055D01*
X017624Y026132D02*
X017020Y026132D01*
X017065Y026209D02*
X017772Y026209D01*
X017910Y026209D02*
X018731Y026209D01*
X018679Y026132D02*
X018058Y026132D01*
X018130Y026055D02*
X018626Y026055D01*
X018574Y025978D02*
X018574Y025978D01*
X018574Y025977D02*
X018162Y025977D01*
X018177Y025900D02*
X018550Y025900D01*
X018526Y025823D02*
X018177Y025823D01*
X018152Y025745D02*
X018502Y025745D01*
X018478Y025668D02*
X018111Y025668D01*
X018034Y025591D02*
X018454Y025591D01*
X018784Y026286D02*
X017499Y026286D01*
X017512Y026364D02*
X018837Y026364D01*
X016896Y026905D02*
X016784Y026905D01*
X016838Y026827D02*
X016840Y026827D01*
X016546Y026827D02*
X016467Y026827D01*
X016467Y026750D02*
X016546Y026750D01*
X016546Y026673D02*
X016467Y026673D01*
X016467Y026596D02*
X015851Y026596D01*
X015851Y026673D02*
X016170Y026673D01*
X016170Y026750D02*
X015851Y026750D01*
X015798Y026827D02*
X016175Y026827D01*
X016170Y026534D02*
X016170Y026339D01*
X016180Y026303D01*
X016198Y026272D01*
X016224Y026246D01*
X016256Y026227D01*
X016291Y026218D01*
X016467Y026218D01*
X016467Y026534D01*
X016170Y026534D01*
X016170Y026518D02*
X015851Y026518D01*
X015851Y026441D02*
X016170Y026441D01*
X016170Y026364D02*
X015851Y026364D01*
X015851Y026286D02*
X016189Y026286D01*
X016256Y026120D02*
X016224Y026102D01*
X016198Y026076D01*
X016180Y026044D01*
X016170Y026009D01*
X016170Y025813D01*
X016467Y025813D01*
X016467Y026130D01*
X016291Y026130D01*
X016256Y026120D01*
X016186Y026055D02*
X015799Y026055D01*
X015851Y026132D02*
X016662Y026132D01*
X016662Y026209D02*
X015851Y026209D01*
X015694Y025977D02*
X016170Y025977D01*
X016170Y025900D02*
X015760Y025900D01*
X015812Y025823D02*
X016170Y025823D01*
X016170Y025734D02*
X016170Y025539D01*
X016180Y025503D01*
X016198Y025472D01*
X016224Y025446D01*
X016256Y025427D01*
X016291Y025418D01*
X016467Y025418D01*
X016467Y025734D01*
X016170Y025734D01*
X016170Y025668D02*
X015812Y025668D01*
X015812Y025591D02*
X016170Y025591D01*
X016177Y025514D02*
X015812Y025514D01*
X015812Y025436D02*
X016240Y025436D01*
X016467Y025436D02*
X016546Y025436D01*
X016546Y025514D02*
X016467Y025514D01*
X016467Y025591D02*
X016546Y025591D01*
X016546Y025668D02*
X016467Y025668D01*
X016467Y025745D02*
X015812Y025745D01*
X015812Y025359D02*
X016662Y025359D01*
X016595Y025282D02*
X015794Y025282D01*
X016467Y025823D02*
X016546Y025823D01*
X016546Y025900D02*
X016467Y025900D01*
X016467Y025977D02*
X016546Y025977D01*
X016546Y026055D02*
X016467Y026055D01*
X016467Y026286D02*
X016546Y026286D01*
X016546Y026364D02*
X016467Y026364D01*
X016467Y026441D02*
X016546Y026441D01*
X016546Y026518D02*
X016467Y026518D01*
X016467Y026905D02*
X016546Y026905D01*
X016420Y023813D02*
X019151Y023813D01*
X019741Y019674D02*
X019741Y018474D01*
X019114Y017846D01*
X016192Y017839D01*
X016192Y018036D02*
X019010Y018043D01*
X016913Y013902D02*
X016192Y013902D01*
X017610Y012994D02*
X017962Y012994D01*
X017962Y012916D02*
X017584Y012916D01*
X017538Y012839D02*
X017962Y012839D01*
X017962Y012762D02*
X017571Y012762D01*
X017603Y012684D02*
X017962Y012684D01*
X017962Y012607D02*
X017618Y012607D01*
X017618Y012530D02*
X017962Y012530D01*
X017962Y012453D02*
X017599Y012453D01*
X017567Y012375D02*
X017962Y012375D01*
X017962Y012298D02*
X017550Y012298D01*
X017588Y012221D02*
X017962Y012221D01*
X017962Y012144D02*
X017618Y012144D01*
X017517Y011603D02*
X015288Y011603D01*
X015288Y011525D02*
X017440Y011525D01*
X017363Y011448D02*
X015288Y011448D01*
X015288Y011371D02*
X017285Y011371D01*
X017208Y011293D02*
X015288Y011293D01*
X015288Y011216D02*
X017131Y011216D01*
X017053Y011139D02*
X015288Y011139D01*
X015288Y011062D02*
X016976Y011062D01*
X016899Y010984D02*
X015288Y010984D01*
X015288Y010907D02*
X016822Y010907D01*
X016762Y010830D02*
X015288Y010830D01*
X015288Y010752D02*
X016762Y010752D01*
X016762Y010675D02*
X015288Y010675D01*
X015288Y010598D02*
X016762Y010598D01*
X016762Y010521D02*
X015288Y010521D01*
X015288Y010443D02*
X016762Y010443D01*
X016762Y010366D02*
X015288Y010366D01*
X015288Y010289D02*
X016762Y010289D01*
X016762Y010211D02*
X015288Y010211D01*
X015288Y010134D02*
X016762Y010134D01*
X016762Y010057D02*
X015288Y010057D01*
X015288Y009980D02*
X016694Y009980D01*
X016617Y009902D02*
X015288Y009902D01*
X015288Y009825D02*
X016540Y009825D01*
X016541Y009574D02*
X016341Y009574D01*
X015941Y009174D01*
X015627Y009052D02*
X015415Y009052D01*
X015338Y009129D02*
X015605Y009129D01*
X015605Y009207D02*
X015288Y009207D01*
X015288Y009284D02*
X015623Y009284D01*
X015655Y009361D02*
X015288Y009361D01*
X015288Y009439D02*
X015731Y009439D01*
X016031Y009516D02*
X015288Y009516D01*
X015288Y009593D02*
X016108Y009593D01*
X016185Y009670D02*
X015288Y009670D01*
X015288Y009748D02*
X016262Y009748D01*
X016541Y009574D02*
X016941Y009974D01*
X017473Y010752D02*
X017687Y010752D01*
X017687Y010830D02*
X017550Y010830D01*
X017627Y010907D02*
X017732Y010907D01*
X017704Y010984D02*
X017809Y010984D01*
X017782Y011062D02*
X017886Y011062D01*
X017797Y008975D02*
X016718Y008975D01*
X016441Y007974D02*
X016441Y006474D01*
X016560Y005420D02*
X019408Y005420D01*
X019335Y005343D02*
X019485Y005343D01*
X019436Y005265D02*
X019562Y005265D01*
X019501Y005188D02*
X019639Y005188D01*
X019717Y005111D02*
X019533Y005111D01*
X019556Y005033D02*
X019770Y005033D01*
X019122Y004183D02*
X018838Y004183D01*
X018830Y004106D02*
X019200Y004106D01*
X019277Y004029D02*
X018830Y004029D01*
X018902Y004261D02*
X019045Y004261D01*
X018968Y004338D02*
X018934Y004338D01*
X018435Y004879D02*
X016329Y004879D01*
X016406Y004802D02*
X018282Y004802D01*
X018205Y004724D02*
X016484Y004724D01*
X016560Y004492D02*
X018126Y004492D01*
X018126Y004415D02*
X016560Y004415D01*
X016560Y004338D02*
X018148Y004338D01*
X018180Y004261D02*
X016521Y004261D01*
X016444Y004183D02*
X018245Y004183D01*
X018749Y005111D02*
X016371Y005111D01*
X016448Y005188D02*
X018781Y005188D01*
X018846Y005265D02*
X016526Y005265D01*
X016560Y005343D02*
X018947Y005343D01*
X016880Y003410D02*
X016509Y003410D01*
X016509Y003333D02*
X016880Y003333D01*
X016880Y003256D02*
X016509Y003256D01*
X016509Y003179D02*
X016880Y003179D01*
X016880Y003101D02*
X016509Y003101D01*
X016509Y003024D02*
X016880Y003024D01*
X016880Y002947D02*
X016509Y002947D01*
X016640Y002869D02*
X016918Y002869D01*
X015841Y002574D02*
X015841Y002174D01*
X015606Y001939D01*
X015533Y002118D02*
X015662Y002248D01*
X015662Y002500D01*
X015567Y002595D01*
X015567Y002595D01*
X015462Y002700D01*
X015462Y002826D01*
X015170Y002826D01*
X015161Y002835D01*
X015128Y002826D01*
X015021Y002826D01*
X015021Y003448D01*
X015001Y003448D01*
X015001Y002831D01*
X015011Y002827D01*
X015128Y002710D01*
X015191Y002557D01*
X015191Y002391D01*
X015128Y002238D01*
X015011Y002121D01*
X015006Y002118D01*
X015533Y002118D01*
X015589Y002174D02*
X015064Y002174D01*
X015134Y002251D02*
X015662Y002251D01*
X015662Y002329D02*
X015166Y002329D01*
X015191Y002406D02*
X015662Y002406D01*
X015662Y002483D02*
X015191Y002483D01*
X015190Y002560D02*
X015602Y002560D01*
X015524Y002638D02*
X015158Y002638D01*
X015123Y002715D02*
X015462Y002715D01*
X015462Y002792D02*
X015045Y002792D01*
X015021Y002869D02*
X015001Y002869D01*
X015001Y002947D02*
X015021Y002947D01*
X015021Y003024D02*
X015001Y003024D01*
X015001Y003101D02*
X015021Y003101D01*
X015021Y003179D02*
X015001Y003179D01*
X015001Y003256D02*
X015021Y003256D01*
X015021Y003333D02*
X015001Y003333D01*
X015001Y003410D02*
X015021Y003410D01*
X015862Y001942D02*
X018421Y001942D01*
X018421Y001983D02*
X018421Y001983D01*
X018421Y001865D02*
X017923Y001865D01*
X017946Y001788D02*
X018421Y001788D01*
X018421Y001710D02*
X017946Y001710D01*
X017946Y001633D02*
X018421Y001633D01*
X018421Y001556D02*
X017946Y001556D01*
X017946Y001478D02*
X018421Y001478D01*
X018421Y001464D02*
X018421Y001464D01*
X018441Y001401D02*
X017946Y001401D01*
X017946Y001324D02*
X018464Y001324D01*
X018488Y001247D02*
X017946Y001247D01*
X017946Y001169D02*
X018512Y001169D01*
X018536Y001092D02*
X017946Y001092D01*
X017946Y001015D02*
X018560Y001015D01*
X018574Y000969D02*
X018574Y000969D01*
X018596Y000937D02*
X017946Y000937D01*
X017946Y000860D02*
X018648Y000860D01*
X018701Y000783D02*
X017946Y000783D01*
X016880Y000783D02*
X014402Y000783D01*
X014402Y000860D02*
X016880Y000860D01*
X016880Y000937D02*
X014402Y000937D01*
X014402Y001015D02*
X016880Y001015D01*
X016880Y001092D02*
X014402Y001092D01*
X014402Y001169D02*
X016880Y001169D01*
X016880Y001247D02*
X014402Y001247D01*
X014402Y001324D02*
X016880Y001324D01*
X016880Y001401D02*
X014402Y001401D01*
X014402Y001478D02*
X016880Y001478D01*
X016880Y001556D02*
X014402Y001556D01*
X014402Y001633D02*
X016880Y001633D01*
X016880Y001710D02*
X014402Y001710D01*
X013336Y001015D02*
X007709Y001015D01*
X007671Y000937D02*
X013336Y000937D01*
X013336Y000860D02*
X007634Y000860D01*
X007597Y000783D02*
X013336Y000783D01*
X013039Y001788D02*
X011862Y001788D01*
X011805Y001865D02*
X011677Y001865D01*
X012141Y002139D02*
X012272Y002139D01*
X012497Y002019D02*
X012585Y002019D01*
X012585Y001942D02*
X012497Y001942D01*
X012477Y001865D02*
X012605Y001865D01*
X012585Y002097D02*
X012540Y002097D01*
X012537Y002715D02*
X012497Y002715D01*
X013297Y002869D02*
X013375Y002869D01*
X013336Y002947D02*
X013297Y002947D01*
X013297Y003024D02*
X013336Y003024D01*
X013336Y003101D02*
X013259Y003101D01*
X011541Y004074D02*
X011541Y005074D01*
X011141Y005474D01*
X011560Y005497D02*
X011562Y005497D01*
X011560Y005420D02*
X011562Y005420D01*
X011560Y005343D02*
X011562Y005343D01*
X011560Y005574D02*
X011562Y005574D01*
X011556Y005652D02*
X011562Y005652D01*
X011562Y005729D02*
X011479Y005729D01*
X011402Y005806D02*
X011621Y005806D01*
X011698Y005884D02*
X011324Y005884D01*
X010958Y005884D02*
X010324Y005884D01*
X010402Y005806D02*
X010881Y005806D01*
X010803Y005729D02*
X010479Y005729D01*
X010556Y005652D02*
X010726Y005652D01*
X010722Y005574D02*
X010560Y005574D01*
X010560Y005497D02*
X010722Y005497D01*
X010722Y005420D02*
X010560Y005420D01*
X010560Y005343D02*
X010722Y005343D01*
X010756Y005265D02*
X010602Y005265D01*
X010680Y005188D02*
X010834Y005188D01*
X010757Y005111D02*
X010911Y005111D01*
X010820Y005033D02*
X011329Y005033D01*
X011362Y004956D02*
X010820Y004956D01*
X010820Y004879D02*
X010953Y004879D01*
X010876Y004802D02*
X010820Y004802D01*
X010641Y004974D02*
X010141Y005474D01*
X009834Y005188D02*
X009020Y005188D01*
X009060Y005111D02*
X009911Y005111D01*
X009756Y005265D02*
X008943Y005265D01*
X008865Y005343D02*
X009722Y005343D01*
X009722Y005420D02*
X008340Y005420D01*
X008320Y005343D02*
X008417Y005343D01*
X008340Y005265D02*
X008320Y005265D01*
X008417Y005497D02*
X009722Y005497D01*
X009722Y005574D02*
X008835Y005574D01*
X008912Y005652D02*
X009726Y005652D01*
X009803Y005729D02*
X008989Y005729D01*
X009060Y005806D02*
X009881Y005806D01*
X009958Y005884D02*
X009060Y005884D01*
X009060Y005961D02*
X011775Y005961D01*
X011853Y006038D02*
X009060Y006038D01*
X009060Y006115D02*
X011930Y006115D01*
X011978Y006193D02*
X009015Y006193D01*
X008938Y006270D02*
X011978Y006270D01*
X011978Y006347D02*
X008861Y006347D01*
X008641Y005974D02*
X008141Y005474D01*
X008141Y004074D01*
X009141Y003074D01*
X009606Y003074D01*
X009270Y003256D02*
X009212Y003256D01*
X009270Y003333D02*
X009134Y003333D01*
X009057Y003410D02*
X009333Y003410D01*
X008980Y003488D02*
X010302Y003488D01*
X010380Y003565D02*
X008902Y003565D01*
X008825Y003642D02*
X010457Y003642D01*
X010462Y003720D02*
X008748Y003720D01*
X008671Y003797D02*
X010462Y003797D01*
X010462Y003874D02*
X008593Y003874D01*
X008516Y003951D02*
X010462Y003951D01*
X010462Y004029D02*
X008439Y004029D01*
X008361Y004106D02*
X009916Y004106D01*
X009838Y004183D02*
X008320Y004183D01*
X008320Y004261D02*
X009761Y004261D01*
X009722Y004338D02*
X008320Y004338D01*
X008320Y004415D02*
X009722Y004415D01*
X009722Y004492D02*
X008320Y004492D01*
X008320Y004570D02*
X008452Y004570D01*
X008375Y004647D02*
X008320Y004647D01*
X008985Y004724D02*
X009799Y004724D01*
X009876Y004802D02*
X009060Y004802D01*
X009060Y004879D02*
X009953Y004879D01*
X010329Y004879D02*
X010462Y004879D01*
X010462Y004802D02*
X010406Y004802D01*
X010406Y004956D02*
X009060Y004956D01*
X009060Y005033D02*
X010329Y005033D01*
X010641Y004974D02*
X010641Y003574D01*
X010276Y003208D01*
X010276Y003074D01*
X010002Y003410D02*
X009880Y003410D01*
X010366Y004106D02*
X010462Y004106D01*
X010462Y004183D02*
X010444Y004183D01*
X011141Y004474D02*
X011141Y003674D01*
X010741Y003274D01*
X010741Y002774D01*
X010276Y002308D01*
X010276Y002274D01*
X010555Y001942D02*
X010985Y001942D01*
X010985Y002019D02*
X010612Y002019D01*
X010612Y002097D02*
X010985Y002097D01*
X010985Y002174D02*
X010612Y002174D01*
X010612Y002251D02*
X010985Y002251D01*
X010985Y002329D02*
X010612Y002329D01*
X010626Y002406D02*
X010997Y002406D01*
X011056Y002483D02*
X010703Y002483D01*
X010781Y002560D02*
X010985Y002560D01*
X010985Y002638D02*
X010858Y002638D01*
X010920Y002715D02*
X010985Y002715D01*
X010985Y002792D02*
X010920Y002792D01*
X010920Y002869D02*
X010985Y002869D01*
X010985Y002947D02*
X010920Y002947D01*
X010920Y003024D02*
X010985Y003024D01*
X011024Y003101D02*
X010920Y003101D01*
X010920Y003179D02*
X011162Y003179D01*
X011162Y003256D02*
X010976Y003256D01*
X011053Y003333D02*
X011162Y003333D01*
X011162Y003410D02*
X011131Y003410D01*
X011341Y003874D02*
X011341Y002808D01*
X011341Y003874D02*
X011541Y004074D01*
X011362Y004879D02*
X011329Y004879D01*
X009606Y002274D02*
X009241Y002274D01*
X007641Y003874D01*
X007641Y004974D01*
X007943Y005265D02*
X007962Y005265D01*
X007962Y005343D02*
X007865Y005343D01*
X007835Y005574D02*
X007989Y005574D01*
X007912Y005652D02*
X008066Y005652D01*
X007989Y005729D02*
X008144Y005729D01*
X008221Y005806D02*
X008060Y005806D01*
X008060Y005884D02*
X008222Y005884D01*
X008222Y005961D02*
X008060Y005961D01*
X008060Y006038D02*
X008222Y006038D01*
X008222Y006115D02*
X008060Y006115D01*
X008015Y006193D02*
X008267Y006193D01*
X008344Y006270D02*
X007938Y006270D01*
X007861Y006347D02*
X008422Y006347D01*
X008381Y007120D02*
X008738Y007120D01*
X008722Y007197D02*
X008458Y007197D01*
X008513Y007275D02*
X008722Y007275D01*
X008722Y007352D02*
X008545Y007352D01*
X008560Y007429D02*
X008722Y007429D01*
X008722Y007506D02*
X008560Y007506D01*
X008549Y007584D02*
X008722Y007584D01*
X008722Y007661D02*
X008517Y007661D01*
X008469Y007738D02*
X008722Y007738D01*
X008726Y007816D02*
X008392Y007816D01*
X008225Y007893D02*
X008058Y007893D01*
X007890Y007816D02*
X007320Y007816D01*
X007320Y007738D02*
X007813Y007738D01*
X007765Y007661D02*
X007320Y007661D01*
X007320Y007584D02*
X007733Y007584D01*
X007722Y007506D02*
X007320Y007506D01*
X007320Y007429D02*
X007722Y007429D01*
X007738Y007352D02*
X007320Y007352D01*
X007295Y007275D02*
X007770Y007275D01*
X007824Y007197D02*
X007218Y007197D01*
X007140Y007120D02*
X007902Y007120D01*
X008803Y007893D02*
X009479Y007893D01*
X011641Y008374D02*
X011841Y008374D01*
X014320Y009284D02*
X014537Y009284D01*
X014537Y009361D02*
X014320Y009361D01*
X014320Y009439D02*
X014537Y009439D01*
X014537Y009516D02*
X014320Y009516D01*
X014320Y009593D02*
X014537Y009593D01*
X014537Y009670D02*
X014320Y009670D01*
X014320Y009748D02*
X014537Y009748D01*
X014537Y009825D02*
X014320Y009825D01*
X014320Y009902D02*
X014537Y009902D01*
X014537Y009980D02*
X014320Y009980D01*
X014320Y010057D02*
X014537Y010057D01*
X014537Y010134D02*
X014320Y010134D01*
X014320Y010211D02*
X014537Y010211D01*
X014537Y010289D02*
X014320Y010289D01*
X014320Y010366D02*
X014537Y010366D01*
X014537Y010443D02*
X014320Y010443D01*
X014320Y010521D02*
X014537Y010521D01*
X014537Y010598D02*
X014320Y010598D01*
X014320Y010675D02*
X014537Y010675D01*
X014537Y010752D02*
X014320Y010752D01*
X014320Y010830D02*
X014537Y010830D01*
X014537Y010907D02*
X014320Y010907D01*
X014320Y010984D02*
X014537Y010984D01*
X014537Y011062D02*
X014320Y011062D01*
X014359Y011139D02*
X014537Y011139D01*
X014537Y011216D02*
X014436Y011216D01*
X014514Y011293D02*
X014537Y011293D01*
X014537Y009207D02*
X014361Y009207D01*
X014438Y009129D02*
X014537Y009129D01*
X014537Y009052D02*
X014515Y009052D01*
X014520Y008975D02*
X014537Y008975D01*
X014537Y008898D02*
X014520Y008898D01*
X014520Y008820D02*
X014542Y008820D01*
X014520Y008743D02*
X014619Y008743D01*
X014696Y008666D02*
X014520Y008666D01*
X014520Y008588D02*
X014774Y008588D01*
X014851Y008511D02*
X014520Y008511D01*
X014520Y008434D02*
X014928Y008434D01*
X015005Y008357D02*
X014520Y008357D01*
X014520Y008279D02*
X015083Y008279D01*
X015160Y008202D02*
X014520Y008202D01*
X014520Y008125D02*
X015640Y008125D01*
X015608Y008047D02*
X014520Y008047D01*
X014520Y007970D02*
X015605Y007970D01*
X015611Y007893D02*
X014520Y007893D01*
X014520Y007816D02*
X015643Y007816D01*
X015664Y008975D02*
X015493Y008975D01*
X011388Y012998D02*
X011388Y013174D01*
X011167Y013395D01*
X011142Y013421D01*
X011126Y013383D01*
X011032Y013289D01*
X010958Y013258D01*
X010958Y012998D01*
X010976Y012998D01*
X010976Y012922D01*
X010976Y012922D01*
X010976Y012922D01*
X010976Y012998D01*
X011057Y012998D01*
X011293Y012998D01*
X011388Y012998D01*
X011388Y013071D02*
X010958Y013071D01*
X010971Y013044D02*
X010971Y012244D01*
X010981Y012244D01*
X010976Y012247D02*
X010994Y012247D01*
X010994Y012079D01*
X010994Y012144D02*
X008595Y012144D01*
X008595Y012221D02*
X010994Y012221D01*
X010976Y012247D02*
X010976Y012323D01*
X010976Y012323D01*
X010976Y012323D01*
X010976Y012247D01*
X010900Y012247D01*
X010658Y012247D01*
X010577Y012329D01*
X010577Y012916D01*
X010577Y012839D02*
X007259Y012839D01*
X007220Y012762D02*
X010577Y012762D01*
X010577Y012684D02*
X007220Y012684D01*
X007220Y012607D02*
X010577Y012607D01*
X010577Y012530D02*
X007220Y012530D01*
X007220Y012453D02*
X007877Y012453D01*
X007800Y012375D02*
X007220Y012375D01*
X007220Y012298D02*
X007723Y012298D01*
X007687Y012221D02*
X007220Y012221D01*
X007220Y012144D02*
X007687Y012144D01*
X007687Y011989D02*
X007220Y011989D01*
X007220Y012066D02*
X008102Y012066D01*
X008102Y012144D02*
X008180Y012144D01*
X008180Y012221D02*
X008102Y012221D01*
X008102Y012298D02*
X008180Y012298D01*
X008180Y012375D02*
X008102Y012375D01*
X008102Y012453D02*
X008180Y012453D01*
X008405Y012453D02*
X010577Y012453D01*
X010577Y012375D02*
X008482Y012375D01*
X008559Y012298D02*
X010607Y012298D01*
X010779Y012623D02*
X010779Y013511D01*
X010841Y013574D01*
X010525Y013689D02*
X010465Y013689D01*
X010465Y013612D02*
X010505Y013612D01*
X010505Y013535D02*
X010465Y013535D01*
X010465Y013457D02*
X010525Y013457D01*
X010559Y013380D02*
X010465Y013380D01*
X010465Y013303D02*
X010600Y013303D01*
X010600Y013225D02*
X010465Y013225D01*
X010423Y013148D02*
X010600Y013148D01*
X010958Y013148D02*
X011388Y013148D01*
X011337Y013225D02*
X010958Y013225D01*
X011046Y013303D02*
X011259Y013303D01*
X011182Y013380D02*
X011123Y013380D01*
X010976Y012994D02*
X010976Y012994D01*
X011046Y013844D02*
X011062Y013844D01*
X011062Y013921D02*
X010465Y013921D01*
X010465Y013844D02*
X010636Y013844D01*
X010558Y013766D02*
X010465Y013766D01*
X010465Y013998D02*
X011062Y013998D01*
X011062Y014076D02*
X010465Y014076D01*
X010465Y014153D02*
X011062Y014153D01*
X011062Y014230D02*
X010465Y014230D01*
X010465Y014307D02*
X011062Y014307D01*
X011062Y014385D02*
X010465Y014385D01*
X010465Y014462D02*
X011062Y014462D01*
X011062Y014539D02*
X010465Y014539D01*
X010465Y014617D02*
X011062Y014617D01*
X011062Y014694D02*
X010465Y014694D01*
X010465Y014771D02*
X011062Y014771D01*
X011062Y014848D02*
X010465Y014848D01*
X010465Y014926D02*
X011062Y014926D01*
X011062Y015003D02*
X011046Y015003D01*
X010841Y015274D02*
X010835Y015280D01*
X010090Y015280D01*
X010090Y015477D02*
X008951Y015484D01*
X008641Y015174D01*
X008641Y014324D01*
X009241Y013874D02*
X006276Y013874D01*
X006176Y013974D01*
X006512Y014076D02*
X007062Y014076D01*
X007062Y014153D02*
X006512Y014153D01*
X006512Y014230D02*
X007062Y014230D01*
X007062Y014307D02*
X006452Y014307D01*
X006149Y014771D02*
X007062Y014771D01*
X007062Y014694D02*
X004641Y014694D01*
X004641Y014617D02*
X007062Y014617D01*
X007062Y014539D02*
X004641Y014539D01*
X004629Y014462D02*
X007062Y014462D01*
X007062Y014385D02*
X004552Y014385D01*
X005341Y013974D02*
X005506Y013974D01*
X005783Y014307D02*
X005899Y014307D01*
X006226Y014848D02*
X007062Y014848D01*
X007062Y014926D02*
X006303Y014926D01*
X006381Y015003D02*
X007062Y015003D01*
X007062Y015080D02*
X006611Y015080D01*
X006700Y015158D02*
X007062Y015158D01*
X007062Y015235D02*
X006747Y015235D01*
X006777Y015312D02*
X007062Y015312D01*
X007062Y015389D02*
X006777Y015389D01*
X006766Y015467D02*
X007062Y015467D01*
X007062Y015544D02*
X006734Y015544D01*
X006669Y015621D02*
X007062Y015621D01*
X007062Y015699D02*
X006535Y015699D01*
X005318Y015621D02*
X005164Y015621D01*
X006876Y013674D02*
X006176Y012974D01*
X006641Y013074D02*
X006641Y012439D01*
X006176Y011974D01*
X006841Y011639D02*
X006176Y010974D01*
X006841Y011639D02*
X006841Y012974D01*
X007141Y013274D01*
X009541Y013274D01*
X009783Y013515D01*
X010090Y013508D01*
X010090Y013311D02*
X009886Y013319D01*
X010090Y013705D02*
X009680Y013712D01*
X009441Y013474D01*
X007041Y013474D01*
X006641Y013074D01*
X006876Y013674D02*
X009341Y013674D01*
X009577Y013909D01*
X010090Y013902D01*
X010090Y014099D02*
X009473Y014106D01*
X009241Y013874D01*
X010465Y015003D02*
X010636Y015003D01*
X010559Y015080D02*
X010465Y015080D01*
X010090Y015674D02*
X008934Y015681D01*
X008641Y015974D01*
X008641Y016224D01*
X009141Y017274D02*
X007041Y017274D01*
X005641Y018674D01*
X005641Y018908D01*
X005576Y018974D01*
X006164Y018403D02*
X007759Y018403D01*
X007836Y018326D02*
X006241Y018326D01*
X006319Y018249D02*
X007913Y018249D01*
X007990Y018172D02*
X006396Y018172D01*
X006473Y018094D02*
X008068Y018094D01*
X008145Y018017D02*
X006550Y018017D01*
X006628Y017940D02*
X008222Y017940D01*
X008300Y017862D02*
X006705Y017862D01*
X006782Y017785D02*
X008377Y017785D01*
X008454Y017708D02*
X006860Y017708D01*
X006937Y017631D02*
X008531Y017631D01*
X008609Y017553D02*
X007014Y017553D01*
X007091Y017476D02*
X008686Y017476D01*
X008773Y017642D02*
X006641Y019774D01*
X007696Y019872D02*
X009577Y019872D01*
X009607Y019795D02*
X007773Y019795D01*
X007850Y019717D02*
X009664Y019717D01*
X009762Y019640D02*
X007928Y019640D01*
X008005Y019563D02*
X011099Y019563D01*
X011177Y019485D02*
X008082Y019485D01*
X008159Y019408D02*
X011191Y019408D01*
X011191Y019331D02*
X008237Y019331D01*
X008314Y019254D02*
X011191Y019254D01*
X011369Y019545D02*
X011369Y018725D01*
X011173Y018725D02*
X011173Y018242D01*
X011068Y018094D02*
X010465Y018094D01*
X010465Y018017D02*
X011145Y018017D01*
X011222Y017940D02*
X010465Y017940D01*
X010465Y017862D02*
X011300Y017862D01*
X011377Y017785D02*
X010465Y017785D01*
X010465Y017708D02*
X011454Y017708D01*
X011531Y017631D02*
X010465Y017631D01*
X010090Y017642D02*
X008773Y017642D01*
X009141Y017274D02*
X009750Y016665D01*
X010090Y016658D01*
X010091Y016854D02*
X010521Y016854D01*
X010465Y016858D02*
X012472Y016858D01*
X012395Y016781D02*
X010465Y016781D01*
X010465Y016703D02*
X012318Y016703D01*
X012241Y016626D02*
X010465Y016626D01*
X010465Y016549D02*
X012163Y016549D01*
X012086Y016471D02*
X010465Y016471D01*
X010465Y016394D02*
X012009Y016394D01*
X011931Y016317D02*
X010465Y016317D01*
X010465Y016240D02*
X011854Y016240D01*
X011777Y016162D02*
X010465Y016162D01*
X010465Y016085D02*
X011700Y016085D01*
X012641Y015874D02*
X011641Y014874D01*
X012550Y016935D02*
X010465Y016935D01*
X010465Y017012D02*
X012627Y017012D01*
X013534Y017244D02*
X015131Y017244D01*
X015172Y017167D02*
X013566Y017167D01*
X013577Y017090D02*
X015250Y017090D01*
X010976Y012298D02*
X010976Y012298D01*
X010904Y011989D02*
X009162Y011989D01*
X009177Y011912D02*
X010826Y011912D01*
X010749Y011834D02*
X009177Y011834D01*
X009177Y011757D02*
X010672Y011757D01*
X008880Y011834D02*
X008802Y011834D01*
X008802Y011912D02*
X008880Y011912D01*
X008880Y011989D02*
X008802Y011989D01*
X008505Y011757D02*
X008467Y011757D01*
X007892Y011680D02*
X007220Y011680D01*
X007220Y011757D02*
X007815Y011757D01*
X007738Y011834D02*
X007220Y011834D01*
X007220Y011912D02*
X007687Y011912D01*
X005869Y009670D02*
X005814Y009670D01*
X005807Y009284D02*
X005876Y009284D01*
X005506Y008974D02*
X005341Y008974D01*
X005197Y009670D02*
X005199Y009670D01*
X005341Y009974D02*
X005506Y009974D01*
X005506Y010974D02*
X005341Y010974D01*
X005341Y011974D02*
X005506Y011974D01*
X005506Y012974D02*
X005341Y012974D01*
X004041Y013139D02*
X003876Y013139D01*
X004141Y017974D02*
X004906Y017974D01*
X007891Y021450D02*
X007841Y021500D01*
X007841Y022274D01*
X008105Y022963D02*
X008177Y022963D01*
X008605Y022963D02*
X008677Y022963D01*
X009911Y019872D02*
X009971Y019872D01*
X009971Y019795D02*
X009911Y019795D01*
X009911Y019717D02*
X009971Y019717D01*
X009971Y019640D02*
X009911Y019640D01*
X010121Y019640D02*
X010262Y019640D01*
X009714Y017399D02*
X009269Y017399D01*
X009346Y017321D02*
X009714Y017321D01*
X009714Y017244D02*
X009423Y017244D01*
X009391Y017324D02*
X009661Y017054D01*
X009841Y016874D01*
X010091Y016874D01*
X009661Y017054D02*
X010521Y017054D01*
X009714Y017090D02*
X009578Y017090D01*
X009501Y017167D02*
X009714Y017167D01*
X009714Y017012D02*
X009655Y017012D01*
X004906Y022174D02*
X004906Y022208D01*
X004141Y022974D01*
X020776Y012974D02*
X020941Y012974D01*
X009997Y001942D02*
X009885Y001942D01*
D30*
X004141Y001474D02*
X004141Y002974D01*
X003641Y003474D01*
X003141Y003474D01*
X002141Y004474D01*
X002141Y004974D01*
X002141Y005974D01*
X002141Y006974D01*
X002141Y007974D01*
X002141Y008974D01*
X002141Y009974D01*
X002141Y010974D01*
X002141Y011974D01*
X002141Y012974D01*
X002141Y013974D01*
X002141Y014974D01*
X001141Y013974D02*
X001141Y012974D01*
X001141Y011974D01*
X001141Y010974D01*
X001141Y009974D01*
X001141Y008974D01*
X001141Y007974D01*
X001141Y006974D01*
X001141Y005974D01*
X001141Y004974D01*
X001141Y003974D01*
X002891Y002224D01*
X003141Y002224D01*
X004141Y001474D02*
X003641Y000974D01*
X002141Y000974D01*
X001141Y001974D01*
X001141Y002224D01*
X023141Y002224D02*
X023141Y002474D01*
X024141Y003474D01*
X024141Y004974D01*
X024141Y005974D01*
X024141Y006974D01*
X024141Y007974D01*
X024141Y008974D01*
X024141Y009974D01*
X024141Y010974D01*
X024141Y011974D01*
X024141Y012974D01*
X024141Y013974D01*
X024141Y014974D01*
X025141Y013974D02*
X025141Y012974D01*
X025141Y011974D01*
X025141Y010974D01*
X025141Y009974D01*
X025141Y008974D01*
X025141Y007974D01*
X025141Y006974D01*
X025141Y005974D01*
X025141Y004974D01*
X025141Y002224D01*
D31*
X023141Y014974D02*
X023141Y015974D01*
X023141Y016974D01*
X023141Y017974D01*
X023141Y018974D01*
X023141Y019974D01*
X023141Y020974D01*
X023141Y021974D01*
X023141Y022974D01*
X024141Y022974D02*
X024141Y021974D01*
X024141Y020974D01*
X024141Y019974D01*
X024141Y018974D01*
X024141Y017974D01*
X024141Y016974D01*
X024141Y015974D01*
X025141Y015974D02*
X025141Y016974D01*
X025141Y017974D01*
X025141Y018974D01*
X025141Y019974D01*
X025141Y020974D01*
X025141Y021974D01*
X025141Y022974D01*
X021391Y027950D02*
X021391Y028924D01*
X021041Y029274D01*
X018841Y029274D01*
X017091Y029274D01*
X016191Y030174D01*
X016141Y028774D02*
X016191Y028774D01*
X016241Y028724D01*
X016241Y028074D01*
X017141Y027174D01*
X017841Y027174D01*
X017891Y027224D01*
X017891Y027950D01*
X017841Y027174D02*
X020241Y027174D01*
X020391Y027324D01*
X020391Y027950D01*
X018891Y027950D02*
X018891Y029224D01*
X018841Y029274D01*
X013941Y029274D02*
X013921Y029294D01*
X012361Y030754D02*
X012341Y030774D01*
X010141Y030174D02*
X010091Y030174D01*
X009191Y029274D01*
X008941Y029274D01*
X008891Y029224D01*
X008891Y027950D01*
X009141Y027174D02*
X010041Y028074D01*
X010041Y028724D01*
X010091Y028774D01*
X008941Y029274D02*
X006841Y029274D01*
X006391Y028824D01*
X006391Y027950D01*
X005391Y027950D02*
X005391Y027224D01*
X005441Y027174D01*
X007941Y027174D01*
X009141Y027174D01*
X007941Y027174D02*
X007891Y027224D01*
X007891Y027950D01*
X003141Y022974D02*
X003141Y021974D01*
X003141Y020974D01*
X003141Y019974D01*
X003141Y018974D01*
X003141Y017974D01*
X003141Y016974D01*
X003141Y015974D01*
X003141Y014974D01*
X002141Y015974D02*
X002141Y016974D01*
X002141Y017974D01*
X002141Y018974D01*
X002141Y019974D01*
X002141Y020974D01*
X002141Y021974D01*
X002141Y022974D01*
X001141Y022974D02*
X001141Y021974D01*
X001141Y020974D01*
X001141Y019974D01*
X001141Y018974D01*
X001141Y017974D01*
X001141Y016974D01*
X001141Y015974D01*
D32*
X010091Y028774D02*
X010591Y029274D01*
X011141Y029274D01*
X012541Y029274D01*
X013941Y029274D01*
X015141Y029274D01*
X015641Y029274D01*
X016141Y028774D01*
X016191Y030174D02*
X015591Y030774D01*
X012341Y030774D01*
X010741Y030774D01*
X010141Y030174D01*
X008891Y029997D02*
X008391Y029997D01*
X008141Y029997D01*
X008141Y030574D01*
X007841Y030874D01*
X002741Y030874D01*
X002161Y030294D01*
X002161Y029974D01*
X003721Y029974D02*
X003745Y029997D01*
X004891Y029997D01*
X005391Y029997D01*
X005891Y029997D01*
X006391Y029997D01*
X007391Y029997D02*
X007891Y029997D01*
X008141Y029997D01*
X012361Y029974D02*
X012361Y030754D01*
X013921Y029974D02*
X013921Y029294D01*
X017391Y029997D02*
X017891Y029997D01*
X018141Y029997D01*
X018141Y030574D01*
X018441Y030874D01*
X023441Y030874D01*
X024121Y030294D01*
X024121Y029974D01*
X022561Y029997D02*
X022561Y029974D01*
X022561Y029997D02*
X021391Y029997D01*
X020891Y029997D01*
X020391Y029997D01*
X019891Y029997D01*
X018891Y029997D02*
X018391Y029997D01*
X018141Y029997D01*
D33*
X021341Y027974D02*
X022341Y027974D01*
X024341Y023774D02*
X024141Y023574D01*
X024141Y023074D01*
X002141Y023074D02*
X002141Y023374D01*
X001741Y023774D01*
D34*
X018541Y004474D03*
X019141Y004974D03*
X018541Y003274D03*
X015641Y000974D03*
X010641Y000974D03*
D35*
X011741Y001474D03*
X013841Y002474D03*
X015441Y002274D03*
X012541Y006274D03*
X013541Y006974D03*
X013241Y007374D03*
X013241Y007874D03*
X013241Y008374D03*
X014041Y006974D03*
X014041Y006474D03*
X014741Y006474D03*
X014741Y006874D03*
X015141Y006474D03*
X015941Y007974D03*
X016441Y007974D03*
X016441Y009174D03*
X015941Y009174D03*
X015841Y009974D03*
X015441Y009974D03*
X015441Y011074D03*
X015841Y011074D03*
X015341Y013374D03*
X015341Y013874D03*
X013741Y013474D03*
X012241Y014674D03*
X012541Y015074D03*
X011981Y014004D03*
X010841Y014074D03*
X010841Y013574D03*
X010841Y015274D03*
X010841Y016474D03*
X012013Y017445D03*
X013241Y017074D03*
X013241Y016574D03*
X013841Y016974D03*
X013641Y017874D03*
X015241Y016774D03*
X015241Y016374D03*
X014641Y015874D03*
X015441Y017374D03*
X015441Y017874D03*
X014741Y019674D03*
X014841Y020374D03*
X014341Y020374D03*
X014341Y021774D03*
X013291Y021324D03*
X015441Y024274D03*
X015041Y024674D03*
X015641Y025074D03*
X016041Y025074D03*
X017841Y025874D03*
X018141Y024774D03*
X018141Y024374D03*
X017241Y021274D03*
X017441Y019924D03*
X017841Y019924D03*
X019141Y020874D03*
X022141Y025474D03*
X021341Y026774D03*
X018341Y028674D03*
X013341Y025074D03*
X012941Y025074D03*
X009341Y022274D03*
X008341Y022374D03*
X007841Y022274D03*
X007141Y023174D03*
X007141Y023574D03*
X008641Y025774D03*
X008541Y026674D03*
X008341Y028674D03*
X005741Y028774D03*
X001941Y023674D03*
X001541Y023674D03*
X006941Y018374D03*
X006941Y017974D03*
X006441Y015374D03*
X005371Y014544D03*
X008241Y015274D03*
X009141Y014974D03*
X010841Y018074D03*
X010441Y021024D03*
X010041Y021024D03*
X011041Y011074D03*
X011041Y009974D03*
X010641Y009974D03*
X010241Y009974D03*
X010041Y008574D03*
X010041Y008174D03*
X010641Y006874D03*
X011041Y006874D03*
X011841Y007374D03*
X011841Y007874D03*
X011841Y008374D03*
X008541Y008574D03*
X008541Y008174D03*
X006741Y004374D03*
X006341Y004374D03*
X018941Y005974D03*
X018941Y006374D03*
X024241Y023674D03*
X024641Y023674D03*
D36*
X025141Y015974D02*
X024641Y015474D01*
X023841Y015474D01*
X023641Y015274D01*
X023641Y013474D01*
X022576Y013474D01*
X022241Y013139D01*
X021441Y013808D01*
X021141Y014174D02*
X022241Y014174D01*
X022241Y013808D01*
X022241Y014174D02*
X022941Y014174D01*
X023141Y013974D01*
X023641Y013474D02*
X023641Y011474D01*
X022576Y011474D01*
X022241Y011139D01*
X021441Y011808D01*
X021141Y012174D02*
X022241Y012174D01*
X022241Y011808D01*
X022241Y012174D02*
X022941Y012174D01*
X023141Y011974D01*
X023641Y011474D02*
X023641Y009474D01*
X022576Y009474D01*
X022241Y009139D01*
X021441Y009808D01*
X021141Y010174D02*
X022241Y010174D01*
X022241Y009808D01*
X022241Y010174D02*
X022941Y010174D01*
X023141Y009974D01*
X023641Y009474D02*
X023641Y007474D01*
X022576Y007474D01*
X022241Y007139D01*
X021441Y007808D01*
X021141Y008174D02*
X022241Y008174D01*
X022241Y007808D01*
X022241Y008174D02*
X022941Y008174D01*
X023141Y007974D01*
X023641Y007474D02*
X023641Y005474D01*
X022576Y005474D01*
X022241Y005139D01*
X021441Y005808D01*
X021141Y006174D02*
X022241Y006174D01*
X022241Y005808D01*
X022241Y006174D02*
X022941Y006174D01*
X023141Y005974D01*
X022941Y006774D02*
X023141Y006974D01*
X022941Y006774D02*
X021441Y006774D01*
X021441Y007139D01*
X021441Y006774D02*
X021141Y006774D01*
X020941Y006974D01*
X021141Y006174D02*
X020941Y005974D01*
X021441Y005139D02*
X021441Y004774D01*
X022941Y004774D01*
X023141Y004974D01*
X021441Y004774D02*
X021141Y004774D01*
X020941Y004974D01*
X020941Y007974D02*
X021141Y008174D01*
X021141Y008774D02*
X021441Y008774D01*
X021441Y009139D01*
X021441Y008774D02*
X022941Y008774D01*
X023141Y008974D01*
X022941Y010774D02*
X023141Y010974D01*
X022941Y010774D02*
X021441Y010774D01*
X021441Y011139D01*
X021441Y010774D02*
X021141Y010774D01*
X020941Y010974D01*
X021141Y010174D02*
X020941Y009974D01*
X020941Y008974D02*
X021141Y008774D01*
X018891Y009389D02*
X018706Y009389D01*
X018591Y009274D01*
X018141Y009274D01*
X020941Y011974D02*
X021141Y012174D01*
X021141Y012774D02*
X021441Y012774D01*
X021441Y013139D01*
X021441Y012774D02*
X022941Y012774D01*
X023141Y012974D01*
X021141Y012774D02*
X020941Y012974D01*
X020941Y013974D02*
X021141Y014174D01*
X010491Y015084D02*
X009191Y015084D01*
X009241Y015074D02*
X009141Y014974D01*
X008241Y015274D02*
X007941Y014974D01*
X007641Y014974D01*
X007641Y015574D02*
X007941Y015574D01*
X008241Y015274D01*
X005341Y013974D02*
X005141Y014174D01*
X004041Y014174D01*
X004041Y013808D01*
X004041Y014174D02*
X003341Y014174D01*
X003141Y013974D01*
X002641Y013474D02*
X002641Y015274D01*
X002441Y015474D01*
X001641Y015474D01*
X001141Y015974D01*
X002641Y013474D02*
X003706Y013474D01*
X004041Y013139D01*
X004841Y013808D01*
X004841Y013139D02*
X004841Y012774D01*
X005141Y012774D01*
X005341Y012974D01*
X004841Y012774D02*
X003341Y012774D01*
X003141Y012974D01*
X002641Y013474D02*
X002641Y011474D01*
X002641Y009474D01*
X003741Y009474D01*
X004041Y009174D01*
X004041Y009139D02*
X004841Y009808D01*
X005141Y010174D02*
X004041Y010174D01*
X004041Y009808D01*
X004041Y010174D02*
X003341Y010174D01*
X003141Y009974D01*
X002641Y009474D02*
X002641Y007474D01*
X003741Y007474D01*
X004041Y007174D01*
X004041Y007139D02*
X004841Y007808D01*
X005141Y008174D02*
X004041Y008174D01*
X004041Y007808D01*
X004041Y008174D02*
X003341Y008174D01*
X003141Y007974D01*
X002641Y007474D02*
X002641Y005474D01*
X003706Y005474D01*
X004041Y005139D01*
X004841Y005808D01*
X005141Y006174D02*
X004041Y006174D01*
X004041Y005808D01*
X004041Y006174D02*
X003341Y006174D01*
X003141Y005974D01*
X003341Y006774D02*
X003141Y006974D01*
X003341Y006774D02*
X004841Y006774D01*
X004841Y007139D01*
X004841Y006774D02*
X005141Y006774D01*
X005341Y006974D01*
X005141Y006174D02*
X005341Y005974D01*
X004841Y005139D02*
X004841Y004774D01*
X005141Y004774D01*
X005341Y004974D01*
X004841Y004774D02*
X003341Y004774D01*
X003141Y004974D01*
X005341Y007974D02*
X005141Y008174D01*
X005141Y008774D02*
X004841Y008774D01*
X004841Y009139D01*
X004841Y008774D02*
X003341Y008774D01*
X003141Y008974D01*
X003341Y010774D02*
X003141Y010974D01*
X003341Y010774D02*
X004841Y010774D01*
X004841Y011139D01*
X004841Y010774D02*
X005141Y010774D01*
X005341Y010974D01*
X005141Y010174D02*
X005341Y009974D01*
X005341Y008974D02*
X005141Y008774D01*
X004041Y011139D02*
X003706Y011474D01*
X002641Y011474D01*
X003141Y011974D02*
X003341Y012174D01*
X004041Y012174D01*
X004041Y011808D01*
X004041Y012174D02*
X005141Y012174D01*
X005341Y011974D01*
X004841Y011808D02*
X004041Y011139D01*
X008141Y010674D02*
X008541Y010674D01*
X008841Y010974D01*
X008841Y011039D01*
D37*
X018541Y004474D02*
X018541Y003274D01*
X019741Y003974D02*
X019141Y004574D01*
X019141Y004974D01*
X019741Y003974D02*
X020441Y003974D01*
X021941Y002474D01*
X023141Y002474D01*
D38*
X012941Y002808D02*
X012272Y002139D01*
X012141Y002139D02*
X011341Y002139D01*
X011341Y001874D01*
X011741Y001474D01*
X006041Y014974D02*
X004141Y014974D01*
X006041Y014974D02*
X006441Y015374D01*
X008391Y021450D02*
X008391Y022324D01*
X008341Y022374D01*
X011141Y027307D02*
X011141Y027939D01*
X010706Y027939D01*
X010541Y027774D01*
X011141Y028608D02*
X011141Y029274D01*
X012441Y029174D02*
X012441Y028608D01*
X012441Y029174D02*
X012541Y029274D01*
X012441Y027939D02*
X012206Y027939D01*
X011841Y027574D01*
X012441Y027307D02*
X012441Y027939D01*
X013841Y027939D02*
X013841Y027307D01*
X013841Y027939D02*
X013976Y027939D01*
X014441Y027574D01*
X015141Y027307D02*
X015141Y027939D01*
X015506Y027939D01*
X015641Y027974D01*
X015141Y028608D02*
X015141Y029274D01*
X013941Y029274D02*
X013841Y029174D01*
X013841Y028608D01*
X017441Y028674D02*
X017441Y028000D01*
X017391Y027950D01*
X019841Y028674D02*
X019891Y028724D01*
X019891Y027950D01*
X024141Y029474D02*
X024141Y029954D01*
X024121Y029974D01*
X024141Y029474D02*
X024641Y028974D01*
X024806Y028974D01*
X025476Y028974D02*
X025476Y030139D01*
X025441Y030274D01*
X007441Y028674D02*
X007391Y028724D01*
X007391Y027950D01*
X004891Y027950D02*
X004891Y028624D01*
X004941Y028774D01*
X003721Y029974D02*
X002721Y028974D01*
X001476Y028974D01*
X000806Y028974D02*
X000806Y030239D01*
X000841Y030274D01*
D39*
X002641Y026974D02*
X002841Y026774D01*
X007041Y026774D01*
X006941Y026574D02*
X003241Y026574D01*
X002641Y025974D01*
X005741Y028774D02*
X005891Y028624D01*
X005891Y027950D01*
X008391Y027950D02*
X008391Y028724D01*
X008341Y028674D01*
X008541Y026674D02*
X009106Y026674D01*
X009206Y026574D01*
X009206Y025774D02*
X008641Y025774D01*
X011041Y025239D02*
X011476Y025674D01*
X011515Y025713D01*
X011515Y026441D01*
X011041Y025239D02*
X011041Y021774D01*
X012141Y020674D01*
X012341Y020774D02*
X011241Y021874D01*
X011241Y024674D01*
X011641Y025074D01*
X012176Y025074D01*
X012776Y025674D01*
X012776Y026401D01*
X012815Y026441D01*
X014176Y026401D02*
X014176Y025674D01*
X014041Y025539D01*
X014641Y025074D02*
X014241Y024674D01*
X014241Y022174D01*
X014441Y021374D02*
X015041Y021974D01*
X015041Y024674D01*
X014976Y025074D02*
X014641Y025074D01*
X014976Y025074D02*
X015476Y025574D01*
X015515Y025613D01*
X015515Y026441D01*
X015341Y025639D02*
X015476Y025574D01*
X016041Y024474D02*
X016841Y025274D01*
X016841Y026239D01*
X017176Y026574D01*
X019141Y026574D01*
X019341Y026774D01*
X020441Y026774D01*
X020891Y027224D01*
X020891Y027950D01*
X022106Y027039D02*
X023041Y027974D01*
X023641Y027974D01*
X023641Y026974D02*
X022776Y026974D01*
X022106Y026974D02*
X022106Y026174D01*
X022776Y026174D02*
X022841Y026174D01*
X023091Y025924D01*
X023141Y025974D01*
X023641Y025974D01*
X023091Y025924D02*
X020741Y023574D01*
X018441Y023574D01*
X015641Y020774D01*
X015641Y019974D01*
X014913Y019245D01*
X014913Y018725D01*
X015110Y018725D02*
X015110Y019142D01*
X015841Y019874D01*
X015841Y020674D01*
X018541Y023374D01*
X020841Y023374D01*
X022941Y025474D01*
X023941Y025474D01*
X024241Y025774D01*
X024241Y026674D01*
X023941Y026974D01*
X023841Y026974D01*
X023641Y026974D01*
X022106Y026974D02*
X022106Y027039D01*
X018391Y027950D02*
X018391Y028724D01*
X018341Y028674D01*
X017841Y025874D02*
X017276Y025874D01*
X017176Y025774D01*
X017141Y025739D01*
X017141Y025274D01*
X016241Y024374D01*
X016241Y022074D01*
X014941Y020774D01*
X014141Y020774D01*
X013929Y020561D01*
X013929Y018725D01*
X014125Y018725D02*
X014125Y020158D01*
X014341Y020374D01*
X014041Y020974D02*
X014841Y020974D01*
X016041Y022174D01*
X016041Y024474D01*
X015441Y024274D02*
X015241Y024274D01*
X015241Y021874D01*
X014541Y021174D01*
X013941Y021174D01*
X013535Y020767D01*
X013535Y018725D01*
X013732Y018725D02*
X013732Y020664D01*
X014041Y020974D01*
X013841Y021374D02*
X014441Y021374D01*
X013841Y021374D02*
X013338Y020871D01*
X013338Y018725D01*
X013141Y018725D02*
X013141Y021174D01*
X013291Y021324D01*
X012157Y019389D02*
X012157Y018725D01*
X012354Y018725D02*
X012354Y019286D01*
X012551Y019183D02*
X012551Y018725D01*
X012747Y018725D02*
X012747Y019080D01*
X016192Y016461D02*
X019047Y016468D01*
X020341Y015174D01*
X019741Y015174D02*
X018643Y016271D01*
X016192Y016264D01*
X008641Y016224D02*
X007656Y016224D01*
X007641Y016208D01*
X007641Y014339D02*
X008626Y014339D01*
X008641Y014324D01*
X014176Y026401D02*
X014215Y026441D01*
X012941Y002139D02*
X013141Y001939D01*
X015606Y001939D01*
D40*
X019741Y015174D03*
X020341Y015174D03*
D41*
X014441Y027574D03*
X015641Y027974D03*
X017441Y028674D03*
X019841Y028674D03*
X025441Y030274D03*
X011841Y027574D03*
X010541Y027774D03*
X007441Y028674D03*
X004941Y028774D03*
X000841Y030274D03*
D42*
X018376Y021674D02*
X018376Y021639D01*
X019141Y020874D01*
M02*
