%
M48
M72
T01C0.0157
T02C0.0197
T03C0.0200
T04C0.0236
T05C0.0315
T06C0.0320
T07C0.0354
T08C0.0360
T09C0.0400
T10C0.0470
T11C0.1260
%
T01
X6341Y4374
X6741Y4374
X8541Y8174
X8541Y8574
X10041Y8574
X10041Y8174
X10641Y6874
X11041Y6874
X11841Y7374
X11841Y7874
X11841Y8374
X11041Y9974
X10641Y9974
X10241Y9974
X11041Y11074
X10841Y13574
X10841Y14074
X10841Y15274
X10841Y16474
X12013Y17445
X13241Y17074
X13241Y16574
X13841Y16974
X13641Y17874
X15241Y16774
X15241Y16374
X14641Y15874
X15441Y17374
X15441Y17874
X14741Y19674
X14841Y20374
X14341Y20374
X14341Y21774
X13291Y21324
X15441Y24274
X15041Y24674
X15641Y25074
X16041Y25074
X17841Y25874
X18141Y24774
X18141Y24374
X17241Y21274
X19141Y20874
X22141Y25474
X21341Y26774
X18341Y28674
X13341Y25074
X12941Y25074
X9341Y22274
X8341Y22374
X7841Y22274
X7141Y23174
X7141Y23574
X8641Y25774
X8541Y26674
X8341Y28674
X5741Y28774
X1941Y23674
X1541Y23674
X6941Y18374
X6941Y17974
X6941Y15474
X6941Y15074
X6441Y15374
X4641Y15474
X9241Y15074
X9241Y14674
X10841Y18074
X10441Y21024
X10041Y21024
X12541Y15074
X12241Y14674
X13741Y13474
X15341Y13374
X15341Y13874
X15441Y11074
X15841Y11074
X15841Y9974
X15441Y9974
X15941Y9174
X16441Y9174
X16441Y7974
X15941Y7974
X14741Y6874
X14741Y6474
X15141Y6474
X14041Y6474
X14041Y6974
X13541Y6974
X13241Y7374
X13241Y7874
X13241Y8374
X12541Y6274
X13841Y2474
X15441Y2274
X18941Y5974
X18941Y6374
X11741Y1474
X21641Y15474
X24241Y23674
X24641Y23674
T02
X20341Y15174
X19741Y15174
T03
X17241Y13574
X17241Y13074
X17241Y12574
X17241Y12074
X11441Y19974
X10941Y19974
X10441Y19974
X9941Y19974
T04
X10541Y27774
X11841Y27574
X14441Y27574
X15641Y27974
X17441Y28674
X19841Y28674
X25441Y30274
X7441Y28674
X4941Y28774
X841Y30274
T05
X19141Y4974
X18541Y4474
X18541Y3274
X15641Y974
X10641Y974
T06
X18141Y9274
X18141Y10674
X8641Y14324
X8641Y16224
X8141Y12074
X8141Y10674
X10091Y28774
X10091Y30174
X16191Y30174
X16191Y28774
T07
X16507Y2474
X14775Y2474
T08
X15141Y4474
X15141Y5474
X16141Y5474
X16141Y4474
X14141Y4474
X14141Y5474
X13141Y5474
X13141Y4474
X12141Y4474
X12141Y5474
X11141Y5474
X11141Y4474
X10141Y4474
X10141Y5474
X8641Y5974
X8641Y4974
X7641Y4974
X7641Y5974
X8141Y7474
X9141Y7474
X4141Y14974
X3141Y14974
X2141Y14974
X10641Y22474
X10641Y23474
X11641Y23474
X11641Y22474
X12641Y22474
X12641Y23474
X13641Y23474
X13641Y22474
X14641Y22474
X14641Y23474
X15641Y23474
X15641Y22474
X22141Y14974
X23141Y14974
X24141Y14974
X18141Y7474
X17141Y7474
T09
X23141Y7974
X23141Y8974
X23141Y9974
X23141Y10974
X23141Y11974
X23141Y12974
X23141Y13974
X24141Y13974
X25141Y13974
X25141Y12974
X24141Y12974
X24141Y11974
X25141Y11974
X25141Y10974
X24141Y10974
X24141Y9974
X25141Y9974
X25141Y8974
X24141Y8974
X24141Y7974
X25141Y7974
X25141Y6974
X24141Y6974
X23141Y6974
X23141Y5974
X23141Y4974
X24141Y4974
X24141Y5974
X25141Y5974
X25141Y4974
X25141Y15974
X25141Y16974
X25141Y17974
X24141Y17974
X24141Y16974
X24141Y15974
X23141Y15974
X23141Y16974
X23141Y17974
X23141Y18974
X23141Y19974
X23141Y20974
X23141Y21974
X23141Y22974
X22141Y22974
X22141Y21974
X22141Y20974
X22141Y19974
X22141Y18974
X22141Y17974
X22141Y16974
X22141Y15974
X24141Y18974
X24141Y19974
X24141Y20974
X24141Y21974
X24141Y22974
X25141Y22974
X25141Y21974
X25141Y20974
X25141Y19974
X25141Y18974
X25141Y24974
X25141Y25974
X25141Y26974
X25141Y27974
X23641Y27974
X23641Y26974
X23641Y25974
X23641Y24974
X18141Y19974
X8141Y19974
X4141Y19974
X4141Y20974
X4141Y21974
X4141Y22974
X3141Y22974
X2141Y22974
X2141Y21974
X3141Y21974
X3141Y20974
X2141Y20974
X2141Y19974
X3141Y19974
X3141Y18974
X2141Y18974
X1141Y18974
X1141Y19974
X1141Y20974
X1141Y21974
X1141Y22974
X1141Y24974
X1141Y25974
X1141Y26974
X1141Y27974
X2641Y27974
X2641Y26974
X2641Y25974
X2641Y24974
X4141Y18974
X4141Y17974
X4141Y16974
X4141Y15974
X3141Y15974
X3141Y16974
X3141Y17974
X2141Y17974
X2141Y16974
X2141Y15974
X1141Y15974
X1141Y16974
X1141Y17974
X1141Y13974
X1141Y12974
X2141Y12974
X2141Y13974
X3141Y13974
X3141Y12974
X3141Y11974
X2141Y11974
X2141Y10974
X3141Y10974
X3141Y9974
X2141Y9974
X2141Y8974
X3141Y8974
X3141Y7974
X2141Y7974
X2141Y6974
X3141Y6974
X3141Y5974
X2141Y5974
X2141Y4974
X3141Y4974
X1141Y4974
X1141Y5974
X1141Y6974
X1141Y7974
X1141Y8974
X1141Y9974
X1141Y10974
X1141Y11974
T10
X1141Y2224
X3141Y2224
X23141Y2224
X25141Y2224
X24121Y29974
X22561Y29974
X13921Y29974
X12361Y29974
X3721Y29974
X2161Y29974
T11
X6141Y25224
X20141Y25224
X20141Y1724
X6141Y1724
M30
