G75*
G70*
%OFA0B0*%
%FSLAX24Y24*%
%IPPOS*%
%LPD*%
%AMOC8*
5,1,8,0,0,1.08239X$1,22.5*
%
%ADD10C,0.0700*%
%ADD11R,0.0552X0.0206*%
%ADD12R,0.0206X0.0552*%
%ADD13OC8,0.0640*%
%ADD14C,0.0600*%
%ADD15R,0.0474X0.0513*%
%ADD16R,0.0680X0.0680*%
%ADD17C,0.0680*%
%ADD18C,0.0785*%
%ADD19R,0.0513X0.0474*%
%ADD20R,0.0640X0.0640*%
%ADD21C,0.0640*%
%ADD22C,0.1340*%
%ADD23R,0.0277X0.1064*%
%ADD24R,0.0867X0.1064*%
%ADD25C,0.0434*%
%ADD26C,0.0480*%
%ADD27R,0.0480X0.0480*%
%ADD28R,0.0316X0.0946*%
%ADD29OC8,0.0785*%
%ADD30R,0.0474X0.0631*%
%ADD31OC8,0.0710*%
%ADD32C,0.0710*%
%ADD33C,0.0820*%
%ADD34C,0.0631*%
%ADD35C,0.0474*%
%ADD36C,0.0513*%
%ADD37C,0.0552*%
D10*
X001141Y001974D02*
X002141Y000974D01*
X003641Y000974D01*
X004141Y001474D01*
X004141Y002974D01*
X003641Y003474D01*
X003141Y003474D01*
X002141Y004474D01*
X002141Y013974D01*
X001141Y013974D02*
X001141Y003974D01*
X002941Y002174D01*
X003141Y002174D01*
X001141Y002274D02*
X001141Y001974D01*
X023141Y002174D02*
X023141Y002474D01*
X024141Y003474D01*
X024141Y013974D01*
X025141Y013974D02*
X025141Y002174D01*
D11*
X016192Y013311D03*
X016192Y013508D03*
X016192Y013705D03*
X016192Y013902D03*
X016192Y014099D03*
X016192Y014296D03*
X016192Y014493D03*
X016192Y014689D03*
X016192Y014886D03*
X016192Y015083D03*
X016192Y015280D03*
X016192Y015477D03*
X016192Y015674D03*
X016192Y015871D03*
X016192Y016067D03*
X016192Y016264D03*
X016192Y016461D03*
X016192Y016658D03*
X016192Y016855D03*
X016192Y017052D03*
X016192Y017249D03*
X016192Y017445D03*
X016192Y017642D03*
X016192Y017839D03*
X016192Y018036D03*
X010090Y018036D03*
X010090Y017839D03*
X010090Y017642D03*
X010090Y017445D03*
X010090Y017249D03*
X010090Y017052D03*
X010090Y016855D03*
X010090Y016658D03*
X010090Y016461D03*
X010090Y016264D03*
X010090Y016067D03*
X010090Y015871D03*
X010090Y015674D03*
X010090Y015477D03*
X010090Y015280D03*
X010090Y015083D03*
X010090Y014886D03*
X010090Y014689D03*
X010090Y014493D03*
X010090Y014296D03*
X010090Y014099D03*
X010090Y013902D03*
X010090Y013705D03*
X010090Y013508D03*
X010090Y013311D03*
D12*
X010779Y012623D03*
X010976Y012623D03*
X011173Y012623D03*
X011369Y012623D03*
X011566Y012623D03*
X011763Y012623D03*
X011960Y012623D03*
X012157Y012623D03*
X012354Y012623D03*
X012551Y012623D03*
X012747Y012623D03*
X012944Y012623D03*
X013141Y012623D03*
X013338Y012623D03*
X013535Y012623D03*
X013732Y012623D03*
X013929Y012623D03*
X014125Y012623D03*
X014322Y012623D03*
X014519Y012623D03*
X014716Y012623D03*
X014913Y012623D03*
X015110Y012623D03*
X015306Y012623D03*
X015503Y012623D03*
X015503Y018725D03*
X015306Y018725D03*
X015110Y018725D03*
X014913Y018725D03*
X014716Y018725D03*
X014519Y018725D03*
X014322Y018725D03*
X014125Y018725D03*
X013929Y018725D03*
X013732Y018725D03*
X013535Y018725D03*
X013338Y018725D03*
X013141Y018725D03*
X012944Y018725D03*
X012747Y018725D03*
X012551Y018725D03*
X012354Y018725D03*
X012157Y018725D03*
X011960Y018725D03*
X011763Y018725D03*
X011566Y018725D03*
X011369Y018725D03*
X011173Y018725D03*
X010976Y018725D03*
X010779Y018725D03*
D13*
X010641Y022474D03*
X010641Y023474D03*
X011641Y023474D03*
X011641Y022474D03*
X012641Y022474D03*
X012641Y023474D03*
X013641Y023474D03*
X013641Y022474D03*
X014641Y022474D03*
X014641Y023474D03*
X015641Y023474D03*
X015641Y022474D03*
X008641Y005974D03*
X008641Y004974D03*
X007641Y004974D03*
X007641Y005974D03*
X010141Y005474D03*
X010141Y004474D03*
X011141Y004474D03*
X011141Y005474D03*
X012141Y005474D03*
X012141Y004474D03*
X013141Y004474D03*
X013141Y005474D03*
X014141Y005474D03*
X014141Y004474D03*
X015141Y004474D03*
X015141Y005474D03*
X016141Y005474D03*
X016141Y004474D03*
D14*
X008641Y014324D03*
X008641Y016224D03*
D15*
X007641Y016208D03*
X007641Y015539D03*
X007641Y015008D03*
X007641Y014339D03*
X006176Y013974D03*
X005506Y013974D03*
X005506Y012974D03*
X006176Y012974D03*
X006176Y011974D03*
X005506Y011974D03*
X005506Y010974D03*
X006176Y010974D03*
X006176Y009974D03*
X005506Y009974D03*
X005506Y008974D03*
X006176Y008974D03*
X006176Y007974D03*
X005506Y007974D03*
X005506Y006974D03*
X006176Y006974D03*
X006176Y005974D03*
X005506Y005974D03*
X005506Y004974D03*
X006176Y004974D03*
X009606Y003074D03*
X010276Y003074D03*
X010276Y002274D03*
X009606Y002274D03*
X020106Y004974D03*
X020776Y004974D03*
X020776Y005974D03*
X020106Y005974D03*
X020106Y006974D03*
X020776Y006974D03*
X020776Y007974D03*
X020106Y007974D03*
X020106Y008974D03*
X020776Y008974D03*
X020776Y009974D03*
X020106Y009974D03*
X020106Y010974D03*
X020776Y010974D03*
X020776Y011974D03*
X020106Y011974D03*
X020106Y012974D03*
X020776Y012974D03*
X020776Y013974D03*
X020106Y013974D03*
X020706Y015974D03*
X021376Y015974D03*
X021376Y016974D03*
X020706Y016974D03*
X020706Y017974D03*
X021376Y017974D03*
X021376Y018974D03*
X020706Y018974D03*
X020706Y019974D03*
X021376Y019974D03*
X021376Y020974D03*
X020706Y020974D03*
X020706Y021974D03*
X021376Y021974D03*
X021376Y022974D03*
X020706Y022974D03*
X018376Y021674D03*
X018376Y020874D03*
X017706Y020874D03*
X017706Y021674D03*
X015476Y025574D03*
X014806Y025574D03*
X014176Y025674D03*
X013506Y025674D03*
X012776Y025674D03*
X012106Y025674D03*
X011476Y025674D03*
X010806Y025674D03*
X009876Y025774D03*
X009206Y025774D03*
X009206Y026574D03*
X009876Y026574D03*
X005576Y022974D03*
X004906Y022974D03*
X004906Y021974D03*
X005576Y021974D03*
X005576Y020974D03*
X004906Y020974D03*
X004906Y019974D03*
X005576Y019974D03*
X005576Y018974D03*
X004906Y018974D03*
X004906Y017974D03*
X005576Y017974D03*
X005576Y016974D03*
X004906Y016974D03*
X004906Y015974D03*
X005576Y015974D03*
X001476Y028974D03*
X000806Y028974D03*
X016506Y026574D03*
X017176Y026574D03*
X017176Y025774D03*
X016506Y025774D03*
X022106Y026174D03*
X022776Y026174D03*
X022776Y026974D03*
X022106Y026974D03*
X024806Y028974D03*
X025476Y028974D03*
D16*
X025141Y024974D03*
X023641Y024974D03*
X023141Y022974D03*
X022141Y022974D03*
X024141Y022974D03*
X025141Y022974D03*
X025141Y013974D03*
X024141Y013974D03*
X023141Y013974D03*
X004141Y022974D03*
X003141Y022974D03*
X002141Y022974D03*
X001141Y022974D03*
X001141Y024974D03*
X002641Y027974D03*
X002141Y013974D03*
X003141Y013974D03*
X001141Y013974D03*
D17*
X001141Y012974D03*
X002141Y012974D03*
X003141Y012974D03*
X003141Y011974D03*
X002141Y011974D03*
X002141Y010974D03*
X003141Y010974D03*
X003141Y009974D03*
X002141Y009974D03*
X002141Y008974D03*
X003141Y008974D03*
X003141Y007974D03*
X002141Y007974D03*
X002141Y006974D03*
X003141Y006974D03*
X003141Y005974D03*
X002141Y005974D03*
X002141Y004974D03*
X003141Y004974D03*
X001141Y004974D03*
X001141Y005974D03*
X001141Y006974D03*
X001141Y007974D03*
X001141Y008974D03*
X001141Y009974D03*
X001141Y010974D03*
X001141Y011974D03*
X001141Y015974D03*
X001141Y016974D03*
X001141Y017974D03*
X001141Y018974D03*
X001141Y019974D03*
X001141Y020974D03*
X001141Y021974D03*
X002141Y021974D03*
X003141Y021974D03*
X003141Y020974D03*
X002141Y020974D03*
X002141Y019974D03*
X003141Y019974D03*
X003141Y018974D03*
X002141Y018974D03*
X002141Y017974D03*
X003141Y017974D03*
X003141Y016974D03*
X002141Y016974D03*
X002141Y015974D03*
X003141Y015974D03*
X004141Y015974D03*
X004141Y016974D03*
X004141Y017974D03*
X004141Y018974D03*
X004141Y019974D03*
X004141Y020974D03*
X004141Y021974D03*
X002641Y024974D03*
X002641Y025974D03*
X002641Y026974D03*
X001141Y026974D03*
X001141Y027974D03*
X001141Y025974D03*
X022141Y021974D03*
X022141Y020974D03*
X022141Y019974D03*
X022141Y018974D03*
X023141Y018974D03*
X023141Y019974D03*
X023141Y020974D03*
X023141Y021974D03*
X024141Y021974D03*
X025141Y021974D03*
X025141Y020974D03*
X024141Y020974D03*
X024141Y019974D03*
X025141Y019974D03*
X025141Y018974D03*
X024141Y018974D03*
X024141Y017974D03*
X025141Y017974D03*
X025141Y016974D03*
X024141Y016974D03*
X024141Y015974D03*
X025141Y015974D03*
X023141Y015974D03*
X023141Y016974D03*
X023141Y017974D03*
X022141Y017974D03*
X022141Y016974D03*
X022141Y015974D03*
X023141Y012974D03*
X024141Y012974D03*
X025141Y012974D03*
X025141Y011974D03*
X024141Y011974D03*
X024141Y010974D03*
X025141Y010974D03*
X025141Y009974D03*
X024141Y009974D03*
X024141Y008974D03*
X025141Y008974D03*
X025141Y007974D03*
X024141Y007974D03*
X024141Y006974D03*
X025141Y006974D03*
X025141Y005974D03*
X024141Y005974D03*
X024141Y004974D03*
X025141Y004974D03*
X023141Y004974D03*
X023141Y005974D03*
X023141Y006974D03*
X023141Y007974D03*
X023141Y008974D03*
X023141Y009974D03*
X023141Y010974D03*
X023141Y011974D03*
X023641Y025974D03*
X023641Y026974D03*
X023641Y027974D03*
X025141Y027974D03*
X025141Y026974D03*
X025141Y025974D03*
D18*
X001141Y002576D02*
X001141Y001871D01*
X003141Y001871D02*
X003141Y002576D01*
X023141Y002576D02*
X023141Y001871D01*
X025141Y001871D02*
X025141Y002576D01*
D19*
X022241Y005139D03*
X022241Y005808D03*
X021441Y005808D03*
X021441Y005139D03*
X021441Y007139D03*
X021441Y007808D03*
X022241Y007808D03*
X022241Y007139D03*
X022241Y009139D03*
X022241Y009808D03*
X021441Y009808D03*
X021441Y009139D03*
X021441Y011139D03*
X021441Y011808D03*
X022241Y011808D03*
X022241Y011139D03*
X022241Y013139D03*
X022241Y013808D03*
X021441Y013808D03*
X021441Y013139D03*
X012941Y002808D03*
X012941Y002139D03*
X012141Y002139D03*
X012141Y002808D03*
X011341Y002808D03*
X011341Y002139D03*
X004841Y005139D03*
X004841Y005808D03*
X004041Y005808D03*
X004041Y005139D03*
X004041Y007139D03*
X004041Y007808D03*
X004841Y007808D03*
X004841Y007139D03*
X004841Y009139D03*
X004841Y009808D03*
X004041Y009808D03*
X004041Y009139D03*
X004041Y011139D03*
X004041Y011808D03*
X004841Y011808D03*
X004841Y011139D03*
X004841Y013139D03*
X004841Y013808D03*
X004041Y013808D03*
X004041Y013139D03*
X009341Y024439D03*
X009341Y025108D03*
X011141Y027939D03*
X011141Y028608D03*
X012441Y028608D03*
X012441Y027939D03*
X013841Y027939D03*
X013841Y028608D03*
X015141Y028608D03*
X015141Y027939D03*
D20*
X022141Y014974D03*
X017141Y007474D03*
X009141Y007474D03*
X004141Y014974D03*
D21*
X003141Y014974D03*
X002141Y014974D03*
X008141Y007474D03*
X018141Y007474D03*
X023141Y014974D03*
X024141Y014974D03*
D22*
X020141Y025224D03*
X006141Y025224D03*
X006141Y001724D03*
X020141Y001724D03*
D23*
X016271Y003458D03*
X015956Y003458D03*
X015641Y003458D03*
X015326Y003458D03*
X015011Y003458D03*
D24*
X013869Y003458D03*
X013869Y001293D03*
X017413Y001293D03*
X017413Y003458D03*
D25*
X016507Y002474D03*
X014775Y002474D03*
D26*
X017241Y012574D03*
X017241Y013074D03*
X017241Y013574D03*
X011441Y019974D03*
X010941Y019974D03*
X010441Y019974D03*
D27*
X009941Y019974D03*
X017241Y012074D03*
D28*
X009391Y021450D03*
X008891Y021450D03*
X008391Y021450D03*
X007891Y021450D03*
X007891Y023497D03*
X008391Y023497D03*
X008891Y023497D03*
X009391Y023497D03*
X008891Y027950D03*
X008391Y027950D03*
X007891Y027950D03*
X007391Y027950D03*
X006391Y027950D03*
X005891Y027950D03*
X005391Y027950D03*
X004891Y027950D03*
X004891Y029997D03*
X005391Y029997D03*
X005891Y029997D03*
X006391Y029997D03*
X007391Y029997D03*
X007891Y029997D03*
X008391Y029997D03*
X008891Y029997D03*
X017391Y029997D03*
X017891Y029997D03*
X018391Y029997D03*
X018891Y029997D03*
X019891Y029997D03*
X020391Y029997D03*
X020891Y029997D03*
X021391Y029997D03*
X021391Y027950D03*
X020891Y027950D03*
X020391Y027950D03*
X019891Y027950D03*
X018891Y027950D03*
X018391Y027950D03*
X017891Y027950D03*
X017391Y027950D03*
D29*
X013921Y029974D03*
X012361Y029974D03*
X003721Y029974D03*
X002161Y029974D03*
X022561Y029974D03*
X024121Y029974D03*
D30*
X015515Y026441D03*
X014767Y026441D03*
X014215Y026441D03*
X013467Y026441D03*
X012815Y026441D03*
X012067Y026441D03*
X011515Y026441D03*
X010767Y026441D03*
X011141Y027307D03*
X012441Y027307D03*
X013841Y027307D03*
X015141Y027307D03*
D31*
X016191Y030174D03*
X010091Y030174D03*
X008141Y012074D03*
X018141Y010674D03*
D32*
X018141Y009274D03*
X008141Y010674D03*
X010091Y028774D03*
X016191Y028774D03*
D33*
X018141Y019974D03*
X008141Y019974D03*
D34*
X019141Y004974D03*
X018541Y004474D03*
X018541Y003274D03*
X015641Y000974D03*
X010641Y000974D03*
D35*
X011741Y001474D03*
X013841Y002474D03*
X015441Y002274D03*
X012541Y006274D03*
X013541Y006974D03*
X013241Y007374D03*
X013241Y007874D03*
X013241Y008374D03*
X014041Y006974D03*
X014041Y006474D03*
X014741Y006474D03*
X014741Y006874D03*
X015141Y006474D03*
X015941Y007974D03*
X016441Y007974D03*
X016441Y009174D03*
X015941Y009174D03*
X015841Y009974D03*
X015441Y009974D03*
X015441Y011074D03*
X015841Y011074D03*
X015341Y013374D03*
X015341Y013874D03*
X013741Y013474D03*
X012241Y014674D03*
X012541Y015074D03*
X013241Y016574D03*
X013241Y017074D03*
X013841Y016974D03*
X013641Y017874D03*
X012013Y017445D03*
X010841Y018074D03*
X010841Y016474D03*
X010841Y015274D03*
X010841Y014074D03*
X010841Y013574D03*
X009241Y014674D03*
X009241Y015074D03*
X006941Y015074D03*
X006941Y015474D03*
X006441Y015374D03*
X004641Y015474D03*
X006941Y017974D03*
X006941Y018374D03*
X010041Y021024D03*
X010441Y021024D03*
X009341Y022274D03*
X008341Y022374D03*
X007841Y022274D03*
X007141Y023174D03*
X007141Y023574D03*
X008641Y025774D03*
X008541Y026674D03*
X008341Y028674D03*
X005741Y028774D03*
X001941Y023674D03*
X001541Y023674D03*
X011041Y011074D03*
X011041Y009974D03*
X010641Y009974D03*
X010241Y009974D03*
X010041Y008574D03*
X010041Y008174D03*
X010641Y006874D03*
X011041Y006874D03*
X011841Y007374D03*
X011841Y007874D03*
X011841Y008374D03*
X008541Y008574D03*
X008541Y008174D03*
X006741Y004374D03*
X006341Y004374D03*
X014641Y015874D03*
X015241Y016374D03*
X015241Y016774D03*
X015441Y017374D03*
X015441Y017874D03*
X014741Y019674D03*
X014841Y020374D03*
X014341Y020374D03*
X014341Y021774D03*
X013291Y021324D03*
X015441Y024274D03*
X015041Y024674D03*
X015641Y025074D03*
X016041Y025074D03*
X017841Y025874D03*
X018141Y024774D03*
X018141Y024374D03*
X017241Y021274D03*
X019141Y020874D03*
X022141Y025474D03*
X021341Y026774D03*
X018341Y028674D03*
X013341Y025074D03*
X012941Y025074D03*
X021641Y015474D03*
X024241Y023674D03*
X024641Y023674D03*
X018941Y006374D03*
X018941Y005974D03*
D36*
X019741Y015174D03*
X020341Y015174D03*
D37*
X014441Y027574D03*
X015641Y027974D03*
X017441Y028674D03*
X019841Y028674D03*
X025441Y030274D03*
X011841Y027574D03*
X010541Y027774D03*
X007441Y028674D03*
X004941Y028774D03*
X000841Y030274D03*
M02*
